<svg width="32" height="32" viewBox="0 0 32 32" fill="none" xmlns="http://www.w3.org/2000/svg">
<rect width="32" height="32" rx="8" fill="#2F6295"/>
<path d="M16.0443 18.2924C16.0443 18.5065 16.2164 18.6786 16.4305 18.6786H17.161C17.3751 18.6786 17.5472 18.5023 17.5472 18.2924V17.562C17.5472 17.3479 17.3709 17.1758 17.161 17.1758H16.4305C16.2164 17.1758 16.0443 17.3521 16.0443 17.562V18.2924Z" fill="white"/>
<path d="M14.7136 18.6786C14.9277 18.6786 15.0998 18.5023 15.0998 18.2924V17.562C15.0998 17.3479 14.9235 17.1758 14.7136 17.1758H13.9831C13.769 17.1758 13.5969 17.3521 13.5969 17.562V18.2924C13.5969 18.5065 13.769 18.6786 13.9831 18.6786H14.7136Z" fill="white"/>
<path d="M16.4305 19.627C16.2164 19.627 16.0443 19.8033 16.0443 20.0132V20.7436C16.0443 20.9577 16.2164 21.1298 16.4305 21.1298H17.161C17.3751 21.1298 17.5472 20.9535 17.5472 20.7436V20.0132C17.5472 19.7991 17.3709 19.627 17.161 19.627H16.4305Z" fill="white"/>
<path d="M15.0998 20.0132C15.0998 19.7991 14.9235 19.627 14.7136 19.627H13.9831C13.769 19.627 13.5969 19.8033 13.5969 20.0132V20.7436C13.5969 20.9577 13.769 21.1298 13.9831 21.1298H14.7136C14.9277 21.1298 15.0998 20.9535 15.0998 20.7436V20.0132Z" fill="white"/>
<path d="M25.9682 15.0476L16.1031 6.19835C15.8092 5.93388 15.3349 5.93388 15.041 6.19835L12.0773 8.85984V7.96148C12.0773 7.66763 11.838 7.42415 11.5399 7.42415H10.5576C10.2638 7.42415 10.0203 7.66343 10.0203 7.96148V10.6985L5.17586 15.0476C4.88201 15.3121 4.96597 15.5262 5.35637 15.5262H6.28831C6.68292 15.5262 7.00196 15.8494 7.00196 16.2398V25.2864C7.00196 25.681 7.32101 26 7.71561 26H9.20588V18.6452C9.20588 15.1316 12.0563 12.2812 15.5699 12.2812C19.0878 12.2812 21.934 15.1316 21.934 18.6452C21.934 22.1589 19.0836 25.0051 15.5699 25.0093C14.2602 25.0135 13.0638 24.4971 13.0638 24.4971L10.7255 26H23.4243C23.8189 26 24.1379 25.681 24.1379 25.2864V16.2398C24.1379 15.8452 24.4612 15.5262 24.8516 15.5262H25.7835C26.1781 15.5262 26.2579 15.3079 25.9682 15.0476Z" fill="white"/>
</svg>
