<svg width="184" height="110" viewBox="0 0 184 110" fill="none" xmlns="http://www.w3.org/2000/svg">
<g clip-path="url(#clip0_103_3094)">
<rect y="0.5" width="184" height="109" rx="8" fill="white"/>
<path fill-rule="evenodd" clip-rule="evenodd" d="M92.8004 10.0294C101.816 9.26511 109.437 15.8561 115.913 22.1744C122.493 28.5944 129.176 36.0974 128.936 45.2872C128.7 54.3392 121.385 61.0764 114.737 67.2236C108.438 73.047 101.344 77.9286 92.8004 78.6968C83.4048 79.5416 73.5734 77.8332 66.5296 71.5582C59.137 64.9724 53.8486 55.0812 55.2974 45.2872C56.6432 36.1896 66.6 32.0866 73.3004 25.7872C79.63 19.8365 84.1438 10.7633 92.8004 10.0294Z" fill="url(#paint0_linear_103_3094)" fill-opacity="0.59"/>
<mask id="mask0_103_3094" style="mask-type:alpha" maskUnits="userSpaceOnUse" x="39" y="10" width="90" height="69">
<path fill-rule="evenodd" clip-rule="evenodd" d="M92.0144 10.0763C101.03 9.31201 108.652 15.903 115.127 22.2214C121.707 28.6414 128.39 36.1442 128.15 45.3342C127.914 54.386 120.599 61.1232 113.951 67.2704C107.652 73.0938 100.558 77.9754 92.0144 78.7436C86.7562 79.2164 78.3534 78.1068 59.5938 76.7188C65.5938 61.5938 42.9455 66.232 39.8438 63.4688C41.2188 54.2188 40.844 54.9688 42.4689 42.4688C46.9456 34.8096 65.814 32.1334 72.5144 25.8342C78.844 19.8834 83.3578 10.8102 92.0144 10.0763Z" fill="#C4C4C4"/>
</mask>
<g mask="url(#mask0_103_3094)">
<path d="M99.0114 40.0387H82.472C82.354 40.0385 82.2378 40.0105 82.1326 39.9571C82.0276 39.9035 81.9364 39.8261 81.8668 39.7309C81.7972 39.6357 81.7508 39.5255 81.7316 39.4091C81.7126 39.2927 81.721 39.1735 81.7564 39.0609C82.3846 37.0823 84.4226 35.9545 86.3996 35.3263C89.224 34.4277 92.2578 34.4277 95.0822 35.3263C97.0608 35.9545 99.0988 37.0741 99.727 39.0609C99.7624 39.1735 99.7708 39.2927 99.7516 39.4091C99.7326 39.5255 99.6862 39.6357 99.6166 39.7309C99.547 39.8261 99.4558 39.9035 99.3506 39.9571C99.2456 40.0105 99.1294 40.0385 99.0114 40.0387Z" fill="#F6C5C1"/>
<path d="M101.969 52.4977C98.8359 52.9923 95.6931 53.4457 92.5193 53.5365C88.1469 53.6635 83.7819 53.0987 79.5859 51.8629C80.0509 48.1909 81.4555 44.3475 82.0079 42.9377C82.0589 42.7817 82.1559 42.6445 82.2863 42.5447C82.4167 42.4449 82.5743 42.3871 82.7383 42.3789H98.7501C98.9137 42.3869 99.0711 42.4445 99.2013 42.5439C99.3315 42.6435 99.4283 42.7803 99.4789 42.9361C100.059 44.4201 101.588 48.5999 101.967 52.4383C101.965 52.4581 101.969 52.4845 101.969 52.4977Z" fill="#E5E0D7"/>
<path d="M91.2889 53.9082C87.2933 53.9088 83.3185 53.3346 79.4865 52.2032L79.1963 52.1176L79.2343 51.8174C79.7009 48.1306 81.0975 44.289 81.6779 42.8082C81.7551 42.586 81.8975 42.392 82.0867 42.252C82.2759 42.112 82.5029 42.0324 82.7381 42.0234H98.7499C98.9849 42.0304 99.2123 42.109 99.4013 42.2486C99.5905 42.3882 99.7325 42.5824 99.8083 42.805C100.438 44.4142 101.942 48.5758 102.319 52.4028V52.4308V52.472L102.343 52.8018L102.021 52.853C98.8471 53.3476 95.7325 53.8026 92.5255 53.895C92.1155 53.9026 91.7033 53.907 91.2889 53.9082ZM79.9779 51.5998C84.0485 52.7684 88.2757 53.2992 92.5091 53.1728C95.5627 53.0854 98.5469 52.6634 101.577 52.1834C101.167 48.5198 99.7441 44.5988 99.1407 43.0474C99.1141 42.9592 99.0619 42.8808 98.9909 42.822C98.9199 42.7634 98.8331 42.727 98.7415 42.7176H82.7331C82.6413 42.7272 82.5545 42.7636 82.4831 42.8222C82.4119 42.8808 82.3595 42.9592 82.3325 43.0474C81.7833 44.4818 80.4693 48.091 79.9779 51.608V51.5998Z" fill="#B0C9B5"/>
<path d="M102.022 53.1718C100.36 54.5518 98.2296 55.368 96.0862 55.7474C93.4744 56.2106 90.8018 56.077 88.1538 55.9584L79.5172 55.5444C79.385 54.3182 79.406 53.0804 79.5798 51.8594C83.7758 53.0952 88.1408 53.66 92.5132 53.533C95.6872 53.4422 98.8298 52.9856 101.963 52.4942C101.992 52.7218 102.009 52.9492 102.022 53.1718Z" fill="#748E7B"/>
<path d="M91.8452 56.4415C90.602 56.4415 89.3638 56.3821 88.1452 56.3227L79.212 55.8957L79.174 55.6005C79.037 54.3449 79.0582 53.0769 79.2366 51.8263L79.2894 51.4141L79.6884 51.5313C83.8478 52.7601 88.1762 53.3201 92.5114 53.1899C95.6772 53.0993 98.767 52.6491 101.91 52.1561L102.281 52.0985L102.317 52.4711C102.34 52.6903 102.357 52.9229 102.371 53.1635L102.381 53.3433L102.243 53.4571C100.666 54.7645 98.5592 55.6813 96.142 56.1083C94.7224 56.3449 93.2846 56.4565 91.8452 56.4415ZM79.8434 55.2163L88.1782 55.6153C90.7702 55.7407 93.4546 55.8693 96.0316 55.4109C98.251 55.0169 100.192 54.1941 101.659 53.0235C101.659 52.9871 101.659 52.9509 101.651 52.9145C98.607 53.3879 95.6112 53.8099 92.5312 53.9039C88.2622 54.0305 83.9992 53.5005 79.8912 52.3325C79.7798 53.2871 79.7638 54.2503 79.8434 55.2081V55.2163Z" fill="#637A6A"/>
<path d="M101.959 55.583C101.65 57.8914 99.98 59.5914 98.0444 59.5914H83.4406C81.5016 59.5914 79.8346 57.8996 79.5264 55.583C79.5264 55.5716 79.5264 55.5584 79.5264 55.5484L88.163 55.9622C90.811 56.0892 93.4836 56.2146 96.0954 55.7512C98.2388 55.372 100.363 54.5558 102.031 53.1758C102.082 53.9788 102.058 54.7846 101.959 55.583Z" fill="#637A6A"/>
<path d="M98.0453 59.946H83.4415C81.2981 59.946 79.5091 58.1322 79.1761 55.6294L79.1201 55.1744L88.1771 55.608C90.7689 55.7332 93.4533 55.8618 96.0303 55.4034C98.3205 54.9978 100.317 54.1338 101.801 52.9038L102.341 52.457L102.382 53.1562C102.437 53.9808 102.415 54.8088 102.316 55.6294C101.978 58.1306 100.184 59.946 98.0453 59.946ZM79.9445 55.9228C80.3467 57.8636 81.7697 59.237 83.4415 59.237H98.0453C99.8243 59.237 101.323 57.6806 101.607 55.537C101.677 54.9866 101.706 54.4316 101.694 53.8766C100.192 54.9582 98.2925 55.7218 96.1541 56.101C93.4929 56.5726 90.7739 56.4422 88.1441 56.3152L79.9445 55.9228Z" fill="#637A6A"/>
<path d="M98.481 40.0391V41.0483L83.0068 41.1571V40.0391H98.481Z" fill="#A56869"/>
<path d="M98.481 41.0508V42.3798H83.0068V41.1596L98.481 41.0508Z" fill="#DE9B9E"/>
<path d="M94.4404 36.0813C94.4404 36.3237 94.0958 36.5183 93.6704 36.5183C93.245 36.5183 92.9004 36.3237 92.9004 36.0813C92.9004 35.8389 93.245 35.6445 93.6704 35.6445C94.0958 35.6445 94.4404 35.8407 94.4404 36.0813Z" fill="#A56869"/>
<path d="M95.518 37.3894C95.9432 37.3894 96.288 37.1938 96.288 36.9526C96.288 36.7112 95.9432 36.5156 95.518 36.5156C95.0928 36.5156 94.748 36.7112 94.748 36.9526C94.748 37.1938 95.0928 37.3894 95.518 37.3894Z" fill="#A56869"/>
<path d="M94.1556 37.4641C94.1556 37.7049 93.811 37.8995 93.3856 37.8995C92.9602 37.8995 92.6172 37.7049 92.6172 37.4641C92.6172 37.2235 92.9618 37.0273 93.3856 37.0273C93.8092 37.0273 94.1556 37.2219 94.1556 37.4641Z" fill="#A56869"/>
<path d="M74.7276 39.8808H58.1882C58.0704 39.8804 57.9544 39.8526 57.8496 39.7992C57.7446 39.7458 57.6536 39.6684 57.5842 39.5734C57.5146 39.4784 57.4684 39.3682 57.4494 39.2522C57.4302 39.136 57.4388 39.0168 57.4742 38.9046C58.1024 36.9178 60.142 35.7982 62.119 35.17C64.943 34.2714 67.9762 34.2714 70.8 35.17C72.7786 35.7982 74.8166 36.9178 75.4448 38.9046C75.4804 39.0172 75.4888 39.1364 75.4696 39.253C75.4502 39.3694 75.4038 39.4796 75.334 39.5748C75.264 39.6698 75.1728 39.747 75.0674 39.8002C74.962 39.8534 74.8456 39.881 74.7276 39.8808Z" fill="#F6C5C1"/>
<path d="M76.8719 47.9441C72.9477 47.7249 69.1751 50.3103 65.2245 49.9739C63.2937 49.8089 61.4965 48.9533 59.6037 48.5329C58.3919 48.2607 57.0431 48.2031 55.8857 48.5889C56.3701 46.6149 56.9843 44.6749 57.7241 42.7817C57.7751 42.6257 57.8723 42.4887 58.0027 42.3889C58.1331 42.2893 58.2905 42.2313 58.4545 42.2227H74.4629C74.6265 42.2307 74.7839 42.2881 74.9143 42.3873C75.0447 42.4865 75.1419 42.6229 75.1933 42.7785C75.8517 44.4667 76.4121 46.1915 76.8719 47.9441Z" fill="#E5E0D7"/>
<path d="M65.9388 50.3531C65.6898 50.3531 65.4442 50.3433 65.1902 50.3219C63.9702 50.2163 62.7978 49.8453 61.665 49.4859C60.966 49.2633 60.2406 49.0325 59.5216 48.8725C58.229 48.5823 56.9742 48.5989 55.9914 48.9203L55.3896 49.1183L55.5364 48.5015C56.0236 46.5115 56.6426 44.5561 57.3896 42.6483C57.4664 42.4257 57.6088 42.2315 57.798 42.0915C57.9874 41.9513 58.2146 41.8719 58.4498 41.8633H74.4582C74.6932 41.8713 74.9204 41.9503 75.1096 42.0897C75.2988 42.2293 75.4414 42.4229 75.5186 42.6449C76.1822 44.3461 76.747 46.0841 77.2102 47.8503L77.3306 48.3201L76.8474 48.2921C74.9876 48.1883 73.103 48.7539 71.2778 49.2995C69.5498 49.8189 67.7658 50.3531 65.9388 50.3531ZM57.7376 47.9591C58.3902 47.9619 59.0404 48.0367 59.6766 48.1817C60.4252 48.3465 61.1606 48.5823 61.8794 48.8099C63.0254 49.1743 64.1086 49.5173 65.2512 49.6161C67.2002 49.7811 69.1706 49.1925 71.0748 48.6269C72.7996 48.1107 74.5802 47.5783 76.3908 47.5783H76.4022C75.9702 45.9963 75.455 44.4381 74.859 42.9103C74.8324 42.8219 74.78 42.7433 74.7088 42.6847C74.6374 42.6259 74.5502 42.5897 74.4582 42.5807H58.4532C58.3614 42.5899 58.2742 42.6263 58.203 42.6849C58.1316 42.7437 58.0794 42.8221 58.0524 42.9103C57.393 44.6045 56.832 46.3355 56.3724 48.0943C56.8228 48.0035 57.2814 47.9583 57.7408 47.9591H57.7376Z" fill="#B0C9B5"/>
<path d="M77.5178 51.041C74.3718 51.2588 71.3874 52.6504 68.2662 53.2026C63.8198 53.9588 59.2518 53.0098 55.4746 50.5448C55.5884 49.8852 55.7286 49.2258 55.8818 48.5876C57.036 48.2084 58.388 48.2578 59.6 48.5316C61.4928 48.952 63.29 49.8062 65.2208 49.9726C69.178 50.3024 72.944 47.7236 76.8682 47.943C77.1362 48.9642 77.353 49.9982 77.5178 51.041Z" fill="#EDB3B7"/>
<path d="M65.279 53.8179C61.7306 53.8169 58.259 52.7859 55.2854 50.8501L55.0908 50.7215L55.1304 50.4923C55.2376 49.8691 55.3728 49.2211 55.5426 48.5137L55.5888 48.3209L55.7768 48.2599C56.8798 47.8987 58.2664 47.8757 59.6828 48.1939C60.4314 48.3587 61.1668 48.5945 61.8856 48.8221C63.0316 49.1865 64.1148 49.5295 65.2574 49.6283C67.2064 49.7933 69.1768 49.2045 71.0812 48.6391C72.9856 48.0735 74.9096 47.4931 76.8932 47.6035L77.1504 47.6185L77.2164 47.8691C77.4888 48.9015 77.709 49.9471 77.876 51.0019L77.9352 51.3827L77.5512 51.4091C75.7622 51.5343 73.9764 52.0603 72.2502 52.5633C70.9648 52.9655 69.658 53.2957 68.3358 53.5525C67.3266 53.7309 66.3038 53.8197 65.279 53.8179ZM55.869 50.3753C59.5342 52.6991 63.9312 53.5803 68.2088 52.8485C69.505 52.5939 70.7858 52.2675 72.0456 51.8707C73.6946 51.3859 75.3812 50.8815 77.1126 50.7165C76.9822 49.9483 76.8092 49.1321 76.5948 48.2829C74.8222 48.2417 73.025 48.7775 71.284 49.3003C69.3168 49.8905 67.2806 50.5005 65.1964 50.3225C63.9764 50.2169 62.804 49.8459 61.6714 49.4865C60.9722 49.2639 60.2468 49.0331 59.5278 48.8731C58.316 48.6011 57.137 48.5995 56.1856 48.8731C56.057 49.3991 55.9532 49.8955 55.8658 50.3753H55.869Z" fill="#DE9B9E"/>
<path d="M77.674 55.4234C77.3656 57.7318 75.6954 59.4318 73.7612 59.4318H59.1544C57.217 59.4318 55.55 57.7384 55.2432 55.4234C55.0454 53.9396 55.1824 52.2314 55.4774 50.543C59.2546 53.0078 63.8226 53.957 68.269 53.2008C71.3902 52.6486 74.3696 51.257 77.5206 51.0392C77.758 52.5644 77.8504 54.088 77.674 55.4234Z" fill="#DE9B9E"/>
<path d="M73.761 59.7883H59.154C57.0106 59.7883 55.2232 57.9745 54.8918 55.4717C54.7088 54.1031 54.788 52.4247 55.1276 50.4839L55.22 49.9531L55.6716 50.2481C59.3708 52.6657 63.8466 53.5963 68.2028 52.8533C69.4988 52.5987 70.7798 52.2723 72.0396 51.8755C73.8022 51.3545 75.6258 50.8171 77.4922 50.6883L77.822 50.6653L77.8714 50.9951C78.1402 52.7213 78.1914 54.2317 78.0264 55.4799C77.6934 57.9729 75.8994 59.7883 73.761 59.7883ZM55.7392 51.1319C55.487 52.7807 55.4376 54.2037 55.5942 55.3777C55.8794 57.5211 57.3766 59.0793 59.154 59.0793H73.761C75.54 59.0793 77.0372 57.5227 77.3224 55.3777C77.4692 54.2745 77.4346 52.9457 77.2186 51.4205C75.5384 51.5853 73.8648 52.0801 72.244 52.5533C70.9586 52.9555 69.6518 53.2857 68.3298 53.5425C63.9794 54.2885 59.5062 53.4321 55.7392 51.1319Z" fill="#DE9B9E"/>
<path d="M74.1949 39.8789H58.7207V41.0479H74.1949V39.8789Z" fill="#A56869"/>
<path d="M74.1949 41.0508H58.7207V42.2198H74.1949V41.0508Z" fill="#DE9B9E"/>
<path d="M70.1562 35.9253C70.1562 36.1661 69.8116 36.3623 69.3862 36.3623C68.9608 36.3623 68.6162 36.1661 68.6162 35.9253C68.6162 35.6845 68.9608 35.4883 69.3862 35.4883C69.8116 35.4883 70.1562 35.6845 70.1562 35.9253Z" fill="#A56869"/>
<path d="M71.23 37.2332C71.6552 37.2332 72 37.0376 72 36.7964C72 36.555 71.6552 36.3594 71.23 36.3594C70.8048 36.3594 70.46 36.555 70.46 36.7964C70.46 37.0376 70.8048 37.2332 71.23 37.2332Z" fill="#A56869"/>
<path d="M69.8655 37.3042C69.8655 37.5466 69.5207 37.741 69.0953 37.741C68.6699 37.741 68.3271 37.5466 68.3271 37.3042C68.3271 37.0618 68.6717 36.8672 69.0953 36.8672C69.5191 36.8672 69.8655 37.0634 69.8655 37.3042Z" fill="#A56869"/>
<path d="M123.3 40.0385H106.757C106.639 40.0383 106.523 40.0105 106.418 39.9569C106.313 39.9035 106.222 39.8259 106.152 39.7307C106.083 39.6355 106.036 39.5251 106.018 39.4087C105.999 39.2923 106.007 39.1731 106.043 39.0607C106.671 37.0821 108.711 35.9543 110.688 35.3261C113.512 34.4277 116.545 34.4277 119.369 35.3261C121.348 35.9543 123.385 37.0739 124.014 39.0607C124.049 39.1731 124.058 39.2923 124.039 39.4087C124.02 39.5251 123.974 39.6355 123.905 39.7307C123.835 39.8259 123.744 39.9035 123.639 39.9569C123.534 40.0105 123.418 40.0383 123.3 40.0385Z" fill="#F6C5C1"/>
<path d="M124.43 44.7515C120.986 45.1279 117.521 45.2739 114.058 45.1885C111.161 45.1143 108.138 44.9065 105.369 45.5313C105.735 44.4019 106.08 43.4851 106.294 42.9377C106.345 42.7817 106.442 42.6449 106.573 42.5451C106.703 42.4453 106.861 42.3873 107.025 42.3789H123.033C123.197 42.3869 123.354 42.4445 123.485 42.5441C123.615 42.6435 123.712 42.7803 123.763 42.9361C123.927 43.3517 124.162 43.9781 124.43 44.7515Z" fill="#E5E0D7"/>
<path d="M104.837 46.012L105.028 45.42C105.391 44.307 105.736 43.3854 105.961 42.8082C106.038 42.5856 106.181 42.3916 106.37 42.2514C106.559 42.1114 106.786 42.0318 107.022 42.0234H123.03C123.265 42.0314 123.492 42.1104 123.681 42.2498C123.871 42.3894 124.013 42.5828 124.09 42.805C124.24 43.1892 124.479 43.819 124.761 44.6352L124.906 45.054L124.465 45.1018C121.006 45.48 117.526 45.6264 114.047 45.5404L112.858 45.5058C110.367 45.4282 107.792 45.3408 105.439 45.875L104.837 46.012ZM107.022 42.7324C106.93 42.7414 106.842 42.7774 106.771 42.8362C106.7 42.895 106.647 42.9736 106.621 43.0622C106.44 43.5272 106.179 44.2164 105.895 45.0556C108.156 44.6434 110.555 44.7258 112.88 44.7934L114.064 44.828C117.362 44.9082 120.662 44.7788 123.944 44.4406C123.731 43.8388 123.551 43.3688 123.431 43.0588C123.404 42.9704 123.352 42.8918 123.28 42.8332C123.209 42.7744 123.122 42.7382 123.03 42.7292L107.022 42.7324Z" fill="#B0C9B5"/>
<path d="M122.768 40.0391V41.0483L107.292 41.1027V40.0391H122.768Z" fill="#A56869"/>
<path d="M122.768 41.0508V42.3798H107.292V41.1052L122.768 41.0508Z" fill="#DE9B9E"/>
<path d="M118.726 36.0813C118.726 36.3237 118.381 36.5183 117.956 36.5183C117.53 36.5183 117.186 36.3237 117.186 36.0813C117.186 35.8389 117.53 35.6445 117.956 35.6445C118.381 35.6445 118.726 35.8407 118.726 36.0813Z" fill="#A56869"/>
<path d="M119.802 37.3894C120.227 37.3894 120.572 37.1938 120.572 36.9526C120.572 36.7112 120.227 36.5156 119.802 36.5156C119.377 36.5156 119.032 36.7112 119.032 36.9526C119.032 37.1938 119.377 37.3894 119.802 37.3894Z" fill="#A56869"/>
<path d="M118.439 37.4641C118.439 37.7049 118.094 37.8995 117.669 37.8995C117.243 37.8995 116.9 37.7049 116.9 37.4641C116.9 37.2235 117.245 37.0273 117.669 37.0273C118.092 37.0273 118.439 37.2219 118.439 37.4641Z" fill="#A56869"/>
<path d="M138.321 55.2234C134.622 55.225 131.01 54.0994 127.966 51.9966L127.79 51.873L127.818 51.6604C128.088 49.7644 128.514 47.8942 129.094 46.0692L129.188 45.7642L129.502 45.8268C133.047 46.5284 136.686 46.6204 140.262 46.0988C141.231 45.9554 142.226 45.769 143.187 45.5762C145.043 45.215 146.963 44.8424 148.855 44.793H149.118L149.2 45.0436C149.757 46.7172 150.489 49.2284 150.809 51.6784L150.851 51.9934L150.542 52.0692C149.2 52.399 147.86 52.8936 146.564 53.3882C145.195 53.8994 143.782 54.4288 142.334 54.7716C141.019 55.0776 139.672 55.2292 138.321 55.2234ZM128.55 51.5384C130.527 52.8694 132.755 53.7808 135.098 54.2162C137.441 54.6514 139.848 54.6014 142.171 54.0692C143.574 53.7394 144.974 53.2168 146.315 52.7122C147.531 52.2572 148.788 51.7872 150.064 51.451C149.743 49.4358 149.258 47.4506 148.611 45.5152C146.86 45.5894 145.063 45.939 143.322 46.2752C142.354 46.4648 141.352 46.6594 140.366 46.8046C136.816 47.3224 133.204 47.2494 129.678 46.5886C129.178 48.2078 128.801 49.8624 128.55 51.5384Z" fill="#60292E"/>
<path d="M150.522 55.5306C150.214 57.839 148.544 59.539 146.608 59.539H132.004C130.065 59.539 128.398 57.8472 128.09 55.5306C127.951 54.2582 127.975 52.9732 128.163 51.707C130.193 53.1124 132.494 54.079 134.918 54.5454C137.343 55.0118 139.838 54.9678 142.245 54.416C145.048 53.7566 147.675 52.3978 150.451 51.717C150.638 52.98 150.661 54.2616 150.522 55.5306Z" fill="#60292E"/>
<path d="M146.616 59.8934H132.012C129.869 59.8934 128.08 58.0796 127.747 55.5768C127.603 54.2738 127.627 52.9576 127.819 51.6608L127.895 51.082L128.373 51.4118C130.363 52.7884 132.617 53.7352 134.993 54.192C137.369 54.6488 139.814 54.6054 142.172 54.0648C143.575 53.735 144.975 53.2124 146.316 52.7078C147.641 52.1832 148.996 51.7356 150.373 51.3672L150.758 51.2734L150.81 51.6658C151.002 52.9592 151.026 54.2722 150.881 55.5718C150.548 58.078 148.754 59.8934 146.616 59.8934ZM128.456 52.3186C128.334 53.3682 128.334 54.4282 128.456 55.4778C128.741 57.6212 130.24 59.1778 132.019 59.1778H146.622C148.401 59.1778 149.9 57.6212 150.184 55.4778C150.31 54.373 150.303 53.257 150.162 52.1538C148.95 52.4836 147.742 52.932 146.571 53.3706C145.203 53.8818 143.79 54.411 142.342 54.754C139.982 55.2956 137.537 55.359 135.152 54.9408C132.768 54.5226 130.49 53.631 128.456 52.3186Z" fill="#60292E"/>
<path d="M125.576 48.6466C122.531 51.5666 118.121 53.0342 113.937 52.4388C112.041 52.1734 110.219 51.5206 108.34 51.1478C106.905 50.8642 105.382 50.7538 103.979 51.0968C104.298 49.2058 104.763 47.3422 105.367 45.522C108.135 44.8972 111.159 45.105 114.056 45.1792C117.519 45.2646 120.984 45.1186 124.427 44.7422C124.8 45.8272 125.222 47.1874 125.576 48.6466Z" fill="#F2C02E"/>
<path d="M115.747 52.9262C115.125 52.9272 114.503 52.8842 113.887 52.7976C112.778 52.6198 111.681 52.376 110.601 52.0672C109.839 51.866 109.051 51.6582 108.27 51.5034C106.621 51.1736 105.249 51.1586 104.062 51.4472L103.546 51.5742L103.629 51.0482C103.949 49.1384 104.416 47.2564 105.028 45.4192L105.091 45.2278L105.289 45.1834C107.724 44.6342 110.346 44.7168 112.873 44.7976L114.057 44.8322C117.505 44.9168 120.954 44.7714 124.382 44.3968L124.662 44.3672L124.755 44.6342C125.22 45.988 125.609 47.3104 125.909 48.5618L125.957 48.7596L125.81 48.9014C123.086 51.4688 119.49 52.9072 115.747 52.9262ZM105.869 50.5354C106.722 50.5434 107.573 50.6344 108.408 50.8074C109.21 50.9724 110.009 51.1784 110.783 51.383C111.835 51.6838 112.905 51.9222 113.986 52.0968C117.943 52.6508 122.214 51.2874 125.182 48.5304C124.912 47.4406 124.577 46.2996 124.183 45.1322C120.817 45.4876 117.431 45.6236 114.047 45.5394L112.858 45.5048C110.436 45.429 107.935 45.3498 105.64 45.8346C105.125 47.4128 104.715 49.0234 104.413 50.6558C104.894 50.5752 105.381 50.535 105.869 50.5354Z" fill="#E5B621"/>
<path d="M126.244 55.5868C125.936 57.8952 124.265 59.5952 122.331 59.5952H107.724C105.787 59.5952 104.12 57.9034 103.813 55.5868C103.632 54.2232 103.733 52.6652 103.978 51.1104C105.381 50.7674 106.905 50.8778 108.339 51.1614C110.219 51.534 112.041 52.187 113.937 52.4524C118.12 53.0394 122.531 51.572 125.576 48.6602C126.137 50.9504 126.521 53.4978 126.244 55.5868Z" fill="#E5B621"/>
<path d="M122.328 59.9452H107.721C105.578 59.9452 103.79 58.1314 103.459 55.6286C103.294 54.3556 103.345 52.814 103.624 51.0498L103.662 50.8156L103.889 50.7612C105.18 50.4464 106.656 50.4628 108.404 50.809C109.205 50.974 110.005 51.18 110.778 51.3846C111.831 51.6854 112.901 51.9238 113.982 52.0984C118.005 52.6624 122.353 51.2428 125.326 48.392L125.771 47.9648L125.916 48.5634C126.607 51.4108 126.834 53.7884 126.589 55.6286C126.264 58.1298 124.472 59.9452 122.328 59.9452ZM104.29 51.3978C104.051 52.9954 104.008 54.387 104.161 55.5362C104.445 57.6798 105.944 59.2362 107.721 59.2362H122.328C124.107 59.2362 125.604 57.6798 125.89 55.5362C126.106 53.9072 125.931 51.8182 125.367 49.3168C122.262 52.0374 117.921 53.3648 113.886 52.7992C112.777 52.6214 111.68 52.3776 110.6 52.0688C109.838 51.8676 109.05 51.6598 108.269 51.5048C106.734 51.1998 105.428 51.1652 104.293 51.3978H104.29Z" fill="#E5B621"/>
<path d="M50.3721 59.5391H157.064C157.247 59.5391 157.422 59.6117 157.552 59.7411C157.681 59.8703 157.753 60.0455 157.753 60.2283V61.3265C157.753 61.9255 157.515 62.5001 157.092 62.9237C156.668 63.3473 156.094 63.5853 155.495 63.5853H51.9483C51.3492 63.5853 50.7747 63.3473 50.3511 62.9237C49.9275 62.5001 49.6895 61.9255 49.6895 61.3265V60.2333C49.6895 60.0505 49.7621 59.8753 49.8913 59.7459C50.0206 59.6167 50.1959 59.5441 50.3787 59.5441L50.3721 59.5391Z" fill="#BF7B81"/>
<path d="M155.814 63.9388H51.6269C51.0187 63.9358 50.4362 63.6928 50.0062 63.2628C49.5761 62.8326 49.3331 62.2502 49.3301 61.642V60.1316C49.3305 59.8804 49.4305 59.6394 49.6082 59.4618C49.7859 59.284 50.0268 59.184 50.2782 59.1836H157.163C157.415 59.184 157.655 59.284 157.833 59.4618C158.011 59.6394 158.111 59.8804 158.111 60.1316V61.642C158.108 62.2502 157.865 62.8326 157.435 63.2628C157.005 63.6928 156.423 63.9358 155.814 63.9388ZM50.2749 59.8926C50.2114 59.8926 50.1506 59.9178 50.1058 59.9626C50.0609 60.0074 50.0358 60.0682 50.0358 60.1316V61.642C50.0362 62.063 50.2036 62.4666 50.5013 62.7642C50.799 63.062 51.2026 63.2294 51.6236 63.2298H155.811C156.232 63.2294 156.636 63.062 156.933 62.7642C157.231 62.4666 157.399 62.063 157.399 61.642V60.1316C157.399 60.0684 157.373 60.0078 157.328 59.963C157.284 59.9184 157.223 59.893 157.16 59.8926H50.2749Z" fill="#A56869"/>
<path d="M148.723 62.7062C147.28 62.7062 145.833 62.3038 144.436 61.913C143.074 61.5338 141.666 61.1414 140.301 61.1414C138.792 61.1414 137.239 61.5354 135.737 61.9148C134.202 62.3038 132.614 62.7062 131.035 62.7062C129.455 62.7062 127.867 62.3038 126.332 61.9148C124.83 61.5354 123.279 61.1414 121.768 61.1414C120.307 61.1414 118.8 61.5338 117.348 61.9148C115.864 62.3038 114.317 62.7062 112.784 62.7062C111.051 62.7062 109.306 62.3054 107.62 61.9164C105.963 61.5354 104.249 61.1414 102.582 61.1414C101.313 61.1414 100 61.5338 98.7324 61.9114C97.4232 62.3022 96.0712 62.7062 94.7192 62.7062C93.1396 62.7062 91.5518 62.3038 90.0168 61.9148C88.5164 61.5354 86.9632 61.1414 85.4544 61.1414C83.992 61.1414 82.4866 61.5338 81.0324 61.9148C79.5484 62.3038 78.0018 62.7062 76.4684 62.7062C74.8592 62.7062 73.24 62.3038 71.6736 61.9148C70.1402 61.5354 68.5556 61.1414 67.0156 61.1414C65.4114 61.1414 63.7626 61.5354 62.1682 61.9164C60.5408 62.3038 58.8588 62.7062 57.187 62.7062C55.9272 62.7062 54.6248 62.3022 53.3666 61.9114C52.1482 61.5322 50.8934 61.1414 49.7129 61.1414V60.5742C50.9726 60.5742 52.2752 60.9782 53.5348 61.369C54.7534 61.7482 56.008 62.139 57.187 62.139C58.793 62.139 60.4418 61.7448 62.0362 61.364C63.662 60.9766 65.3438 60.5742 67.0156 60.5742C68.625 60.5742 70.244 60.9766 71.8104 61.3656C73.3422 61.7448 74.9284 62.139 76.4684 62.139C77.9292 62.139 79.4362 61.7466 80.8888 61.3656C82.3728 60.9766 83.9194 60.5742 85.4544 60.5742C87.034 60.5742 88.6202 60.9766 90.157 61.3656C91.6574 61.7466 93.2106 62.139 94.7192 62.139C95.9888 62.139 97.3012 61.7482 98.5692 61.369C99.8784 60.9782 101.23 60.5742 102.582 60.5742C104.314 60.5742 106.058 60.9766 107.747 61.364C109.395 61.7448 111.115 62.139 112.784 62.139C114.245 62.139 115.752 61.7466 117.204 61.3656C118.688 60.9766 120.235 60.5742 121.768 60.5742C123.348 60.5742 124.936 60.9766 126.471 61.3656C127.973 61.7466 129.526 62.139 131.035 62.139C132.543 62.139 134.096 61.7466 135.599 61.3656C137.134 60.9766 138.721 60.5742 140.301 60.5742C141.744 60.5742 143.19 60.9782 144.588 61.3674C145.951 61.7466 147.36 62.139 148.725 62.139C150.163 62.139 151.693 61.7466 153.16 61.3656C154.669 60.9766 156.229 60.5742 157.739 60.5742V61.1414C156.301 61.1414 154.771 61.5354 153.302 61.9148C151.792 62.3088 150.232 62.7062 148.723 62.7062Z" fill="#A56869"/>
<path opacity="0.75" d="M59.2376 42.2191C59.2376 42.2191 55.1518 54.2753 57.8922 56.0693C58.1182 56.2105 58.3574 56.3297 58.6062 56.4253C59.0372 56.6015 59.5058 56.6659 59.9684 56.6125C60.431 56.5593 60.8726 56.3899 61.2524 56.1205C61.632 55.8509 61.9376 55.4899 62.1406 55.0707C62.3434 54.6515 62.4372 54.1879 62.4132 53.7229L61.841 42.2109L59.2376 42.2191Z" fill="white"/>
<path opacity="0.75" d="M83.449 42.3795C83.449 42.3795 79.3616 54.4357 82.1018 56.2295C82.328 56.3707 82.567 56.4901 82.8158 56.5857C83.247 56.7619 83.7154 56.8263 84.178 56.7729C84.6406 56.7197 85.0824 56.5503 85.462 56.2807C85.8418 56.0113 86.1474 55.6501 86.3502 55.2311C86.5532 54.8119 86.647 54.3483 86.623 53.8833L86.0508 42.3711L83.449 42.3795Z" fill="white"/>
<path opacity="0.75" d="M107.589 42.3754C107.589 42.3754 103.501 54.4316 106.242 56.2256C106.468 56.3668 106.707 56.486 106.955 56.5816C107.387 56.7578 107.855 56.8222 108.318 56.769C108.78 56.7156 109.222 56.5464 109.602 56.2768C109.981 56.0072 110.287 55.6462 110.49 55.227C110.693 54.808 110.787 54.3444 110.763 53.8792L110.19 42.3672L107.589 42.3754Z" fill="white"/>
<path opacity="0.75" d="M132.167 42.3754C132.167 42.3754 128.08 54.4316 130.822 56.2256C131.047 56.367 131.287 56.4864 131.536 56.5816C133.402 57.3616 135.44 55.899 135.341 53.8792L134.771 42.3672L132.167 42.3754Z" fill="white"/>
</g>
<path d="M39.1066 99.5H37.4759L41.14 89.3182H42.9149L46.5789 99.5H44.9482L42.0697 91.1676H41.9901L39.1066 99.5ZM39.3801 95.5128H44.6698V96.8054H39.3801V95.5128ZM49.2971 96.9098L49.2872 95.0952H49.5457L52.5883 91.8636H54.3682L50.898 95.5426H50.6643L49.2971 96.9098ZM47.93 99.5V89.3182H49.4165V99.5H47.93ZM52.7524 99.5L50.018 95.8707L51.0422 94.8317L54.577 99.5H52.7524ZM61.4452 93.728L60.0979 93.9666C60.0416 93.7943 59.9521 93.6302 59.8295 93.4744C59.7101 93.3187 59.5477 93.1911 59.3422 93.0916C59.1367 92.9922 58.8799 92.9425 58.5716 92.9425C58.1507 92.9425 57.7994 93.0369 57.5177 93.2259C57.2359 93.4115 57.0951 93.6518 57.0951 93.9467C57.0951 94.2019 57.1895 94.4074 57.3785 94.5632C57.5674 94.719 57.8723 94.8466 58.2932 94.946L59.5063 95.2244C60.209 95.3868 60.7326 95.6371 61.0773 95.9751C61.422 96.3132 61.5944 96.7524 61.5944 97.2926C61.5944 97.75 61.4618 98.1577 61.1966 98.5156C60.9348 98.8703 60.5686 99.1487 60.0979 99.3509C59.6306 99.553 59.0887 99.6541 58.4722 99.6541C57.6171 99.6541 56.9194 99.4718 56.3792 99.1072C55.8389 98.7393 55.5075 98.2173 55.3849 97.5412L56.8216 97.3224C56.9111 97.697 57.0951 97.9804 57.3735 98.1726C57.6519 98.3615 58.0148 98.456 58.4623 98.456C58.9495 98.456 59.3389 98.3549 59.6306 98.1527C59.9223 97.9472 60.0681 97.697 60.0681 97.402C60.0681 97.1634 59.9786 96.9628 59.7996 96.8004C59.624 96.638 59.3538 96.5154 58.9893 96.4325L57.6966 96.1491C56.984 95.9867 56.4571 95.7282 56.1157 95.3736C55.7776 95.0189 55.6086 94.5698 55.6086 94.0263C55.6086 93.5755 55.7345 93.1811 55.9864 92.843C56.2383 92.505 56.5863 92.2415 57.0305 92.0526C57.4746 91.8603 57.9833 91.7642 58.5567 91.7642C59.382 91.7642 60.0316 91.9432 60.5056 92.3011C60.9796 92.6558 61.2928 93.1314 61.4452 93.728ZM66.52 99.6541C65.7676 99.6541 65.1196 99.4934 64.5761 99.1719C64.0358 98.8471 63.6182 98.3913 63.3232 97.8047C63.0316 97.2147 62.8857 96.5237 62.8857 95.7315C62.8857 94.9493 63.0316 94.2599 63.3232 93.6634C63.6182 93.0668 64.0292 92.6011 64.5562 92.2663C65.0865 91.9316 65.7063 91.7642 66.4156 91.7642C66.8464 91.7642 67.2641 91.8355 67.6684 91.978C68.0728 92.1205 68.4357 92.3442 68.7572 92.6491C69.0787 92.9541 69.3322 93.3501 69.5178 93.8374C69.7035 94.3213 69.7963 94.9096 69.7963 95.6023V96.1293H63.7259V95.0156H68.3396C68.3396 94.6245 68.26 94.2782 68.1009 93.9766C67.9419 93.6716 67.7181 93.4313 67.4298 93.2557C67.1447 93.08 66.81 92.9922 66.4255 92.9922C66.0079 92.9922 65.6433 93.0949 65.3318 93.3004C65.0235 93.5026 64.7849 93.7678 64.6159 94.0959C64.4501 94.4207 64.3673 94.7737 64.3673 95.1548V96.0249C64.3673 96.5353 64.4568 96.9695 64.6357 97.3274C64.818 97.6854 65.0716 97.9588 65.3964 98.1477C65.7212 98.3333 66.1007 98.4261 66.5349 98.4261C66.8166 98.4261 67.0735 98.3864 67.3055 98.3068C67.5375 98.224 67.738 98.1013 67.907 97.9389C68.0761 97.7765 68.2053 97.576 68.2948 97.3374L69.7018 97.5909C69.5891 98.0052 69.3869 98.3681 69.0953 98.6797C68.8069 98.9879 68.444 99.2282 68.0065 99.4006C67.5723 99.5696 67.0768 99.6541 66.52 99.6541ZM77.1679 93.728L75.8206 93.9666C75.7642 93.7943 75.6747 93.6302 75.5521 93.4744C75.4328 93.3187 75.2704 93.1911 75.0649 93.0916C74.8594 92.9922 74.6025 92.9425 74.2943 92.9425C73.8734 92.9425 73.522 93.0369 73.2403 93.2259C72.9586 93.4115 72.8177 93.6518 72.8177 93.9467C72.8177 94.2019 72.9122 94.4074 73.1011 94.5632C73.29 94.719 73.595 94.8466 74.0159 94.946L75.229 95.2244C75.9316 95.3868 76.4553 95.6371 76.8 95.9751C77.1447 96.3132 77.317 96.7524 77.317 97.2926C77.317 97.75 77.1845 98.1577 76.9193 98.5156C76.6575 98.8703 76.2912 99.1487 75.8206 99.3509C75.3532 99.553 74.8113 99.6541 74.1949 99.6541C73.3398 99.6541 72.6421 99.4718 72.1018 99.1072C71.5616 98.7393 71.2301 98.2173 71.1075 97.5412L72.5443 97.3224C72.6338 97.697 72.8177 97.9804 73.0961 98.1726C73.3746 98.3615 73.7375 98.456 74.1849 98.456C74.6721 98.456 75.0616 98.3549 75.3532 98.1527C75.6449 97.9472 75.7907 97.697 75.7907 97.402C75.7907 97.1634 75.7013 96.9628 75.5223 96.8004C75.3466 96.638 75.0765 96.5154 74.7119 96.4325L73.4193 96.1491C72.7067 95.9867 72.1797 95.7282 71.8383 95.3736C71.5003 95.0189 71.3312 94.5698 71.3312 94.0263C71.3312 93.5755 71.4572 93.1811 71.7091 92.843C71.961 92.505 72.309 92.2415 72.7531 92.0526C73.1972 91.8603 73.706 91.7642 74.2794 91.7642C75.1047 91.7642 75.7543 91.9432 76.2282 92.3011C76.7022 92.6558 77.0154 93.1314 77.1679 93.728ZM82.1681 99.6541C81.4521 99.6541 80.8274 99.4901 80.2938 99.1619C79.7602 98.8338 79.3459 98.3748 79.0509 97.7848C78.7559 97.1948 78.6084 96.5054 78.6084 95.7166C78.6084 94.9245 78.7559 94.2318 79.0509 93.6385C79.3459 93.0452 79.7602 92.5845 80.2938 92.2564C80.8274 91.9283 81.4521 91.7642 82.1681 91.7642C82.884 91.7642 83.5087 91.9283 84.0423 92.2564C84.576 92.5845 84.9903 93.0452 85.2852 93.6385C85.5802 94.2318 85.7277 94.9245 85.7277 95.7166C85.7277 96.5054 85.5802 97.1948 85.2852 97.7848C84.9903 98.3748 84.576 98.8338 84.0423 99.1619C83.5087 99.4901 82.884 99.6541 82.1681 99.6541ZM82.173 98.4062C82.637 98.4062 83.0215 98.2836 83.3264 98.0384C83.6314 97.7931 83.8567 97.4666 84.0026 97.0589C84.1517 96.6513 84.2263 96.2022 84.2263 95.7116C84.2263 95.2244 84.1517 94.777 84.0026 94.3693C83.8567 93.9583 83.6314 93.6286 83.3264 93.38C83.0215 93.1314 82.637 93.0071 82.173 93.0071C81.7057 93.0071 81.3179 93.1314 81.0097 93.38C80.7048 93.6286 80.4777 93.9583 80.3286 94.3693C80.1827 94.777 80.1098 95.2244 80.1098 95.7116C80.1098 96.2022 80.1827 96.6513 80.3286 97.0589C80.4777 97.4666 80.7048 97.7931 81.0097 98.0384C81.3179 98.2836 81.7057 98.4062 82.173 98.4062ZM87.387 99.5V91.8636H88.8238V93.0767H88.9033C89.0425 92.6657 89.2878 92.3426 89.6391 92.1072C89.9938 91.8686 90.3948 91.7493 90.8422 91.7493C90.935 91.7493 91.0444 91.7526 91.1704 91.7592C91.2996 91.7659 91.4007 91.7741 91.4736 91.7841V93.206C91.414 93.1894 91.3079 93.1712 91.1555 93.1513C91.003 93.1281 90.8505 93.1165 90.6981 93.1165C90.3467 93.1165 90.0335 93.1911 89.7584 93.3402C89.4867 93.486 89.2712 93.6899 89.1121 93.9517C88.953 94.2102 88.8735 94.5052 88.8735 94.8366V99.5H87.387ZM92.76 99.5V91.8636H94.2465V99.5H92.76ZM93.5107 90.6854C93.2522 90.6854 93.0302 90.5992 92.8445 90.4268C92.6623 90.2512 92.5711 90.0424 92.5711 89.8004C92.5711 89.5552 92.6623 89.3464 92.8445 89.174C93.0302 88.9983 93.2522 88.9105 93.5107 88.9105C93.7693 88.9105 93.9897 88.9983 94.172 89.174C94.3576 89.3464 94.4504 89.5552 94.4504 89.8004C94.4504 90.0424 94.3576 90.2512 94.172 90.4268C93.9897 90.5992 93.7693 90.6854 93.5107 90.6854ZM101.969 93.728L100.621 93.9666C100.565 93.7943 100.476 93.6302 100.353 93.4744C100.234 93.3187 100.071 93.1911 99.8657 93.0916C99.6602 92.9922 99.4033 92.9425 99.0951 92.9425C98.6742 92.9425 98.3228 93.0369 98.0411 93.2259C97.7594 93.4115 97.6185 93.6518 97.6185 93.9467C97.6185 94.2019 97.713 94.4074 97.9019 94.5632C98.0908 94.719 98.3957 94.8466 98.8167 94.946L100.03 95.2244C100.732 95.3868 101.256 95.6371 101.601 95.9751C101.945 96.3132 102.118 96.7524 102.118 97.2926C102.118 97.75 101.985 98.1577 101.72 98.5156C101.458 98.8703 101.092 99.1487 100.621 99.3509C100.154 99.553 99.6121 99.6541 98.9956 99.6541C98.1405 99.6541 97.4429 99.4718 96.9026 99.1072C96.3624 98.7393 96.0309 98.2173 95.9083 97.5412L97.3451 97.3224C97.4346 97.697 97.6185 97.9804 97.8969 98.1726C98.1753 98.3615 98.5383 98.456 98.9857 98.456C99.4729 98.456 99.8624 98.3549 100.154 98.1527C100.446 97.9472 100.592 97.697 100.592 97.402C100.592 97.1634 100.502 96.9628 100.323 96.8004C100.147 96.638 99.8773 96.5154 99.5127 96.4325L98.2201 96.1491C97.5075 95.9867 96.9805 95.7282 96.6391 95.3736C96.301 95.0189 96.132 94.5698 96.132 94.0263C96.132 93.5755 96.258 93.1811 96.5099 92.843C96.7617 92.505 97.1098 92.2415 97.5539 92.0526C97.998 91.8603 98.5068 91.7642 99.0802 91.7642C99.9055 91.7642 100.555 91.9432 101.029 92.3011C101.503 92.6558 101.816 93.1314 101.969 93.728ZM110.873 99.5H107.577V89.3182H110.977C111.975 89.3182 112.832 89.522 113.547 89.9297C114.263 90.334 114.812 90.9157 115.193 91.6747C115.578 92.4304 115.77 93.3369 115.77 94.3942C115.77 95.4548 115.576 96.3662 115.188 97.1286C114.804 97.8909 114.247 98.4775 113.518 98.8885C112.789 99.2962 111.907 99.5 110.873 99.5ZM109.113 98.1577H110.788C111.564 98.1577 112.208 98.0118 112.722 97.7202C113.236 97.4252 113.62 96.9993 113.876 96.4425C114.131 95.8823 114.258 95.1996 114.258 94.3942C114.258 93.5954 114.131 92.9176 113.876 92.3608C113.624 91.804 113.248 91.3814 112.747 91.093C112.247 90.8047 111.625 90.6605 110.883 90.6605H109.113V98.1577ZM119.783 99.669C119.299 99.669 118.862 99.5795 118.471 99.4006C118.08 99.2183 117.77 98.9548 117.541 98.6101C117.316 98.2654 117.203 97.8428 117.203 97.3423C117.203 96.9115 117.286 96.5568 117.451 96.2784C117.617 96 117.841 95.7796 118.123 95.6172C118.404 95.4548 118.719 95.3321 119.067 95.2493C119.415 95.1664 119.77 95.1035 120.131 95.0604C120.589 95.0073 120.96 94.9643 121.245 94.9311C121.53 94.8946 121.737 94.8366 121.866 94.7571C121.995 94.6776 122.06 94.5483 122.06 94.3693V94.3345C122.06 93.9003 121.937 93.5639 121.692 93.3253C121.45 93.0866 121.089 92.9673 120.608 92.9673C120.108 92.9673 119.714 93.0784 119.425 93.3004C119.14 93.5192 118.943 93.7628 118.834 94.0312L117.437 93.7131C117.602 93.2491 117.844 92.8745 118.162 92.5895C118.484 92.3011 118.853 92.0923 119.271 91.9631C119.689 91.8305 120.128 91.7642 120.589 91.7642C120.893 91.7642 121.217 91.8007 121.558 91.8736C121.903 91.9432 122.224 92.0724 122.522 92.2614C122.824 92.4503 123.071 92.7204 123.263 93.0717C123.455 93.4197 123.552 93.8722 123.552 94.429V99.5H122.1V98.456H122.04C121.944 98.6482 121.8 98.8371 121.608 99.0227C121.415 99.2083 121.169 99.3625 120.867 99.4851C120.565 99.6077 120.204 99.669 119.783 99.669ZM120.106 98.4759C120.517 98.4759 120.869 98.3946 121.16 98.2322C121.455 98.0698 121.679 97.8577 121.831 97.5959C121.987 97.3307 122.065 97.0473 122.065 96.7457V95.7614C122.012 95.8144 121.909 95.8641 121.757 95.9105C121.608 95.9536 121.437 95.9917 121.245 96.0249C121.053 96.0547 120.865 96.0829 120.683 96.1094C120.501 96.1326 120.348 96.1525 120.226 96.169C119.937 96.2055 119.674 96.2668 119.435 96.353C119.2 96.4392 119.011 96.5634 118.868 96.7259C118.729 96.8849 118.66 97.0971 118.66 97.3622C118.66 97.7301 118.795 98.0085 119.067 98.1974C119.339 98.383 119.685 98.4759 120.106 98.4759ZM125.532 102.364V91.8636H126.983V93.1016H127.108C127.194 92.9425 127.318 92.7585 127.48 92.5497C127.643 92.3409 127.868 92.1586 128.157 92.0028C128.445 91.8438 128.826 91.7642 129.3 91.7642C129.916 91.7642 130.467 91.92 130.951 92.2315C131.434 92.5431 131.814 92.9922 132.089 93.5788C132.367 94.1655 132.507 94.8714 132.507 95.6967C132.507 96.522 132.369 97.2296 132.094 97.8196C131.819 98.4062 131.441 98.8587 130.96 99.1768C130.48 99.4917 129.931 99.6491 129.315 99.6491C128.851 99.6491 128.471 99.5713 128.176 99.4155C127.885 99.2597 127.656 99.0774 127.49 98.8686C127.325 98.6598 127.197 98.4742 127.108 98.3118H127.018V102.364H125.532ZM126.988 95.6818C126.988 96.2187 127.066 96.6894 127.222 97.0938C127.378 97.4981 127.603 97.8146 127.898 98.0433C128.193 98.2687 128.554 98.3814 128.982 98.3814C129.426 98.3814 129.797 98.2637 130.095 98.0284C130.394 97.7898 130.619 97.4666 130.772 97.0589C130.927 96.6513 131.005 96.1922 131.005 95.6818C131.005 95.178 130.929 94.7256 130.777 94.3246C130.627 93.9235 130.402 93.607 130.1 93.375C129.802 93.143 129.429 93.027 128.982 93.027C128.551 93.027 128.186 93.138 127.888 93.3601C127.593 93.5821 127.369 93.892 127.217 94.2898C127.064 94.6875 126.988 95.1515 126.988 95.6818ZM139.009 96.3331V91.8636H140.501V99.5H139.039V98.1776H138.96C138.784 98.5852 138.502 98.925 138.115 99.1967C137.73 99.4652 137.251 99.5994 136.678 99.5994C136.187 99.5994 135.753 99.4917 135.375 99.2763C135.001 99.0575 134.706 98.7344 134.49 98.3068C134.278 97.8793 134.172 97.3506 134.172 96.7209V91.8636H135.659V96.5419C135.659 97.0623 135.803 97.4766 136.091 97.7848C136.38 98.093 136.754 98.2472 137.215 98.2472C137.493 98.2472 137.77 98.1776 138.045 98.0384C138.323 97.8991 138.554 97.6887 138.736 97.407C138.922 97.1252 139.013 96.7673 139.009 96.3331ZM142.498 99.5V91.8636H143.935V93.0767H144.015C144.154 92.6657 144.399 92.3426 144.75 92.1072C145.105 91.8686 145.506 91.7493 145.954 91.7493C146.046 91.7493 146.156 91.7526 146.282 91.7592C146.411 91.7659 146.512 91.7741 146.585 91.7841V93.206C146.525 93.1894 146.419 93.1712 146.267 93.1513C146.114 93.1281 145.962 93.1165 145.809 93.1165C145.458 93.1165 145.145 93.1911 144.87 93.3402C144.598 93.486 144.383 93.6899 144.223 93.9517C144.064 94.2102 143.985 94.5052 143.985 94.8366V99.5H142.498Z" fill="#252525"/>
</g>
<defs>
<linearGradient id="paint0_linear_103_3094" x1="55.0576" y1="44.4334" x2="128.943" y2="44.4334" gradientUnits="userSpaceOnUse">
<stop stop-color="#E0F9FF"/>
<stop offset="1" stop-color="#DAEEFC"/>
</linearGradient>
<clipPath id="clip0_103_3094">
<rect y="0.5" width="184" height="109" rx="8" fill="white"/>
</clipPath>
</defs>
</svg>
