<svg width="106" height="108" viewBox="0 0 106 108" fill="none" xmlns="http://www.w3.org/2000/svg">
<path d="M92.75 21.871V81.991C92.6813 83.3121 92.1056 84.5527 91.1471 85.4451C90.1886 86.3375 88.9242 86.8102 87.6267 86.7611H23.5408C22.8969 86.7913 22.2534 86.6918 21.6472 86.4683C21.041 86.2449 20.484 85.9018 20.0082 85.4587C19.5323 85.0156 19.1468 84.4813 18.8739 83.8863C18.6009 83.2912 18.4458 82.6472 18.4175 81.991V21.871C18.4344 21.2071 18.5811 20.5534 18.849 19.9479C19.1169 19.3425 19.5006 18.7976 19.9777 18.3451C20.4547 17.8925 21.0156 17.5414 21.6274 17.3124C22.2392 17.0833 22.8897 16.9809 23.5408 17.011H87.5825C88.899 16.9622 90.1811 17.4458 91.1491 18.3562C92.1171 19.2666 92.6926 20.53 92.75 21.871Z" fill="#E5BF55"/>
<path d="M81.2225 21.8711V81.946C81.1539 83.2872 80.5673 84.5462 79.5909 85.4483C78.6145 86.3504 77.3275 86.8223 76.0108 86.761H23.7616C23.1119 86.7913 22.4626 86.6906 21.8511 86.4649C21.2396 86.2391 20.6777 85.8927 20.1977 85.4455C19.7178 84.9983 19.3291 84.459 19.0539 83.8585C18.7787 83.258 18.6225 82.6081 18.5941 81.946V21.8711C18.6168 21.2051 18.7689 20.5504 19.0415 19.9447C19.3142 19.339 19.702 18.7944 20.1826 18.3425C20.6631 17.8905 21.2269 17.5401 21.8412 17.3116C22.4556 17.0831 23.1083 16.9809 23.7616 17.0111H76.0108C76.6664 16.9808 77.3213 17.0827 77.9382 17.3107C78.5551 17.5387 79.1218 17.8884 79.6059 18.3398C80.09 18.7912 80.4819 19.3355 80.7593 19.9414C81.0367 20.5473 81.1941 21.2031 81.2225 21.8711Z" fill="#FFDF70"/>
<path d="M63.8209 17.0117V42.1667L55.7825 35.6417L47.6559 42.1667V17.0117H63.8209Z" fill="#E5BF55"/>
<path d="M30.9167 45.6305C26.8831 45.6305 23.0141 47.26 20.1577 50.1618C17.3014 53.0636 15.6909 57.0009 15.6792 61.1106C15.6826 64.0333 16.4773 66.8984 17.9759 69.3906L28.7967 87.1206V90.9906H31.1375L44.1667 69.0756C44.5332 68.5543 44.8165 67.9771 45.0059 67.3656C45.8386 65.4482 46.3034 63.386 46.375 61.2906V61.2906C46.3929 59.2214 46.0046 57.1694 45.233 55.2553C44.4613 53.3413 43.3219 51.6037 41.8817 50.1447C40.4415 48.6857 38.7296 47.5347 36.8466 46.7595C34.9636 45.9843 32.9474 45.6005 30.9167 45.6305ZM30.9167 68.1306C29.4666 68.1306 28.0491 67.6925 26.8434 66.8716C25.6378 66.0508 24.698 64.8842 24.1431 63.5192C23.5882 62.1542 23.443 60.6523 23.7259 59.2032C24.0088 57.7542 24.7071 56.4232 25.7324 55.3785C26.7578 54.3338 28.0642 53.6223 29.4864 53.3341C30.9086 53.0459 32.3827 53.1938 33.7224 53.7592C35.0621 54.3246 36.2071 55.282 37.0128 56.5104C37.8184 57.7389 38.2484 59.1831 38.2484 60.6606C38.2135 62.6141 37.4243 64.4749 36.0519 65.8396C34.6794 67.2043 32.8344 67.9627 30.9167 67.9506V68.1306Z" fill="#E85938"/>
<path d="M28.5758 45.6293C25.8475 45.6103 23.1646 46.3402 20.8087 47.7423C18.4528 49.1444 16.511 51.167 15.1871 53.5977C13.8632 56.0284 13.2062 58.7774 13.285 61.5561C13.3638 64.3348 14.1756 67.0405 15.635 69.3893L28.885 90.9893L41.6933 69.0743C42.0736 68.5547 42.3716 67.9777 42.5767 67.3643C43.4162 65.4511 43.867 63.3846 43.9017 61.2893C43.9193 59.2316 43.5352 57.1908 42.7718 55.2857C42.0084 53.3806 40.8809 51.6491 39.4548 50.192C38.0287 48.7348 36.3326 47.581 34.4649 46.7977C32.5973 46.0145 30.5955 45.6173 28.5758 45.6293V45.6293ZM28.5758 68.1293C27.1239 68.1382 25.7021 67.7077 24.4906 66.8923C23.2791 66.0769 22.3326 64.9134 21.7709 63.5492C21.2092 62.1851 21.0577 60.6817 21.3355 59.2297C21.6134 57.7777 22.3082 56.4425 23.3318 55.3933C24.3553 54.3441 25.6616 53.6282 27.085 53.3363C28.5084 53.0444 29.9848 53.1896 31.3271 53.7537C32.6693 54.3177 33.817 55.2751 34.6246 56.5045C35.4322 57.7339 35.8633 59.1799 35.8633 60.6593C35.8174 62.6013 35.0308 64.4487 33.6703 65.8097C32.3098 67.1707 30.4824 67.9381 28.5758 67.9493V68.1293Z" fill="#F46E49"/>
<path d="M15.358 103H14.662L17.3076 95.7273H18.0178L20.6634 103H19.9674L17.6876 96.5902H17.6378L15.358 103ZM15.8587 100.212H19.4667V100.809H15.8587V100.212ZM22.0785 103V97.5455H22.6928V98.3835H22.7496C22.8585 98.1018 23.0396 97.8804 23.293 97.7195C23.5486 97.5561 23.8552 97.4744 24.2127 97.4744C24.5891 97.4744 24.8981 97.5632 25.1395 97.7408C25.3834 97.916 25.5657 98.1574 25.6864 98.4652H25.7326C25.8557 98.1622 26.0557 97.9219 26.3327 97.7443C26.6121 97.5644 26.9506 97.4744 27.3484 97.4744C27.855 97.4744 28.2551 97.6342 28.5486 97.9538C28.8422 98.2711 28.989 98.7351 28.989 99.3459V103H28.3569V99.3459C28.3569 98.915 28.2468 98.5919 28.0266 98.3764C27.8064 98.161 27.5164 98.0533 27.1566 98.0533C26.7399 98.0533 26.4191 98.1811 26.1942 98.4368C25.9693 98.6925 25.8569 99.0168 25.8569 99.4098V103H25.2106V99.2891C25.2106 98.9197 25.1076 98.6214 24.9016 98.3942C24.6957 98.1669 24.4056 98.0533 24.0316 98.0533C23.7806 98.0533 23.5546 98.1148 23.3533 98.2379C23.1545 98.361 22.997 98.5327 22.881 98.7528C22.7674 98.9706 22.7106 99.2216 22.7106 99.5057V103H22.0785ZM31.0938 103V95.7273H31.7295V98.5859H31.7863C31.8573 98.4226 31.9591 98.2545 32.0917 98.0817C32.2267 97.9089 32.403 97.7644 32.6208 97.6484C32.841 97.5301 33.118 97.4709 33.4518 97.4709C33.8992 97.4709 34.2922 97.5893 34.6308 97.826C34.9693 98.0604 35.2333 98.3894 35.4227 98.8132C35.6121 99.2346 35.7068 99.7259 35.7068 100.287C35.7068 100.85 35.6121 101.344 35.4227 101.768C35.2356 102.192 34.9729 102.522 34.6343 102.759C34.2981 102.995 33.9075 103.114 33.4624 103.114C33.131 103.114 32.854 103.054 32.6315 102.936C32.4113 102.818 32.2338 102.672 32.0988 102.499C31.9639 102.324 31.8597 102.154 31.7863 101.988H31.7082V103H31.0938ZM31.7188 100.276C31.7188 100.717 31.7839 101.107 31.9142 101.448C32.0467 101.787 32.2361 102.053 32.4823 102.247C32.7309 102.439 33.0316 102.535 33.3843 102.535C33.7465 102.535 34.0531 102.435 34.3041 102.237C34.555 102.035 34.7456 101.764 34.8758 101.423C35.006 101.082 35.0711 100.7 35.0711 100.276C35.0711 99.8572 35.006 99.4796 34.8758 99.1435C34.748 98.8073 34.5586 98.541 34.3076 98.3445C34.0567 98.1456 33.7489 98.0462 33.3843 98.0462C33.0292 98.0462 32.7274 98.142 32.4788 98.3338C32.2326 98.5232 32.0444 98.786 31.9142 99.1222C31.7839 99.456 31.7188 99.8407 31.7188 100.276ZM37.4024 103V97.5455H38.038V103H37.4024ZM37.7255 96.608C37.5953 96.608 37.484 96.5642 37.3917 96.4766C37.2994 96.3866 37.2532 96.2789 37.2532 96.1534C37.2532 96.0279 37.2994 95.9214 37.3917 95.8338C37.484 95.7438 37.5953 95.6989 37.7255 95.6989C37.8557 95.6989 37.967 95.7438 38.0593 95.8338C38.1517 95.9214 38.1978 96.0279 38.1978 96.1534C38.1978 96.2789 38.1517 96.3866 38.0593 96.4766C37.967 96.5642 37.8557 96.608 37.7255 96.608ZM40.6418 95.7273V103H40.0097V95.7273H40.6418ZM47.6907 103.114C47.2432 103.114 46.8514 102.995 46.5153 102.759C46.1791 102.522 45.9163 102.192 45.7269 101.768C45.5399 101.344 45.4464 100.85 45.4464 100.287C45.4464 99.7259 45.5399 99.2346 45.7269 98.8132C45.9163 98.3894 46.1803 98.0604 46.5188 97.826C46.8573 97.5893 47.2515 97.4709 47.7013 97.4709C48.0328 97.4709 48.3086 97.5301 48.5287 97.6484C48.7489 97.7644 48.9253 97.9089 49.0579 98.0817C49.1904 98.2545 49.2934 98.4226 49.3668 98.5859H49.4236V95.7273H50.0593V103H49.4414V101.988H49.3668C49.2934 102.154 49.1893 102.324 49.0543 102.499C48.9194 102.672 48.7406 102.818 48.5181 102.936C48.2979 103.054 48.0221 103.114 47.6907 103.114ZM47.7653 102.535C48.118 102.535 48.4187 102.439 48.6672 102.247C48.9158 102.053 49.1052 101.787 49.2354 101.448C49.368 101.107 49.4343 100.717 49.4343 100.276C49.4343 99.8407 49.3692 99.456 49.239 99.1222C49.1088 98.786 48.9194 98.5232 48.6708 98.3338C48.4222 98.142 48.1204 98.0462 47.7653 98.0462C47.4007 98.0462 47.0929 98.1456 46.842 98.3445C46.5934 98.541 46.404 98.8073 46.2738 99.1435C46.1459 99.4796 46.082 99.8572 46.082 100.276C46.082 100.7 46.1471 101.082 46.2773 101.423C46.4075 101.764 46.5969 102.035 46.8455 102.237C47.0965 102.435 47.403 102.535 47.7653 102.535ZM52.1668 103V97.5455H52.8025V103H52.1668ZM52.49 96.608C52.3598 96.608 52.2485 96.5642 52.1562 96.4766C52.0638 96.3866 52.0177 96.2789 52.0177 96.1534C52.0177 96.0279 52.0638 95.9214 52.1562 95.8338C52.2485 95.7438 52.3598 95.6989 52.49 95.6989C52.6202 95.6989 52.7314 95.7438 52.8238 95.8338C52.9161 95.9214 52.9623 96.0279 52.9623 96.1534C52.9623 96.2789 52.9161 96.3866 52.8238 96.4766C52.7314 96.5642 52.6202 96.608 52.49 96.608ZM60.0351 97.5455V98.0959H57.4321V97.5455H60.0351ZM58.2453 96.2386H58.881V101.576C58.881 101.803 58.92 101.982 58.9982 102.112C59.0763 102.24 59.1781 102.331 59.3036 102.386C59.429 102.438 59.5628 102.464 59.7048 102.464C59.7877 102.464 59.8587 102.459 59.9179 102.45C59.9771 102.438 60.0292 102.426 60.0742 102.414L60.2091 102.986C60.1476 103.009 60.0718 103.031 59.9818 103.05C59.8919 103.071 59.7806 103.082 59.648 103.082C59.416 103.082 59.1923 103.031 58.9769 102.929C58.7638 102.827 58.5886 102.676 58.4513 102.474C58.314 102.273 58.2453 102.023 58.2453 101.725V96.2386ZM63.9173 103.114C63.4083 103.114 62.968 102.995 62.5963 102.759C62.2246 102.519 61.937 102.189 61.7334 101.768C61.5321 101.344 61.4315 100.856 61.4315 100.305C61.4315 99.7554 61.5321 99.2678 61.7334 98.8416C61.937 98.4131 62.2175 98.0781 62.575 97.8366C62.9348 97.5928 63.3503 97.4709 63.8214 97.4709C64.1174 97.4709 64.4026 97.5253 64.6773 97.6342C64.9519 97.7408 65.1981 97.9053 65.4159 98.1278C65.6361 98.348 65.8101 98.6262 65.9379 98.9624C66.0658 99.2962 66.1297 99.6915 66.1297 100.148V100.461H61.8683V99.9034H65.4834C65.4834 99.553 65.4123 99.2382 65.2703 98.9588C65.1306 98.6771 64.9353 98.4545 64.6844 98.2912C64.4358 98.1278 64.1481 98.0462 63.8214 98.0462C63.4758 98.0462 63.1716 98.1385 62.9088 98.3232C62.646 98.5078 62.44 98.7517 62.2909 99.0547C62.1441 99.3577 62.0695 99.6892 62.0672 100.049V100.383C62.0672 100.816 62.1417 101.195 62.2909 101.519C62.4424 101.841 62.6567 102.091 62.9336 102.268C63.2106 102.446 63.5385 102.535 63.9173 102.535C64.1754 102.535 64.4015 102.495 64.5956 102.414C64.7921 102.334 64.9566 102.226 65.0892 102.091C65.2241 101.954 65.3259 101.803 65.3946 101.64L65.9947 101.835C65.9119 102.065 65.7757 102.277 65.5863 102.471C65.3993 102.665 65.1649 102.821 64.8832 102.94C64.6039 103.056 64.2819 103.114 63.9173 103.114ZM67.8226 103V97.5455H68.437V98.3835H68.4938C68.6027 98.1018 68.7838 97.8804 69.0371 97.7195C69.2928 97.5561 69.5994 97.4744 69.9568 97.4744C70.3333 97.4744 70.6422 97.5632 70.8837 97.7408C71.1275 97.916 71.3098 98.1574 71.4306 98.4652H71.4767C71.5998 98.1622 71.7999 97.9219 72.0769 97.7443C72.3562 97.5644 72.6948 97.4744 73.0925 97.4744C73.5991 97.4744 73.9992 97.6342 74.2928 97.9538C74.5863 98.2711 74.7331 98.7351 74.7331 99.3459V103H74.101V99.3459C74.101 98.915 73.9909 98.5919 73.7708 98.3764C73.5506 98.161 73.2606 98.0533 72.9007 98.0533C72.4841 98.0533 72.1633 98.1811 71.9384 98.4368C71.7135 98.6925 71.601 99.0168 71.601 99.4098V103H70.9547V99.2891C70.9547 98.9197 70.8517 98.6214 70.6458 98.3942C70.4398 98.1669 70.1498 98.0533 69.7757 98.0533C69.5248 98.0533 69.2987 98.1148 69.0975 98.2379C68.8986 98.361 68.7412 98.5327 68.6252 98.7528C68.5115 98.9706 68.4547 99.2216 68.4547 99.5057V103H67.8226ZM76.7066 105.045V97.5455H77.3209V98.5859H77.3955C77.4713 98.4226 77.5754 98.2557 77.708 98.0852C77.8406 97.9124 78.0158 97.7668 78.2336 97.6484C78.4537 97.5301 78.7307 97.4709 79.0645 97.4709C79.5144 97.4709 79.9073 97.5893 80.2435 97.826C80.5821 98.0604 80.8448 98.3894 81.0319 98.8132C81.2213 99.2346 81.316 99.7259 81.316 100.287C81.316 100.85 81.2213 101.344 81.0319 101.768C80.8448 102.192 80.5821 102.522 80.2435 102.759C79.9073 102.995 79.5167 103.114 79.0716 103.114C78.7426 103.114 78.4668 103.054 78.2442 102.936C78.0241 102.818 77.8453 102.672 77.708 102.499C77.5731 102.324 77.4689 102.154 77.3955 101.988H77.3387V105.045H76.7066ZM77.3316 100.276C77.3316 100.717 77.3967 101.107 77.5269 101.448C77.6595 101.787 77.8489 102.053 78.0951 102.247C78.3437 102.439 78.6443 102.535 78.9971 102.535C79.3593 102.535 79.6647 102.435 79.9133 102.237C80.1642 102.035 80.3548 101.764 80.485 101.423C80.6176 101.082 80.6839 100.7 80.6839 100.276C80.6839 99.8572 80.6188 99.4796 80.4885 99.1435C80.3607 98.8073 80.1713 98.541 79.9204 98.3445C79.6694 98.1456 79.3617 98.0462 78.9971 98.0462C78.642 98.0462 78.3401 98.142 78.0915 98.3338C77.843 98.5232 77.6536 98.786 77.5233 99.1222C77.3955 99.456 77.3316 99.8407 77.3316 100.276ZM84.5261 103.124C84.197 103.124 83.8964 103.06 83.6241 102.933C83.3519 102.802 83.1353 102.615 82.9743 102.371C82.8133 102.125 82.7328 101.827 82.7328 101.477C82.7328 101.207 82.7837 100.979 82.8855 100.795C82.9873 100.61 83.1317 100.459 83.3187 100.34C83.5058 100.222 83.7271 100.128 83.9828 100.06C84.2385 99.991 84.5202 99.9377 84.828 99.8999C85.1334 99.862 85.3914 99.8288 85.6021 99.8004C85.8152 99.772 85.9774 99.727 86.0886 99.6655C86.1999 99.6039 86.2555 99.5045 86.2555 99.3672V99.2393C86.2555 98.8677 86.1443 98.5753 85.9217 98.3622C85.7015 98.1468 85.3843 98.0391 84.97 98.0391C84.577 98.0391 84.2562 98.1255 84.0077 98.2983C83.7614 98.4711 83.5886 98.6747 83.4892 98.9091L82.889 98.6925C83.0122 98.3942 83.1826 98.1562 83.4004 97.9787C83.6182 97.7988 83.8621 97.6697 84.1319 97.5916C84.4018 97.5111 84.6753 97.4709 84.9523 97.4709C85.1606 97.4709 85.3772 97.4981 85.6021 97.5526C85.8294 97.607 86.0401 97.7017 86.2342 97.8366C86.4283 97.9692 86.5858 98.1551 86.7065 98.3942C86.8273 98.6309 86.8876 98.9316 86.8876 99.2962V103H86.2555V102.137H86.2165C86.1407 102.298 86.0283 102.454 85.8791 102.606C85.73 102.757 85.5429 102.882 85.318 102.979C85.0931 103.076 84.8292 103.124 84.5261 103.124ZM84.6113 102.545C84.9475 102.545 85.2387 102.471 85.4849 102.322C85.7311 102.173 85.9205 101.975 86.0531 101.729C86.1881 101.48 86.2555 101.207 86.2555 100.908V100.12C86.2082 100.165 86.1289 100.205 86.0176 100.241C85.9087 100.276 85.782 100.308 85.6376 100.337C85.4956 100.363 85.3535 100.385 85.2115 100.404C85.0694 100.423 84.9416 100.44 84.828 100.454C84.5202 100.492 84.2574 100.551 84.0396 100.631C83.8218 100.712 83.6549 100.823 83.5389 100.965C83.4229 101.105 83.3649 101.285 83.3649 101.505C83.3649 101.836 83.4833 102.093 83.72 102.276C83.9568 102.455 84.2539 102.545 84.6113 102.545ZM91.0175 97.5455V98.0959H88.4145V97.5455H91.0175ZM89.2278 96.2386H89.8634V101.576C89.8634 101.803 89.9025 101.982 89.9806 102.112C90.0587 102.24 90.1605 102.331 90.286 102.386C90.4115 102.438 90.5452 102.464 90.6873 102.464C90.7701 102.464 90.8412 102.459 90.9003 102.45C90.9595 102.438 91.0116 102.426 91.0566 102.414L91.1915 102.986C91.13 103.009 91.0542 103.031 90.9643 103.05C90.8743 103.071 90.763 103.082 90.6304 103.082C90.3984 103.082 90.1747 103.031 89.9593 102.929C89.7462 102.827 89.571 102.676 89.4337 102.474C89.2964 102.273 89.2278 102.023 89.2278 101.725V96.2386Z" fill="#505050"/>
</svg>
