<svg width="51" height="51" viewBox="0 0 51 51" fill="none" xmlns="http://www.w3.org/2000/svg">
<path d="M6.99666 19.0016C6.87896 19.0036 6.76414 19.0383 6.66513 19.1019C6.56612 19.1656 6.48686 19.2556 6.43629 19.3619C6.38572 19.4681 6.36584 19.5864 6.3789 19.7034C6.39196 19.8203 6.43744 19.9313 6.5102 20.0238L10.131 24.4733V42.7233C10.131 42.8895 10.1971 43.0489 10.3146 43.1664C10.4322 43.284 10.5916 43.35 10.7579 43.35C14.9222 43.3469 20.7471 43.35 24.9089 43.35H38.5985C38.7648 43.35 38.9242 43.284 39.0418 43.1664C39.1593 43.0489 39.2254 42.8895 39.2254 42.7233V24.4915L43.196 20.0457C43.2746 19.9549 43.3257 19.8435 43.3433 19.7246C43.3608 19.6058 43.344 19.4844 43.2949 19.3747C43.2458 19.2651 43.1664 19.1717 43.066 19.1056C42.9656 19.0396 42.8485 19.0035 42.7283 19.0016H29.2857C29.2004 19.0018 29.1161 19.0193 29.0377 19.053C28.9594 19.0868 28.8887 19.136 28.83 19.1978L24.8932 23.3584L20.6625 19.1828C20.5456 19.0672 20.388 19.0022 20.2236 19.0016H6.99666ZM11.3848 24.8788H14.4652V30.2019C14.4652 30.2916 14.4844 30.3803 14.5216 30.4619C14.5588 30.5436 14.6131 30.6163 14.6809 30.6751L15.613 31.4817C15.7269 31.5803 15.8726 31.6345 16.0233 31.6345C16.174 31.6345 16.3196 31.5803 16.4336 31.4817L16.9551 31.0311L17.4673 31.4798C17.9688 31.9185 18.4483 31.3388 18.8151 31.0286C19.0395 31.2034 19.4344 31.6672 19.7497 31.6352C20.1002 31.686 20.8004 30.8788 21.0919 30.6751C21.1598 30.6164 21.2144 30.5437 21.2518 30.4621C21.2892 30.3805 21.3086 30.2917 21.3088 30.2019V24.8788H24.282V42.0966H21.4147V39.848C21.4147 39.6818 21.3487 39.5224 21.2311 39.4049C21.1135 39.2874 20.9541 39.2213 20.7878 39.2213H15.1823C15.0161 39.2213 14.8566 39.2874 14.7391 39.4049C14.6215 39.5224 14.5555 39.6818 14.5555 39.848V42.0966H11.3848V24.8788ZM20.055 24.8976V29.9149L19.7497 30.1794C18.8941 29.3822 18.7361 29.3684 17.8829 30.1794L17.3657 29.7307C16.8642 29.292 16.3878 29.8729 16.023 30.1819L15.7189 29.918V24.8976H20.055ZM15.8092 42.0966V40.4747H20.161V42.0966H15.8092ZM37.9716 42.0966H25.5358V24.8788H37.9716V42.0966ZM29.5553 20.255H41.3285L38.3196 23.6254H26.367L29.5553 20.255ZM23.3806 23.6254H11.0563L8.31309 20.255H19.9622L23.3806 23.6254ZM26.9807 6.375H22.9305C22.7642 6.375 22.6048 6.44103 22.4872 6.55855C22.3697 6.67608 22.3036 6.83549 22.3036 7.00169V11.7395H20.8806C20.77 11.7409 20.6617 11.7714 20.5665 11.8279C20.4714 11.8844 20.3928 11.9648 20.3385 12.0613C20.2843 12.1577 20.2564 12.2667 20.2576 12.3773C20.2588 12.4879 20.289 12.5962 20.3453 12.6915L24.376 19.3156C24.432 19.4076 24.5106 19.4836 24.6044 19.5363C24.6982 19.5891 24.8041 19.6168 24.9117 19.6168C25.0193 19.6168 25.1252 19.5891 25.219 19.5363C25.3128 19.4836 25.3915 19.4076 25.4474 19.3156L29.4719 12.6915C29.5281 12.5963 29.5584 12.488 29.5596 12.3774C29.5608 12.2669 29.5329 12.1579 29.4788 12.0615C29.4246 11.9651 29.3461 11.8846 29.251 11.8281C29.156 11.7716 29.0477 11.7411 28.9372 11.7395H27.6076V7.00169C27.6076 6.83549 27.5415 6.67608 27.424 6.55855C27.3064 6.44103 27.147 6.375 26.9807 6.375ZM27.822 12.9929L24.9114 17.7808L21.9958 12.9929C22.5493 12.9591 23.5235 13.2047 23.5574 12.3662V7.62839H26.3538V12.3662C26.3538 12.5324 26.4199 12.6918 26.5374 12.8093C26.655 12.9269 26.8144 12.9929 26.9807 12.9929H27.822Z" fill="#505050"/>
</svg>
