<svg width="51" height="51" viewBox="0 0 51 51" fill="none" xmlns="http://www.w3.org/2000/svg">
<path d="M34.7098 33.1949C34.6365 33.195 34.5638 33.1806 34.496 33.1526C34.4282 33.1245 34.3667 33.0833 34.3148 33.0314C34.263 32.9795 34.2219 32.9179 34.1939 32.8501C34.1659 32.7823 34.1516 32.7096 34.1517 32.6362V27.7501C34.1517 27.6768 34.1662 27.6042 34.1942 27.5365C34.2223 27.4688 34.2634 27.4073 34.3152 27.3554C34.367 27.3036 34.4286 27.2625 34.4963 27.2344C34.564 27.2064 34.6366 27.192 34.7098 27.192C36.1036 27.1935 37.4399 27.7479 38.4255 28.7334C39.4111 29.7189 39.9656 31.055 39.9673 32.4488C39.9562 32.511 39.9562 32.5746 39.9673 32.6368C39.9674 32.7101 39.953 32.7828 39.925 32.8505C39.8969 32.9182 39.8558 32.9798 39.804 33.0316C39.7522 33.0835 39.6906 33.1246 39.6228 33.1526C39.5551 33.1806 39.4825 33.195 39.4092 33.1949H34.7098ZM35.268 28.3457V32.0793H38.835C38.7499 31.1455 38.3509 30.268 37.7031 29.5899C37.0553 28.9119 36.197 28.4733 35.268 28.3457ZM15.4449 16.0006H11.4239C11.2758 16.0006 11.1339 15.9418 11.0292 15.8371C10.9245 15.7324 10.8657 15.5905 10.8657 15.4425C10.8657 15.2944 10.9245 15.1525 11.0292 15.0478C11.1339 14.9432 11.2758 14.8844 11.4239 14.8844H14.8868V11.422C14.8843 11.3472 14.8969 11.2727 14.9239 11.2029C14.9508 11.1331 14.9915 11.0694 15.0435 11.0157C15.0956 10.9619 15.1579 10.9191 15.2268 10.8899C15.2957 10.8607 15.3698 10.8457 15.4446 10.8457C15.5194 10.8457 15.5935 10.8607 15.6624 10.8899C15.7313 10.9191 15.7936 10.9619 15.8456 11.0157C15.8977 11.0694 15.9383 11.1331 15.9653 11.2029C15.9922 11.2727 16.0048 11.3472 16.0024 11.422V15.4407C16.0027 15.5141 15.9885 15.5868 15.9606 15.6548C15.9328 15.7227 15.8917 15.7844 15.8399 15.8364C15.7881 15.8885 15.7266 15.9297 15.6588 15.9579C15.591 15.9861 15.5183 16.0006 15.4449 16.0006Z" fill="#505050"/>
<path d="M10.4614 23.0303C10.6094 23.0303 10.7513 23.0891 10.856 23.1937C10.9607 23.2984 11.0195 23.4404 11.0195 23.5884V37.3448H12.7283C13.1349 36.7384 13.7262 36.2793 14.4146 36.0358V31.5138C14.4145 31.4405 14.4289 31.3679 14.4569 31.3001C14.4849 31.2324 14.526 31.1708 14.5779 31.119C14.6297 31.0672 14.6913 31.026 14.759 30.998C14.8267 30.97 14.8994 30.9556 14.9727 30.9557H17.4223V25.1247C17.4222 25.0514 17.4366 24.9789 17.4646 24.9111C17.4925 24.8434 17.5336 24.7819 17.5854 24.7301C17.6372 24.6782 17.6986 24.6371 17.7663 24.6091C17.834 24.581 17.9065 24.5666 17.9798 24.5666H23.9953C24.0685 24.5666 24.1411 24.581 24.2088 24.6091C24.2765 24.6371 24.3379 24.6782 24.3897 24.7301C24.4415 24.7819 24.4825 24.8434 24.5105 24.9111C24.5385 24.9789 24.5529 25.0514 24.5528 25.1247V30.9557H27.003C27.0763 30.9557 27.1488 30.9701 27.2165 30.9982C27.2842 31.0262 27.3457 31.0674 27.3975 31.1192C27.4492 31.171 27.4903 31.2326 27.5183 31.3003C27.5462 31.368 27.5606 31.4405 27.5605 31.5138V37.3448H30.9562V21.5434H23.1022C22.9574 21.5386 22.8201 21.4778 22.7194 21.3737C22.6186 21.2696 22.5623 21.1304 22.5623 20.9855C22.5623 20.8407 22.6186 20.7015 22.7194 20.5974C22.8201 20.4933 22.9574 20.4325 23.1022 20.4277H31.5143C31.6622 20.4277 31.804 20.4865 31.9085 20.591C32.0131 20.6956 32.0718 20.8374 32.0718 20.9853V24.1899C32.0861 24.1899 32.0986 24.1858 32.1129 24.1858H34.5304C36.8689 24.1884 39.1109 25.1187 40.7643 26.7724C42.4178 28.4261 43.3477 30.6682 43.3501 33.0067V37.3044C43.3498 37.611 43.2278 37.905 43.0109 38.1217C42.7941 38.3385 42.5 38.4603 42.1934 38.4605H40.6297C40.8024 39.1968 40.7213 39.9699 40.3997 40.6545C40.0781 41.339 39.5348 41.8949 38.8578 42.2322H42.792C42.94 42.2322 43.082 42.291 43.1866 42.3956C43.2913 42.5003 43.3501 42.6423 43.3501 42.7903C43.3501 42.9383 43.2913 43.0803 43.1866 43.1849C43.082 43.2896 42.94 43.3484 42.792 43.3484H10.4614C10.3133 43.3484 10.1714 43.2896 10.0667 43.1849C9.96206 43.0803 9.90326 42.9383 9.90326 42.7903C9.90326 42.6423 9.96206 42.5003 10.0667 42.3956C10.1714 42.291 10.3133 42.2322 10.4614 42.2322H14.0165C13.3395 41.8949 12.7962 41.339 12.4746 40.6545C12.153 39.9699 12.072 39.1968 12.2446 38.4605H10.4596C10.3863 38.4605 10.3138 38.4462 10.246 38.4182C10.1783 38.3902 10.1168 38.3492 10.065 38.2974C10.0131 38.2456 9.97202 38.1841 9.94397 38.1164C9.91591 38.0488 9.90147 37.9762 9.90147 37.9029V23.5884C9.90147 23.5149 9.91597 23.4422 9.94413 23.3744C9.97228 23.3066 10.0136 23.245 10.0656 23.1931C10.1176 23.1413 10.1793 23.1002 10.2472 23.0722C10.3152 23.0443 10.3879 23.03 10.4614 23.0303V23.0303ZM15.5308 35.8419H15.5367C16.0115 35.8425 16.4808 35.9436 16.9137 36.1384C17.3467 36.3332 17.7335 36.6174 18.0488 36.9724H20.4288V32.0695H15.5302L15.5308 35.8419ZM23.4372 25.6774H18.5385V30.5761H23.4372V25.6774ZM26.4449 32.0678H21.5457V36.9676H26.4449V32.0678ZM42.1934 37.3448C42.1988 37.3449 42.2041 37.3439 42.2091 37.3419C42.2141 37.3399 42.2186 37.337 42.2224 37.3332C42.2262 37.3294 42.2293 37.3249 42.2313 37.32C42.2334 37.315 42.2345 37.3097 42.2345 37.3044V33.0067C42.2321 30.9642 41.4197 29.0061 39.9753 27.5619C38.531 26.1177 36.5729 25.3054 34.5304 25.3032H32.1129C32.1021 25.3032 32.0918 25.3074 32.0841 25.315C32.0764 25.3226 32.072 25.3329 32.0718 25.3436V37.3032C32.0718 37.3085 32.0729 37.3139 32.075 37.3188C32.077 37.3237 32.0801 37.3282 32.0839 37.332C32.0877 37.3358 32.0922 37.3387 32.0972 37.3407C32.1022 37.3427 32.1075 37.3437 32.1129 37.3436H34.5334C34.8414 36.8812 35.2589 36.502 35.7487 36.2397C36.2385 35.9774 36.7855 35.8402 37.3412 35.8402C37.8968 35.8402 38.4438 35.9774 38.9337 36.2397C39.4235 36.502 39.841 36.8812 40.149 37.3436L42.1934 37.3448ZM39.6016 39.2185C39.6014 38.9114 39.5383 38.6076 39.4159 38.326C39.3101 38.2371 39.2419 38.1115 39.2249 37.9743C38.9253 37.5229 38.4733 37.1944 37.9515 37.0486C37.4297 36.9028 36.8729 36.9496 36.3827 37.1804C35.8925 37.4111 35.5016 37.8105 35.2815 38.3055C35.0613 38.8006 35.0266 39.3583 35.1835 39.8769C35.3405 40.3954 35.6788 40.8402 36.1365 41.1301C36.5943 41.4199 37.141 41.5354 37.6769 41.4556C38.2128 41.3757 38.702 41.1058 39.0554 40.6951C39.4088 40.2844 39.6026 39.7603 39.6016 39.2185V39.2185ZM35.8227 42.2322C35.1454 41.8953 34.6018 41.3395 34.2803 40.6548C33.9587 39.9701 33.8781 39.1968 34.0514 38.4605H32.1117C31.9903 38.4596 31.8698 38.4395 31.7547 38.401C31.6792 38.4392 31.596 38.4596 31.5113 38.4605H18.8253C18.9977 39.1971 18.9163 39.9704 18.5943 40.655C18.2723 41.3396 17.7284 41.8953 17.051 42.2322H35.8227ZM15.5332 41.4801C15.9804 41.4801 16.4175 41.3475 16.7893 41.099C17.1611 40.8506 17.4509 40.4975 17.6221 40.0843C17.7932 39.6712 17.838 39.2166 17.7507 38.778C17.6635 38.3394 17.4481 37.9365 17.1319 37.6203C16.8157 37.3041 16.4129 37.0888 15.9743 37.0015C15.5357 36.9143 15.0811 36.9591 14.6679 37.1302C14.2548 37.3013 13.9016 37.5911 13.6532 37.9629C13.4048 38.3348 13.2722 38.7719 13.2722 39.2191C13.2722 39.5163 13.3308 39.8106 13.4446 40.0852C13.5585 40.3597 13.7253 40.6091 13.9357 40.8191C14.146 41.0291 14.3957 41.1956 14.6704 41.309C14.9451 41.4224 15.2395 41.4806 15.5367 41.4801H15.5332Z" fill="#505050"/>
<path d="M15.4447 23.2394C13.9033 23.2394 12.3964 22.7824 11.1147 21.9261C9.83297 21.0698 8.83393 19.8526 8.24387 18.4286C7.65382 17.0045 7.49925 15.4375 7.79972 13.9256C8.10018 12.4137 8.84218 11.0248 9.93191 9.93462C11.0216 8.84439 12.4102 8.10176 13.9219 7.8006C15.4337 7.49944 17.0008 7.65329 18.4251 8.24269C19.8494 8.83209 21.067 9.83058 21.9239 11.1119C22.7808 12.3932 23.2386 13.8999 23.2393 15.4413C23.2374 17.5083 22.4157 19.4902 20.9544 20.9521C19.4932 22.414 17.5117 23.2366 15.4447 23.2394ZM15.4447 8.76364C14.1235 8.76376 12.8319 9.1557 11.7334 9.88989C10.6349 10.6241 9.77877 11.6676 9.27334 12.8883C8.7679 14.1091 8.63583 15.4524 8.89384 16.7482C9.15186 18.044 9.78836 19.2342 10.7228 20.1683C11.6573 21.1024 12.8478 21.7384 14.1438 21.9958C15.4397 22.2532 16.7829 22.1206 18.0035 21.6146C19.224 21.1086 20.2671 20.252 21.0008 19.1532C21.7345 18.0544 22.1259 16.7626 22.1254 15.4413C22.1227 13.6706 21.4179 11.9732 20.1656 10.7214C18.9132 9.46958 17.2155 8.76553 15.4447 8.76364V8.76364Z" fill="#505050"/>
</svg>
