<svg width="51" height="51" viewBox="0 0 51 51" fill="none" xmlns="http://www.w3.org/2000/svg">
<path d="M34.7096 33.1949C34.6362 33.195 34.5636 33.1806 34.4958 33.1526C34.428 33.1245 34.3664 33.0833 34.3146 33.0314C34.2627 32.9795 34.2216 32.9179 34.1936 32.8501C34.1657 32.7823 34.1513 32.7096 34.1515 32.6362V27.7501C34.1515 27.6768 34.1659 27.6042 34.194 27.5365C34.222 27.4688 34.2631 27.4073 34.315 27.3554C34.3668 27.3036 34.4283 27.2625 34.496 27.2344C34.5637 27.2064 34.6363 27.192 34.7096 27.192C36.1034 27.1935 37.4396 27.7479 38.4252 28.7334C39.4108 29.7189 39.9653 31.055 39.967 32.4488C39.956 32.511 39.956 32.5746 39.967 32.6368C39.9671 32.7101 39.9527 32.7828 39.9247 32.8505C39.8967 32.9182 39.8556 32.9798 39.8037 33.0316C39.7519 33.0835 39.6904 33.1246 39.6226 33.1526C39.5549 33.1806 39.4822 33.195 39.4089 33.1949H34.7096ZM35.2677 28.3457V32.0793H38.8348C38.7496 31.1455 38.3506 30.268 37.7029 29.5899C37.0551 28.9119 36.1967 28.4733 35.2677 28.3457ZM15.4446 16.0006H11.4236C11.2756 16.0006 11.1336 15.9418 11.029 15.8371C10.9243 15.7324 10.8655 15.5905 10.8655 15.4425C10.8655 15.2944 10.9243 15.1525 11.029 15.0478C11.1336 14.9432 11.2756 14.8844 11.4236 14.8844H14.8865V11.422C14.8841 11.3472 14.8967 11.2727 14.9236 11.2029C14.9506 11.1331 14.9913 11.0694 15.0433 11.0157C15.0953 10.9619 15.1577 10.9191 15.2266 10.8899C15.2954 10.8607 15.3695 10.8457 15.4443 10.8457C15.5192 10.8457 15.5932 10.8607 15.6621 10.8899C15.731 10.9191 15.7933 10.9619 15.8454 11.0157C15.8974 11.0694 15.9381 11.1331 15.965 11.2029C15.992 11.2727 16.0046 11.3472 16.0021 11.422V15.4407C16.0025 15.5141 15.9883 15.5868 15.9604 15.6548C15.9325 15.7227 15.8915 15.7844 15.8397 15.8364C15.7879 15.8885 15.7263 15.9297 15.6585 15.9579C15.5907 15.9861 15.518 16.0006 15.4446 16.0006Z" fill="white"/>
<path d="M10.4611 23.0303C10.6091 23.0303 10.7511 23.0891 10.8558 23.1937C10.9604 23.2984 11.0192 23.4404 11.0192 23.5884V37.3448H12.7281C13.1346 36.7384 13.726 36.2793 14.4143 36.0358V31.5138C14.4142 31.4405 14.4286 31.3679 14.4566 31.3001C14.4847 31.2324 14.5258 31.1708 14.5776 31.119C14.6295 31.0672 14.691 31.026 14.7588 30.998C14.8265 30.97 14.8991 30.9556 14.9724 30.9557H17.4221V25.1247C17.422 25.0514 17.4363 24.9789 17.4643 24.9111C17.4923 24.8434 17.5334 24.7819 17.5851 24.7301C17.6369 24.6782 17.6984 24.6371 17.7661 24.6091C17.8338 24.581 17.9063 24.5666 17.9796 24.5666H23.995C24.0683 24.5666 24.1408 24.581 24.2085 24.6091C24.2762 24.6371 24.3377 24.6782 24.3895 24.7301C24.4412 24.7819 24.4823 24.8434 24.5103 24.9111C24.5383 24.9789 24.5526 25.0514 24.5526 25.1247V30.9557H27.0028C27.076 30.9557 27.1486 30.9701 27.2163 30.9982C27.2839 31.0262 27.3454 31.0674 27.3972 31.1192C27.449 31.171 27.49 31.2326 27.518 31.3003C27.546 31.368 27.5604 31.4405 27.5603 31.5138V37.3448H30.956V21.5434H23.1019C22.9572 21.5386 22.8199 21.4778 22.7191 21.3737C22.6184 21.2696 22.562 21.1304 22.562 20.9855C22.562 20.8407 22.6184 20.7015 22.7191 20.5974C22.8199 20.4933 22.9572 20.4325 23.1019 20.4277H31.5141C31.6619 20.4277 31.8037 20.4865 31.9083 20.591C32.0129 20.6956 32.0716 20.8374 32.0716 20.9853V24.1899C32.0859 24.1899 32.0984 24.1858 32.1126 24.1858H34.5301C36.8687 24.1884 39.1106 25.1187 40.7641 26.7724C42.4176 28.4261 43.3475 30.6682 43.3499 33.0067V37.3044C43.3495 37.611 43.2276 37.905 43.0107 38.1217C42.7938 38.3385 42.4998 38.4603 42.1932 38.4605H40.6295C40.8021 39.1968 40.7211 39.9699 40.3995 40.6545C40.0779 41.339 39.5346 41.8949 38.8576 42.2322H42.7917C42.9398 42.2322 43.0817 42.291 43.1864 42.3956C43.2911 42.5003 43.3499 42.6423 43.3499 42.7903C43.3499 42.9383 43.2911 43.0803 43.1864 43.1849C43.0817 43.2896 42.9398 43.3484 42.7917 43.3484H10.4611C10.3131 43.3484 10.1711 43.2896 10.0665 43.1849C9.96181 43.0803 9.90301 42.9383 9.90301 42.7903C9.90301 42.6423 9.96181 42.5003 10.0665 42.3956C10.1711 42.291 10.3131 42.2322 10.4611 42.2322H14.0163C13.3393 41.8949 12.796 41.339 12.4744 40.6545C12.1528 39.9699 12.0717 39.1968 12.2443 38.4605H10.4593C10.3861 38.4605 10.3135 38.4462 10.2458 38.4182C10.1781 38.3902 10.1166 38.3492 10.0647 38.2974C10.0129 38.2456 9.97178 38.1841 9.94372 38.1164C9.91567 38.0488 9.90123 37.9762 9.90123 37.9029V23.5884C9.90123 23.5149 9.91572 23.4422 9.94388 23.3744C9.97204 23.3066 10.0133 23.245 10.0653 23.1931C10.1173 23.1413 10.1791 23.1002 10.247 23.0722C10.3149 23.0443 10.3877 23.03 10.4611 23.0303V23.0303ZM15.5305 35.8419H15.5365C16.0113 35.8425 16.4805 35.9436 16.9135 36.1384C17.3464 36.3332 17.7333 36.6174 18.0486 36.9724H20.4286V32.0695H15.5299L15.5305 35.8419ZM23.4369 25.6774H18.5383V30.5761H23.4369V25.6774ZM26.4447 32.0678H21.5454V36.9676H26.4447V32.0678ZM42.1932 37.3448C42.1985 37.3449 42.2039 37.3439 42.2088 37.3419C42.2138 37.3399 42.2183 37.337 42.2222 37.3332C42.226 37.3294 42.229 37.3249 42.2311 37.32C42.2332 37.315 42.2342 37.3097 42.2342 37.3044V33.0067C42.2319 30.9642 41.4194 29.0061 39.9751 27.5619C38.5308 26.1177 36.5726 25.3054 34.5301 25.3032H32.1126C32.1019 25.3032 32.0915 25.3074 32.0838 25.315C32.0761 25.3226 32.0717 25.3329 32.0716 25.3436V37.3032C32.0716 37.3085 32.0727 37.3139 32.0747 37.3188C32.0768 37.3237 32.0798 37.3282 32.0837 37.332C32.0875 37.3358 32.092 37.3387 32.097 37.3407C32.102 37.3427 32.1073 37.3437 32.1126 37.3436H34.5331C34.8411 36.8812 35.2586 36.502 35.7484 36.2397C36.2383 35.9774 36.7853 35.8402 37.3409 35.8402C37.8966 35.8402 38.4436 35.9774 38.9334 36.2397C39.4233 36.502 39.8407 36.8812 40.1487 37.3436L42.1932 37.3448ZM39.6013 39.2185C39.6012 38.9114 39.538 38.6076 39.4157 38.326C39.3099 38.2371 39.2417 38.1115 39.2247 37.9743C38.9251 37.5229 38.4731 37.1944 37.9513 37.0486C37.4294 36.9028 36.8726 36.9496 36.3824 37.1804C35.8922 37.4111 35.5014 37.8105 35.2812 38.3055C35.0611 38.8006 35.0263 39.3583 35.1833 39.8769C35.3403 40.3954 35.6785 40.8402 36.1363 41.1301C36.594 41.4199 37.1408 41.5354 37.6766 41.4556C38.2125 41.3757 38.7018 41.1058 39.0552 40.6951C39.4085 40.2844 39.6024 39.7603 39.6013 39.2185V39.2185ZM35.8225 42.2322C35.1452 41.8953 34.6016 41.3395 34.28 40.6548C33.9585 39.9701 33.8778 39.1968 34.0512 38.4605H32.1115C31.9901 38.4596 31.8696 38.4395 31.7545 38.401C31.679 38.4392 31.5957 38.4596 31.5111 38.4605H18.8251C18.9975 39.1971 18.9161 39.9704 18.5941 40.655C18.272 41.3396 17.7282 41.8953 17.0508 42.2322H35.8225ZM15.5329 41.4801C15.9801 41.4801 16.4172 41.3475 16.7891 41.099C17.1609 40.8506 17.4507 40.4975 17.6218 40.0843C17.7929 39.6712 17.8377 39.2166 17.7505 38.778C17.6632 38.3394 17.4479 37.9365 17.1317 37.6203C16.8155 37.3041 16.4126 37.0888 15.974 37.0015C15.5354 36.9143 15.0808 36.9591 14.6677 37.1302C14.2545 37.3013 13.9014 37.5911 13.653 37.9629C13.4045 38.3348 13.2719 38.7719 13.2719 39.2191C13.2719 39.5163 13.3305 39.8106 13.4444 40.0852C13.5582 40.3597 13.7251 40.6091 13.9354 40.8191C14.1457 41.0291 14.3954 41.1956 14.6701 41.309C14.9449 41.4224 15.2393 41.4806 15.5365 41.4801H15.5329Z" fill="white"/>
<path d="M15.4447 23.2394C13.9033 23.2394 12.3964 22.7824 11.1147 21.9261C9.83297 21.0698 8.83393 19.8526 8.24387 18.4286C7.65382 17.0045 7.49925 15.4375 7.79972 13.9256C8.10018 12.4137 8.84218 11.0248 9.93191 9.93462C11.0216 8.84439 12.4102 8.10176 13.9219 7.8006C15.4337 7.49944 17.0008 7.65329 18.4251 8.24269C19.8494 8.83209 21.067 9.83058 21.9239 11.1119C22.7808 12.3932 23.2386 13.8999 23.2393 15.4413C23.2374 17.5083 22.4157 19.4902 20.9544 20.9521C19.4932 22.414 17.5117 23.2366 15.4447 23.2394ZM15.4447 8.76364C14.1235 8.76376 12.8319 9.1557 11.7334 9.88989C10.6349 10.6241 9.77877 11.6676 9.27334 12.8883C8.7679 14.1091 8.63583 15.4524 8.89384 16.7482C9.15186 18.044 9.78836 19.2342 10.7228 20.1683C11.6573 21.1024 12.8478 21.7384 14.1438 21.9958C15.4397 22.2532 16.7829 22.1206 18.0035 21.6146C19.224 21.1086 20.2671 20.252 21.0008 19.1532C21.7345 18.0544 22.1259 16.7626 22.1254 15.4413C22.1227 13.6706 21.4179 11.9732 20.1656 10.7214C18.9132 9.46958 17.2155 8.76553 15.4447 8.76364V8.76364Z" fill="white"/>
</svg>
