<svg width="51" height="51" viewBox="0 0 51 51" fill="none" xmlns="http://www.w3.org/2000/svg">
<path d="M35.6767 29.2439C36.3287 29.2439 36.8572 28.7154 36.8572 28.0634C36.8572 27.4114 36.3287 26.8828 35.6767 26.8828C35.0246 26.8828 34.4961 27.4114 34.4961 28.0634C34.4961 28.7154 35.0246 29.2439 35.6767 29.2439Z" fill="white"/>
<path d="M40.304 23.7028H40.2096V17.434C40.2031 15.8066 38.8855 14.489 37.2582 14.4826C36.9322 14.4826 36.6679 14.7468 36.6679 15.0728C36.6679 15.3989 36.9322 15.6631 37.2582 15.6631C38.2362 15.6631 39.029 16.456 39.029 17.434V17.7645H38.3679L34.8262 14.2228L32.2526 11.6492C32.1418 11.5375 31.9909 11.4746 31.8335 11.4746C31.6761 11.4746 31.5252 11.5375 31.4144 11.6492L28.2977 14.7659L25.1692 11.6492C24.9357 11.4228 24.5645 11.4228 24.331 11.6492L18.2157 17.7645H16.1025C15.7765 17.7645 15.5122 18.0288 15.5122 18.3548C15.5122 18.6808 15.7765 18.9451 16.1025 18.9451H39.029V23.6673H35.5818C33.2998 23.6673 31.4498 25.5173 31.4498 27.7993V28.2479C31.4498 30.53 33.2998 32.3799 35.5818 32.3799H40.304C41.282 32.3799 42.0749 31.5871 42.0749 30.6091V25.4736C42.0749 24.4956 41.282 23.7028 40.304 23.7028ZM31.8394 12.9006L33.5512 14.6124C32.516 15.308 31.1628 15.308 30.1276 14.6124L31.8394 12.9006ZM29.2894 15.4506C30.7951 16.6 32.8837 16.6 34.3894 15.4506L36.7505 17.8118H31.2845L29.1241 15.6041L29.2894 15.4506ZM22.4421 17.8118L25.9838 14.2701L26.8102 15.0965L24.0949 17.7645L22.4421 17.8118ZM27.6956 15.8874L29.679 17.7645H25.7595L27.6956 15.8874ZM24.756 12.9006L25.1928 13.3374L20.7657 17.7645H19.8921L24.756 12.9006ZM40.8943 30.6091C40.8943 30.9351 40.63 31.1993 40.304 31.1993H35.5818C34.799 31.1993 34.0483 30.8884 33.4948 30.3349C32.9413 29.7814 32.6304 29.0307 32.6304 28.2479V27.7993C32.6304 26.1693 33.9518 24.8479 35.5818 24.8479H40.304C40.63 24.8479 40.8943 25.1122 40.8943 25.4382V30.6091Z" fill="white"/>
<path d="M39.6198 33.576C39.2938 33.576 39.0296 33.8403 39.0296 34.1663V36.3267C39.0296 37.3048 38.2367 38.0976 37.2587 38.0976H13.1516C12.1736 38.0976 11.3808 37.3048 11.3808 36.3267V17.4377C11.3808 16.4597 12.1736 15.6669 13.1516 15.6669H18.9482C19.2742 15.6669 19.5385 15.4026 19.5385 15.0766C19.5385 14.7506 19.2742 14.4863 18.9482 14.4863H13.1516C11.5216 14.4863 10.2002 15.8077 10.2002 17.4377V36.3267C10.2002 37.9568 11.5216 39.2782 13.1516 39.2782H37.2587C38.886 39.2717 40.2036 37.9541 40.2101 36.3267V34.1663C40.2101 33.8403 39.9458 33.576 39.6198 33.576Z" fill="white"/>
</svg>
