<svg width="33" height="29" viewBox="0 0 33 29" fill="none" xmlns="http://www.w3.org/2000/svg">
<path d="M25.6767 18.2439C26.3287 18.2439 26.8572 17.7154 26.8572 17.0634C26.8572 16.4114 26.3287 15.8828 25.6767 15.8828C25.0246 15.8828 24.4961 16.4114 24.4961 17.0634C24.4961 17.7154 25.0246 18.2439 25.6767 18.2439Z" fill="#505050"/>
<path d="M30.304 12.7028H30.2096V6.43397C30.2031 4.80664 28.8855 3.48904 27.2582 3.48257C26.9322 3.48257 26.6679 3.74684 26.6679 4.07285C26.6679 4.39885 26.9322 4.66313 27.2582 4.66313C28.2362 4.66313 29.029 5.45596 29.029 6.43397V6.76453H28.3679L24.8262 3.22284L22.2526 0.649214C22.1418 0.537466 21.9909 0.474609 21.8335 0.474609C21.6761 0.474609 21.5252 0.537466 21.4144 0.649214L18.2977 3.7659L15.1692 0.649214C14.9357 0.422801 14.5645 0.422801 14.331 0.649214L8.2157 6.76453H6.10249C5.77649 6.76453 5.51221 7.02881 5.51221 7.35481C5.51221 7.68082 5.77649 7.9451 6.10249 7.9451H29.029V12.6673H25.5818C23.2998 12.6673 21.4498 14.5173 21.4498 16.7993V17.2479C21.4498 19.53 23.2998 21.3799 25.5818 21.3799H30.304C31.282 21.3799 32.0749 20.5871 32.0749 19.6091V14.4736C32.0749 13.4956 31.282 12.7028 30.304 12.7028ZM21.8394 1.90061L23.5512 3.61243C22.516 4.30798 21.1628 4.30798 20.1276 3.61243L21.8394 1.90061ZM19.2894 4.45063C20.7951 5.59996 22.8837 5.59996 24.3894 4.45063L26.7505 6.81175H21.2845L19.1241 4.6041L19.2894 4.45063ZM12.4421 6.81175L15.9838 3.27006L16.8102 4.09646L14.0949 6.76453L12.4421 6.81175ZM17.6956 4.88744L19.679 6.76453H15.7595L17.6956 4.88744ZM14.756 1.90061L15.1928 2.33742L10.7657 6.76453H9.8921L14.756 1.90061ZM30.8943 19.6091C30.8943 19.9351 30.63 20.1993 30.304 20.1993H25.5818C24.799 20.1993 24.0483 19.8884 23.4948 19.3349C22.9413 18.7814 22.6304 18.0307 22.6304 17.2479V16.7993C22.6304 15.1693 23.9518 13.8479 25.5818 13.8479H30.304C30.63 13.8479 30.8943 14.1122 30.8943 14.4382V19.6091Z" fill="#505050"/>
<path d="M29.6198 22.576C29.2938 22.576 29.0296 22.8403 29.0296 23.1663V25.3267C29.0296 26.3048 28.2367 27.0976 27.2587 27.0976H3.1516C2.17359 27.0976 1.38076 26.3048 1.38076 25.3267V6.43774C1.38076 5.45973 2.17359 4.66689 3.1516 4.66689H8.94817C9.27417 4.66689 9.53845 4.40261 9.53845 4.07661C9.53845 3.75061 9.27417 3.48633 8.94817 3.48633H3.1516C1.52159 3.48633 0.200195 4.80772 0.200195 6.43774V25.3267C0.200195 26.9568 1.52159 28.2782 3.1516 28.2782H27.2587C28.886 28.2717 30.2036 26.9541 30.2101 25.3267V23.1663C30.2101 22.8403 29.9458 22.576 29.6198 22.576Z" fill="#505050"/>
</svg>
