<svg width="184" height="110" viewBox="0 0 184 110" fill="none" xmlns="http://www.w3.org/2000/svg">
<g clip-path="url(#clip0_103_3103)">
<rect y="0.5" width="184" height="109" rx="8" fill="white"/>
<path fill-rule="evenodd" clip-rule="evenodd" d="M90.3009 19.0297C98.3769 18.5296 107.105 14.0822 113.651 18.6839C120.598 23.5666 121.066 33.009 121.942 41.2716C122.963 50.889 125.632 61.7996 118.992 69.0254C112.198 76.4186 100.356 77.5068 90.3009 75.704C81.6753 74.1576 76.0407 66.9892 70.5823 60.346C65.9463 54.7036 62.1613 48.4774 62.0093 41.2716C61.8541 33.914 63.8569 26.0436 69.7607 21.4024C75.3235 17.0291 83.1473 19.4728 90.3009 19.0297Z" fill="url(#paint0_linear_103_3103)" fill-opacity="0.59"/>
<mask id="mask0_103_3103" style="mask-type:alpha" maskUnits="userSpaceOnUse" x="60" y="2" width="64" height="75">
<path fill-rule="evenodd" clip-rule="evenodd" d="M94.9213 2.11618C102.997 1.61601 107.103 14.0841 113.649 18.6859C120.595 23.5684 121.063 33.011 121.94 41.2734C122.96 50.891 125.63 61.8014 118.99 69.0274C112.196 76.4206 100.353 77.5088 90.2986 75.706C81.6728 74.1596 67.7298 78.4154 62.2714 71.7722C57.6354 66.13 64.4814 48.4792 64.3294 41.2734C64.1742 33.916 60.6604 23.3272 66.564 18.6859C72.1268 14.3126 87.7677 2.55924 94.9213 2.11618Z" fill="#C4C4C4"/>
</mask>
<g mask="url(#mask0_103_3103)">
<path d="M114.887 62.4374V64.541C114.887 67.3842 106.433 69.6882 96.0035 69.6882C85.5745 69.6882 77.1201 67.382 77.1201 64.541V62.4374H78.7625C81.7133 60.6472 88.3229 59.3906 95.9977 59.3906C103.673 59.3906 110.289 60.6416 113.233 62.4374H114.887Z" fill="#7D3E56"/>
<path d="M96.0035 67.6408C106.433 67.6408 114.887 65.3348 114.887 62.4902C114.887 59.6458 106.433 57.3398 96.0035 57.3398C85.5745 57.3398 77.1201 59.6458 77.1201 62.4902C77.1201 65.3348 85.5745 67.6408 96.0035 67.6408Z" fill="#BF5446"/>
<path d="M75.6068 49.9414L74.5564 75.6298C74.5496 75.7956 74.5774 75.961 74.6384 76.116C74.6992 76.2712 74.7918 76.4126 74.9106 76.5322C75.0296 76.6518 75.1722 76.7468 75.3298 76.8118C75.4876 76.8766 75.6574 76.91 75.8288 76.91H76.2766C76.583 76.91 76.8794 76.8028 77.1108 76.6084C77.3422 76.4138 77.4932 76.145 77.5362 75.8514L81.1116 51.4084L75.6068 49.9414Z" fill="#7D3E56"/>
<path d="M117.117 49.9414L118.167 75.6298C118.174 75.7956 118.146 75.961 118.085 76.116C118.024 76.2712 117.932 76.4126 117.813 76.5322C117.694 76.6518 117.552 76.7468 117.394 76.8118C117.236 76.8766 117.066 76.91 116.895 76.91H116.443C116.136 76.9102 115.839 76.8032 115.608 76.6086C115.376 76.4142 115.225 76.1452 115.182 75.8514L111.607 51.4084L117.117 49.9414Z" fill="#7D3E56"/>
<path d="M125.154 44.5469V47.1551C125.154 50.6821 112.459 53.5409 96.7989 53.5409C81.1393 53.5409 68.4443 50.6877 68.4443 47.1551V44.5469H70.9103C75.3407 42.3203 85.2665 40.7695 96.7989 40.7695C108.332 40.7695 118.257 42.3203 122.686 44.5469H125.154Z" fill="#BF5446"/>
<path d="M96.7989 50.998C112.459 50.998 125.154 48.139 125.154 44.6124C125.154 41.0856 112.459 38.2266 96.7989 38.2266C81.1391 38.2266 68.4443 41.0856 68.4443 44.6124C68.4443 48.139 81.1391 50.998 96.7989 50.998Z" fill="#F88342"/>
<path d="M96.0023 47.1523C100.973 47.1523 105.002 46.3093 105.002 45.2695C105.002 44.2297 100.973 43.3867 96.0023 43.3867C91.0321 43.3867 87.0029 44.2297 87.0029 45.2695C87.0029 46.3093 91.0321 47.1523 96.0023 47.1523Z" fill="#BF5446"/>
<path d="M95.282 28.5796C95.282 28.5796 90.8674 13.9976 91.6344 10.8737C92.4014 7.74976 96.3724 13.6815 96.6848 19.063C96.9974 24.4444 95.282 28.5796 95.282 28.5796Z" fill="#607845"/>
<path d="M95.9531 30.3686C95.9531 30.3686 97.7267 19.5312 100.549 16.6456C103.371 13.7601 104.016 12.9203 104.016 13.8783C104.016 14.8362 101.274 24.3624 99.3387 27.0138C97.4033 29.665 95.9531 30.3686 95.9531 30.3686Z" fill="#607845"/>
<path d="M95.2836 27.5308C95.2836 27.5308 89.661 20.6124 88.291 15.977C86.9212 11.3417 90.5488 13.0564 92.4832 17.4235C94.4176 21.7906 95.2836 27.5308 95.2836 27.5308Z" fill="#8DAC54"/>
<path d="M96.1098 29.723C96.1098 29.723 94.094 20.9334 96.1098 14.9281C98.1256 8.92292 98.7704 8.5323 99.3348 10.4822C99.8992 12.4322 100.061 16.7918 98.69 22.763C97.319 28.7342 96.1098 29.723 96.1098 29.723Z" fill="#8DAC54"/>
<path d="M102.839 37.814C102.767 40.262 101.244 43.1624 100.452 44.51C100.316 44.7412 100.119 44.9334 99.8812 45.0672C99.6436 45.2008 99.3734 45.2712 99.0984 45.271H94.2712C93.9964 45.271 93.7262 45.2006 93.4886 45.067C93.2508 44.9334 93.054 44.7412 92.9178 44.51C92.1256 43.1624 90.6072 40.2664 90.5312 37.814C90.4334 34.492 91.757 34.1154 92.8848 32.2442C93.6804 30.9274 93.357 28.4538 93.0962 27.1022C93.074 26.9872 93.0784 26.8688 93.1088 26.7556C93.1392 26.6424 93.1952 26.5372 93.2724 26.4472C93.3498 26.3574 93.4466 26.285 93.5562 26.2354C93.6656 26.1858 93.785 26.16 93.906 26.1602H99.4638C99.5846 26.16 99.7042 26.1858 99.8136 26.2354C99.9232 26.285 100.02 26.3574 100.097 26.4472C100.175 26.5372 100.231 26.6424 100.261 26.7556C100.292 26.8688 100.297 26.987 100.275 27.1022C100.013 28.4538 99.6904 30.9274 100.485 32.2442C101.613 34.1154 102.936 34.49 102.839 37.814Z" fill="#EBC174"/>
</g>
<path d="M63.2456 99.5V89.3182H69.6291V90.6406H64.7818V93.7429H69.296V95.0604H64.7818V98.1776H69.6887V99.5H63.2456ZM72.929 96.9098L72.919 95.0952H73.1776L76.2202 91.8636H78L74.5298 95.5426H74.2962L72.929 96.9098ZM71.5618 99.5V89.3182H73.0483V99.5H71.5618ZM76.3842 99.5L73.6499 95.8707L74.674 94.8317L78.2088 99.5H76.3842ZM85.0771 93.728L83.7298 93.9666C83.6734 93.7943 83.5839 93.6302 83.4613 93.4744C83.342 93.3187 83.1796 93.1911 82.9741 93.0916C82.7686 92.9922 82.5117 92.9425 82.2035 92.9425C81.7826 92.9425 81.4312 93.0369 81.1495 93.2259C80.8678 93.4115 80.7269 93.6518 80.7269 93.9467C80.7269 94.2019 80.8214 94.4074 81.0103 94.5632C81.1992 94.719 81.5041 94.8466 81.9251 94.946L83.1381 95.2244C83.8408 95.3868 84.3645 95.6371 84.7092 95.9751C85.0539 96.3132 85.2262 96.7524 85.2262 97.2926C85.2262 97.75 85.0936 98.1577 84.8285 98.5156C84.5666 98.8703 84.2004 99.1487 83.7298 99.3509C83.2624 99.553 82.7205 99.6541 82.104 99.6541C81.2489 99.6541 80.5513 99.4718 80.011 99.1072C79.4708 98.7393 79.1393 98.2173 79.0167 97.5412L80.4535 97.3224C80.543 97.697 80.7269 97.9804 81.0053 98.1726C81.2837 98.3615 81.6467 98.456 82.0941 98.456C82.5813 98.456 82.9708 98.3549 83.2624 98.1527C83.5541 97.9472 83.6999 97.697 83.6999 97.402C83.6999 97.1634 83.6104 96.9628 83.4315 96.8004C83.2558 96.638 82.9857 96.5154 82.6211 96.4325L81.3285 96.1491C80.6159 95.9867 80.0889 95.7282 79.7475 95.3736C79.4094 95.0189 79.2404 94.5698 79.2404 94.0263C79.2404 93.5755 79.3664 93.1811 79.6183 92.843C79.8701 92.505 80.2182 92.2415 80.6623 92.0526C81.1064 91.8603 81.6152 91.7642 82.1886 91.7642C83.0138 91.7642 83.6635 91.9432 84.1374 92.3011C84.6114 92.6558 84.9246 93.1314 85.0771 93.728ZM90.4252 91.8636V93.0568H86.2541V91.8636H90.4252ZM87.3727 90.0341H88.8592V97.2578C88.8592 97.5462 88.9023 97.7633 88.9885 97.9091C89.0746 98.0516 89.1857 98.1494 89.3216 98.2024C89.4608 98.2521 89.6116 98.277 89.774 98.277C89.8933 98.277 89.9977 98.2687 90.0872 98.2521C90.1767 98.2356 90.2463 98.2223 90.296 98.2124L90.5645 99.4403C90.4783 99.4735 90.3556 99.5066 90.1966 99.5398C90.0375 99.5762 89.8386 99.5961 89.6 99.5994C89.2089 99.6061 88.8443 99.5365 88.5062 99.3906C88.1681 99.2448 87.8947 99.0194 87.6859 98.7145C87.4771 98.4096 87.3727 98.0268 87.3727 97.5661V90.0341ZM95.2788 99.6541C94.5264 99.6541 93.8784 99.4934 93.3349 99.1719C92.7946 98.8471 92.377 98.3913 92.082 97.8047C91.7904 97.2147 91.6445 96.5237 91.6445 95.7315C91.6445 94.9493 91.7904 94.2599 92.082 93.6634C92.377 93.0668 92.788 92.6011 93.315 92.2663C93.8453 91.9316 94.4651 91.7642 95.1744 91.7642C95.6052 91.7642 96.0228 91.8355 96.4272 91.978C96.8316 92.1205 97.1945 92.3442 97.516 92.6491C97.8375 92.9541 98.091 93.3501 98.2766 93.8374C98.4622 94.3213 98.555 94.9096 98.555 95.6023V96.1293H92.4847V95.0156H97.0984C97.0984 94.6245 97.0188 94.2782 96.8597 93.9766C96.7006 93.6716 96.4769 93.4313 96.1886 93.2557C95.9035 93.08 95.5688 92.9922 95.1843 92.9922C94.7667 92.9922 94.4021 93.0949 94.0906 93.3004C93.7823 93.5026 93.5437 93.7678 93.3746 94.0959C93.2089 94.4207 93.1261 94.7737 93.1261 95.1548V96.0249C93.1261 96.5353 93.2156 96.9695 93.3945 97.3274C93.5768 97.6854 93.8304 97.9588 94.1552 98.1477C94.48 98.3333 94.8595 98.4261 95.2937 98.4261C95.5754 98.4261 95.8323 98.3864 96.0643 98.3068C96.2963 98.224 96.4968 98.1013 96.6658 97.9389C96.8349 97.7765 96.9641 97.576 97.0536 97.3374L98.4606 97.5909C98.3479 98.0052 98.1457 98.3681 97.854 98.6797C97.5657 98.9879 97.2028 99.2282 96.7653 99.4006C96.3311 99.5696 95.8356 99.6541 95.2788 99.6541ZM100.204 99.5V91.8636H101.641V93.0767H101.721C101.86 92.6657 102.105 92.3426 102.456 92.1072C102.811 91.8686 103.212 91.7493 103.66 91.7493C103.752 91.7493 103.862 91.7526 103.988 91.7592C104.117 91.7659 104.218 91.7741 104.291 91.7841V93.206C104.231 93.1894 104.125 93.1712 103.973 93.1513C103.82 93.1281 103.668 93.1165 103.515 93.1165C103.164 93.1165 102.851 93.1911 102.576 93.3402C102.304 93.486 102.089 93.6899 101.93 93.9517C101.77 94.2102 101.691 94.5052 101.691 94.8366V99.5H100.204ZM105.577 99.5V91.8636H107.064V99.5H105.577ZM106.328 90.6854C106.07 90.6854 105.848 90.5992 105.662 90.4268C105.48 90.2512 105.388 90.0424 105.388 89.8004C105.388 89.5552 105.48 89.3464 105.662 89.174C105.848 88.9983 106.07 88.9105 106.328 88.9105C106.587 88.9105 106.807 88.9983 106.989 89.174C107.175 89.3464 107.268 89.5552 107.268 89.8004C107.268 90.0424 107.175 90.2512 106.989 90.4268C106.807 90.5992 106.587 90.6854 106.328 90.6854ZM112.28 99.6541C111.564 99.6541 110.94 99.4901 110.406 99.1619C109.872 98.8338 109.458 98.3748 109.163 97.7848C108.868 97.1948 108.721 96.5054 108.721 95.7166C108.721 94.9245 108.868 94.2318 109.163 93.6385C109.458 93.0452 109.872 92.5845 110.406 92.2564C110.94 91.9283 111.564 91.7642 112.28 91.7642C112.996 91.7642 113.621 91.9283 114.155 92.2564C114.688 92.5845 115.103 93.0452 115.398 93.6385C115.693 94.2318 115.84 94.9245 115.84 95.7166C115.84 96.5054 115.693 97.1948 115.398 97.7848C115.103 98.3748 114.688 98.8338 114.155 99.1619C113.621 99.4901 112.996 99.6541 112.28 99.6541ZM112.285 98.4062C112.749 98.4062 113.134 98.2836 113.439 98.0384C113.744 97.7931 113.969 97.4666 114.115 97.0589C114.264 96.6513 114.339 96.2022 114.339 95.7116C114.339 95.2244 114.264 94.777 114.115 94.3693C113.969 93.9583 113.744 93.6286 113.439 93.38C113.134 93.1314 112.749 93.0071 112.285 93.0071C111.818 93.0071 111.43 93.1314 111.122 93.38C110.817 93.6286 110.59 93.9583 110.441 94.3693C110.295 94.777 110.222 95.2244 110.222 95.7116C110.222 96.2022 110.295 96.6513 110.441 97.0589C110.59 97.4666 110.817 97.7931 111.122 98.0384C111.43 98.2836 111.818 98.4062 112.285 98.4062ZM117.499 99.5V91.8636H118.936V93.0767H119.016C119.155 92.6657 119.4 92.3426 119.751 92.1072C120.106 91.8686 120.507 91.7493 120.955 91.7493C121.047 91.7493 121.157 91.7526 121.283 91.7592C121.412 91.7659 121.513 91.7741 121.586 91.7841V93.206C121.526 93.1894 121.42 93.1712 121.268 93.1513C121.115 93.1281 120.963 93.1165 120.81 93.1165C120.459 93.1165 120.146 93.1911 119.871 93.3402C119.599 93.486 119.384 93.6899 119.224 93.9517C119.065 94.2102 118.986 94.5052 118.986 94.8366V99.5H117.499Z" fill="#252525"/>
</g>
<defs>
<linearGradient id="paint0_linear_103_3103" x1="62.0011" y1="46.541" x2="123.341" y2="46.541" gradientUnits="userSpaceOnUse">
<stop stop-color="#E0F9FF"/>
<stop offset="1" stop-color="#DAEEFC"/>
</linearGradient>
<clipPath id="clip0_103_3103">
<rect y="0.5" width="184" height="109" rx="8" fill="white"/>
</clipPath>
</defs>
</svg>
