<svg width="184" height="110" viewBox="0 0 184 110" fill="none" xmlns="http://www.w3.org/2000/svg">
<g clip-path="url(#clip0_103_3119)">
<rect y="0.5" width="184" height="109" rx="8" fill="white"/>
<path fill-rule="evenodd" clip-rule="evenodd" d="M67.2224 15.828C72.7886 8.28421 83.6542 7.44311 93.026 7.69581C102.11 7.94077 111.386 10.4363 117.474 17.183C123.328 23.6702 123.211 32.9046 123.648 41.6314C124.121 51.0674 126.271 61.5454 120.052 68.6576C113.624 76.01 102.788 76.94 93.0258 76.653C83.6012 76.3762 73.0266 74.7848 67.5426 67.1146C62.406 59.9302 68.0412 50.4632 67.9862 41.6314C67.9302 32.6862 61.9112 23.026 67.2224 15.828Z" fill="url(#paint0_linear_103_3119)" fill-opacity="0.59"/>
<mask id="mask0_103_3119" style="mask-type:alpha" maskUnits="userSpaceOnUse" x="65" y="7" width="60" height="70">
<path fill-rule="evenodd" clip-rule="evenodd" d="M67.2224 15.828C72.7886 8.28421 83.6542 7.44311 93.026 7.69581C102.11 7.94077 111.386 10.4363 117.474 17.183C123.328 23.6702 123.211 32.9046 123.648 41.6314C124.121 51.0674 126.271 61.5454 120.052 68.6576C113.624 76.01 102.788 76.94 93.0258 76.653C83.6012 76.3762 73.0266 74.7848 67.5426 67.1146C62.406 59.9302 68.0412 50.4632 67.9862 41.6314C67.9302 32.6862 61.9112 23.026 67.2224 15.828Z" fill="#C4C4C4"/>
</mask>
<g mask="url(#mask0_103_3119)">
<path d="M125.869 20.7474C125.866 20.3534 125.708 19.9765 125.428 19.6989C125.149 19.4214 124.771 19.2656 124.377 19.2656H77.2357C76.8427 19.2656 76.466 19.4217 76.188 19.6996C75.9102 19.9775 75.7542 20.3544 75.7542 20.7474V28.3426H125.869V20.7474Z" fill="#BFBFBF"/>
<path d="M126.154 28.632H75.4795V20.7514C75.4795 20.5194 75.5253 20.2896 75.6141 20.0752C75.7029 19.8608 75.8331 19.666 75.9971 19.5019C76.1613 19.3379 76.3561 19.2077 76.5705 19.1189C76.7849 19.0301 77.0147 18.9844 77.2467 18.9844H124.442C124.911 18.9844 125.36 19.1705 125.692 19.5019C126.023 19.8333 126.209 20.2828 126.209 20.7514L126.154 28.632ZM76.0503 28.0722H125.595V20.7514C125.595 20.5934 125.563 20.437 125.502 20.2911C125.442 20.1452 125.353 20.0129 125.24 19.9016C125.128 19.7904 124.995 19.7025 124.848 19.643C124.702 19.5835 124.545 19.5537 124.387 19.5551H77.2467C77.0895 19.5551 76.9341 19.5861 76.7889 19.6462C76.6437 19.7063 76.5119 19.7944 76.4007 19.9055C76.2897 20.0166 76.2015 20.1485 76.1413 20.2936C76.0813 20.4388 76.0503 20.5944 76.0503 20.7514V28.0722Z" fill="#C8C8C8"/>
<path d="M75.7542 28.3477V75.9055C75.7542 76.2985 75.9102 76.6753 76.188 76.9533C76.466 77.2311 76.8427 77.3873 77.2357 77.3873H124.431C124.825 77.3873 125.203 77.2314 125.483 76.9538C125.763 76.6763 125.921 76.2995 125.924 75.9055V28.3477H75.7542Z" fill="#F0ECEC"/>
<path d="M124.387 77.6656H77.2467C76.7789 77.6628 76.3311 77.4756 76.0003 77.145C75.6695 76.8142 75.4825 76.3664 75.4795 75.8986V28.0664H126.154V75.8986C126.151 76.3664 125.964 76.8142 125.634 77.145C125.303 77.4756 124.855 77.6628 124.387 77.6656ZM76.0943 28.6262V75.8986C76.0943 76.0556 76.1251 76.2112 76.1853 76.3564C76.2455 76.5016 76.3335 76.6334 76.4447 76.7446C76.5557 76.8556 76.6877 76.9438 76.8327 77.0038C76.9779 77.064 77.1335 77.095 77.2905 77.095H124.486C124.644 77.0964 124.801 77.0664 124.947 77.007C125.094 76.9476 125.227 76.8596 125.339 76.7484C125.451 76.6372 125.54 76.5048 125.601 76.359C125.662 76.213 125.693 76.0566 125.693 75.8986V28.6262H76.0943Z" fill="#C8C8C8"/>
<path d="M118.97 51.7852C118.97 55.3344 117.917 58.8038 115.946 61.755C113.974 64.706 111.171 67.0062 107.892 68.3644C104.613 69.7226 101.005 70.078 97.5236 69.3856C94.0426 68.6932 90.845 66.984 88.3354 64.4744C85.8256 61.9646 84.1166 58.7672 83.4242 55.286C82.7318 51.805 83.087 48.1968 84.4454 44.9178C85.8036 41.6386 88.1036 38.836 91.0548 36.8642C94.0058 34.8924 97.4754 33.8398 101.025 33.8398C105.784 33.8398 110.348 35.7306 113.714 39.0958C117.079 42.4612 118.97 47.0258 118.97 51.7852Z" fill="#C8C8C8"/>
<path d="M118.266 51.8819C118.266 55.2857 117.256 58.6131 115.365 61.4433C113.474 64.2733 110.787 66.4793 107.642 67.7819C104.497 69.0843 101.037 69.4253 97.6984 68.7611C94.36 68.0971 91.2934 66.4581 88.8866 64.0511C86.4798 61.6443 84.8406 58.5779 84.1766 55.2393C83.5126 51.9009 83.8534 48.4407 85.156 45.2959C86.4586 42.1513 88.6644 39.4635 91.4946 37.5723C94.3246 35.6813 97.652 34.6719 101.056 34.6719C103.316 34.6719 105.554 35.1171 107.642 35.9821C109.73 36.8469 111.627 38.1145 113.225 39.7127C114.823 41.3107 116.091 43.2079 116.956 45.2959C117.821 47.3839 118.266 49.6219 118.266 51.8819Z" fill="#D6D6D6"/>
<path d="M89.8666 21.9141H78.2874V26.2715H89.8666V21.9141Z" fill="#D6D6D6"/>
<path d="M98.5872 24.1086C98.5872 24.3734 98.5088 24.6324 98.3616 24.8526C98.2144 25.0728 98.0054 25.2444 97.7606 25.3458C97.516 25.447 97.2468 25.4736 96.987 25.422C96.7272 25.3702 96.4886 25.2428 96.3014 25.0554C96.1142 24.8682 95.9866 24.6296 95.935 24.3698C95.8832 24.11 95.9098 23.8408 96.0112 23.5962C96.1124 23.3516 96.284 23.1424 96.5042 22.9952C96.7244 22.8482 96.9834 22.7696 97.2482 22.7696C97.4244 22.7682 97.5992 22.8018 97.7624 22.8686C97.9254 22.9352 98.0736 23.0338 98.1984 23.1586C98.323 23.2832 98.4216 23.4314 98.4884 23.5944C98.555 23.7576 98.5888 23.9324 98.5872 24.1086Z" fill="#66BECC"/>
<path d="M105.419 24.1085C105.419 24.3733 105.341 24.6321 105.194 24.8523C105.046 25.0727 104.837 25.2443 104.593 25.3455C104.348 25.4469 104.079 25.4735 103.819 25.4217C103.559 25.3701 103.321 25.2425 103.133 25.0553C102.946 24.8681 102.819 24.6295 102.767 24.3697C102.715 24.1099 102.742 23.8407 102.843 23.5961C102.944 23.3513 103.116 23.1423 103.336 22.9951C103.557 22.8479 103.815 22.7695 104.08 22.7695C104.435 22.7695 104.776 22.9105 105.027 23.1617C105.278 23.4127 105.419 23.7533 105.419 24.1085Z" fill="#48BF4F"/>
<path d="M112.292 24.1085C112.292 24.3733 112.214 24.6321 112.067 24.8523C111.92 25.0727 111.71 25.2443 111.466 25.3455C111.221 25.4469 110.952 25.4735 110.692 25.4217C110.432 25.3701 110.194 25.2425 110.006 25.0553C109.819 24.8681 109.692 24.6295 109.64 24.3697C109.588 24.1099 109.615 23.8407 109.716 23.5961C109.818 23.3513 109.989 23.1423 110.209 22.9951C110.43 22.8479 110.688 22.7695 110.953 22.7695C111.308 22.7695 111.649 22.9105 111.9 23.1617C112.151 23.4127 112.292 23.7533 112.292 24.1085Z" fill="#D14F60"/>
<path d="M119.186 24.1085C119.186 24.3733 119.107 24.6321 118.96 24.8523C118.813 25.0727 118.604 25.2443 118.359 25.3455C118.115 25.4469 117.845 25.4735 117.586 25.4217C117.326 25.3701 117.087 25.2425 116.9 25.0553C116.713 24.8681 116.585 24.6295 116.534 24.3697C116.482 24.1099 116.508 23.8407 116.61 23.5961C116.711 23.3513 116.883 23.1423 117.103 22.9951C117.323 22.8479 117.582 22.7695 117.847 22.7695C118.202 22.7695 118.543 22.9105 118.794 23.1617C119.045 23.4127 119.186 23.7533 119.186 24.1085Z" fill="#485665"/>
<path d="M104.701 56.2718C108.158 56.2718 109.19 57.7315 111.198 58.5985C112.061 57.2619 112.657 55.7714 112.955 54.2084C109.464 53.6706 108.959 51.3438 104.591 51.3438C99.663 51.3438 99.663 54.3181 94.713 54.3181C91.4202 54.3181 90.3226 52.9572 88.4238 52.123C88.4654 54.1024 88.9772 56.0436 89.9166 57.7864C91.3608 58.7914 93.0856 59.3138 94.8446 59.2792C99.7836 59.2792 99.7836 56.2718 104.701 56.2718Z" fill="#6DCCCC"/>
<path d="M100.789 64.245C102.854 64.2454 104.886 63.7282 106.7 62.7408C108.514 61.7534 110.051 60.3272 111.172 58.5924C109.163 57.7254 108.131 56.2656 104.674 56.2656C99.7569 56.2656 99.7568 59.24 94.7958 59.24C93.0466 59.2764 91.3304 58.762 89.8896 57.7694C90.954 59.7308 92.5288 61.368 94.4474 62.508C96.366 63.648 98.5568 64.248 100.789 64.245Z" fill="#66BECC"/>
<path d="M100.786 39.5274C99.1608 39.526 97.5516 39.8448 96.0502 40.466C94.5488 41.0872 93.1846 41.9982 92.0358 43.1472C90.8868 44.296 89.9758 45.6602 89.3546 47.1616C88.7336 48.663 88.4146 50.2722 88.416 51.897V52.1274C90.2928 53.0056 91.3794 54.3226 94.7052 54.3226C99.6332 54.3226 99.6332 51.3482 104.583 51.3482C108.974 51.3482 109.456 53.675 112.947 54.2128C113.096 53.435 113.173 52.645 113.177 51.853C113.166 48.5762 111.854 45.438 109.531 43.127C107.208 40.8162 104.062 39.5216 100.786 39.5274Z" fill="#485665"/>
</g>
<path d="M20.0756 99.5V89.3182H26.4592V90.6406H21.6119V93.7429H26.1261V95.0604H21.6119V98.1776H26.5188V99.5H20.0756ZM29.8784 89.3182V99.5H28.3919V89.3182H29.8784ZM35.1694 99.6541C34.417 99.6541 33.7691 99.4934 33.2255 99.1719C32.6853 98.8471 32.2676 98.3913 31.9727 97.8047C31.681 97.2147 31.5352 96.5237 31.5352 95.7315C31.5352 94.9493 31.681 94.2599 31.9727 93.6634C32.2676 93.0668 32.6786 92.6011 33.2056 92.2663C33.7359 91.9316 34.3557 91.7642 35.065 91.7642C35.4959 91.7642 35.9135 91.8355 36.3178 91.978C36.7222 92.1205 37.0851 92.3442 37.4066 92.6491C37.7281 92.9541 37.9817 93.3501 38.1673 93.8374C38.3529 94.3213 38.4457 94.9096 38.4457 95.6023V96.1293H32.3754V95.0156H36.989C36.989 94.6245 36.9094 94.2782 36.7504 93.9766C36.5913 93.6716 36.3675 93.4313 36.0792 93.2557C35.7942 93.08 35.4594 92.9922 35.0749 92.9922C34.6573 92.9922 34.2927 93.0949 33.9812 93.3004C33.6729 93.5026 33.4343 93.7678 33.2653 94.0959C33.0996 94.4207 33.0167 94.7737 33.0167 95.1548V96.0249C33.0167 96.5353 33.1062 96.9695 33.2852 97.3274C33.4674 97.6854 33.721 97.9588 34.0458 98.1477C34.3706 98.3333 34.7501 98.4261 35.1843 98.4261C35.466 98.4261 35.7229 98.3864 35.9549 98.3068C36.1869 98.224 36.3874 98.1013 36.5565 97.9389C36.7255 97.7765 36.8548 97.576 36.9442 97.3374L38.3512 97.5909C38.2385 98.0052 38.0363 98.3681 37.7447 98.6797C37.4563 98.9879 37.0934 99.2282 36.6559 99.4006C36.2217 99.5696 35.7262 99.6541 35.1694 99.6541ZM41.4622 96.9098L41.4522 95.0952H41.7108L44.7534 91.8636H46.5332L43.063 95.5426H42.8294L41.4622 96.9098ZM40.095 99.5V89.3182H41.5815V99.5H40.095ZM44.9174 99.5L42.1831 95.8707L43.2072 94.8317L46.742 99.5H44.9174ZM51.4526 91.8636V93.0568H47.2814V91.8636H51.4526ZM48.4 90.0341H49.8865V97.2578C49.8865 97.5462 49.9296 97.7633 50.0158 97.9091C50.102 98.0516 50.213 98.1494 50.3489 98.2024C50.4881 98.2521 50.6389 98.277 50.8013 98.277C50.9206 98.277 51.025 98.2687 51.1145 98.2521C51.204 98.2356 51.2736 98.2223 51.3233 98.2124L51.5918 99.4403C51.5056 99.4735 51.383 99.5066 51.2239 99.5398C51.0648 99.5762 50.8659 99.5961 50.6273 99.5994C50.2362 99.6061 49.8716 99.5365 49.5336 99.3906C49.1955 99.2448 48.9221 99.0194 48.7132 98.7145C48.5044 98.4096 48.4 98.0268 48.4 97.5661V90.0341ZM53.0969 99.5V91.8636H54.5337V93.0767H54.6133C54.7525 92.6657 54.9978 92.3426 55.3491 92.1072C55.7037 91.8686 56.1048 91.7493 56.5522 91.7493C56.645 91.7493 56.7544 91.7526 56.8803 91.7592C57.0096 91.7659 57.1107 91.7741 57.1836 91.7841V93.206C57.1239 93.1894 57.0179 93.1712 56.8654 93.1513C56.7129 93.1281 56.5605 93.1165 56.408 93.1165C56.0567 93.1165 55.7435 93.1911 55.4684 93.3402C55.1966 93.486 54.9812 93.6899 54.8221 93.9517C54.663 94.2102 54.5835 94.5052 54.5835 94.8366V99.5H53.0969ZM61.4132 99.6541C60.6973 99.6541 60.0725 99.4901 59.5389 99.1619C59.0053 98.8338 58.591 98.3748 58.296 97.7848C58.001 97.1948 57.8535 96.5054 57.8535 95.7166C57.8535 94.9245 58.001 94.2318 58.296 93.6385C58.591 93.0452 59.0053 92.5845 59.5389 92.2564C60.0725 91.9283 60.6973 91.7642 61.4132 91.7642C62.1291 91.7642 62.7538 91.9283 63.2875 92.2564C63.8211 92.5845 64.2354 93.0452 64.5304 93.6385C64.8253 94.2318 64.9728 94.9245 64.9728 95.7166C64.9728 96.5054 64.8253 97.1948 64.5304 97.7848C64.2354 98.3748 63.8211 98.8338 63.2875 99.1619C62.7538 99.4901 62.1291 99.6541 61.4132 99.6541ZM61.4181 98.4062C61.8822 98.4062 62.2666 98.2836 62.5716 98.0384C62.8765 97.7931 63.1019 97.4666 63.2477 97.0589C63.3968 96.6513 63.4714 96.2022 63.4714 95.7116C63.4714 95.2244 63.3968 94.777 63.2477 94.3693C63.1019 93.9583 62.8765 93.6286 62.5716 93.38C62.2666 93.1314 61.8822 93.0071 61.4181 93.0071C60.9508 93.0071 60.563 93.1314 60.2548 93.38C59.9499 93.6286 59.7228 93.9583 59.5737 94.3693C59.4279 94.777 59.3549 95.2244 59.3549 95.7116C59.3549 96.2022 59.4279 96.6513 59.5737 97.0589C59.7228 97.4666 59.9499 97.7931 60.2548 98.0384C60.563 98.2836 60.9508 98.4062 61.4181 98.4062ZM68.1186 94.9659V99.5H66.6321V91.8636H68.0589V93.1065H68.1534C68.3291 92.7022 68.6042 92.3774 68.9787 92.1321C69.3565 91.8868 69.8321 91.7642 70.4055 91.7642C70.9259 91.7642 71.3816 91.8736 71.7727 92.0923C72.1638 92.3078 72.4671 92.6293 72.6825 93.0568C72.898 93.4844 73.0057 94.013 73.0057 94.6428V99.5H71.5192V94.8217C71.5192 94.2682 71.375 93.8357 71.0866 93.5241C70.7983 93.2093 70.4022 93.0518 69.8984 93.0518C69.5537 93.0518 69.2472 93.1264 68.9787 93.2756C68.7135 93.4247 68.5031 93.6435 68.3473 93.9318C68.1948 94.2169 68.1186 94.5616 68.1186 94.9659ZM74.9993 99.5V91.8636H76.4858V99.5H74.9993ZM75.75 90.6854C75.4915 90.6854 75.2694 90.5992 75.0838 90.4268C74.9015 90.2512 74.8104 90.0424 74.8104 89.8004C74.8104 89.5552 74.9015 89.3464 75.0838 89.174C75.2694 88.9983 75.4915 88.9105 75.75 88.9105C76.0085 88.9105 76.2289 88.9983 76.4112 89.174C76.5968 89.3464 76.6896 89.5552 76.6896 89.8004C76.6896 90.0424 76.5968 90.2512 76.4112 90.4268C76.2289 90.5992 76.0085 90.6854 75.75 90.6854ZM79.8528 96.9098L79.8429 95.0952H80.1014L83.144 91.8636H84.9238L81.4537 95.5426H81.22L79.8528 96.9098ZM78.4856 99.5V89.3182H79.9721V99.5H78.4856ZM83.3081 99.5L80.5737 95.8707L81.5978 94.8317L85.1326 99.5H83.3081ZM90.103 99.5V89.3182H91.6392V94.1804H91.7635L96.0341 89.3182H97.968L93.8615 93.902L97.983 99.5H96.1335L92.8423 94.951L91.6392 96.3331V99.5H90.103ZM102.011 99.6541C101.259 99.6541 100.611 99.4934 100.067 99.1719C99.527 98.8471 99.1094 98.3913 98.8145 97.8047C98.5228 97.2147 98.377 96.5237 98.377 95.7315C98.377 94.9493 98.5228 94.2599 98.8145 93.6634C99.1094 93.0668 99.5204 92.6011 100.047 92.2663C100.578 91.9316 101.198 91.7642 101.907 91.7642C102.338 91.7642 102.755 91.8355 103.16 91.978C103.564 92.1205 103.927 92.3442 104.248 92.6491C104.57 92.9541 104.823 93.3501 105.009 93.8374C105.195 94.3213 105.287 94.9096 105.287 95.6023V96.1293H99.2172V95.0156H103.831C103.831 94.6245 103.751 94.2782 103.592 93.9766C103.433 93.6716 103.209 93.4313 102.921 93.2557C102.636 93.08 102.301 92.9922 101.917 92.9922C101.499 92.9922 101.135 93.0949 100.823 93.3004C100.515 93.5026 100.276 93.7678 100.107 94.0959C99.9413 94.4207 99.8585 94.7737 99.8585 95.1548V96.0249C99.8585 96.5353 99.948 96.9695 100.127 97.3274C100.309 97.6854 100.563 97.9588 100.888 98.1477C101.212 98.3333 101.592 98.4261 102.026 98.4261C102.308 98.4261 102.565 98.3864 102.797 98.3068C103.029 98.224 103.229 98.1013 103.398 97.9389C103.567 97.7765 103.697 97.576 103.786 97.3374L105.193 97.5909C105.08 98.0052 104.878 98.3681 104.586 98.6797C104.298 98.9879 103.935 99.2282 103.498 99.4006C103.064 99.5696 102.568 99.6541 102.011 99.6541ZM107.056 99.5V89.3182H108.543V93.1016H108.632C108.718 92.9425 108.843 92.7585 109.005 92.5497C109.167 92.3409 109.393 92.1586 109.681 92.0028C109.969 91.8438 110.351 91.7642 110.825 91.7642C111.441 91.7642 111.991 91.92 112.475 92.2315C112.959 92.5431 113.339 92.9922 113.614 93.5788C113.892 94.1655 114.031 94.8714 114.031 95.6967C114.031 96.522 113.894 97.2296 113.619 97.8196C113.344 98.4062 112.966 98.8587 112.485 99.1768C112.004 99.4917 111.456 99.6491 110.839 99.6491C110.375 99.6491 109.996 99.5713 109.701 99.4155C109.409 99.2597 109.181 99.0774 109.015 98.8686C108.849 98.6598 108.722 98.4742 108.632 98.3118H108.508V99.5H107.056ZM108.513 95.6818C108.513 96.2187 108.591 96.6894 108.746 97.0938C108.902 97.4981 109.128 97.8146 109.423 98.0433C109.718 98.2687 110.079 98.3814 110.506 98.3814C110.951 98.3814 111.322 98.2637 111.62 98.0284C111.918 97.7898 112.144 97.4666 112.296 97.0589C112.452 96.6513 112.53 96.1922 112.53 95.6818C112.53 95.178 112.454 94.7256 112.301 94.3246C112.152 93.9235 111.927 93.607 111.625 93.375C111.327 93.143 110.954 93.027 110.506 93.027C110.076 93.027 109.711 93.138 109.413 93.3601C109.118 93.5821 108.894 93.892 108.741 94.2898C108.589 94.6875 108.513 95.1515 108.513 95.6818ZM118.992 99.6541C118.239 99.6541 117.591 99.4934 117.048 99.1719C116.508 98.8471 116.09 98.3913 115.795 97.8047C115.503 97.2147 115.357 96.5237 115.357 95.7315C115.357 94.9493 115.503 94.2599 115.795 93.6634C116.09 93.0668 116.501 92.6011 117.028 92.2663C117.558 91.9316 118.178 91.7642 118.887 91.7642C119.318 91.7642 119.736 91.8355 120.14 91.978C120.544 92.1205 120.907 92.3442 121.229 92.6491C121.55 92.9541 121.804 93.3501 121.99 93.8374C122.175 94.3213 122.268 94.9096 122.268 95.6023V96.1293H116.198V95.0156H120.811C120.811 94.6245 120.732 94.2782 120.573 93.9766C120.414 93.6716 120.19 93.4313 119.901 93.2557C119.616 93.08 119.282 92.9922 118.897 92.9922C118.48 92.9922 118.115 93.0949 117.803 93.3004C117.495 93.5026 117.257 93.7678 117.088 94.0959C116.922 94.4207 116.839 94.7737 116.839 95.1548V96.0249C116.839 96.5353 116.928 96.9695 117.107 97.3274C117.29 97.6854 117.543 97.9588 117.868 98.1477C118.193 98.3333 118.572 98.4261 119.007 98.4261C119.288 98.4261 119.545 98.3864 119.777 98.3068C120.009 98.224 120.21 98.1013 120.379 97.9389C120.548 97.7765 120.677 97.576 120.767 97.3374L122.173 97.5909C122.061 98.0052 121.859 98.3681 121.567 98.6797C121.279 98.9879 120.916 99.2282 120.478 99.4006C120.044 99.5696 119.548 99.6541 118.992 99.6541ZM123.917 99.5V91.8636H125.354V93.0767H125.434C125.573 92.6657 125.818 92.3426 126.169 92.1072C126.524 91.8686 126.925 91.7493 127.373 91.7493C127.465 91.7493 127.575 91.7526 127.701 91.7592C127.83 91.7659 127.931 91.7741 128.004 91.7841V93.206C127.944 93.1894 127.838 93.1712 127.686 93.1513C127.533 93.1281 127.381 93.1165 127.228 93.1165C126.877 93.1165 126.564 93.1911 126.289 93.3402C126.017 93.486 125.801 93.6899 125.642 93.9517C125.483 94.2102 125.404 94.5052 125.404 94.8366V99.5H123.917ZM135.013 93.728L133.665 93.9666C133.609 93.7943 133.519 93.6302 133.397 93.4744C133.278 93.3187 133.115 93.1911 132.91 93.0916C132.704 92.9922 132.447 92.9425 132.139 92.9425C131.718 92.9425 131.367 93.0369 131.085 93.2259C130.803 93.4115 130.662 93.6518 130.662 93.9467C130.662 94.2019 130.757 94.4074 130.946 94.5632C131.135 94.719 131.44 94.8466 131.861 94.946L133.074 95.2244C133.776 95.3868 134.3 95.6371 134.645 95.9751C134.989 96.3132 135.162 96.7524 135.162 97.2926C135.162 97.75 135.029 98.1577 134.764 98.5156C134.502 98.8703 134.136 99.1487 133.665 99.3509C133.198 99.553 132.656 99.6541 132.04 99.6541C131.184 99.6541 130.487 99.4718 129.947 99.1072C129.406 98.7393 129.075 98.2173 128.952 97.5412L130.389 97.3224C130.479 97.697 130.662 97.9804 130.941 98.1726C131.219 98.3615 131.582 98.456 132.03 98.456C132.517 98.456 132.906 98.3549 133.198 98.1527C133.49 97.9472 133.635 97.697 133.635 97.402C133.635 97.1634 133.546 96.9628 133.367 96.8004C133.191 96.638 132.921 96.5154 132.557 96.4325L131.264 96.1491C130.551 95.9867 130.024 95.7282 129.683 95.3736C129.345 95.0189 129.176 94.5698 129.176 94.0263C129.176 93.5755 129.302 93.1811 129.554 92.843C129.806 92.505 130.154 92.2415 130.598 92.0526C131.042 91.8603 131.551 91.7642 132.124 91.7642C132.949 91.7642 133.599 91.9432 134.073 92.3011C134.547 92.6558 134.86 93.1314 135.013 93.728ZM136.796 99.5V91.8636H138.283V99.5H136.796ZM137.547 90.6854C137.288 90.6854 137.066 90.5992 136.881 90.4268C136.698 90.2512 136.607 90.0424 136.607 89.8004C136.607 89.5552 136.698 89.3464 136.881 89.174C137.066 88.9983 137.288 88.9105 137.547 88.9105C137.805 88.9105 138.026 88.9983 138.208 89.174C138.394 89.3464 138.487 89.5552 138.487 89.8004C138.487 90.0424 138.394 90.2512 138.208 90.4268C138.026 90.5992 137.805 90.6854 137.547 90.6854ZM141.769 94.9659V99.5H140.282V89.3182H141.749V93.1065H141.844C142.023 92.6955 142.296 92.3691 142.664 92.1271C143.032 91.8852 143.512 91.7642 144.106 91.7642C144.629 91.7642 145.087 91.8719 145.478 92.0874C145.872 92.3028 146.177 92.6243 146.393 93.0518C146.611 93.4761 146.721 94.0064 146.721 94.6428V99.5H145.234V94.8217C145.234 94.2616 145.09 93.8274 144.802 93.5192C144.513 93.2076 144.112 93.0518 143.599 93.0518C143.247 93.0518 142.932 93.1264 142.654 93.2756C142.379 93.4247 142.162 93.6435 142.003 93.9318C141.847 94.2169 141.769 94.5616 141.769 94.9659ZM150.927 99.669C150.443 99.669 150.005 99.5795 149.614 99.4006C149.223 99.2183 148.913 98.9548 148.684 98.6101C148.459 98.2654 148.346 97.8428 148.346 97.3423C148.346 96.9115 148.429 96.5568 148.595 96.2784C148.761 96 148.984 95.7796 149.266 95.6172C149.548 95.4548 149.863 95.3321 150.211 95.2493C150.559 95.1664 150.913 95.1035 151.275 95.0604C151.732 95.0073 152.103 94.9643 152.388 94.9311C152.673 94.8946 152.881 94.8366 153.01 94.7571C153.139 94.6776 153.204 94.5483 153.204 94.3693V94.3345C153.204 93.9003 153.081 93.5639 152.836 93.3253C152.594 93.0866 152.233 92.9673 151.752 92.9673C151.251 92.9673 150.857 93.0784 150.569 93.3004C150.284 93.5192 150.086 93.7628 149.977 94.0312L148.58 93.7131C148.746 93.2491 148.988 92.8745 149.306 92.5895C149.627 92.3011 149.997 92.0923 150.415 91.9631C150.832 91.8305 151.271 91.7642 151.732 91.7642C152.037 91.7642 152.36 91.8007 152.702 91.8736C153.046 91.9432 153.368 92.0724 153.666 92.2614C153.968 92.4503 154.215 92.7204 154.407 93.0717C154.599 93.4197 154.695 93.8722 154.695 94.429V99.5H153.243V98.456H153.184C153.088 98.6482 152.943 98.8371 152.751 99.0227C152.559 99.2083 152.312 99.3625 152.01 99.4851C151.709 99.6077 151.348 99.669 150.927 99.669ZM151.25 98.4759C151.661 98.4759 152.012 98.3946 152.304 98.2322C152.599 98.0698 152.823 97.8577 152.975 97.5959C153.131 97.3307 153.209 97.0473 153.209 96.7457V95.7614C153.156 95.8144 153.053 95.8641 152.9 95.9105C152.751 95.9536 152.581 95.9917 152.388 96.0249C152.196 96.0547 152.009 96.0829 151.827 96.1094C151.644 96.1326 151.492 96.1525 151.369 96.169C151.081 96.2055 150.817 96.2668 150.579 96.353C150.343 96.4392 150.154 96.5634 150.012 96.7259C149.873 96.8849 149.803 97.0971 149.803 97.3622C149.803 97.7301 149.939 98.0085 150.211 98.1974C150.483 98.383 150.829 98.4759 151.25 98.4759ZM158.162 94.9659V99.5H156.675V91.8636H158.102V93.1065H158.196C158.372 92.7022 158.647 92.3774 159.022 92.1321C159.4 91.8868 159.875 91.7642 160.449 91.7642C160.969 91.7642 161.425 91.8736 161.816 92.0923C162.207 92.3078 162.51 92.6293 162.725 93.0568C162.941 93.4844 163.049 94.013 163.049 94.6428V99.5H161.562V94.8217C161.562 94.2682 161.418 93.8357 161.13 93.5241C160.841 93.2093 160.445 93.0518 159.941 93.0518C159.597 93.0518 159.29 93.1264 159.022 93.2756C158.757 93.4247 158.546 93.6435 158.39 93.9318C158.238 94.2169 158.162 94.5616 158.162 94.9659Z" fill="#252525"/>
</g>
<defs>
<linearGradient id="paint0_linear_103_3119" x1="67.94" y1="67.8442" x2="118.06" y2="17.7243" gradientUnits="userSpaceOnUse">
<stop stop-color="#E0F9FF"/>
<stop offset="1" stop-color="#DAEEFC"/>
</linearGradient>
<clipPath id="clip0_103_3119">
<rect y="0.5" width="184" height="109" rx="8" fill="white"/>
</clipPath>
</defs>
</svg>
