<svg width="184" height="110" viewBox="0 0 184 110" fill="none" xmlns="http://www.w3.org/2000/svg">
<g clip-path="url(#clip0_103_3116)">
<rect y="0.5" width="184" height="109" rx="8" fill="white"/>
<path fill-rule="evenodd" clip-rule="evenodd" d="M65.1485 64.9486C59.6553 59.205 50.9336 54.569 51.3451 46.6322C51.7567 38.6944 61.3575 35.4678 66.9691 29.8386C73.1981 23.5898 76.8239 13.995 85.4967 12.3733C95.6097 10.4822 106.29 14.1267 113.886 21.0654C122.195 28.656 128.923 39.4706 127.362 50.6162C125.865 61.3048 115.681 68.0646 106.506 73.7486C99.1467 78.3074 90.4879 80.5072 82.0205 78.7054C74.6421 77.1354 70.3627 70.4002 65.1485 64.9486Z" fill="url(#paint0_linear_103_3116)" fill-opacity="0.59"/>
<mask id="mask0_103_3116" style="mask-type:alpha" maskUnits="userSpaceOnUse" x="51" y="11" width="77" height="69">
<path fill-rule="evenodd" clip-rule="evenodd" d="M65.1496 64.9526C59.6564 59.209 50.9346 54.573 51.3461 46.636C51.7577 38.6984 61.3586 35.4716 66.97 29.8424C73.1992 23.5938 76.825 13.9989 85.4978 12.3772C95.6108 10.4861 106.291 14.1306 113.887 21.0694C122.196 28.66 128.924 39.4744 127.363 50.6202C125.866 61.3086 115.682 68.0686 106.507 73.7524C99.1478 78.3114 90.4888 80.511 82.0216 78.7094C74.6432 77.1394 70.3636 70.4042 65.1496 64.9526Z" fill="#C4C4C4"/>
</mask>
<g mask="url(#mask0_103_3116)">
<path d="M105.362 68.1719H85.5825C84.8193 68.1739 84.0879 68.4777 83.5481 69.0173C83.0085 69.5569 82.7043 70.2881 82.7021 71.0513V78.3555C82.7043 79.1189 83.0083 79.8503 83.5481 80.3899C84.0879 80.9297 84.8193 81.2339 85.5825 81.2361H105.362C106.125 81.2335 106.856 80.9293 107.396 80.3897C107.935 79.8501 108.24 79.1187 108.242 78.3555V71.0513C108.24 70.2881 107.935 69.5571 107.396 69.0177C106.856 68.4781 106.125 68.1741 105.362 68.1719ZM89.1321 78.8103C88.4687 78.8103 87.8203 78.6135 87.2687 78.2451C86.7173 77.8765 86.2873 77.3527 86.0335 76.7399C85.7797 76.1271 85.7133 75.4527 85.8427 74.8021C85.9721 74.1515 86.2915 73.5539 86.7605 73.0847C87.2297 72.6157 87.8273 72.2963 88.4779 72.1669C89.1285 72.0375 89.8027 72.1039 90.4157 72.3577C91.0285 72.6117 91.5523 73.0415 91.9209 73.5931C92.2893 74.1445 92.4861 74.7931 92.4861 75.4563C92.4861 76.3459 92.1327 77.1989 91.5037 77.8279C90.8747 78.4569 90.0217 78.8103 89.1321 78.8103Z" fill="#A56869"/>
<path d="M101.312 63.6758H89.6228C88.8398 63.6758 88.2048 64.3106 88.2048 65.0938V66.7672C88.2048 67.5504 88.8398 68.1852 89.6228 68.1852H101.312C102.095 68.1852 102.73 67.5504 102.73 66.7672V65.0938C102.73 64.3106 102.095 63.6758 101.312 63.6758Z" fill="#637A6A"/>
<path d="M109.879 30.25L101.308 63.6708H97.3552C99.2642 62.3688 100.447 60.018 100.264 57.7048C98.8832 59.6938 97.5036 61.6824 96.1246 63.6708H95.1144C93.7348 61.681 92.355 59.6922 90.9754 57.7048C90.7914 60.018 91.975 62.3688 93.884 63.6708H89.6254L81.0554 30.25H109.879Z" fill="#E5E0D7"/>
<path d="M101.507 63.9314H96.5425L97.2163 63.472C98.0321 62.9122 98.7095 62.1738 99.1969 61.3126C99.6843 60.4516 99.9689 59.4908 100.029 58.5032L96.2625 63.9314H94.9863L91.2187 58.4984C91.2787 59.486 91.5633 60.447 92.0507 61.308C92.5381 62.169 93.2153 62.9074 94.0311 63.4672L94.7051 63.9266H89.4315L89.3823 63.738L80.7363 30.0078H110.209L110.128 30.323L101.507 63.9314ZM98.0999 63.4286H101.116L109.554 30.5118H81.3819L89.8195 63.4286H93.1405C91.4871 62.0072 90.5519 59.832 90.7229 57.6946L90.7793 56.9914L95.2453 63.4286H95.9905L100.458 56.9914L100.513 57.6946C100.688 59.832 99.7523 62.0142 98.0999 63.4286Z" fill="#B0C9B5"/>
<path d="M111.604 27.6208V28.9274C111.601 29.2784 111.461 29.6146 111.212 29.8626C110.964 30.1106 110.627 30.2504 110.276 30.2516H80.6625C80.3105 30.2518 79.9725 30.1128 79.7225 29.8646C79.4727 29.6164 79.3311 29.2796 79.3291 28.9274V27.6208C79.3303 27.2688 79.4707 26.9316 79.7197 26.6828C79.9687 26.434 80.3059 26.2938 80.6579 26.293H110.271C110.624 26.293 110.962 26.4328 111.212 26.6816C111.462 26.9304 111.602 27.2682 111.604 27.6208Z" fill="#637A6A"/>
<path d="M100.751 24.3906H90.1865V26.2868H100.751V24.3906Z" fill="#4B594F"/>
<path d="M102.831 21.8242V23.0968C102.831 23.4388 102.695 23.7666 102.453 24.0084C102.212 24.2502 101.884 24.386 101.542 24.386H89.3954C89.0534 24.386 88.7256 24.2502 88.4838 24.0084C88.242 23.7666 88.1062 23.4388 88.1062 23.0968V21.8242C88.1062 21.4824 88.242 21.1544 88.4838 20.9128C88.7256 20.671 89.0534 20.5352 89.3954 20.5352H101.537C101.707 20.5346 101.875 20.5674 102.032 20.632C102.189 20.6964 102.331 20.7914 102.452 20.911C102.572 21.0308 102.667 21.1732 102.732 21.3298C102.797 21.4866 102.831 21.6546 102.831 21.8242Z" fill="#637A6A"/>
<path d="M89.1302 72.1055C88.467 72.1055 87.8184 72.3023 87.267 72.6709C86.7154 73.0393 86.2856 73.5631 86.0316 74.1759C85.7778 74.7889 85.7114 75.4633 85.8408 76.1137C85.9702 76.7643 86.2896 77.3621 86.7588 77.8311C87.2278 78.3001 87.8254 78.6195 88.476 78.7489C89.1266 78.8783 89.801 78.8119 90.4138 78.5581C91.0266 78.3043 91.5504 77.8743 91.919 77.3229C92.2876 76.7713 92.4842 76.1229 92.4842 75.4595C92.4842 74.5699 92.1308 73.7169 91.5018 73.0879C90.8728 72.4589 90.0198 72.1055 89.1302 72.1055ZM89.2956 75.5509C89.2956 75.5809 89.284 75.6099 89.2632 75.6317C89.2426 75.6535 89.2142 75.6665 89.1842 75.6681H89.074C89.0442 75.6663 89.0162 75.6531 88.9956 75.6313C88.9752 75.6095 88.9638 75.5807 88.9638 75.5509V72.2333C88.9638 72.2189 88.9668 72.2045 88.9722 72.1911C88.9778 72.1777 88.986 72.1657 88.9962 72.1555C89.0064 72.1451 89.0186 72.1371 89.0318 72.1315C89.0452 72.1259 89.0596 72.1231 89.074 72.1231H89.1842C89.1988 72.1229 89.2132 72.1257 89.2268 72.1311C89.2402 72.1367 89.2526 72.1447 89.2628 72.1549C89.2732 72.1653 89.2814 72.1775 89.287 72.1909C89.2926 72.2043 89.2956 72.2187 89.2956 72.2333V75.5509Z" fill="#E5E0D7"/>
<path d="M89.1322 79.075C88.419 79.075 87.722 78.8636 87.129 78.4674C86.536 78.0712 86.0738 77.508 85.8008 76.849C85.528 76.1902 85.4566 75.4652 85.5956 74.7656C85.7348 74.0662 86.0782 73.4238 86.5826 72.9194C87.0868 72.4152 87.7292 72.0718 88.4288 71.9326C89.1282 71.7934 89.8532 71.8648 90.5122 72.1378C91.171 72.4106 91.7342 72.8728 92.1304 73.4658C92.5266 74.0588 92.7382 74.756 92.7382 75.4692C92.7372 76.4252 92.357 77.3418 91.681 78.0178C91.005 78.6938 90.0882 79.074 89.1322 79.075ZM88.7138 72.3954C87.9342 72.5012 87.224 72.8994 86.7268 73.509C86.2296 74.1188 85.9826 74.8946 86.0356 75.6796C86.0886 76.4646 86.438 77.2 87.0128 77.7372C87.5876 78.2744 88.3448 78.5734 89.1316 78.5734C89.9184 78.5734 90.6758 78.2744 91.2506 77.7372C91.8254 77.2 92.1746 76.4646 92.2278 75.6796C92.2808 74.8946 92.0338 74.1188 91.5366 73.509C91.0394 72.8994 90.329 72.5012 89.5494 72.3954V75.5594C89.5494 75.6558 89.5112 75.7484 89.4432 75.8166C89.375 75.885 89.2826 75.9236 89.1862 75.9238H89.0772C88.9808 75.9236 88.8884 75.885 88.8202 75.8166C88.7522 75.7484 88.7138 75.6558 88.7138 75.5594V72.3954Z" fill="#637A6A"/>
<path d="M104.485 73.296C104.657 72.568 104.206 71.8382 103.478 71.6664C102.75 71.4946 102.02 71.9456 101.848 72.6738C101.676 73.4018 102.127 74.1316 102.855 74.3034C103.584 74.4752 104.313 74.0242 104.485 73.296Z" fill="#E5E0D7"/>
<path d="M104.139 78.2083C104.668 77.6791 104.668 76.8215 104.139 76.2923C103.61 75.7633 102.752 75.7633 102.223 76.2923C101.694 76.8215 101.694 77.6791 102.223 78.2083C102.752 78.7373 103.61 78.7373 104.139 78.2083Z" fill="#E5E0D7"/>
<path d="M99.9072 71.8633H96.4456C95.9918 71.8633 95.624 72.2311 95.624 72.6849V73.5133C95.624 73.9671 95.9918 74.3349 96.4456 74.3349H99.9072C100.361 74.3349 100.729 73.9671 100.729 73.5133V72.6849C100.729 72.2311 100.361 71.8633 99.9072 71.8633Z" fill="#F6C5C1"/>
<path d="M99.9072 76.1133H96.4456C95.9918 76.1133 95.624 76.4811 95.624 76.9349V77.7633C95.624 78.2171 95.9918 78.5849 96.4456 78.5849H99.9072C100.361 78.5849 100.729 78.2171 100.729 77.7633V76.9349C100.729 76.4811 100.361 76.1133 99.9072 76.1133Z" fill="#F6C5C1"/>
<path d="M95.1158 63.6691H93.8854C91.9764 62.3671 90.7928 60.0163 90.9768 57.7031C92.3572 59.6921 93.737 61.6807 95.1158 63.6691Z" fill="#4B594F"/>
<path d="M97.3574 63.6691H96.127C97.5058 61.6793 98.8856 59.6905 100.266 57.7031C100.449 60.0163 99.2664 62.3671 97.3574 63.6691Z" fill="#4B594F"/>
<path opacity="0.75" d="M85.7773 30.5664L90.4695 61.4828H92.2671L92.4851 30.5664H85.7773Z" fill="white"/>
<path opacity="0.75" d="M93.4541 30.5664L94.6469 61.4828H95.1041L95.1603 30.5664H93.4541Z" fill="white"/>
<path opacity="0.75" d="M94.9488 21.8262C94.9488 22.2036 93.6188 22.5106 91.9792 22.5106C90.3398 22.5106 89.0098 22.2036 89.0098 21.8262C89.0098 21.4488 90.3386 21.1406 91.9792 21.1406C93.62 21.1406 94.9488 21.45 94.9488 21.8262Z" fill="white"/>
<path d="M87.1 71.9023C86.425 72.2901 85.8764 72.8647 85.5204 73.5569L85.041 73.3015C85.383 72.4951 85.9564 71.8085 86.6886 71.3281L87.1 71.9023Z" fill="#F6C5C1"/>
<path d="M89.1615 70.6172V71.379H89.0993C88.3971 71.3776 87.7067 71.5612 87.0977 71.911L86.6865 71.3368C87.4031 70.8664 88.2421 70.6166 89.0993 70.6184L89.1615 70.6172Z" fill="#F6C5C1"/>
<path d="M91.7726 71.5184L91.3132 72.0386C90.674 71.6182 89.928 71.3894 89.1628 71.379V70.6172C90.1072 70.629 91.0224 70.945 91.7726 71.5184Z" fill="#F6C5C1"/>
<path d="M93.2188 73.4312L92.7148 73.6094C92.4464 73.0658 92.0596 72.5892 91.5828 72.2148C91.495 72.1468 91.4058 72.0824 91.3132 72.0204L91.7726 71.5C91.8606 71.5668 91.9462 71.6382 92.0282 71.711C92.5572 72.1806 92.9654 72.7706 93.2188 73.4312Z" fill="#F6C5C1"/>
</g>
<path d="M37.8979 99.5V89.3182H44.2814V90.6406H39.4341V93.7429H43.9483V95.0604H39.4341V98.1776H44.3411V99.5H37.8979ZM47.7006 89.3182V99.5H46.2141V89.3182H47.7006ZM52.9917 99.6541C52.2393 99.6541 51.5913 99.4934 51.0478 99.1719C50.5075 98.8471 50.0899 98.3913 49.7949 97.8047C49.5033 97.2147 49.3574 96.5237 49.3574 95.7315C49.3574 94.9493 49.5033 94.2599 49.7949 93.6634C50.0899 93.0668 50.5009 92.6011 51.0279 92.2663C51.5582 91.9316 52.178 91.7642 52.8873 91.7642C53.3181 91.7642 53.7357 91.8355 54.1401 91.978C54.5444 92.1205 54.9074 92.3442 55.2289 92.6491C55.5504 92.9541 55.8039 93.3501 55.9895 93.8374C56.1751 94.3213 56.2679 94.9096 56.2679 95.6023V96.1293H50.1976V95.0156H54.8113C54.8113 94.6245 54.7317 94.2782 54.5726 93.9766C54.4135 93.6716 54.1898 93.4313 53.9015 93.2557C53.6164 93.08 53.2817 92.9922 52.8972 92.9922C52.4796 92.9922 52.115 93.0949 51.8034 93.3004C51.4952 93.5026 51.2566 93.7678 51.0875 94.0959C50.9218 94.4207 50.839 94.7737 50.839 95.1548V96.0249C50.839 96.5353 50.9284 96.9695 51.1074 97.3274C51.2897 97.6854 51.5433 97.9588 51.8681 98.1477C52.1929 98.3333 52.5724 98.4261 53.0066 98.4261C53.2883 98.4261 53.5452 98.3864 53.7772 98.3068C54.0092 98.224 54.2097 98.1013 54.3787 97.9389C54.5478 97.7765 54.677 97.576 54.7665 97.3374L56.1735 97.5909C56.0608 98.0052 55.8586 98.3681 55.5669 98.6797C55.2786 98.9879 54.9157 99.2282 54.4782 99.4006C54.044 99.5696 53.5485 99.6541 52.9917 99.6541ZM59.2844 96.9098L59.2745 95.0952H59.533L62.5756 91.8636H64.3555L60.8853 95.5426H60.6516L59.2844 96.9098ZM57.9173 99.5V89.3182H59.4038V99.5H57.9173ZM62.7397 99.5L60.0053 95.8707L61.0295 94.8317L64.5643 99.5H62.7397ZM69.2749 91.8636V93.0568H65.1037V91.8636H69.2749ZM66.2223 90.0341H67.7088V97.2578C67.7088 97.5462 67.7519 97.7633 67.8381 97.9091C67.9242 98.0516 68.0353 98.1494 68.1712 98.2024C68.3104 98.2521 68.4612 98.277 68.6236 98.277C68.7429 98.277 68.8473 98.2687 68.9368 98.2521C69.0263 98.2356 69.0959 98.2223 69.1456 98.2124L69.4141 99.4403C69.3279 99.4735 69.2053 99.5066 69.0462 99.5398C68.8871 99.5762 68.6882 99.5961 68.4496 99.5994C68.0585 99.6061 67.6939 99.5365 67.3558 99.3906C67.0178 99.2448 66.7443 99.0194 66.5355 98.7145C66.3267 98.4096 66.2223 98.0268 66.2223 97.5661V90.0341ZM70.9192 99.5V91.8636H72.356V93.0767H72.4355C72.5748 92.6657 72.82 92.3426 73.1713 92.1072C73.526 91.8686 73.927 91.7493 74.3745 91.7493C74.4673 91.7493 74.5766 91.7526 74.7026 91.7592C74.8319 91.7659 74.9329 91.7741 75.0059 91.7841V93.206C74.9462 93.1894 74.8401 93.1712 74.6877 93.1513C74.5352 93.1281 74.3828 93.1165 74.2303 93.1165C73.879 93.1165 73.5658 93.1911 73.2907 93.3402C73.0189 93.486 72.8034 93.6899 72.6444 93.9517C72.4853 94.2102 72.4057 94.5052 72.4057 94.8366V99.5H70.9192ZM79.2354 99.6541C78.5195 99.6541 77.8948 99.4901 77.3612 99.1619C76.8275 98.8338 76.4132 98.3748 76.1183 97.7848C75.8233 97.1948 75.6758 96.5054 75.6758 95.7166C75.6758 94.9245 75.8233 94.2318 76.1183 93.6385C76.4132 93.0452 76.8275 92.5845 77.3612 92.2564C77.8948 91.9283 78.5195 91.7642 79.2354 91.7642C79.9513 91.7642 80.5761 91.9283 81.1097 92.2564C81.6433 92.5845 82.0576 93.0452 82.3526 93.6385C82.6476 94.2318 82.7951 94.9245 82.7951 95.7166C82.7951 96.5054 82.6476 97.1948 82.3526 97.7848C82.0576 98.3748 81.6433 98.8338 81.1097 99.1619C80.5761 99.4901 79.9513 99.6541 79.2354 99.6541ZM79.2404 98.4062C79.7044 98.4062 80.0889 98.2836 80.3938 98.0384C80.6987 97.7931 80.9241 97.4666 81.07 97.0589C81.2191 96.6513 81.2937 96.2022 81.2937 95.7116C81.2937 95.2244 81.2191 94.777 81.07 94.3693C80.9241 93.9583 80.6987 93.6286 80.3938 93.38C80.0889 93.1314 79.7044 93.0071 79.2404 93.0071C78.7731 93.0071 78.3853 93.1314 78.0771 93.38C77.7721 93.6286 77.5451 93.9583 77.396 94.3693C77.2501 94.777 77.1772 95.2244 77.1772 95.7116C77.1772 96.2022 77.2501 96.6513 77.396 97.0589C77.5451 97.4666 77.7721 97.7931 78.0771 98.0384C78.3853 98.2836 78.7731 98.4062 79.2404 98.4062ZM85.9409 94.9659V99.5H84.4544V91.8636H85.8812V93.1065H85.9757C86.1513 92.7022 86.4264 92.3774 86.801 92.1321C87.1788 91.8868 87.6544 91.7642 88.2278 91.7642C88.7482 91.7642 89.2039 91.8736 89.595 92.0923C89.9861 92.3078 90.2894 92.6293 90.5048 93.0568C90.7202 93.4844 90.8279 94.013 90.8279 94.6428V99.5H89.3414V94.8217C89.3414 94.2682 89.1973 93.8357 88.9089 93.5241C88.6206 93.2093 88.2245 93.0518 87.7207 93.0518C87.376 93.0518 87.0694 93.1264 86.801 93.2756C86.5358 93.4247 86.3253 93.6435 86.1696 93.9318C86.0171 94.2169 85.9409 94.5616 85.9409 94.9659ZM92.8216 99.5V91.8636H94.3081V99.5H92.8216ZM93.5723 90.6854C93.3137 90.6854 93.0917 90.5992 92.9061 90.4268C92.7238 90.2512 92.6326 90.0424 92.6326 89.8004C92.6326 89.5552 92.7238 89.3464 92.9061 89.174C93.0917 88.9983 93.3137 88.9105 93.5723 88.9105C93.8308 88.9105 94.0512 88.9983 94.2335 89.174C94.4191 89.3464 94.5119 89.5552 94.5119 89.8004C94.5119 90.0424 94.4191 90.2512 94.2335 90.4268C94.0512 90.5992 93.8308 90.6854 93.5723 90.6854ZM97.6751 96.9098L97.6651 95.0952H97.9237L100.966 91.8636H102.746L99.2759 95.5426H99.0423L97.6751 96.9098ZM96.3079 99.5V89.3182H97.7944V99.5H96.3079ZM101.13 99.5L98.396 95.8707L99.4201 94.8317L102.955 99.5H101.13ZM111.221 99.5H107.925V89.3182H111.326C112.323 89.3182 113.18 89.522 113.896 89.9297C114.612 90.334 115.161 90.9157 115.542 91.6747C115.926 92.4304 116.118 93.3369 116.118 94.3942C116.118 95.4548 115.925 96.3662 115.537 97.1286C115.152 97.8909 114.595 98.4775 113.866 98.8885C113.137 99.2962 112.256 99.5 111.221 99.5ZM109.461 98.1577H111.137C111.912 98.1577 112.557 98.0118 113.071 97.7202C113.585 97.4252 113.969 96.9993 114.224 96.4425C114.479 95.8823 114.607 95.1996 114.607 94.3942C114.607 93.5954 114.479 92.9176 114.224 92.3608C113.972 91.804 113.596 91.3814 113.096 91.093C112.595 90.8047 111.974 90.6605 111.231 90.6605H109.461V98.1577ZM120.132 99.669C119.648 99.669 119.21 99.5795 118.819 99.4006C118.428 99.2183 118.118 98.9548 117.89 98.6101C117.664 98.2654 117.551 97.8428 117.551 97.3423C117.551 96.9115 117.634 96.5568 117.8 96.2784C117.966 96 118.19 95.7796 118.471 95.6172C118.753 95.4548 119.068 95.3321 119.416 95.2493C119.764 95.1664 120.118 95.1035 120.48 95.0604C120.937 95.0073 121.308 94.9643 121.593 94.9311C121.878 94.8946 122.086 94.8366 122.215 94.7571C122.344 94.6776 122.409 94.5483 122.409 94.3693V94.3345C122.409 93.9003 122.286 93.5639 122.041 93.3253C121.799 93.0866 121.438 92.9673 120.957 92.9673C120.457 92.9673 120.062 93.0784 119.774 93.3004C119.489 93.5192 119.292 93.7628 119.182 94.0312L117.785 93.7131C117.951 93.2491 118.193 92.8745 118.511 92.5895C118.833 92.3011 119.202 92.0923 119.62 91.9631C120.037 91.8305 120.476 91.7642 120.937 91.7642C121.242 91.7642 121.565 91.8007 121.907 91.8736C122.251 91.9432 122.573 92.0724 122.871 92.2614C123.173 92.4503 123.42 92.7204 123.612 93.0717C123.804 93.4197 123.9 93.8722 123.9 94.429V99.5H122.449V98.456H122.389C122.293 98.6482 122.149 98.8371 121.956 99.0227C121.764 99.2083 121.517 99.3625 121.216 99.4851C120.914 99.6077 120.553 99.669 120.132 99.669ZM120.455 98.4759C120.866 98.4759 121.217 98.3946 121.509 98.2322C121.804 98.0698 122.028 97.8577 122.18 97.5959C122.336 97.3307 122.414 97.0473 122.414 96.7457V95.7614C122.361 95.8144 122.258 95.8641 122.105 95.9105C121.956 95.9536 121.786 95.9917 121.593 96.0249C121.401 96.0547 121.214 96.0829 121.032 96.1094C120.849 96.1326 120.697 96.1525 120.574 96.169C120.286 96.2055 120.022 96.2668 119.784 96.353C119.548 96.4392 119.359 96.5634 119.217 96.7259C119.078 96.8849 119.008 97.0971 119.008 97.3622C119.008 97.7301 119.144 98.0085 119.416 98.1974C119.688 98.383 120.034 98.4759 120.455 98.4759ZM125.88 102.364V91.8636H127.332V93.1016H127.456C127.542 92.9425 127.667 92.7585 127.829 92.5497C127.991 92.3409 128.217 92.1586 128.505 92.0028C128.794 91.8438 129.175 91.7642 129.649 91.7642C130.265 91.7642 130.815 91.92 131.299 92.2315C131.783 92.5431 132.163 92.9922 132.438 93.5788C132.716 94.1655 132.855 94.8714 132.855 95.6967C132.855 96.522 132.718 97.2296 132.443 97.8196C132.168 98.4062 131.79 98.8587 131.309 99.1768C130.829 99.4917 130.28 99.6491 129.664 99.6491C129.2 99.6491 128.82 99.5713 128.525 99.4155C128.233 99.2597 128.005 99.0774 127.839 98.8686C127.673 98.6598 127.546 98.4742 127.456 98.3118H127.367V102.364H125.88ZM127.337 95.6818C127.337 96.2187 127.415 96.6894 127.57 97.0938C127.726 97.4981 127.952 97.8146 128.247 98.0433C128.542 98.2687 128.903 98.3814 129.33 98.3814C129.775 98.3814 130.146 98.2637 130.444 98.0284C130.742 97.7898 130.968 97.4666 131.12 97.0589C131.276 96.6513 131.354 96.1922 131.354 95.6818C131.354 95.178 131.278 94.7256 131.125 94.3246C130.976 93.9235 130.751 93.607 130.449 93.375C130.151 93.143 129.778 93.027 129.33 93.027C128.9 93.027 128.535 93.138 128.237 93.3601C127.942 93.5821 127.718 93.892 127.566 94.2898C127.413 94.6875 127.337 95.1515 127.337 95.6818ZM139.358 96.3331V91.8636H140.85V99.5H139.388V98.1776H139.308C139.133 98.5852 138.851 98.925 138.463 99.1967C138.079 99.4652 137.6 99.5994 137.026 99.5994C136.536 99.5994 136.102 99.4917 135.724 99.2763C135.349 99.0575 135.054 98.7344 134.839 98.3068C134.627 97.8793 134.521 97.3506 134.521 96.7209V91.8636H136.007V96.5419C136.007 97.0623 136.151 97.4766 136.44 97.7848C136.728 98.093 137.103 98.2472 137.563 98.2472C137.842 98.2472 138.119 98.1776 138.394 98.0384C138.672 97.8991 138.902 97.6887 139.085 97.407C139.27 97.1252 139.361 96.7673 139.358 96.3331ZM142.847 99.5V91.8636H144.284V93.0767H144.363C144.502 92.6657 144.748 92.3426 145.099 92.1072C145.454 91.8686 145.855 91.7493 146.302 91.7493C146.395 91.7493 146.504 91.7526 146.63 91.7592C146.76 91.7659 146.861 91.7741 146.934 91.7841V93.206C146.874 93.1894 146.768 93.1712 146.615 93.1513C146.463 93.1281 146.31 93.1165 146.158 93.1165C145.807 93.1165 145.493 93.1911 145.218 93.3402C144.947 93.486 144.731 93.6899 144.572 93.9517C144.413 94.2102 144.333 94.5052 144.333 94.8366V99.5H142.847Z" fill="#252525"/>
</g>
<defs>
<linearGradient id="paint0_linear_103_3116" x1="113.206" y1="70.0386" x2="70.7865" y2="22.9272" gradientUnits="userSpaceOnUse">
<stop stop-color="#E0F9FF"/>
<stop offset="1" stop-color="#DAEEFC"/>
</linearGradient>
<clipPath id="clip0_103_3116">
<rect y="0.5" width="184" height="109" rx="8" fill="white"/>
</clipPath>
</defs>
</svg>
