<svg width="24" height="24" viewBox="0 0 24 24" fill="none" xmlns="http://www.w3.org/2000/svg">
<path d="M21.0563 4.86503C20.548 4.29454 19.9279 3.83456 19.2344 3.51364C18.541 3.19272 17.789 3.01769 17.0251 2.99941C16.2619 2.98268 15.5031 3.1202 14.7943 3.40372C14.0855 3.68724 13.4412 4.11093 12.9001 4.64941L12.0001 5.54003L11.297 4.84628C9.11258 2.65253 5.55008 2.46503 3.3657 4.44316C2.79723 4.95313 2.33874 5.5737 2.01829 6.26692C1.69783 6.96013 1.52214 7.71143 1.50196 8.47486C1.48178 9.2383 1.61753 9.99783 1.90091 10.707C2.18429 11.4162 2.60934 12.0601 3.15008 12.5994L10.9407 20.39C11.0793 20.5301 11.2443 20.6412 11.4261 20.7171C11.608 20.7929 11.8031 20.832 12.0001 20.832C12.1971 20.832 12.3922 20.7929 12.574 20.7171C12.7559 20.6412 12.9208 20.5301 13.0595 20.39L20.6532 12.7963C22.847 10.6119 23.0251 7.04941 21.0563 4.86503Z" fill="#EE2626"/>
</svg>
