<svg width="184" height="110" viewBox="0 0 184 110" fill="none" xmlns="http://www.w3.org/2000/svg">
<g clip-path="url(#clip0_103_3100)">
<rect y="0.5" width="184" height="109" rx="8" fill="white"/>
<path fill-rule="evenodd" clip-rule="evenodd" d="M96.3498 9.5125C105.386 10.995 111.903 17.7065 118.236 24.3196C124.369 30.7232 131.314 37.3412 131.491 46.206C131.67 55.1846 125.7 62.8644 119.125 68.9814C112.823 74.8444 104.958 78.867 96.3498 78.8982C87.7118 78.9298 79.1062 75.6398 73.408 69.148C68.0014 62.9882 68.7992 54.3218 67.6544 46.206C66.1768 35.7306 59.3558 24.0622 65.8728 15.7288C72.5126 7.23838 85.7136 7.7675 96.3498 9.5125Z" fill="url(#paint0_linear_103_3100)" fill-opacity="0.59"/>
<mask id="mask0_103_3100" style="mask-type:alpha" maskUnits="userSpaceOnUse" x="52" y="8" width="80" height="71">
<path fill-rule="evenodd" clip-rule="evenodd" d="M96.3549 9.5125C105.391 10.995 111.908 17.7065 118.241 24.3196C124.374 30.7232 131.32 37.3412 131.496 46.206C131.675 55.1846 125.705 62.8644 119.13 68.9814C112.828 74.8444 104.963 78.867 96.3549 78.8982C87.7171 78.9298 77.7643 78.6402 72.0661 72.1482C66.6593 65.9884 55.9215 64.5174 54.1623 51.3104C48.2899 36.3424 59.3609 24.0622 65.8779 15.7288C72.5177 7.23838 85.7187 7.7675 96.3549 9.5125Z" fill="#C4C4C4"/>
</mask>
<g mask="url(#mask0_103_3100)">
<path d="M133.081 33.1297V50.3637H63.3076V33.1297C63.3076 31.6631 63.5798 30.2107 64.109 28.8555C64.6382 27.5003 65.414 26.2691 66.392 25.2319C67.37 24.1947 68.531 23.3721 69.8088 22.8107C71.0866 22.2495 72.456 21.9607 73.839 21.9609H122.55C123.933 21.9607 125.302 22.2495 126.58 22.8107C127.858 23.3721 129.019 24.1947 129.997 25.2319C130.975 26.2691 131.75 27.5003 132.28 28.8555C132.809 30.2107 133.081 31.6631 133.081 33.1297Z" fill="#8DAC54"/>
<path d="M133.081 42.8906H63.3076V50.3656H133.081V42.8906Z" fill="#607845"/>
<path d="M131.708 34.7578H134.469C135.112 34.7578 135.729 35.029 136.184 35.5116C136.64 35.994 136.895 36.6486 136.895 37.331V49.5382H129.281V37.331C129.281 36.6486 129.537 35.994 129.992 35.5116C130.447 35.029 131.064 34.7578 131.708 34.7578Z" fill="#DDD46B"/>
<path d="M132.956 41.1255C134.037 41.1255 134.914 40.1959 134.914 39.0491C134.914 37.9023 134.037 36.9727 132.956 36.9727C131.875 36.9727 130.998 37.9023 130.998 39.0491C130.998 40.1959 131.875 41.1255 132.956 41.1255Z" fill="#8DAC54"/>
<path d="M61.9284 34.7578H64.6894C65.333 34.7578 65.9502 35.029 66.4052 35.5116C66.8602 35.994 67.1158 36.6486 67.1158 37.331V49.5382H59.502V37.331C59.502 36.6486 59.7576 35.994 60.2126 35.5116C60.6676 35.029 61.2848 34.7578 61.9284 34.7578Z" fill="#DDD46B"/>
<path d="M66.4363 57.9297H66.0555C65.0159 57.9297 64.1729 58.8237 64.1729 59.9263V63.4083C64.1729 64.5109 65.0159 65.4047 66.0555 65.4047H66.4363C67.4759 65.4047 68.3187 64.5109 68.3187 63.4083V59.9263C68.3187 58.8237 67.4759 57.9297 66.4363 57.9297Z" fill="#7D3E56"/>
<path d="M130.649 57.9297H130.268C129.229 57.9297 128.386 58.8237 128.386 59.9263V63.4083C128.386 64.5109 129.229 65.4047 130.268 65.4047H130.649C131.689 65.4047 132.532 64.5109 132.532 63.4083V59.9263C132.532 58.8237 131.689 57.9297 130.649 57.9297Z" fill="#7D3E56"/>
<path d="M134.46 56.3003C134.461 56.9359 134.343 57.5655 134.113 58.1527C133.884 58.7399 133.548 59.2735 133.124 59.7229C132.7 60.1725 132.197 60.5289 131.644 60.7721C131.09 61.0151 130.496 61.1401 129.897 61.1399H66.5937C65.3835 61.1399 64.2227 60.6301 63.3669 59.7225C62.5111 58.8149 62.0303 57.5839 62.0303 56.3003C62.0303 55.0169 62.5111 53.7859 63.3669 52.8783C64.2227 51.9707 65.3835 51.4609 66.5937 51.4609H129.897C131.107 51.4609 132.268 51.9707 133.124 52.8783C133.98 53.7859 134.46 55.0169 134.46 56.3003Z" fill="#607845"/>
<path d="M134.461 56.3003C134.463 56.9285 134.35 57.5509 134.127 58.1327H62.3692C62.086 57.3977 61.9778 56.5999 62.054 55.8099C62.13 55.0201 62.3882 54.2621 62.8056 53.6029C63.2232 52.9437 63.787 52.4035 64.4478 52.0299C65.1086 51.6565 65.8458 51.4609 66.5944 51.4609H129.898C131.108 51.4609 132.269 51.9707 133.125 52.8783C133.98 53.7859 134.461 55.0169 134.461 56.3003Z" fill="#384860"/>
<path d="M138.666 52.2146C138.666 53.498 138.185 54.7286 137.329 55.6362C136.474 56.5436 135.313 57.0536 134.103 57.0542H62.3876C61.1772 57.0542 60.0166 56.5442 59.1608 55.6366C58.305 54.729 57.8242 53.498 57.8242 52.2146C57.8242 50.931 58.305 49.7 59.1608 48.7924C60.0166 47.8848 61.1772 47.375 62.3876 47.375H134.103C134.702 47.3746 135.296 47.4994 135.85 47.7424C136.404 47.9854 136.907 48.342 137.331 48.7914C137.755 49.241 138.091 49.7746 138.32 50.362C138.549 50.9494 138.667 51.5788 138.666 52.2146Z" fill="#8DAC54"/>
<path opacity="0.52" d="M138.32 50.3644H58.1719C58.5181 49.48 59.1033 48.7242 59.8539 48.1922C60.6045 47.6602 61.4869 47.3758 62.3897 47.375H134.105C135.008 47.3758 135.89 47.66 136.64 48.1922C137.39 48.7242 137.974 49.4802 138.32 50.3644Z" fill="#DDD46B"/>
<path d="M63.1824 41.1255C64.2638 41.1255 65.1404 40.1959 65.1404 39.0491C65.1404 37.9023 64.2638 36.9727 63.1824 36.9727C62.1012 36.9727 61.2246 37.9023 61.2246 39.0491C61.2246 40.1959 62.1012 41.1255 63.1824 41.1255Z" fill="#8DAC54"/>
<path d="M88.5326 44.2238C88.6142 45.2804 88.7488 46.3316 88.9358 47.373H68.0186C68.0186 47.373 69.7288 43.6658 69.7956 40.079C69.8626 36.4924 69.2552 34.2696 69.2552 34.2696C69.2552 34.2696 67.2472 31.1862 68.3516 31.1134C69.1122 31.0646 69.7664 31.66 70.849 31.8508C71.4444 31.9488 72.0522 31.9186 72.6362 31.762C74.9354 31.1888 76.2884 30.2536 81.0868 31.1134C85.8854 31.9732 87.3086 32.3362 88.6606 32.1206C90.0128 31.905 90.3524 30.9014 90.4176 32.1924C90.483 33.4834 88.7276 34.8456 88.4564 39.221C88.3628 40.8882 88.3882 42.5606 88.5326 44.2238Z" fill="#CFD9E8"/>
<g opacity="0.46">
<path d="M69.8042 40.0817C69.8728 36.4959 69.2636 34.2723 69.2636 34.2723C69.2636 34.2723 67.2556 31.1887 68.36 31.1161C69.1206 31.0673 69.775 31.6627 70.8576 31.8533C70.8058 35.1365 71.1572 39.8181 73.2966 42.1465C75.4786 44.5237 83.1052 44.5423 88.5394 44.2247C88.621 45.2813 88.7556 46.3325 88.9428 47.3739H68.0254C68.0254 47.3739 69.7372 43.6665 69.8042 40.0817Z" fill="#A2A7B1"/>
</g>
<path d="M74.7282 39.8881C75.0436 39.7489 75.1926 39.3651 75.0614 39.0307C74.93 38.6965 74.568 38.5383 74.2528 38.6775C73.9376 38.8167 73.7884 39.2007 73.9198 39.5349C74.051 39.8693 74.413 40.0275 74.7282 39.8881Z" fill="#A2A7B1"/>
<path d="M82.7742 39.8881C83.0894 39.7489 83.2386 39.3651 83.1072 39.0307C82.976 38.6965 82.614 38.5383 82.2988 38.6775C81.9834 38.8167 81.8344 39.2007 81.9656 39.5349C82.097 39.8693 82.459 40.0275 82.7742 39.8881Z" fill="#A2A7B1"/>
<path d="M127.383 44.2238C127.465 45.2804 127.599 46.3316 127.786 47.373H106.869C106.869 47.373 108.579 43.6658 108.646 40.079C108.713 36.4924 108.106 34.2696 108.106 34.2696C108.106 34.2696 106.098 31.1862 107.202 31.1134C107.963 31.0646 108.617 31.66 109.7 31.8508C110.295 31.9488 110.903 31.9186 111.487 31.762C113.787 31.1888 115.139 30.2536 119.937 31.1134C124.736 31.9732 126.159 32.3362 127.512 32.1206C128.865 31.905 129.203 30.9014 129.269 32.1924C129.335 33.4834 127.578 34.8456 127.307 39.221C127.213 40.8882 127.239 42.5606 127.383 44.2238Z" fill="#EBC174"/>
<g opacity="0.73">
<path d="M108.647 40.0817C108.716 36.4959 108.106 34.2723 108.106 34.2723C108.106 34.2723 106.098 31.1887 107.203 31.1161C107.963 31.0673 108.618 31.6627 109.7 31.8533C109.648 35.1365 110 39.8181 112.139 42.1465C114.321 44.5237 121.949 44.5423 127.382 44.2247C127.464 45.2813 127.598 46.3325 127.785 47.3739H106.868C106.868 47.3739 108.58 43.6665 108.647 40.0817Z" fill="#BE8662"/>
</g>
<path d="M113.573 39.8947C113.888 39.7561 114.038 39.3725 113.907 39.0379C113.777 38.7033 113.415 38.5443 113.1 38.6829C112.784 38.8215 112.634 39.2051 112.765 39.5397C112.896 39.8743 113.257 40.0331 113.573 39.8947Z" fill="#7F4330"/>
<path d="M121.819 39.7524C122.061 39.4962 122.061 39.081 121.819 38.825C121.578 38.5688 121.186 38.5688 120.945 38.825C120.703 39.081 120.703 39.4962 120.945 39.7524C121.186 40.0084 121.578 40.0084 121.819 39.7524Z" fill="#7F4330"/>
<path d="M92.535 34.2289L92.8102 32.8359L93.0854 34.2289L93.5892 34.5209L93.0854 34.8137L92.8102 36.4181L92.535 34.8137L92.0312 34.5209L92.535 34.2289Z" fill="#607845"/>
<path d="M103.251 34.2289L103.527 32.8359L103.802 34.2289L104.306 34.5209L103.802 34.8137L103.527 36.4181L103.251 34.8137L102.747 34.5209L103.251 34.2289Z" fill="#607845"/>
</g>
<path d="M70.5787 89.3182V99.5H69.0424V89.3182H70.5787ZM74.1831 94.9659V99.5H72.6966V91.8636H74.1234V93.1065H74.2179C74.3935 92.7022 74.6686 92.3774 75.0431 92.1321C75.421 91.8868 75.8966 91.7642 76.47 91.7642C76.9904 91.7642 77.4461 91.8736 77.8372 92.0923C78.2283 92.3078 78.5315 92.6293 78.747 93.0568C78.9624 93.4844 79.0701 94.013 79.0701 94.6428V99.5H77.5836V94.8217C77.5836 94.2682 77.4395 93.8357 77.1511 93.5241C76.8627 93.2093 76.4667 93.0518 75.9629 93.0518C75.6182 93.0518 75.3116 93.1264 75.0431 93.2756C74.778 93.4247 74.5675 93.6435 74.4118 93.9318C74.2593 94.2169 74.1831 94.5616 74.1831 94.9659ZM84.6284 91.8636V93.0568H80.4572V91.8636H84.6284ZM81.5758 90.0341H83.0623V97.2578C83.0623 97.5462 83.1054 97.7633 83.1916 97.9091C83.2778 98.0516 83.3888 98.1494 83.5247 98.2024C83.6639 98.2521 83.8147 98.277 83.9771 98.277C84.0964 98.277 84.2008 98.2687 84.2903 98.2521C84.3798 98.2356 84.4494 98.2223 84.4991 98.2124L84.7676 99.4403C84.6814 99.4735 84.5588 99.5066 84.3997 99.5398C84.2406 99.5762 84.0417 99.5961 83.8031 99.5994C83.412 99.6061 83.0474 99.5365 82.7093 99.3906C82.3713 99.2448 82.0978 99.0194 81.889 98.7145C81.6802 98.4096 81.5758 98.0268 81.5758 97.5661V90.0341ZM89.4819 99.6541C88.7295 99.6541 88.0816 99.4934 87.538 99.1719C86.9978 98.8471 86.5801 98.3913 86.2852 97.8047C85.9935 97.2147 85.8477 96.5237 85.8477 95.7315C85.8477 94.9493 85.9935 94.2599 86.2852 93.6634C86.5801 93.0668 86.9911 92.6011 87.5181 92.2663C88.0484 91.9316 88.6682 91.7642 89.3775 91.7642C89.8084 91.7642 90.226 91.8355 90.6303 91.978C91.0347 92.1205 91.3976 92.3442 91.7191 92.6491C92.0406 92.9541 92.2942 93.3501 92.4798 93.8374C92.6654 94.3213 92.7582 94.9096 92.7582 95.6023V96.1293H86.6879V95.0156H91.3015C91.3015 94.6245 91.2219 94.2782 91.0629 93.9766C90.9038 93.6716 90.68 93.4313 90.3917 93.2557C90.1067 93.08 89.7719 92.9922 89.3874 92.9922C88.9698 92.9922 88.6052 93.0949 88.2937 93.3004C87.9854 93.5026 87.7468 93.7678 87.5778 94.0959C87.4121 94.4207 87.3292 94.7737 87.3292 95.1548V96.0249C87.3292 96.5353 87.4187 96.9695 87.5977 97.3274C87.7799 97.6854 88.0335 97.9588 88.3583 98.1477C88.6831 98.3333 89.0626 98.4261 89.4968 98.4261C89.7785 98.4261 90.0354 98.3864 90.2674 98.3068C90.4994 98.224 90.6999 98.1013 90.869 97.9389C91.038 97.7765 91.1673 97.576 91.2567 97.3374L92.6637 97.5909C92.551 98.0052 92.3488 98.3681 92.0572 98.6797C91.7688 98.9879 91.4059 99.2282 90.9684 99.4006C90.5342 99.5696 90.0387 99.6541 89.4819 99.6541ZM94.4075 99.5V91.8636H95.8443V93.0767H95.9238C96.063 92.6657 96.3083 92.3426 96.6596 92.1072C97.0143 91.8686 97.4153 91.7493 97.8627 91.7493C97.9556 91.7493 98.0649 91.7526 98.1909 91.7592C98.3201 91.7659 98.4212 91.7741 98.4941 91.7841V93.206C98.4345 93.1894 98.3284 93.1712 98.176 93.1513C98.0235 93.1281 97.871 93.1165 97.7186 93.1165C97.3672 93.1165 97.054 93.1911 96.7789 93.3402C96.5072 93.486 96.2917 93.6899 96.1326 93.9517C95.9735 94.2102 95.894 94.5052 95.894 94.8366V99.5H94.4075ZM99.7805 99.5V91.8636H101.267V99.5H99.7805ZM100.531 90.6854C100.273 90.6854 100.051 90.5992 99.8651 90.4268C99.6828 90.2512 99.5916 90.0424 99.5916 89.8004C99.5916 89.5552 99.6828 89.3464 99.8651 89.174C100.051 88.9983 100.273 88.9105 100.531 88.9105C100.79 88.9105 101.01 88.9983 101.192 89.174C101.378 89.3464 101.471 89.5552 101.471 89.8004C101.471 90.0424 101.378 90.2512 101.192 90.4268C101.01 90.5992 100.79 90.6854 100.531 90.6854ZM106.483 99.6541C105.768 99.6541 105.143 99.4901 104.609 99.1619C104.076 98.8338 103.661 98.3748 103.366 97.7848C103.071 97.1948 102.924 96.5054 102.924 95.7166C102.924 94.9245 103.071 94.2318 103.366 93.6385C103.661 93.0452 104.076 92.5845 104.609 92.2564C105.143 91.9283 105.768 91.7642 106.483 91.7642C107.199 91.7642 107.824 91.9283 108.358 92.2564C108.891 92.5845 109.306 93.0452 109.601 93.6385C109.896 94.2318 110.043 94.9245 110.043 95.7166C110.043 96.5054 109.896 97.1948 109.601 97.7848C109.306 98.3748 108.891 98.8338 108.358 99.1619C107.824 99.4901 107.199 99.6541 106.483 99.6541ZM106.488 98.4062C106.952 98.4062 107.337 98.2836 107.642 98.0384C107.947 97.7931 108.172 97.4666 108.318 97.0589C108.467 96.6513 108.542 96.2022 108.542 95.7116C108.542 95.2244 108.467 94.777 108.318 94.3693C108.172 93.9583 107.947 93.6286 107.642 93.38C107.337 93.1314 106.952 93.0071 106.488 93.0071C106.021 93.0071 105.633 93.1314 105.325 93.38C105.02 93.6286 104.793 93.9583 104.644 94.3693C104.498 94.777 104.425 95.2244 104.425 95.7116C104.425 96.2022 104.498 96.6513 104.644 97.0589C104.793 97.4666 105.02 97.7931 105.325 98.0384C105.633 98.2836 106.021 98.4062 106.488 98.4062ZM111.702 99.5V91.8636H113.139V93.0767H113.219C113.358 92.6657 113.603 92.3426 113.955 92.1072C114.309 91.8686 114.71 91.7493 115.158 91.7493C115.25 91.7493 115.36 91.7526 115.486 91.7592C115.615 91.7659 115.716 91.7741 115.789 91.7841V93.206C115.729 93.1894 115.623 93.1712 115.471 93.1513C115.318 93.1281 115.166 93.1165 115.013 93.1165C114.662 93.1165 114.349 93.1911 114.074 93.3402C113.802 93.486 113.587 93.6899 113.428 93.9517C113.268 94.2102 113.189 94.5052 113.189 94.8366V99.5H111.702Z" fill="#252525"/>
</g>
<defs>
<linearGradient id="paint0_linear_103_3100" x1="63.1006" y1="43.6798" x2="131.495" y2="43.6798" gradientUnits="userSpaceOnUse">
<stop stop-color="#E0F9FF"/>
<stop offset="1" stop-color="#DAEEFC"/>
</linearGradient>
<clipPath id="clip0_103_3100">
<rect y="0.5" width="184" height="109" rx="8" fill="white"/>
</clipPath>
</defs>
</svg>
