<svg width="184" height="110" viewBox="0 0 184 110" fill="none" xmlns="http://www.w3.org/2000/svg">
<g clip-path="url(#clip0_103_3107)">
<rect y="0.5" width="184" height="109" rx="8" fill="white"/>
<path fill-rule="evenodd" clip-rule="evenodd" d="M90.8578 9.73273C100.046 8.44119 108.669 14.0794 115.381 20.4871C122.271 27.0656 127.536 35.4874 127.806 45.0098C128.083 54.7736 124.058 64.4136 116.814 70.9656C109.873 77.2432 100.066 80.0978 90.8578 78.4278C82.7774 76.9622 78.7846 68.6948 72.8714 62.9962C66.7488 57.0962 56.2954 53.512 56.1806 45.0098C56.0658 36.4954 66.41 32.6038 72.3792 26.5312C78.4456 20.36 82.2884 10.9372 90.8578 9.73273Z" fill="url(#paint0_linear_103_3107)" fill-opacity="0.59"/>
<mask id="mask0_103_3107" style="mask-type:alpha" maskUnits="userSpaceOnUse" x="56" y="9" width="72" height="70">
<path fill-rule="evenodd" clip-rule="evenodd" d="M90.8578 9.73273C100.046 8.44119 108.669 14.0794 115.381 20.4871C122.271 27.0656 127.536 35.4874 127.806 45.0098C128.083 54.7736 124.058 64.4136 116.814 70.9656C109.873 77.2432 100.066 80.0978 90.8578 78.4278C82.7774 76.9622 78.7846 68.6948 72.8714 62.9962C66.7488 57.0962 56.2954 53.512 56.1806 45.0098C56.0658 36.4954 66.41 32.6038 72.3792 26.5312C78.4456 20.36 82.2884 10.9372 90.8578 9.73273Z" fill="#C4C4C4"/>
</mask>
<g mask="url(#mask0_103_3107)">
<path d="M101.636 51.9688H84.6705C83.9039 51.9701 83.1581 52.2181 82.5433 52.6759C81.9285 53.1337 81.4773 53.7771 81.2563 54.5113L77.5645 67.7788H108.736L105.044 54.5113C104.825 53.7771 104.375 53.1334 103.761 52.6754C103.148 52.2174 102.402 51.9695 101.636 51.9688Z" fill="#C23535"/>
<path d="M101.636 51.9688H84.67C84.1046 51.9694 83.5474 52.1044 83.0444 52.3628C82.5416 52.6212 82.1072 52.9954 81.7774 53.4546C81.6622 53.6132 81.5606 53.781 81.4736 53.9566L100.698 54.0754C101.219 54.079 101.73 54.2253 102.173 54.4991C102.617 54.7727 102.977 55.1629 103.214 55.6273L108.735 67.7788L105.044 54.5113C104.825 53.7771 104.375 53.1334 103.761 52.6754C103.147 52.2174 102.402 51.9695 101.636 51.9688Z" fill="#962929"/>
<path d="M101.636 51.9688H84.6705C83.9039 51.9701 83.1581 52.2181 82.5433 52.6759C81.9285 53.1337 81.4773 53.7771 81.2563 54.5113L77.5645 67.7788L82.2337 55.7593C82.5131 55.0971 82.9817 54.5322 83.5809 54.1352C84.1799 53.738 84.8829 53.5266 85.6017 53.5274H100.666C101.381 53.5272 102.08 53.7375 102.677 54.1321C103.273 54.5267 103.74 55.088 104.02 55.7462L108.736 67.7788L105.044 54.5113C104.825 53.7771 104.375 53.1334 103.761 52.6754C103.148 52.2174 102.402 51.9695 101.636 51.9688Z" fill="#FF4545"/>
<path d="M93.1684 31.4575C93.0014 31.4575 92.8358 31.4905 92.6816 31.5547C92.5274 31.6189 92.3872 31.7129 92.2694 31.8313C92.1516 31.9497 92.0584 32.0903 91.995 32.2449C91.9316 32.3995 91.8996 32.5651 91.9004 32.7321V51.9567H94.4694V32.7321C94.4704 32.5623 94.4372 32.3939 94.3718 32.2371C94.3064 32.0803 94.2102 31.9383 94.0888 31.8193C93.9674 31.7005 93.8234 31.6071 93.6654 31.5451C93.5072 31.4829 93.3382 31.4531 93.1684 31.4575ZM93.1684 33.7557C93.022 33.7557 92.879 33.7125 92.7574 33.6311C92.6358 33.5499 92.541 33.4343 92.485 33.2991C92.429 33.1641 92.4144 33.0153 92.443 32.8719C92.4714 32.7283 92.542 32.5965 92.6454 32.4931C92.7488 32.3897 92.8806 32.3193 93.024 32.2907C93.1676 32.2621 93.3162 32.2767 93.4514 32.3327C93.5866 32.3887 93.7022 32.4835 93.7834 32.6051C93.8646 32.7269 93.908 32.8699 93.908 33.0161C93.908 33.1143 93.8884 33.2117 93.8504 33.3023C93.8124 33.3929 93.7568 33.4751 93.6868 33.5439C93.6166 33.6127 93.5336 33.6669 93.4422 33.7033C93.351 33.7397 93.2534 33.7575 93.1552 33.7557H93.1684Z" fill="#FF4545"/>
<path opacity="0.2" d="M94.446 50.1992H91.877V51.956H94.446V50.1992Z" fill="#505050"/>
<path d="M94.446 40.1523H91.877V40.7335H94.446V40.1523Z" fill="#8F2727"/>
<path d="M94.446 38.9141H91.877V39.4953H94.446V38.9141Z" fill="#8F2727"/>
<path d="M94.446 37.6641H91.877V38.2453H94.446V37.6641Z" fill="#8F2727"/>
<path d="M110.686 14.125H108.038V59.6864H110.686V14.125Z" fill="#2E4D8F"/>
<path opacity="0.2" d="M109.366 14.125H108.038V59.6864H109.366V14.125Z" fill="#505050"/>
<path d="M110.941 9.54688H107.791V14.1301H110.941V9.54688Z" fill="#67C22A"/>
<path opacity="0.2" d="M109.369 9.54688H107.791V14.1301H109.369V9.54688Z" fill="#505050"/>
<path d="M111.875 55.2852H106.85V59.9344H111.875V55.2852Z" fill="#67C22A"/>
<path opacity="0.2" d="M111.875 57.6094H106.85V59.934H111.875V57.6094Z" fill="#505050"/>
<path d="M127.819 59.9297H90.9092V61.2705H127.819V59.9297Z" fill="#67C22A"/>
<path d="M127.35 61.2617H91.252V61.7965H127.35V61.2617Z" fill="#505050"/>
<path d="M127.819 61.8086H90.9092V68.8486H127.819V61.8086Z" fill="#DEBE0B"/>
<path d="M93.9926 62.6602H92.335V68.835H93.9926V62.6602Z" fill="#BDA629"/>
<path d="M97.2162 62.6602H95.5586V68.835H97.2162V62.6602Z" fill="#BDA629"/>
<path d="M100.446 62.6602H98.7881V68.835H100.446V62.6602Z" fill="#BDA629"/>
<path d="M103.679 62.6602H102.021V68.835H103.679V62.6602Z" fill="#BDA629"/>
<path d="M106.905 62.6602H105.247V68.835H106.905V62.6602Z" fill="#BDA629"/>
<path d="M110.132 62.6602H108.475V68.835H110.132V62.6602Z" fill="#BDA629"/>
<path d="M113.358 62.6602H111.7V68.835H113.358V62.6602Z" fill="#BDA629"/>
<path d="M116.587 62.6602H114.93V68.835H116.587V62.6602Z" fill="#BDA629"/>
<path d="M119.813 62.6602H118.155V68.835H119.813V62.6602Z" fill="#BDA629"/>
<path d="M123.045 62.6602H121.388V68.835H123.045V62.6602Z" fill="#BDA629"/>
<path d="M126.277 62.6602H124.619V68.835H126.277V62.6602Z" fill="#BDA629"/>
</g>
<path d="M30.6792 99.5V89.3182H32.2154V94.1804H32.3397L36.6103 89.3182H38.5442L34.4377 93.902L38.5591 99.5H36.7097L33.4185 94.951L32.2154 96.3331V99.5H30.6792ZM42.5874 99.6541C41.835 99.6541 41.187 99.4934 40.6435 99.1719C40.1032 98.8471 39.6856 98.3913 39.3906 97.8047C39.099 97.2147 38.9531 96.5237 38.9531 95.7315C38.9531 94.9493 39.099 94.2599 39.3906 93.6634C39.6856 93.0668 40.0966 92.6011 40.6236 92.2663C41.1539 91.9316 41.7737 91.7642 42.483 91.7642C42.9138 91.7642 43.3314 91.8355 43.7358 91.978C44.1402 92.1205 44.5031 92.3442 44.8246 92.6491C45.1461 92.9541 45.3996 93.3501 45.5852 93.8374C45.7708 94.3213 45.8636 94.9096 45.8636 95.6023V96.1293H39.7933V95.0156H44.407C44.407 94.6245 44.3274 94.2782 44.1683 93.9766C44.0092 93.6716 43.7855 93.4313 43.4972 93.2557C43.2121 93.08 42.8774 92.9922 42.4929 92.9922C42.0753 92.9922 41.7107 93.0949 41.3991 93.3004C41.0909 93.5026 40.8523 93.7678 40.6832 94.0959C40.5175 94.4207 40.4347 94.7737 40.4347 95.1548V96.0249C40.4347 96.5353 40.5241 96.9695 40.7031 97.3274C40.8854 97.6854 41.139 97.9588 41.4638 98.1477C41.7886 98.3333 42.1681 98.4261 42.6023 98.4261C42.884 98.4261 43.1409 98.3864 43.3729 98.3068C43.6049 98.224 43.8054 98.1013 43.9744 97.9389C44.1435 97.7765 44.2727 97.576 44.3622 97.3374L45.7692 97.5909C45.6565 98.0052 45.4543 98.3681 45.1626 98.6797C44.8743 98.9879 44.5114 99.2282 44.0739 99.4006C43.6397 99.5696 43.1442 99.6541 42.5874 99.6541ZM47.6323 99.5V89.3182H49.1188V93.1016H49.2083C49.2944 92.9425 49.4187 92.7585 49.5811 92.5497C49.7435 92.3409 49.9689 92.1586 50.2573 92.0028C50.5456 91.8438 50.9268 91.7642 51.4007 91.7642C52.0172 91.7642 52.5674 91.92 53.0513 92.2315C53.5352 92.5431 53.9147 92.9922 54.1898 93.5788C54.4682 94.1655 54.6074 94.8714 54.6074 95.6967C54.6074 96.522 54.4699 97.2296 54.1948 97.8196C53.9197 98.4062 53.5418 98.8587 53.0613 99.1768C52.5807 99.4917 52.0321 99.6491 51.4157 99.6491C50.9516 99.6491 50.5721 99.5713 50.2772 99.4155C49.9855 99.2597 49.7568 99.0774 49.5911 98.8686C49.4254 98.6598 49.2978 98.4742 49.2083 98.3118H49.084V99.5H47.6323ZM49.089 95.6818C49.089 96.2187 49.1668 96.6894 49.3226 97.0938C49.4784 97.4981 49.7038 97.8146 49.9988 98.0433C50.2937 98.2687 50.655 98.3814 51.0826 98.3814C51.5267 98.3814 51.8979 98.2637 52.1962 98.0284C52.4945 97.7898 52.7199 97.4666 52.8723 97.0589C53.0281 96.6513 53.106 96.1922 53.106 95.6818C53.106 95.178 53.0298 94.7256 52.8773 94.3246C52.7282 93.9235 52.5028 93.607 52.2012 93.375C51.9029 93.143 51.53 93.027 51.0826 93.027C50.6517 93.027 50.2871 93.138 49.9888 93.3601C49.6938 93.5821 49.4701 93.892 49.3176 94.2898C49.1652 94.6875 49.089 95.1515 49.089 95.6818ZM59.5678 99.6541C58.8155 99.6541 58.1675 99.4934 57.6239 99.1719C57.0837 98.8471 56.6661 98.3913 56.3711 97.8047C56.0794 97.2147 55.9336 96.5237 55.9336 95.7315C55.9336 94.9493 56.0794 94.2599 56.3711 93.6634C56.6661 93.0668 57.0771 92.6011 57.604 92.2663C58.1344 91.9316 58.7541 91.7642 59.4634 91.7642C59.8943 91.7642 60.3119 91.8355 60.7163 91.978C61.1206 92.1205 61.4835 92.3442 61.805 92.6491C62.1265 92.9541 62.3801 93.3501 62.5657 93.8374C62.7513 94.3213 62.8441 94.9096 62.8441 95.6023V96.1293H56.7738V95.0156H61.3874C61.3874 94.6245 61.3079 94.2782 61.1488 93.9766C60.9897 93.6716 60.766 93.4313 60.4776 93.2557C60.1926 93.08 59.8578 92.9922 59.4734 92.9922C59.0558 92.9922 58.6912 93.0949 58.3796 93.3004C58.0714 93.5026 57.8327 93.7678 57.6637 94.0959C57.498 94.4207 57.4151 94.7737 57.4151 95.1548V96.0249C57.4151 96.5353 57.5046 96.9695 57.6836 97.3274C57.8659 97.6854 58.1194 97.9588 58.4442 98.1477C58.7691 98.3333 59.1486 98.4261 59.5827 98.4261C59.8645 98.4261 60.1213 98.3864 60.3533 98.3068C60.5853 98.224 60.7859 98.1013 60.9549 97.9389C61.1239 97.7765 61.2532 97.576 61.3427 97.3374L62.7496 97.5909C62.637 98.0052 62.4348 98.3681 62.1431 98.6797C61.8548 98.9879 61.4918 99.2282 61.0543 99.4006C60.6201 99.5696 60.1246 99.6541 59.5678 99.6541ZM64.4934 99.5V91.8636H65.9302V93.0767H66.0098C66.149 92.6657 66.3942 92.3426 66.7456 92.1072C67.1002 91.8686 67.5012 91.7493 67.9487 91.7493C68.0415 91.7493 68.1509 91.7526 68.2768 91.7592C68.4061 91.7659 68.5072 91.7741 68.5801 91.7841V93.206C68.5204 93.1894 68.4144 93.1712 68.2619 93.1513C68.1094 93.1281 67.957 93.1165 67.8045 93.1165C67.4532 93.1165 67.14 93.1911 66.8649 93.3402C66.5931 93.486 66.3777 93.6899 66.2186 93.9517C66.0595 94.2102 65.9799 94.5052 65.9799 94.8366V99.5H64.4934ZM75.5888 93.728L74.2415 93.9666C74.1851 93.7943 74.0956 93.6302 73.973 93.4744C73.8537 93.3187 73.6913 93.1911 73.4858 93.0916C73.2803 92.9922 73.0234 92.9425 72.7152 92.9425C72.2943 92.9425 71.9429 93.0369 71.6612 93.2259C71.3795 93.4115 71.2386 93.6518 71.2386 93.9467C71.2386 94.2019 71.3331 94.4074 71.522 94.5632C71.7109 94.719 72.0159 94.8466 72.4368 94.946L73.6499 95.2244C74.3525 95.3868 74.8762 95.6371 75.2209 95.9751C75.5656 96.3132 75.7379 96.7524 75.7379 97.2926C75.7379 97.75 75.6054 98.1577 75.3402 98.5156C75.0784 98.8703 74.7121 99.1487 74.2415 99.3509C73.7741 99.553 73.2322 99.6541 72.6158 99.6541C71.7607 99.6541 71.063 99.4718 70.5227 99.1072C69.9825 98.7393 69.651 98.2173 69.5284 97.5412L70.9652 97.3224C71.0547 97.697 71.2386 97.9804 71.517 98.1726C71.7955 98.3615 72.1584 98.456 72.6058 98.456C73.093 98.456 73.4825 98.3549 73.7741 98.1527C74.0658 97.9472 74.2116 97.697 74.2116 97.402C74.2116 97.1634 74.1222 96.9628 73.9432 96.8004C73.7675 96.638 73.4974 96.5154 73.1328 96.4325L71.8402 96.1491C71.1276 95.9867 70.6006 95.7282 70.2592 95.3736C69.9212 95.0189 69.7521 94.5698 69.7521 94.0263C69.7521 93.5755 69.8781 93.1811 70.13 92.843C70.3819 92.505 70.7299 92.2415 71.174 92.0526C71.6181 91.8603 72.1269 91.7642 72.7003 91.7642C73.5256 91.7642 74.1752 91.9432 74.6491 92.3011C75.1231 92.6558 75.4363 93.1314 75.5888 93.728ZM77.3723 99.5V91.8636H78.8588V99.5H77.3723ZM78.123 90.6854C77.8645 90.6854 77.6425 90.5992 77.4569 90.4268C77.2746 90.2512 77.1834 90.0424 77.1834 89.8004C77.1834 89.5552 77.2746 89.3464 77.4569 89.174C77.6425 88.9983 77.8645 88.9105 78.123 88.9105C78.3816 88.9105 78.602 88.9983 78.7843 89.174C78.9699 89.3464 79.0627 89.5552 79.0627 89.8004C79.0627 90.0424 78.9699 90.2512 78.7843 90.4268C78.602 90.5992 78.3816 90.6854 78.123 90.6854ZM82.3452 94.9659V99.5H80.8587V89.3182H82.3253V93.1065H82.4197C82.5987 92.6955 82.8722 92.3691 83.2401 92.1271C83.608 91.8852 84.0885 91.7642 84.6818 91.7642C85.2055 91.7642 85.6629 91.8719 86.054 92.0874C86.4484 92.3028 86.7533 92.6243 86.9688 93.0518C87.1875 93.4761 87.2969 94.0064 87.2969 94.6428V99.5H85.8104V94.8217C85.8104 94.2616 85.6662 93.8274 85.3778 93.5192C85.0895 93.2076 84.6884 93.0518 84.1747 93.0518C83.8234 93.0518 83.5085 93.1264 83.2301 93.2756C82.955 93.4247 82.7379 93.6435 82.5788 93.9318C82.4231 94.2169 82.3452 94.5616 82.3452 94.9659ZM91.5028 99.669C91.0189 99.669 90.5814 99.5795 90.1903 99.4006C89.7992 99.2183 89.4893 98.9548 89.2607 98.6101C89.0353 98.2654 88.9226 97.8428 88.9226 97.3423C88.9226 96.9115 89.0054 96.5568 89.1712 96.2784C89.3369 96 89.5606 95.7796 89.8423 95.6172C90.1241 95.4548 90.4389 95.3321 90.7869 95.2493C91.1349 95.1664 91.4896 95.1035 91.8509 95.0604C92.3082 95.0073 92.6795 94.9643 92.9645 94.9311C93.2495 94.8946 93.4567 94.8366 93.5859 94.7571C93.7152 94.6776 93.7798 94.5483 93.7798 94.3693V94.3345C93.7798 93.9003 93.6572 93.5639 93.4119 93.3253C93.17 93.0866 92.8087 92.9673 92.3281 92.9673C91.8277 92.9673 91.4332 93.0784 91.1449 93.3004C90.8598 93.5192 90.6626 93.7628 90.5533 94.0312L89.1562 93.7131C89.322 93.2491 89.5639 92.8745 89.8821 92.5895C90.2036 92.3011 90.5732 92.0923 90.9908 91.9631C91.4084 91.8305 91.8475 91.7642 92.3082 91.7642C92.6132 91.7642 92.9363 91.8007 93.2777 91.8736C93.6224 91.9432 93.9439 92.0724 94.2422 92.2614C94.5438 92.4503 94.7907 92.7204 94.983 93.0717C95.1752 93.4197 95.2713 93.8722 95.2713 94.429V99.5H93.8196V98.456H93.7599C93.6638 98.6482 93.5196 98.8371 93.3274 99.0227C93.1352 99.2083 92.8883 99.3625 92.5866 99.4851C92.285 99.6077 91.9238 99.669 91.5028 99.669ZM91.826 98.4759C92.237 98.4759 92.5883 98.3946 92.88 98.2322C93.175 98.0698 93.3987 97.8577 93.5511 97.5959C93.7069 97.3307 93.7848 97.0473 93.7848 96.7457V95.7614C93.7318 95.8144 93.629 95.8641 93.4766 95.9105C93.3274 95.9536 93.1567 95.9917 92.9645 96.0249C92.7723 96.0547 92.585 96.0829 92.4027 96.1094C92.2204 96.1326 92.0679 96.1525 91.9453 96.169C91.657 96.2055 91.3935 96.2668 91.1548 96.353C90.9195 96.4392 90.7306 96.5634 90.5881 96.7259C90.4489 96.8849 90.3793 97.0971 90.3793 97.3622C90.3793 97.7301 90.5152 98.0085 90.7869 98.1974C91.0587 98.383 91.4051 98.4759 91.826 98.4759ZM98.7377 94.9659V99.5H97.2512V91.8636H98.6781V93.1065H98.7725C98.9482 92.7022 99.2233 92.3774 99.5978 92.1321C99.9757 91.8868 100.451 91.7642 101.025 91.7642C101.545 91.7642 102.001 91.8736 102.392 92.0923C102.783 92.3078 103.086 92.6293 103.302 93.0568C103.517 93.4844 103.625 94.013 103.625 94.6428V99.5H102.138V94.8217C102.138 94.2682 101.994 93.8357 101.706 93.5241C101.417 93.2093 101.021 93.0518 100.518 93.0518C100.173 93.0518 99.8663 93.1264 99.5978 93.2756C99.3327 93.4247 99.1222 93.6435 98.9664 93.9318C98.814 94.2169 98.7377 94.5616 98.7377 94.9659ZM109.443 99.5V89.3182H113.072C113.861 89.3182 114.516 89.4541 115.036 89.7259C115.56 89.9976 115.951 90.3738 116.209 90.8544C116.468 91.3317 116.597 91.8835 116.597 92.5099C116.597 93.133 116.466 93.6816 116.204 94.1555C115.946 94.6262 115.555 94.9924 115.031 95.2543C114.511 95.5161 113.856 95.647 113.067 95.647H110.318V94.3246H112.928C113.425 94.3246 113.829 94.2533 114.141 94.1108C114.456 93.9683 114.686 93.7611 114.832 93.4893C114.978 93.2176 115.051 92.8911 115.051 92.5099C115.051 92.1255 114.976 91.7924 114.827 91.5107C114.681 91.2289 114.451 91.0135 114.136 90.8643C113.824 90.7119 113.415 90.6357 112.908 90.6357H110.979V99.5H109.443ZM114.469 94.9062L116.985 99.5H115.235L112.769 94.9062H114.469ZM123.184 96.3331V91.8636H124.676V99.5H123.214V98.1776H123.135C122.959 98.5852 122.677 98.925 122.289 99.1967C121.905 99.4652 121.426 99.5994 120.853 99.5994C120.362 99.5994 119.928 99.4917 119.55 99.2763C119.176 99.0575 118.881 98.7344 118.665 98.3068C118.453 97.8793 118.347 97.3506 118.347 96.7209V91.8636H119.833V96.5419C119.833 97.0623 119.978 97.4766 120.266 97.7848C120.554 98.093 120.929 98.2472 121.39 98.2472C121.668 98.2472 121.945 98.1776 122.22 98.0384C122.498 97.8991 122.729 97.6887 122.911 97.407C123.096 97.1252 123.188 96.7673 123.184 96.3331ZM126.673 99.5V91.8636H128.1V93.1065H128.194C128.354 92.6856 128.614 92.3575 128.975 92.1222C129.336 91.8835 129.769 91.7642 130.273 91.7642C130.783 91.7642 131.211 91.8835 131.555 92.1222C131.903 92.3608 132.16 92.6889 132.326 93.1065H132.405C132.588 92.6989 132.878 92.3741 133.275 92.1321C133.673 91.8868 134.147 91.7642 134.697 91.7642C135.39 91.7642 135.955 91.9813 136.393 92.4155C136.833 92.8497 137.054 93.5043 137.054 94.3793V99.5H135.567V94.5185C135.567 94.0014 135.426 93.6269 135.145 93.3949C134.863 93.1629 134.527 93.0469 134.135 93.0469C133.652 93.0469 133.275 93.196 133.007 93.4943C132.738 93.7893 132.604 94.1688 132.604 94.6328V99.5H131.123V94.424C131.123 94.0097 130.993 93.6766 130.735 93.4247C130.476 93.1728 130.14 93.0469 129.726 93.0469C129.444 93.0469 129.184 93.1214 128.945 93.2706C128.71 93.4164 128.519 93.6203 128.373 93.8821C128.231 94.1439 128.16 94.4472 128.16 94.7919V99.5H126.673ZM141.268 99.669C140.785 99.669 140.347 99.5795 139.956 99.4006C139.565 99.2183 139.255 98.9548 139.026 98.6101C138.801 98.2654 138.688 97.8428 138.688 97.3423C138.688 96.9115 138.771 96.5568 138.937 96.2784C139.103 96 139.326 95.7796 139.608 95.6172C139.89 95.4548 140.205 95.3321 140.553 95.2493C140.901 95.1664 141.255 95.1035 141.616 95.0604C142.074 95.0073 142.445 94.9643 142.73 94.9311C143.015 94.8946 143.222 94.8366 143.352 94.7571C143.481 94.6776 143.545 94.5483 143.545 94.3693V94.3345C143.545 93.9003 143.423 93.5639 143.178 93.3253C142.936 93.0866 142.574 92.9673 142.094 92.9673C141.593 92.9673 141.199 93.0784 140.911 93.3004C140.625 93.5192 140.428 93.7628 140.319 94.0312L138.922 93.7131C139.088 93.2491 139.33 92.8745 139.648 92.5895C139.969 92.3011 140.339 92.0923 140.756 91.9631C141.174 91.8305 141.613 91.7642 142.074 91.7642C142.379 91.7642 142.702 91.8007 143.043 91.8736C143.388 91.9432 143.71 92.0724 144.008 92.2614C144.309 92.4503 144.556 92.7204 144.749 93.0717C144.941 93.4197 145.037 93.8722 145.037 94.429V99.5H143.585V98.456H143.526C143.429 98.6482 143.285 98.8371 143.093 99.0227C142.901 99.2083 142.654 99.3625 142.352 99.4851C142.051 99.6077 141.689 99.669 141.268 99.669ZM141.592 98.4759C142.003 98.4759 142.354 98.3946 142.646 98.2322C142.941 98.0698 143.164 97.8577 143.317 97.5959C143.473 97.3307 143.55 97.0473 143.55 96.7457V95.7614C143.497 95.8144 143.395 95.8641 143.242 95.9105C143.093 95.9536 142.922 95.9917 142.73 96.0249C142.538 96.0547 142.351 96.0829 142.168 96.1094C141.986 96.1326 141.834 96.1525 141.711 96.169C141.423 96.2055 141.159 96.2668 140.92 96.353C140.685 96.4392 140.496 96.5634 140.354 96.7259C140.214 96.8849 140.145 97.0971 140.145 97.3622C140.145 97.7301 140.281 98.0085 140.553 98.1974C140.824 98.383 141.171 98.4759 141.592 98.4759ZM148.503 94.9659V99.5H147.017V89.3182H148.483V93.1065H148.578C148.757 92.6955 149.03 92.3691 149.398 92.1271C149.766 91.8852 150.247 91.7642 150.84 91.7642C151.364 91.7642 151.821 91.8719 152.212 92.0874C152.607 92.3028 152.912 92.6243 153.127 93.0518C153.346 93.4761 153.455 94.0064 153.455 94.6428V99.5H151.969V94.8217C151.969 94.2616 151.824 93.8274 151.536 93.5192C151.248 93.2076 150.847 93.0518 150.333 93.0518C149.982 93.0518 149.667 93.1264 149.388 93.2756C149.113 93.4247 148.896 93.6435 148.737 93.9318C148.581 94.2169 148.503 94.5616 148.503 94.9659Z" fill="#252525"/>
</g>
<defs>
<linearGradient id="paint0_linear_103_3107" x1="56.1796" y1="44.222" x2="127.82" y2="44.222" gradientUnits="userSpaceOnUse">
<stop stop-color="#E0F9FF"/>
<stop offset="1" stop-color="#DAEEFC"/>
</linearGradient>
<clipPath id="clip0_103_3107">
<rect y="0.5" width="184" height="109" rx="8" fill="white"/>
</clipPath>
</defs>
</svg>
