<svg width="184" height="110" viewBox="0 0 184 110" fill="none" xmlns="http://www.w3.org/2000/svg">
<g clip-path="url(#clip0_103_3110)">
<rect y="0.5" width="184" height="109" rx="8" fill="white"/>
<path fill-rule="evenodd" clip-rule="evenodd" d="M91.833 17.6492C99.7006 17.0643 106.796 21.1928 112.974 26.099C120.189 31.8284 127.533 38.1608 129.095 47.2402C130.905 57.7626 130.707 71.3422 121.759 77.1658C112.912 82.9228 102.331 72.5852 91.833 71.4892C83.469 70.616 74.6354 76.0612 67.565 71.5082C59.49 66.3084 52.821 56.7486 54.1758 47.2402C55.4778 38.1004 66.3586 34.7288 73.6176 29.0246C79.469 24.4266 84.4118 18.2008 91.833 17.6492Z" fill="url(#paint0_linear_103_3110)" fill-opacity="0.59"/>
<mask id="mask0_103_3110" style="mask-type:alpha" maskUnits="userSpaceOnUse" x="54" y="17" width="76" height="62">
<path fill-rule="evenodd" clip-rule="evenodd" d="M91.833 17.6492C99.7006 17.0643 106.796 21.1928 112.974 26.099C120.189 31.8284 127.533 38.1608 129.095 47.2402C130.905 57.7626 130.707 71.3422 121.759 77.1658C112.912 82.9228 102.331 72.5852 91.833 71.4892C83.469 70.616 74.6354 76.0612 67.565 71.5082C59.49 66.3084 52.821 56.7486 54.1758 47.2402C55.4778 38.1004 66.3586 34.7288 73.6176 29.0246C79.469 24.4266 84.4118 18.2008 91.833 17.6492Z" fill="#C4C4C4"/>
</mask>
<g mask="url(#mask0_103_3110)">
<path d="M109.677 60.306C109.317 54.193 104.267 49.458 105.583 47.2984C106.303 46.2188 109.419 43.705 109.419 40.2294C109.419 36.754 101.866 32.0752 101.866 32.0752V30H98.2724V32.0976C98.2724 32.0976 90.7198 36.7484 90.7198 40.2294C90.7198 43.7106 93.8354 46.2188 94.5552 47.2984C95.8768 49.458 90.8212 54.193 90.4612 60.306C90.1856 64.9568 91.7322 71.4522 92.4858 74.2922C92.592 74.7012 92.8316 75.0632 93.1668 75.321C93.5018 75.5786 93.9132 75.7172 94.336 75.715H105.803C106.226 75.7166 106.638 75.5778 106.973 75.3204C107.309 75.0628 107.55 74.7012 107.658 74.2922C108.412 71.4522 109.953 64.9568 109.677 60.306Z" fill="#DEBE0B"/>
<path d="M100.103 71.7987C103.187 71.7987 105.687 67.2391 105.687 61.6143C105.687 55.9895 103.187 51.4297 100.103 51.4297C97.0188 51.4297 94.5186 55.9895 94.5186 61.6143C94.5186 67.2391 97.0188 71.7987 100.103 71.7987Z" fill="#BDA109"/>
<path d="M100.105 70.9606C102.984 70.9606 105.318 66.703 105.318 61.451C105.318 56.199 102.984 51.9414 100.105 51.9414C97.2256 51.9414 94.8916 56.199 94.8916 61.451C94.8916 66.703 97.2256 70.9606 100.105 70.9606Z" fill="white"/>
<path opacity="0.15" d="M105.585 47.2887H94.5572C94.2422 46.6759 91.7454 44.4769 90.958 41.8789H109.184C108.661 44.1845 105.968 46.6759 105.585 47.2887Z" fill="#505050"/>
<path d="M103.405 64.1959C103.405 67.0697 101.92 69.4035 100.093 69.4035C98.2651 69.4035 96.7803 67.0697 96.7803 64.1959C96.7803 61.3223 98.2651 58.9883 100.093 58.9883C101.92 58.9883 103.405 61.3223 103.405 64.1959Z" fill="#67C22A"/>
<path d="M99.4736 68.1991C100.505 68.1991 101.341 66.8849 101.341 65.2635C101.341 63.6423 100.505 62.3281 99.4736 62.3281C98.4424 62.3281 97.6064 63.6423 97.6064 65.2635C97.6064 66.8849 98.4424 68.1991 99.4736 68.1991Z" fill="#57A323"/>
<path d="M103.918 56.1836H97.9854V58.2982H103.918V56.1836Z" fill="#FF6685"/>
<path opacity="0.15" d="M101.865 29.9727H98.2715V32.0703H101.865V29.9727Z" fill="#505050"/>
<path d="M103.59 29.0078H96.5547L97.7527 30.9648H102.386L103.59 29.0078Z" fill="#B83131"/>
<path d="M96.5547 29.0048H103.59L100.654 26.418H99.4847L96.5547 29.0048Z" fill="#FF4545"/>
<path d="M94.4725 76.5285H80.9757C79.5473 76.5285 78.3887 75.1057 78.3887 73.3511V72.5133C78.3887 70.7587 79.5473 69.3359 80.9757 69.3359H94.4725C95.9009 69.3359 97.0593 70.7587 97.0593 72.5133V73.3511C97.0593 75.1057 95.9009 76.5285 94.4725 76.5285Z" fill="#67C22A"/>
<path d="M78.4616 74.1407C78.4092 73.8797 78.3828 73.6141 78.3828 73.3477H97.059C97.0604 73.6469 97.0264 73.9451 96.9578 74.2363L78.4616 74.1407Z" fill="#57A323"/>
<path d="M97.377 72.5078H78.0146V73.6214H97.377V72.5078Z" fill="#7BE832"/>
<path opacity="0.2" d="M80.7246 69.6328H94.6038C95.5656 69.6328 96.3416 70.5888 96.3416 71.7642V72.169L96.201 71.6068C96.1342 71.2114 95.9396 70.8488 95.6472 70.5744C95.3546 70.3002 94.9802 70.1294 94.5814 70.0884L80.7246 69.6328Z" fill="white"/>
<path d="M94.2879 62.115H80.7911C79.3627 62.115 78.2043 60.6922 78.2043 58.932V58.111C78.2043 56.3564 79.3627 54.9336 80.7911 54.9336H94.2879C95.7163 54.9336 96.8749 56.3564 96.8749 58.111V58.949C96.8523 60.6922 95.7277 62.115 94.2879 62.115Z" fill="#27D0FF"/>
<path d="M78.2956 59.7359C78.2434 59.4729 78.217 59.2055 78.2168 58.9375H96.8536C96.855 59.2365 96.821 59.5347 96.7524 59.8259L78.2956 59.7359Z" fill="#1FA2C7"/>
<path d="M97.1915 58.1055H77.8293V59.2191H97.1915V58.1055Z" fill="#73E1FF"/>
<path opacity="0.2" d="M80.5439 55.2344H94.4343C95.3959 55.2344 96.1721 56.1848 96.1721 57.3602V57.7594L96.0315 57.197C95.9659 56.8006 95.7717 56.4368 95.4791 56.1614C95.1865 55.886 94.8115 55.7144 94.4119 55.673L80.5439 55.2344Z" fill="white"/>
<path d="M90.7479 69.3098H77.2511C75.8227 69.3098 74.6641 67.887 74.6641 66.1324V65.2946C74.6641 63.54 75.8227 62.1172 77.2511 62.1172H90.7479C92.1763 62.1172 93.3349 63.54 93.3349 65.2946V66.1324C93.3349 67.887 92.1763 69.3098 90.7479 69.3098Z" fill="#FF6685"/>
<path d="M74.737 66.9217C74.6846 66.6607 74.6582 66.3951 74.6582 66.1289H93.3344C93.3358 66.4279 93.3018 66.7261 93.2332 67.0173L74.737 66.9217Z" fill="#D64260"/>
<path d="M93.6515 65.2891H74.2891V66.4027H93.6515V65.2891Z" fill="#FF8099"/>
<path opacity="0.2" d="M76.999 62.4219H90.8896C91.8512 62.4219 92.6272 63.3779 92.6272 64.5533V64.9527L92.4866 64.3903C92.4198 63.9949 92.2254 63.6323 91.9328 63.3581C91.6402 63.0837 91.2658 62.9131 90.867 62.8719L76.999 62.4219Z" fill="white"/>
</g>
<path d="M33.5297 99.5V89.3182H35.066V94.1804H35.1903L39.4608 89.3182H41.3948L37.2883 93.902L41.4097 99.5H39.5603L36.2691 94.951L35.066 96.3331V99.5H33.5297ZM45.4379 99.6541C44.6856 99.6541 44.0376 99.4934 43.4941 99.1719C42.9538 98.8471 42.5362 98.3913 42.2412 97.8047C41.9495 97.2147 41.8037 96.5237 41.8037 95.7315C41.8037 94.9493 41.9495 94.2599 42.2412 93.6634C42.5362 93.0668 42.9472 92.6011 43.4742 92.2663C44.0045 91.9316 44.6243 91.7642 45.3335 91.7642C45.7644 91.7642 46.182 91.8355 46.5864 91.978C46.9907 92.1205 47.3537 92.3442 47.6752 92.6491C47.9967 92.9541 48.2502 93.3501 48.4358 93.8374C48.6214 94.3213 48.7142 94.9096 48.7142 95.6023V96.1293H42.6439V95.0156H47.2575C47.2575 94.6245 47.178 94.2782 47.0189 93.9766C46.8598 93.6716 46.6361 93.4313 46.3477 93.2557C46.0627 93.08 45.728 92.9922 45.3435 92.9922C44.9259 92.9922 44.5613 93.0949 44.2497 93.3004C43.9415 93.5026 43.7029 93.7678 43.5338 94.0959C43.3681 94.4207 43.2852 94.7737 43.2852 95.1548V96.0249C43.2852 96.5353 43.3747 96.9695 43.5537 97.3274C43.736 97.6854 43.9896 97.9588 44.3144 98.1477C44.6392 98.3333 45.0187 98.4261 45.4529 98.4261C45.7346 98.4261 45.9914 98.3864 46.2235 98.3068C46.4555 98.224 46.656 98.1013 46.825 97.9389C46.9941 97.7765 47.1233 97.576 47.2128 97.3374L48.6198 97.5909C48.5071 98.0052 48.3049 98.3681 48.0132 98.6797C47.7249 98.9879 47.3619 99.2282 46.9244 99.4006C46.4903 99.5696 45.9948 99.6541 45.4379 99.6541ZM50.4829 99.5V89.3182H51.9694V93.1016H52.0589C52.145 92.9425 52.2693 92.7585 52.4317 92.5497C52.5941 92.3409 52.8195 92.1586 53.1079 92.0028C53.3962 91.8438 53.7774 91.7642 54.2513 91.7642C54.8678 91.7642 55.418 91.92 55.9019 92.2315C56.3858 92.5431 56.7653 92.9922 57.0404 93.5788C57.3188 94.1655 57.458 94.8714 57.458 95.6967C57.458 96.522 57.3205 97.2296 57.0454 97.8196C56.7703 98.4062 56.3924 98.8587 55.9118 99.1768C55.4313 99.4917 54.8827 99.6491 54.2662 99.6491C53.8022 99.6491 53.4227 99.5713 53.1278 99.4155C52.8361 99.2597 52.6074 99.0774 52.4417 98.8686C52.276 98.6598 52.1483 98.4742 52.0589 98.3118H51.9346V99.5H50.4829ZM51.9395 95.6818C51.9395 96.2187 52.0174 96.6894 52.1732 97.0938C52.329 97.4981 52.5544 97.8146 52.8493 98.0433C53.1443 98.2687 53.5056 98.3814 53.9331 98.3814C54.3773 98.3814 54.7485 98.2637 55.0468 98.0284C55.3451 97.7898 55.5705 97.4666 55.7229 97.0589C55.8787 96.6513 55.9566 96.1922 55.9566 95.6818C55.9566 95.178 55.8804 94.7256 55.7279 94.3246C55.5787 93.9235 55.3534 93.607 55.0518 93.375C54.7535 93.143 54.3806 93.027 53.9331 93.027C53.5023 93.027 53.1377 93.138 52.8394 93.3601C52.5444 93.5821 52.3207 93.892 52.1682 94.2898C52.0158 94.6875 51.9395 95.1515 51.9395 95.6818ZM62.4184 99.6541C61.666 99.6541 61.0181 99.4934 60.4745 99.1719C59.9343 98.8471 59.5167 98.3913 59.2217 97.8047C58.93 97.2147 58.7842 96.5237 58.7842 95.7315C58.7842 94.9493 58.93 94.2599 59.2217 93.6634C59.5167 93.0668 59.9276 92.6011 60.4546 92.2663C60.9849 91.9316 61.6047 91.7642 62.314 91.7642C62.7449 91.7642 63.1625 91.8355 63.5669 91.978C63.9712 92.1205 64.3341 92.3442 64.6556 92.6491C64.9771 92.9541 65.2307 93.3501 65.4163 93.8374C65.6019 94.3213 65.6947 94.9096 65.6947 95.6023V96.1293H59.6244V95.0156H64.238C64.238 94.6245 64.1585 94.2782 63.9994 93.9766C63.8403 93.6716 63.6166 93.4313 63.3282 93.2557C63.0432 93.08 62.7084 92.9922 62.324 92.9922C61.9063 92.9922 61.5418 93.0949 61.2302 93.3004C60.922 93.5026 60.6833 93.7678 60.5143 94.0959C60.3486 94.4207 60.2657 94.7737 60.2657 95.1548V96.0249C60.2657 96.5353 60.3552 96.9695 60.5342 97.3274C60.7165 97.6854 60.97 97.9588 61.2948 98.1477C61.6196 98.3333 61.9991 98.4261 62.4333 98.4261C62.7151 98.4261 62.9719 98.3864 63.2039 98.3068C63.4359 98.224 63.6365 98.1013 63.8055 97.9389C63.9745 97.7765 64.1038 97.576 64.1933 97.3374L65.6002 97.5909C65.4875 98.0052 65.2854 98.3681 64.9937 98.6797C64.7053 98.9879 64.3424 99.2282 63.9049 99.4006C63.4707 99.5696 62.9752 99.6541 62.4184 99.6541ZM67.344 99.5V91.8636H68.7808V93.0767H68.8604C68.9996 92.6657 69.2448 92.3426 69.5961 92.1072C69.9508 91.8686 70.3518 91.7493 70.7993 91.7493C70.8921 91.7493 71.0015 91.7526 71.1274 91.7592C71.2567 91.7659 71.3577 91.7741 71.4307 91.7841V93.206C71.371 93.1894 71.2649 93.1712 71.1125 93.1513C70.96 93.1281 70.8076 93.1165 70.6551 93.1165C70.3038 93.1165 69.9906 93.1911 69.7155 93.3402C69.4437 93.486 69.2282 93.6899 69.0692 93.9517C68.9101 94.2102 68.8305 94.5052 68.8305 94.8366V99.5H67.344ZM78.4394 93.728L77.0921 93.9666C77.0357 93.7943 76.9462 93.6302 76.8236 93.4744C76.7043 93.3187 76.5419 93.1911 76.3364 93.0916C76.1309 92.9922 75.874 92.9425 75.5658 92.9425C75.1449 92.9425 74.7935 93.0369 74.5118 93.2259C74.2301 93.4115 74.0892 93.6518 74.0892 93.9467C74.0892 94.2019 74.1837 94.4074 74.3726 94.5632C74.5615 94.719 74.8664 94.8466 75.2874 94.946L76.5004 95.2244C77.2031 95.3868 77.7268 95.6371 78.0715 95.9751C78.4162 96.3132 78.5885 96.7524 78.5885 97.2926C78.5885 97.75 78.4559 98.1577 78.1908 98.5156C77.9289 98.8703 77.5627 99.1487 77.0921 99.3509C76.6247 99.553 76.0828 99.6541 75.4664 99.6541C74.6112 99.6541 73.9136 99.4718 73.3733 99.1072C72.8331 98.7393 72.5016 98.2173 72.379 97.5412L73.8158 97.3224C73.9053 97.697 74.0892 97.9804 74.3676 98.1726C74.646 98.3615 75.009 98.456 75.4564 98.456C75.9436 98.456 76.3331 98.3549 76.6247 98.1527C76.9164 97.9472 77.0622 97.697 77.0622 97.402C77.0622 97.1634 76.9727 96.9628 76.7938 96.8004C76.6181 96.638 76.348 96.5154 75.9834 96.4325L74.6908 96.1491C73.9782 95.9867 73.4512 95.7282 73.1098 95.3736C72.7718 95.0189 72.6027 94.5698 72.6027 94.0263C72.6027 93.5755 72.7287 93.1811 72.9806 92.843C73.2325 92.505 73.5805 92.2415 74.0246 92.0526C74.4687 91.8603 74.9775 91.7642 75.5509 91.7642C76.3762 91.7642 77.0258 91.9432 77.4997 92.3011C77.9737 92.6558 78.2869 93.1314 78.4394 93.728ZM80.2229 99.5V91.8636H81.7094V99.5H80.2229ZM80.9736 90.6854C80.7151 90.6854 80.493 90.5992 80.3074 90.4268C80.1251 90.2512 80.034 90.0424 80.034 89.8004C80.034 89.5552 80.1251 89.3464 80.3074 89.174C80.493 88.9983 80.7151 88.9105 80.9736 88.9105C81.2322 88.9105 81.4526 88.9983 81.6349 89.174C81.8205 89.3464 81.9133 89.5552 81.9133 89.8004C81.9133 90.0424 81.8205 90.2512 81.6349 90.4268C81.4526 90.5992 81.2322 90.6854 80.9736 90.6854ZM85.1958 94.9659V99.5H83.7093V89.3182H85.1759V93.1065H85.2703C85.4493 92.6955 85.7227 92.3691 86.0906 92.1271C86.4585 91.8852 86.9391 91.7642 87.5324 91.7642C88.0561 91.7642 88.5135 91.8719 88.9046 92.0874C89.299 92.3028 89.6039 92.6243 89.8193 93.0518C90.0381 93.4761 90.1475 94.0064 90.1475 94.6428V99.5H88.661V94.8217C88.661 94.2616 88.5168 93.8274 88.2284 93.5192C87.9401 93.2076 87.539 93.0518 87.0253 93.0518C86.674 93.0518 86.3591 93.1264 86.0807 93.2756C85.8056 93.4247 85.5885 93.6435 85.4294 93.9318C85.2736 94.2169 85.1958 94.5616 85.1958 94.9659ZM94.3534 99.669C93.8695 99.669 93.432 99.5795 93.0409 99.4006C92.6498 99.2183 92.3399 98.9548 92.1112 98.6101C91.8859 98.2654 91.7732 97.8428 91.7732 97.3423C91.7732 96.9115 91.856 96.5568 92.0218 96.2784C92.1875 96 92.4112 95.7796 92.6929 95.6172C92.9746 95.4548 93.2895 95.3321 93.6375 95.2493C93.9855 95.1664 94.3402 95.1035 94.7014 95.0604C95.1588 95.0073 95.53 94.9643 95.8151 94.9311C96.1001 94.8946 96.3073 94.8366 96.4365 94.7571C96.5658 94.6776 96.6304 94.5483 96.6304 94.3693V94.3345C96.6304 93.9003 96.5078 93.5639 96.2625 93.3253C96.0206 93.0866 95.6593 92.9673 95.1787 92.9673C94.6782 92.9673 94.2838 93.0784 93.9955 93.3004C93.7104 93.5192 93.5132 93.7628 93.4039 94.0312L92.0068 93.7131C92.1726 93.2491 92.4145 92.8745 92.7327 92.5895C93.0542 92.3011 93.4237 92.0923 93.8414 91.9631C94.259 91.8305 94.6981 91.7642 95.1588 91.7642C95.4637 91.7642 95.7869 91.8007 96.1283 91.8736C96.473 91.9432 96.7945 92.0724 97.0928 92.2614C97.3944 92.4503 97.6413 92.7204 97.8335 93.0717C98.0258 93.4197 98.1219 93.8722 98.1219 94.429V99.5H96.6702V98.456H96.6105C96.5144 98.6482 96.3702 98.8371 96.178 99.0227C95.9858 99.2083 95.7388 99.3625 95.4372 99.4851C95.1356 99.6077 94.7744 99.669 94.3534 99.669ZM94.6766 98.4759C95.0876 98.4759 95.4389 98.3946 95.7306 98.2322C96.0255 98.0698 96.2493 97.8577 96.4017 97.5959C96.5575 97.3307 96.6354 97.0473 96.6354 96.7457V95.7614C96.5824 95.8144 96.4796 95.8641 96.3271 95.9105C96.178 95.9536 96.0073 95.9917 95.8151 96.0249C95.6228 96.0547 95.4356 96.0829 95.2533 96.1094C95.071 96.1326 94.9185 96.1525 94.7959 96.169C94.5075 96.2055 94.2441 96.2668 94.0054 96.353C93.7701 96.4392 93.5812 96.5634 93.4387 96.7259C93.2994 96.8849 93.2298 97.0971 93.2298 97.3622C93.2298 97.7301 93.3657 98.0085 93.6375 98.1974C93.9093 98.383 94.2557 98.4759 94.6766 98.4759ZM101.588 94.9659V99.5H100.102V91.8636H101.529V93.1065H101.623C101.799 92.7022 102.074 92.3774 102.448 92.1321C102.826 91.8868 103.302 91.7642 103.875 91.7642C104.396 91.7642 104.851 91.8736 105.242 92.0923C105.634 92.3078 105.937 92.6293 106.152 93.0568C106.368 93.4844 106.475 94.013 106.475 94.6428V99.5H104.989V94.8217C104.989 94.2682 104.845 93.8357 104.556 93.5241C104.268 93.2093 103.872 93.0518 103.368 93.0518C103.023 93.0518 102.717 93.1264 102.448 93.2756C102.183 93.4247 101.973 93.6435 101.817 93.9318C101.665 94.2169 101.588 94.5616 101.588 94.9659ZM115.59 99.5H112.293V89.3182H115.694C116.692 89.3182 117.548 89.522 118.264 89.9297C118.98 90.334 119.529 90.9157 119.91 91.6747C120.294 92.4304 120.487 93.3369 120.487 94.3942C120.487 95.4548 120.293 96.3662 119.905 97.1286C119.52 97.8909 118.964 98.4775 118.234 98.8885C117.505 99.2962 116.624 99.5 115.59 99.5ZM113.83 98.1577H115.505C116.281 98.1577 116.925 98.0118 117.439 97.7202C117.953 97.4252 118.337 96.9993 118.592 96.4425C118.848 95.8823 118.975 95.1996 118.975 94.3942C118.975 93.5954 118.848 92.9176 118.592 92.3608C118.341 91.804 117.964 91.3814 117.464 91.093C116.963 90.8047 116.342 90.6605 115.6 90.6605H113.83V98.1577ZM124.5 99.669C124.016 99.669 123.579 99.5795 123.187 99.4006C122.796 99.2183 122.486 98.9548 122.258 98.6101C122.032 98.2654 121.92 97.8428 121.92 97.3423C121.92 96.9115 122.003 96.5568 122.168 96.2784C122.334 96 122.558 95.7796 122.839 95.6172C123.121 95.4548 123.436 95.3321 123.784 95.2493C124.132 95.1664 124.487 95.1035 124.848 95.0604C125.305 95.0073 125.677 94.9643 125.962 94.9311C126.247 94.8946 126.454 94.8366 126.583 94.7571C126.712 94.6776 126.777 94.5483 126.777 94.3693V94.3345C126.777 93.9003 126.654 93.5639 126.409 93.3253C126.167 93.0866 125.806 92.9673 125.325 92.9673C124.825 92.9673 124.43 93.0784 124.142 93.3004C123.857 93.5192 123.66 93.7628 123.55 94.0312L122.153 93.7131C122.319 93.2491 122.561 92.8745 122.879 92.5895C123.201 92.3011 123.57 92.0923 123.988 91.9631C124.405 91.8305 124.845 91.7642 125.305 91.7642C125.61 91.7642 125.933 91.8007 126.275 91.8736C126.619 91.9432 126.941 92.0724 127.239 92.2614C127.541 92.4503 127.788 92.7204 127.98 93.0717C128.172 93.4197 128.268 93.8722 128.268 94.429V99.5H126.817V98.456H126.757C126.661 98.6482 126.517 98.8371 126.324 99.0227C126.132 99.2083 125.885 99.3625 125.584 99.4851C125.282 99.6077 124.921 99.669 124.5 99.669ZM124.823 98.4759C125.234 98.4759 125.585 98.3946 125.877 98.2322C126.172 98.0698 126.396 97.8577 126.548 97.5959C126.704 97.3307 126.782 97.0473 126.782 96.7457V95.7614C126.729 95.8144 126.626 95.8641 126.474 95.9105C126.324 95.9536 126.154 95.9917 125.962 96.0249C125.769 96.0547 125.582 96.0829 125.4 96.1094C125.217 96.1326 125.065 96.1525 124.942 96.169C124.654 96.2055 124.391 96.2668 124.152 96.353C123.917 96.4392 123.728 96.5634 123.585 96.7259C123.446 96.8849 123.376 97.0971 123.376 97.3622C123.376 97.7301 123.512 98.0085 123.784 98.1974C124.056 98.383 124.402 98.4759 124.823 98.4759ZM130.248 102.364V91.8636H131.7V93.1016H131.824C131.91 92.9425 132.035 92.7585 132.197 92.5497C132.36 92.3409 132.585 92.1586 132.873 92.0028C133.162 91.8438 133.543 91.7642 134.017 91.7642C134.633 91.7642 135.183 91.92 135.667 92.2315C136.151 92.5431 136.531 92.9922 136.806 93.5788C137.084 94.1655 137.223 94.8714 137.223 95.6967C137.223 96.522 137.086 97.2296 136.811 97.8196C136.536 98.4062 136.158 98.8587 135.677 99.1768C135.197 99.4917 134.648 99.6491 134.032 99.6491C133.568 99.6491 133.188 99.5713 132.893 99.4155C132.602 99.2597 132.373 99.0774 132.207 98.8686C132.041 98.6598 131.914 98.4742 131.824 98.3118H131.735V102.364H130.248ZM131.705 95.6818C131.705 96.2187 131.783 96.6894 131.939 97.0938C132.094 97.4981 132.32 97.8146 132.615 98.0433C132.91 98.2687 133.271 98.3814 133.699 98.3814C134.143 98.3814 134.514 98.2637 134.812 98.0284C135.111 97.7898 135.336 97.4666 135.488 97.0589C135.644 96.6513 135.722 96.1922 135.722 95.6818C135.722 95.178 135.646 94.7256 135.493 94.3246C135.344 93.9235 135.119 93.607 134.817 93.375C134.519 93.143 134.146 93.027 133.699 93.027C133.268 93.027 132.903 93.138 132.605 93.3601C132.31 93.5821 132.086 93.892 131.934 94.2898C131.781 94.6875 131.705 95.1515 131.705 95.6818ZM143.726 96.3331V91.8636H145.218V99.5H143.756V98.1776H143.677C143.501 98.5852 143.219 98.925 142.831 99.1967C142.447 99.4652 141.968 99.5994 141.395 99.5994C140.904 99.5994 140.47 99.4917 140.092 99.2763C139.718 99.0575 139.423 98.7344 139.207 98.3068C138.995 97.8793 138.889 97.3506 138.889 96.7209V91.8636H140.375V96.5419C140.375 97.0623 140.52 97.4766 140.808 97.7848C141.096 98.093 141.471 98.2472 141.932 98.2472C142.21 98.2472 142.487 98.1776 142.762 98.0384C143.04 97.8991 143.271 97.6887 143.453 97.407C143.638 97.1252 143.73 96.7673 143.726 96.3331ZM147.215 99.5V91.8636H148.652V93.0767H148.731C148.871 92.6657 149.116 92.3426 149.467 92.1072C149.822 91.8686 150.223 91.7493 150.67 91.7493C150.763 91.7493 150.873 91.7526 150.998 91.7592C151.128 91.7659 151.229 91.7741 151.302 91.7841V93.206C151.242 93.1894 151.136 93.1712 150.984 93.1513C150.831 93.1281 150.679 93.1165 150.526 93.1165C150.175 93.1165 149.862 93.1911 149.587 93.3402C149.315 93.486 149.099 93.6899 148.94 93.9517C148.781 94.2102 148.702 94.5052 148.702 94.8366V99.5H147.215Z" fill="#252525"/>
</g>
<defs>
<linearGradient id="paint0_linear_103_3110" x1="54" y1="48.2464" x2="130" y2="48.2464" gradientUnits="userSpaceOnUse">
<stop stop-color="#E0F9FF"/>
<stop offset="1" stop-color="#DAEEFC"/>
</linearGradient>
<clipPath id="clip0_103_3110">
<rect y="0.5" width="184" height="109" rx="8" fill="white"/>
</clipPath>
</defs>
</svg>
