<svg width="184" height="110" viewBox="0 0 184 110" fill="none" xmlns="http://www.w3.org/2000/svg">
<g clip-path="url(#clip0_103_3113)">
<rect y="0.5" width="184" height="109" rx="8" fill="white"/>
<path fill-rule="evenodd" clip-rule="evenodd" d="M91.5072 13.4369C98.7652 13.0402 105.803 15.2007 111.537 19.6678C118.167 24.833 123.195 31.5388 125.215 39.697C127.983 50.8714 132.365 64.3028 124.726 72.915C117.008 81.6154 103.11 78.4888 91.5072 77.6998C81.012 76.986 69.7048 76.3678 62.5192 68.6848C55.4846 61.1632 53.6082 49.7222 55.965 39.697C57.9578 31.2188 66.549 26.919 73.5538 21.7436C79.067 17.6701 84.6626 13.811 91.5072 13.4369Z" fill="url(#paint0_linear_103_3113)" fill-opacity="0.59"/>
<mask id="mask0_103_3113" style="mask-type:alpha" maskUnits="userSpaceOnUse" x="55" y="13" width="74" height="66">
<path fill-rule="evenodd" clip-rule="evenodd" d="M91.5072 13.4369C98.7652 13.0402 105.803 15.2007 111.537 19.6678C118.167 24.833 123.195 31.5388 125.215 39.697C127.983 50.8714 132.365 64.3028 124.726 72.915C117.008 81.6154 103.11 78.4888 91.5072 77.6998C81.012 76.986 69.7048 76.3678 62.5192 68.6848C55.4846 61.1632 53.6082 49.7222 55.965 39.697C57.9578 31.2188 66.549 26.919 73.5538 21.7436C79.067 17.6701 84.6626 13.811 91.5072 13.4369Z" fill="#C4C4C4"/>
</mask>
<g mask="url(#mask0_103_3113)">
<path d="M93.7729 26.5625H80.6455C77.5713 26.5625 75.0793 29.0547 75.0793 32.1289V34.6029C75.0793 37.6771 77.5713 40.1691 80.6455 40.1691H93.7729C96.8471 40.1691 99.3393 37.6771 99.3393 34.6029V32.1289C99.3393 29.0547 96.8471 26.5625 93.7729 26.5625Z" fill="#DEBE0B"/>
<path d="M81.6762 39.3973C82.267 39.3973 82.746 39.1729 82.746 38.8959C82.746 38.6189 82.267 38.3945 81.6762 38.3945C81.0854 38.3945 80.6064 38.6189 80.6064 38.8959C80.6064 39.1729 81.0854 39.3973 81.6762 39.3973Z" fill="#B59F27"/>
<path d="M81.6762 32.8594C82.2668 32.8594 82.746 33.0822 82.746 33.3608C82.746 33.6394 82.2668 33.8624 81.6762 33.8624C81.0856 33.8624 80.6064 33.6394 80.6064 33.3608C80.6064 33.0822 81.0856 32.8594 81.6762 32.8594Z" fill="#B59F27"/>
<path d="M81.6762 27.3359C82.2668 27.3359 82.746 27.5643 82.746 27.8429C82.746 28.1215 82.2668 28.3443 81.6762 28.3443C81.0856 28.3443 80.6064 28.1159 80.6064 27.8429C80.6064 27.5699 81.0856 27.3359 81.6762 27.3359Z" fill="#B59F27"/>
<path d="M87.2134 39.3973C87.8042 39.3973 88.2832 39.1729 88.2832 38.8959C88.2832 38.6189 87.8042 38.3945 87.2134 38.3945C86.6226 38.3945 86.1436 38.6189 86.1436 38.8959C86.1436 39.1729 86.6226 39.3973 87.2134 39.3973Z" fill="#B59F27"/>
<path d="M87.2085 32.8594C87.7993 32.8594 88.2783 33.0822 88.2783 33.3608C88.2783 33.6394 87.7993 33.8624 87.2085 33.8624C86.6179 33.8624 86.1387 33.6394 86.1387 33.3608C86.1387 33.0822 86.6179 32.8594 87.2085 32.8594Z" fill="#B59F27"/>
<path d="M87.2085 27.3359C87.7993 27.3359 88.2783 27.5643 88.2783 27.8429C88.2783 28.1215 87.7993 28.3443 87.2085 28.3443C86.6179 28.3443 86.1387 28.1159 86.1387 27.8429C86.1387 27.5699 86.6179 27.3359 87.2085 27.3359Z" fill="#B59F27"/>
<path d="M92.7358 39.3973C93.3266 39.3973 93.8056 39.1729 93.8056 38.8959C93.8056 38.6189 93.3266 38.3945 92.7358 38.3945C92.145 38.3945 91.666 38.6189 91.666 38.8959C91.666 39.1729 92.145 39.3973 92.7358 39.3973Z" fill="#B59F27"/>
<path d="M92.7302 32.8594C93.3208 32.8594 93.8 33.0822 93.8 33.3608C93.8 33.6394 93.3208 33.8624 92.7302 33.8624C92.1396 33.8624 91.666 33.6394 91.666 33.3608C91.666 33.0822 92.1452 32.8594 92.7302 32.8594Z" fill="#B59F27"/>
<path d="M92.7302 27.3359C93.3208 27.3359 93.8 27.5643 93.8 27.8429C93.8 28.1215 93.3208 28.3443 92.7302 28.3443C92.1396 28.3443 91.666 28.1159 91.666 27.8429C91.666 27.5699 92.1452 27.3359 92.7302 27.3359Z" fill="#B59F27"/>
<path d="M79.0019 35.5156C79.5925 35.5156 80.0717 35.744 80.0717 36.0226C80.0717 36.3012 79.5925 36.5242 79.0019 36.5242C78.4113 36.5242 77.9377 36.2956 77.9377 36.0226C77.9377 35.7496 78.4113 35.5156 79.0019 35.5156Z" fill="#B59F27"/>
<path d="M79.0075 30.9952C79.5983 30.9952 80.0773 30.7706 80.0773 30.4936C80.0773 30.2168 79.5983 29.9922 79.0075 29.9922C78.4165 29.9922 77.9377 30.2168 77.9377 30.4936C77.9377 30.7706 78.4165 30.9952 79.0075 30.9952Z" fill="#B59F27"/>
<path d="M84.5337 36.5223C85.1247 36.5223 85.6035 36.2979 85.6035 36.0209C85.6035 35.7439 85.1247 35.5195 84.5337 35.5195C83.9429 35.5195 83.4639 35.7439 83.4639 36.0209C83.4639 36.2979 83.9429 36.5223 84.5337 36.5223Z" fill="#B59F27"/>
<path d="M84.5337 30.9952C85.1247 30.9952 85.6035 30.7706 85.6035 30.4936C85.6035 30.2168 85.1247 29.9922 84.5337 29.9922C83.9429 29.9922 83.4639 30.2168 83.4639 30.4936C83.4639 30.7706 83.9429 30.9952 84.5337 30.9952Z" fill="#B59F27"/>
<path d="M90.062 36.5223C90.6528 36.5223 91.1318 36.2979 91.1318 36.0209C91.1318 35.7439 90.6528 35.5195 90.062 35.5195C89.4712 35.5195 88.9922 35.7439 88.9922 36.0209C88.9922 36.2979 89.4712 36.5223 90.062 36.5223Z" fill="#B59F27"/>
<path d="M90.062 30.9952C90.6528 30.9952 91.1318 30.7706 91.1318 30.4936C91.1318 30.2168 90.6528 29.9922 90.062 29.9922C89.4712 29.9922 88.9922 30.2168 88.9922 30.4936C88.9922 30.7706 89.4712 30.9952 90.062 30.9952Z" fill="#B59F27"/>
<path d="M95.3852 36.5223C95.976 36.5223 96.455 36.2979 96.455 36.0209C96.455 35.7439 95.976 35.5195 95.3852 35.5195C94.7944 35.5195 94.3154 35.7439 94.3154 36.0209C94.3154 36.2979 94.7944 36.5223 95.3852 36.5223Z" fill="#B59F27"/>
<path d="M95.3852 30.9952C95.976 30.9952 96.455 30.7706 96.455 30.4936C96.455 30.2168 95.976 29.9922 95.3852 29.9922C94.7944 29.9922 94.3154 30.2168 94.3154 30.4936C94.3154 30.7706 94.7944 30.9952 95.3852 30.9952Z" fill="#B59F27"/>
<path opacity="0.15" d="M99.339 33.3672V34.6152C99.339 36.093 98.7518 37.5104 97.707 38.5552C96.662 39.6002 95.2448 40.1872 93.767 40.1872H80.6452C79.1674 40.1872 77.7502 39.6002 76.7052 38.5552C75.6602 37.5104 75.0732 36.093 75.0732 34.6152V33.3784L99.339 33.3672Z" fill="#505050"/>
<path d="M104.496 34.707H91.368C88.2938 34.707 85.8018 37.1992 85.8018 40.2734V42.7472C85.8018 45.8214 88.2938 48.3136 91.368 48.3136H104.496C107.57 48.3136 110.062 45.8214 110.062 42.7472V40.2734C110.062 37.1992 107.57 34.707 104.496 34.707Z" fill="#67C22A"/>
<path d="M92.4009 47.5342C92.9917 47.5342 93.4707 47.3096 93.4707 47.0328C93.4707 46.7558 92.9917 46.5312 92.4009 46.5312C91.8101 46.5312 91.3311 46.7558 91.3311 47.0328C91.3311 47.3096 91.8101 47.5342 92.4009 47.5342Z" fill="#5AA824"/>
<path d="M92.3969 40.9922C92.9875 40.9922 93.4667 41.2206 93.4667 41.4936C93.4667 41.7666 92.9875 42.0008 92.3969 42.0008C91.8063 42.0008 91.3271 41.7722 91.3271 41.4936C91.3271 41.215 91.8063 40.9922 92.3969 40.9922Z" fill="#5AA824"/>
<path d="M92.3969 35.4609C92.9875 35.4609 93.4667 35.6837 93.4667 35.9623C93.4667 36.2409 92.9875 36.4637 92.3969 36.4637C91.8063 36.4637 91.3271 36.2409 91.3271 35.9623C91.3271 35.6837 91.8063 35.4609 92.3969 35.4609Z" fill="#5AA824"/>
<path d="M97.9277 46.5273C98.5183 46.5273 98.9975 46.7557 98.9975 47.0343C98.9975 47.3129 98.5183 47.5357 97.9277 47.5357C97.3369 47.5357 96.8633 47.3073 96.8633 47.0343C96.8633 46.7613 97.3425 46.5273 97.9277 46.5273Z" fill="#5AA824"/>
<path d="M97.9277 40.9922C98.5183 40.9922 98.9975 41.2206 98.9975 41.4936C98.9975 41.7666 98.5183 42.0008 97.9277 42.0008C97.3369 42.0008 96.8633 41.7722 96.8633 41.4936C96.8633 41.215 97.3425 40.9922 97.9277 40.9922Z" fill="#5AA824"/>
<path d="M97.9277 35.4609C98.5183 35.4609 98.9975 35.6837 98.9975 35.9623C98.9975 36.2409 98.5183 36.4637 97.9277 36.4637C97.3369 36.4637 96.8633 36.2409 96.8633 35.9623C96.8633 35.6837 97.3425 35.4609 97.9277 35.4609Z" fill="#5AA824"/>
<path d="M103.464 46.5273C104.055 46.5273 104.529 46.7557 104.529 47.0343C104.529 47.3129 104.055 47.5357 103.464 47.5357C102.874 47.5357 102.395 47.3073 102.395 47.0343C102.395 46.7613 102.874 46.5273 103.464 46.5273Z" fill="#5AA824"/>
<path d="M103.464 40.9922C104.055 40.9922 104.529 41.2206 104.529 41.4936C104.529 41.7666 104.055 42.0008 103.464 42.0008C102.874 42.0008 102.395 41.7722 102.395 41.4936C102.395 41.215 102.874 40.9922 103.464 40.9922Z" fill="#5AA824"/>
<path d="M103.464 35.4609C104.055 35.4609 104.529 35.6837 104.529 35.9623C104.529 36.2409 104.055 36.4637 103.464 36.4637C102.874 36.4637 102.395 36.2409 102.395 35.9623C102.395 35.6837 102.874 35.4609 103.464 35.4609Z" fill="#5AA824"/>
<path d="M89.728 44.6671C90.3188 44.6671 90.7978 44.4425 90.7978 44.1657C90.7978 43.8887 90.3188 43.6641 89.728 43.6641C89.1372 43.6641 88.6582 43.8887 88.6582 44.1657C88.6582 44.4425 89.1372 44.6671 89.728 44.6671Z" fill="#5AA824"/>
<path d="M89.728 39.1241C90.3188 39.1241 90.7978 38.8997 90.7978 38.6227C90.7978 38.3457 90.3188 38.1211 89.728 38.1211C89.1372 38.1211 88.6582 38.3457 88.6582 38.6227C88.6582 38.8997 89.1372 39.1241 89.728 39.1241Z" fill="#5AA824"/>
<path d="M95.2466 43.6562C95.8372 43.6562 96.3108 43.8792 96.3108 44.1578C96.3108 44.4364 95.8372 44.6592 95.2466 44.6592C94.656 44.6592 94.1768 44.4364 94.1768 44.1578C94.1768 43.8792 94.6894 43.6562 95.2466 43.6562Z" fill="#5AA824"/>
<path d="M95.2466 38.1211C95.8372 38.1211 96.3108 38.3441 96.3108 38.6227C96.3108 38.9013 95.8372 39.1241 95.2466 39.1241C94.656 39.1241 94.1768 38.9013 94.1768 38.6227C94.1768 38.3441 94.6894 38.1211 95.2466 38.1211Z" fill="#5AA824"/>
<path d="M100.781 43.6562C101.371 43.6562 101.851 43.8792 101.851 44.1578C101.851 44.4364 101.371 44.6592 100.781 44.6592C100.19 44.6592 99.7109 44.4364 99.7109 44.1578C99.7109 43.8792 100.19 43.6562 100.781 43.6562Z" fill="#5AA824"/>
<path d="M100.781 38.1211C101.371 38.1211 101.851 38.3441 101.851 38.6227C101.851 38.9013 101.371 39.1241 100.781 39.1241C100.19 39.1241 99.7109 38.9013 99.7109 38.6227C99.7109 38.3441 100.19 38.1211 100.781 38.1211Z" fill="#5AA824"/>
<path d="M106.105 44.6671C106.696 44.6671 107.175 44.4425 107.175 44.1657C107.175 43.8887 106.696 43.6641 106.105 43.6641C105.514 43.6641 105.035 43.8887 105.035 44.1657C105.035 44.4425 105.514 44.6671 106.105 44.6671Z" fill="#5AA824"/>
<path d="M106.105 39.1241C106.696 39.1241 107.175 38.8997 107.175 38.6227C107.175 38.3457 106.696 38.1211 106.105 38.1211C105.514 38.1211 105.035 38.3457 105.035 38.6227C105.035 38.8997 105.514 39.1241 106.105 39.1241Z" fill="#5AA824"/>
<path opacity="0.15" d="M110.054 41.5039V42.7407C110.054 44.2185 109.467 45.6357 108.422 46.6807C107.377 47.7257 105.96 48.3127 104.482 48.3127H91.3435C89.8657 48.3127 88.4485 47.7257 87.4035 46.6807C86.3587 45.6357 85.7715 44.2185 85.7715 42.7407V41.5039H110.054Z" fill="#505050"/>
<path d="M106.584 44.6437C106.433 44.6437 106.283 44.6437 106.132 44.6715C106.062 43.7919 105.654 42.9735 104.995 42.3867C104.336 41.7999 103.476 41.4901 102.594 41.5217C101.712 41.5533 100.876 41.9239 100.261 42.5563C99.6455 43.1887 99.2977 44.0343 99.2901 44.9167C99.2937 45.0717 99.3085 45.2263 99.3347 45.3793C99.0475 45.3029 98.7515 45.2637 98.4543 45.2623C97.5385 45.2637 96.6607 45.6281 96.0133 46.2757C95.3657 46.9233 95.0013 47.8011 94.9997 48.7167C95.0009 49.0005 95.0365 49.2831 95.1057 49.5581C94.6587 49.3119 94.1753 49.1389 93.6737 49.0455C93.4915 48.5449 93.2503 48.0679 92.9549 47.6247C93.4261 47.2303 93.7643 46.6999 93.9231 46.1061C94.0819 45.5125 94.0535 44.8841 93.8421 44.3071C93.6307 43.7301 93.2463 43.2323 92.7415 42.8817C92.2367 42.5311 91.6361 42.3447 91.0215 42.3481C90.3411 42.3499 89.6815 42.5825 89.1501 43.0075C88.6189 43.4325 88.2473 44.0249 88.0961 44.6883C87.9903 44.6883 87.8901 44.6549 87.7841 44.6493C87.4379 43.9509 86.9013 43.3645 86.2365 42.9575C85.5715 42.5505 84.8053 42.3395 84.0257 42.3489C83.2463 42.3581 82.4851 42.5875 81.8303 43.0101C81.1753 43.4329 80.6529 44.0319 80.3233 44.7385C79.7573 44.2799 79.0515 44.0283 78.3231 44.0253C77.4605 44.0267 76.6337 44.3701 76.0237 44.9799C75.4139 45.5899 75.0705 46.4167 75.0691 47.2793C75.0717 47.4493 75.0885 47.6189 75.1191 47.7863C74.2687 48.0585 73.4911 48.5201 72.8449 49.1363C72.1987 49.7527 71.7007 50.5077 71.3887 51.3443C71.0767 52.1809 70.9585 53.0775 71.0433 53.9665C71.1281 54.8555 71.4135 55.7137 71.8781 56.4763C72.3427 57.2389 72.9743 57.8861 73.7255 58.3691C74.4765 58.8521 75.3275 59.1585 76.2141 59.2649C77.1007 59.3713 77.9999 59.2751 78.8439 58.9835C79.6879 58.6921 80.4549 58.2127 81.0867 57.5817C81.6909 57.7663 82.3265 57.8249 82.9543 57.7539C83.5819 57.6829 84.1885 57.4841 84.7363 57.1693C86.3021 57.8973 88.0917 57.9793 89.7175 57.3979C90.5361 58.0947 91.5661 58.4945 92.6403 58.5319C93.7147 58.5693 94.7701 58.2423 95.6349 57.6039C96.1575 57.7651 96.7065 57.8219 97.2509 57.7711C98.3105 58.5927 99.6267 59.0133 100.966 58.9581C102.306 58.9031 103.583 58.3761 104.572 57.4703C105.222 57.6813 105.901 57.7885 106.584 57.7879C108.294 57.7381 109.917 57.0239 111.109 55.7967C112.3 54.5697 112.967 52.9265 112.967 51.2157C112.967 49.5051 112.3 47.8619 111.109 46.6349C109.917 45.4077 108.294 44.6935 106.584 44.6437Z" fill="#27D0FF"/>
<path d="M106.588 46.5234C105.615 46.5256 104.668 46.829 103.874 47.3916C103.081 47.9544 102.482 48.7488 102.158 49.666C101.706 49.4854 101.224 49.3908 100.737 49.3874C100.448 49.3882 100.16 49.4238 99.8795 49.4934C99.9971 49.2638 100.06 49.0102 100.063 48.7522C100.064 48.4446 99.9769 48.1432 99.8115 47.884C99.6461 47.6246 99.4095 47.4184 99.1301 47.2896C98.8507 47.161 98.5403 47.1152 98.2357 47.158C97.9309 47.2008 97.6451 47.3302 97.4119 47.5308C97.1787 47.7314 97.0083 47.9948 96.9205 48.2898C96.8329 48.5846 96.8317 48.8984 96.9175 49.1938C97.0031 49.4894 97.1719 49.754 97.4035 49.9562C97.6353 50.1584 97.9203 50.2898 98.2247 50.3346C97.8383 50.664 97.5217 51.0676 97.2941 51.5214C97.1511 51.4928 97.0055 51.478 96.8595 51.477C96.5591 51.4758 96.2617 51.5356 95.9849 51.6524C95.7083 51.7692 95.4581 51.9408 95.2493 52.1566C94.9809 51.7556 94.6179 51.4268 94.1923 51.1992C93.7665 50.9718 93.2913 50.8528 92.8087 50.8528C92.5987 50.8544 92.3895 50.8786 92.1847 50.9252C92.1043 49.7362 91.5761 48.622 90.7065 47.8072C89.8367 46.9922 88.6905 46.5376 87.4987 46.5346C87.1129 46.538 86.7291 46.5904 86.3565 46.6906C86.3565 46.635 86.3565 46.5848 86.3565 46.5346C86.3559 46.105 86.2347 45.684 86.0067 45.3198C85.7787 44.9556 85.4531 44.6626 85.0667 44.4744C84.6805 44.286 84.2491 44.21 83.8217 44.2546C83.3945 44.2994 82.9881 44.4632 82.6493 44.7274C82.3105 44.9916 82.0525 45.3458 81.9049 45.7494C81.7573 46.1528 81.7259 46.5898 81.8143 47.0102C81.9029 47.4308 82.1075 47.818 82.4051 48.128C82.7029 48.4378 83.0815 48.658 83.4981 48.7634C83.1549 49.313 82.9291 49.9276 82.8351 50.5686C82.7047 50.5422 82.5723 50.5274 82.4395 50.5242C82.0565 50.5252 81.6781 50.6078 81.3293 50.7664C80.9805 50.9248 80.6695 51.1556 80.4169 51.4434C79.9679 50.6556 79.2681 50.041 78.4289 49.6974C77.5899 49.354 76.6597 49.3016 75.7873 49.5486C74.9149 49.7956 74.1503 50.3278 73.6159 51.0602C73.0813 51.7926 72.8075 52.683 72.8383 53.5892C72.8691 54.4954 73.2027 55.3652 73.7857 56.0596C74.3687 56.754 75.1675 57.2332 76.0547 57.4204C76.9419 57.6076 77.8663 57.4922 78.6801 57.0926C79.4941 56.693 80.1507 56.0322 80.5451 55.2156C80.8173 55.4814 81.1423 55.6868 81.4991 55.8184C81.8561 55.95 82.2367 56.005 82.6161 55.9798C82.9957 55.9546 83.3657 55.8496 83.7019 55.672C84.0383 55.4942 84.3333 55.2476 84.5679 54.9482C85.3583 55.588 86.3363 55.9512 87.3527 55.9824C88.3689 56.0136 89.3675 55.711 90.1955 55.121C90.4281 55.5852 90.7803 55.9788 91.2161 56.2614C91.6517 56.5438 92.1549 56.7046 92.6737 56.7274C93.1923 56.75 93.7077 56.6338 94.1665 56.3906C94.6251 56.1474 95.0105 55.786 95.2827 55.3438C95.7001 55.7548 96.2625 55.985 96.8483 55.9846C97.1699 55.9838 97.4873 55.9134 97.7789 55.7784C98.1767 56.2526 98.6831 56.6236 99.2549 56.86C99.8269 57.0966 100.447 57.1916 101.064 57.1368C101.68 57.0822 102.274 56.8794 102.796 56.5458C103.317 56.2124 103.75 55.758 104.058 55.2212C104.676 55.612 105.377 55.8538 106.104 55.9272C106.831 56.0008 107.566 55.904 108.25 55.6448C108.933 55.3856 109.547 54.9708 110.043 54.4334C110.539 53.896 110.902 53.2506 111.106 52.5484C111.309 51.8462 111.346 51.1062 111.215 50.387C111.083 49.6678 110.785 48.9894 110.346 48.4048C109.907 47.8204 109.337 47.3462 108.683 47.0198C108.029 46.6932 107.308 46.5234 106.577 46.5234H106.588Z" fill="#7DE3FF"/>
<path d="M91.0199 46.5176C91.2483 46.5188 91.4719 46.452 91.6623 46.326C91.8527 46.2 92.0013 46.0202 92.0895 45.8096C92.1777 45.599 92.2013 45.3668 92.1575 45.1428C92.1135 44.9186 92.0041 44.7126 91.8431 44.5508C91.6821 44.3888 91.4765 44.2784 91.2527 44.2336C91.0287 44.1886 90.7965 44.211 90.5855 44.2982C90.3743 44.3854 90.1939 44.5332 90.0669 44.723C89.9399 44.9128 89.8721 45.136 89.8721 45.3644C89.8721 45.6692 89.9929 45.9618 90.2081 46.178C90.4231 46.394 90.7151 46.5162 91.0199 46.5176Z" fill="#7DE3FF"/>
<path d="M78.3271 48.6916C78.6035 48.6906 78.8733 48.6076 79.1025 48.4532C79.3317 48.2988 79.5101 48.08 79.6151 47.8244C79.7201 47.5688 79.7471 47.2878 79.6925 47.0168C79.6379 46.746 79.5043 46.4972 79.3085 46.3022C79.1127 46.1072 78.8635 45.9746 78.5923 45.921C78.3211 45.8674 78.0403 45.8956 77.7851 46.0016C77.5297 46.1076 77.3117 46.2868 77.1583 46.5166C77.0049 46.7466 76.9229 47.0168 76.9229 47.293C76.9229 47.4772 76.9593 47.6596 77.0299 47.8296C77.1005 47.9996 77.2041 48.154 77.3345 48.284C77.4651 48.414 77.6199 48.5168 77.7901 48.5868C77.9605 48.6568 78.1429 48.6924 78.3271 48.6916Z" fill="#7DE3FF"/>
<path d="M102.72 46.5204C103.033 46.5204 103.339 46.4276 103.599 46.2536C103.859 46.0798 104.062 45.8326 104.182 45.5434C104.302 45.2544 104.333 44.9362 104.272 44.6292C104.211 44.3222 104.06 44.0402 103.839 43.819C103.618 43.5976 103.336 43.447 103.029 43.3858C102.722 43.3248 102.404 43.3562 102.115 43.476C101.825 43.5956 101.578 43.7986 101.404 44.0588C101.231 44.319 101.138 44.625 101.138 44.9378C101.138 45.3576 101.304 45.76 101.601 46.0568C101.898 46.3536 102.3 46.5204 102.72 46.5204Z" fill="#7DE3FF"/>
<path d="M107.116 58.1406H76.8887V66.6322H107.116V58.1406Z" fill="#BABABA"/>
<path d="M79.8075 58.1406H78.0801V66.6322H79.8075V58.1406Z" fill="#949494"/>
<path d="M83.0907 58.1406H81.3633V66.6322H83.0907V58.1406Z" fill="#949494"/>
<path d="M86.3836 58.1406H84.6562V66.6322H86.3836V58.1406Z" fill="#949494"/>
<path d="M89.664 58.1406H87.9368V66.6322H89.664V58.1406Z" fill="#949494"/>
<path d="M92.9569 58.1406H91.2295V66.6322H92.9569V58.1406Z" fill="#949494"/>
<path d="M96.2392 58.1406H94.512V66.6322H96.2392V58.1406Z" fill="#949494"/>
<path d="M99.5202 58.1406H97.793V66.6322H99.5202V58.1406Z" fill="#949494"/>
<path d="M102.813 58.1406H101.086V66.6322H102.813V58.1406Z" fill="#949494"/>
<path d="M106.103 58.1406H104.376V66.6322H106.103V58.1406Z" fill="#949494"/>
<path d="M106.947 54.714H102.93L101.119 50.2564C100.825 49.5522 100.328 48.9508 99.6928 48.5282C99.057 48.1058 98.3104 47.8812 97.5472 47.8828H85.289C84.9402 47.8828 84.6058 48.0214 84.359 48.268C84.1124 48.5146 83.974 48.849 83.974 49.1978C83.974 49.5466 84.1124 49.881 84.359 50.1276C84.6058 50.3742 84.9402 50.5128 85.289 50.5128H97.5472C97.7846 50.5156 98.016 50.5872 98.2138 50.7186C98.4114 50.8502 98.567 51.036 98.6616 51.2538L100.071 54.7418H76.892C76.6678 54.738 76.4452 54.7794 76.2372 54.8636C76.0294 54.9476 75.8406 55.0726 75.682 55.2312C75.5234 55.3898 75.3984 55.5786 75.3144 55.7864C75.2302 55.9944 75.1888 56.217 75.1926 56.4412V56.4748C75.1926 56.6966 75.2368 56.9162 75.3224 57.1208C75.4082 57.3256 75.5338 57.511 75.692 57.6666C75.8502 57.8222 76.0378 57.9448 76.2438 58.0272C76.4498 58.1094 76.6702 58.15 76.892 58.1462H106.947C107.394 58.1478 107.823 57.9732 108.142 57.6604C108.462 57.3476 108.645 56.9216 108.652 56.4748V56.4412C108.656 56.2152 108.614 55.9908 108.53 55.781C108.446 55.5712 108.321 55.3804 108.162 55.2196C108.003 55.0588 107.814 54.9312 107.605 54.8444C107.397 54.7576 107.173 54.7132 106.947 54.714Z" fill="#FF4545"/>
<path opacity="0.2" d="M102.357 53.3359H99.5208L100.078 54.7177H102.914L102.357 53.3359Z" fill="#505050"/>
</g>
<path d="M35.3139 99.5V89.3182H36.8501V94.1804H36.9744L41.245 89.3182H43.179L39.0724 93.902L43.1939 99.5H41.3445L38.0533 94.951L36.8501 96.3331V99.5H35.3139ZM47.2221 99.6541C46.4698 99.6541 45.8218 99.4934 45.2782 99.1719C44.738 98.8471 44.3204 98.3913 44.0254 97.8047C43.7337 97.2147 43.5879 96.5237 43.5879 95.7315C43.5879 94.9493 43.7337 94.2599 44.0254 93.6634C44.3204 93.0668 44.7314 92.6011 45.2583 92.2663C45.7886 91.9316 46.4084 91.7642 47.1177 91.7642C47.5486 91.7642 47.9662 91.8355 48.3706 91.978C48.7749 92.1205 49.1378 92.3442 49.4593 92.6491C49.7808 92.9541 50.0344 93.3501 50.22 93.8374C50.4056 94.3213 50.4984 94.9096 50.4984 95.6023V96.1293H44.4281V95.0156H49.0417C49.0417 94.6245 48.9622 94.2782 48.8031 93.9766C48.644 93.6716 48.4203 93.4313 48.1319 93.2557C47.8469 93.08 47.5121 92.9922 47.1277 92.9922C46.71 92.9922 46.3455 93.0949 46.0339 93.3004C45.7257 93.5026 45.487 93.7678 45.318 94.0959C45.1523 94.4207 45.0694 94.7737 45.0694 95.1548V96.0249C45.0694 96.5353 45.1589 96.9695 45.3379 97.3274C45.5202 97.6854 45.7737 97.9588 46.0985 98.1477C46.4234 98.3333 46.8029 98.4261 47.237 98.4261C47.5188 98.4261 47.7756 98.3864 48.0076 98.3068C48.2396 98.224 48.4402 98.1013 48.6092 97.9389C48.7782 97.7765 48.9075 97.576 48.997 97.3374L50.4039 97.5909C50.2913 98.0052 50.0891 98.3681 49.7974 98.6797C49.5091 98.9879 49.1461 99.2282 48.7086 99.4006C48.2744 99.5696 47.7789 99.6541 47.2221 99.6541ZM52.267 99.5V89.3182H53.7536V93.1016H53.843C53.9292 92.9425 54.0535 92.7585 54.2159 92.5497C54.3783 92.3409 54.6037 92.1586 54.892 92.0028C55.1804 91.8438 55.5616 91.7642 56.0355 91.7642C56.652 91.7642 57.2022 91.92 57.6861 92.2315C58.17 92.5431 58.5495 92.9922 58.8246 93.5788C59.103 94.1655 59.2422 94.8714 59.2422 95.6967C59.2422 96.522 59.1046 97.2296 58.8295 97.8196C58.5545 98.4062 58.1766 98.8587 57.696 99.1768C57.2154 99.4917 56.6669 99.6491 56.0504 99.6491C55.5864 99.6491 55.2069 99.5713 54.9119 99.4155C54.6203 99.2597 54.3916 99.0774 54.2259 98.8686C54.0601 98.6598 53.9325 98.4742 53.843 98.3118H53.7188V99.5H52.267ZM53.7237 95.6818C53.7237 96.2187 53.8016 96.6894 53.9574 97.0938C54.1132 97.4981 54.3385 97.8146 54.6335 98.0433C54.9285 98.2687 55.2898 98.3814 55.7173 98.3814C56.1615 98.3814 56.5327 98.2637 56.831 98.0284C57.1293 97.7898 57.3546 97.4666 57.5071 97.0589C57.6629 96.6513 57.7408 96.1922 57.7408 95.6818C57.7408 95.178 57.6645 94.7256 57.5121 94.3246C57.3629 93.9235 57.1375 93.607 56.8359 93.375C56.5376 93.143 56.1648 93.027 55.7173 93.027C55.2865 93.027 54.9219 93.138 54.6236 93.3601C54.3286 93.5821 54.1049 93.892 53.9524 94.2898C53.8 94.6875 53.7237 95.1515 53.7237 95.6818ZM64.2026 99.6541C63.4502 99.6541 62.8023 99.4934 62.2587 99.1719C61.7185 98.8471 61.3008 98.3913 61.0059 97.8047C60.7142 97.2147 60.5684 96.5237 60.5684 95.7315C60.5684 94.9493 60.7142 94.2599 61.0059 93.6634C61.3008 93.0668 61.7118 92.6011 62.2388 92.2663C62.7691 91.9316 63.3889 91.7642 64.0982 91.7642C64.5291 91.7642 64.9467 91.8355 65.351 91.978C65.7554 92.1205 66.1183 92.3442 66.4398 92.6491C66.7613 92.9541 67.0149 93.3501 67.2005 93.8374C67.3861 94.3213 67.4789 94.9096 67.4789 95.6023V96.1293H61.4086V95.0156H66.0222C66.0222 94.6245 65.9426 94.2782 65.7836 93.9766C65.6245 93.6716 65.4007 93.4313 65.1124 93.2557C64.8274 93.08 64.4926 92.9922 64.1081 92.9922C63.6905 92.9922 63.3259 93.0949 63.0144 93.3004C62.7061 93.5026 62.4675 93.7678 62.2985 94.0959C62.1328 94.4207 62.0499 94.7737 62.0499 95.1548V96.0249C62.0499 96.5353 62.1394 96.9695 62.3184 97.3274C62.5007 97.6854 62.7542 97.9588 63.079 98.1477C63.4038 98.3333 63.7833 98.4261 64.2175 98.4261C64.4992 98.4261 64.7561 98.3864 64.9881 98.3068C65.2201 98.224 65.4206 98.1013 65.5897 97.9389C65.7587 97.7765 65.888 97.576 65.9775 97.3374L67.3844 97.5909C67.2717 98.0052 67.0695 98.3681 66.7779 98.6797C66.4895 98.9879 66.1266 99.2282 65.6891 99.4006C65.2549 99.5696 64.7594 99.6541 64.2026 99.6541ZM69.1282 99.5V91.8636H70.565V93.0767H70.6445C70.7837 92.6657 71.029 92.3426 71.3803 92.1072C71.735 91.8686 72.136 91.7493 72.5835 91.7493C72.6763 91.7493 72.7856 91.7526 72.9116 91.7592C73.0408 91.7659 73.1419 91.7741 73.2148 91.7841V93.206C73.1552 93.1894 73.0491 93.1712 72.8967 93.1513C72.7442 93.1281 72.5917 93.1165 72.4393 93.1165C72.088 93.1165 71.7747 93.1911 71.4996 93.3402C71.2279 93.486 71.0124 93.6899 70.8533 93.9517C70.6942 94.2102 70.6147 94.5052 70.6147 94.8366V99.5H69.1282ZM80.2235 93.728L78.8762 93.9666C78.8199 93.7943 78.7304 93.6302 78.6078 93.4744C78.4885 93.3187 78.3261 93.1911 78.1206 93.0916C77.9151 92.9922 77.6582 92.9425 77.35 92.9425C76.929 92.9425 76.5777 93.0369 76.296 93.2259C76.0143 93.4115 75.8734 93.6518 75.8734 93.9467C75.8734 94.2019 75.9679 94.4074 76.1568 94.5632C76.3457 94.719 76.6506 94.8466 77.0716 94.946L78.2846 95.2244C78.9873 95.3868 79.5109 95.6371 79.8556 95.9751C80.2003 96.3132 80.3727 96.7524 80.3727 97.2926C80.3727 97.75 80.2401 98.1577 79.975 98.5156C79.7131 98.8703 79.3469 99.1487 78.8762 99.3509C78.4089 99.553 77.867 99.6541 77.2505 99.6541C76.3954 99.6541 75.6977 99.4718 75.1575 99.1072C74.6172 98.7393 74.2858 98.2173 74.1632 97.5412L75.6 97.3224C75.6895 97.697 75.8734 97.9804 76.1518 98.1726C76.4302 98.3615 76.7931 98.456 77.2406 98.456C77.7278 98.456 78.1172 98.3549 78.4089 98.1527C78.7006 97.9472 78.8464 97.697 78.8464 97.402C78.8464 97.1634 78.7569 96.9628 78.5779 96.8004C78.4023 96.638 78.1322 96.5154 77.7676 96.4325L76.475 96.1491C75.7624 95.9867 75.2354 95.7282 74.894 95.3736C74.5559 95.0189 74.3869 94.5698 74.3869 94.0263C74.3869 93.5755 74.5128 93.1811 74.7647 92.843C75.0166 92.505 75.3646 92.2415 75.8088 92.0526C76.2529 91.8603 76.7617 91.7642 77.335 91.7642C78.1603 91.7642 78.81 91.9432 79.2839 92.3011C79.7579 92.6558 80.0711 93.1314 80.2235 93.728ZM82.0071 99.5V91.8636H83.4936V99.5H82.0071ZM82.7578 90.6854C82.4993 90.6854 82.2772 90.5992 82.0916 90.4268C81.9093 90.2512 81.8182 90.0424 81.8182 89.8004C81.8182 89.5552 81.9093 89.3464 82.0916 89.174C82.2772 88.9983 82.4993 88.9105 82.7578 88.9105C83.0163 88.9105 83.2367 88.9983 83.419 89.174C83.6046 89.3464 83.6974 89.5552 83.6974 89.8004C83.6974 90.0424 83.6046 90.2512 83.419 90.4268C83.2367 90.5992 83.0163 90.6854 82.7578 90.6854ZM86.9799 94.9659V99.5H85.4934V89.3182H86.96V93.1065H87.0545C87.2335 92.6955 87.5069 92.3691 87.8748 92.1271C88.2427 91.8852 88.7233 91.7642 89.3166 91.7642C89.8403 91.7642 90.2976 91.8719 90.6887 92.0874C91.0832 92.3028 91.3881 92.6243 91.6035 93.0518C91.8223 93.4761 91.9316 94.0064 91.9316 94.6428V99.5H90.4451V94.8217C90.4451 94.2616 90.301 93.8274 90.0126 93.5192C89.7243 93.2076 89.3232 93.0518 88.8095 93.0518C88.4582 93.0518 88.1433 93.1264 87.8649 93.2756C87.5898 93.4247 87.3727 93.6435 87.2136 93.9318C87.0578 94.2169 86.9799 94.5616 86.9799 94.9659ZM96.1376 99.669C95.6537 99.669 95.2162 99.5795 94.8251 99.4006C94.434 99.2183 94.1241 98.9548 93.8954 98.6101C93.67 98.2654 93.5574 97.8428 93.5574 97.3423C93.5574 96.9115 93.6402 96.5568 93.8059 96.2784C93.9717 96 94.1954 95.7796 94.4771 95.6172C94.7588 95.4548 95.0737 95.3321 95.4217 95.2493C95.7697 95.1664 96.1243 95.1035 96.4856 95.0604C96.943 95.0073 97.3142 94.9643 97.5993 94.9311C97.8843 94.8946 98.0914 94.8366 98.2207 94.7571C98.35 94.6776 98.4146 94.5483 98.4146 94.3693V94.3345C98.4146 93.9003 98.292 93.5639 98.0467 93.3253C97.8047 93.0866 97.4435 92.9673 96.9629 92.9673C96.4624 92.9673 96.068 93.0784 95.7797 93.3004C95.4946 93.5192 95.2974 93.7628 95.188 94.0312L93.791 93.7131C93.9567 93.2491 94.1987 92.8745 94.5169 92.5895C94.8384 92.3011 95.2079 92.0923 95.6255 91.9631C96.0431 91.8305 96.4823 91.7642 96.943 91.7642C97.2479 91.7642 97.5711 91.8007 97.9125 91.8736C98.2572 91.9432 98.5787 92.0724 98.877 92.2614C99.1786 92.4503 99.4255 92.7204 99.6177 93.0717C99.81 93.4197 99.9061 93.8722 99.9061 94.429V99.5H98.4544V98.456H98.3947C98.2986 98.6482 98.1544 98.8371 97.9622 99.0227C97.7699 99.2083 97.523 99.3625 97.2214 99.4851C96.9198 99.6077 96.5585 99.669 96.1376 99.669ZM96.4608 98.4759C96.8717 98.4759 97.2231 98.3946 97.5147 98.2322C97.8097 98.0698 98.0334 97.8577 98.1859 97.5959C98.3417 97.3307 98.4196 97.0473 98.4196 96.7457V95.7614C98.3665 95.8144 98.2638 95.8641 98.1113 95.9105C97.9622 95.9536 97.7915 95.9917 97.5993 96.0249C97.407 96.0547 97.2198 96.0829 97.0375 96.1094C96.8552 96.1326 96.7027 96.1525 96.5801 96.169C96.2917 96.2055 96.0282 96.2668 95.7896 96.353C95.5543 96.4392 95.3654 96.5634 95.2228 96.7259C95.0836 96.8849 95.014 97.0971 95.014 97.3622C95.014 97.7301 95.1499 98.0085 95.4217 98.1974C95.6935 98.383 96.0398 98.4759 96.4608 98.4759ZM103.373 94.9659V99.5H101.886V91.8636H103.313V93.1065H103.407C103.583 92.7022 103.858 92.3774 104.233 92.1321C104.61 91.8868 105.086 91.7642 105.659 91.7642C106.18 91.7642 106.636 91.8736 107.027 92.0923C107.418 92.3078 107.721 92.6293 107.936 93.0568C108.152 93.4844 108.26 94.013 108.26 94.6428V99.5H106.773V94.8217C106.773 94.2682 106.629 93.8357 106.341 93.5241C106.052 93.2093 105.656 93.0518 105.152 93.0518C104.808 93.0518 104.501 93.1264 104.233 93.2756C103.967 93.4247 103.757 93.6435 103.601 93.9318C103.449 94.2169 103.373 94.5616 103.373 94.9659ZM113.575 90.6406V89.3182H121.455V90.6406H118.279V99.5H116.747V90.6406H113.575ZM125.187 99.6541C124.471 99.6541 123.846 99.4901 123.312 99.1619C122.779 98.8338 122.364 98.3748 122.069 97.7848C121.774 97.1948 121.627 96.5054 121.627 95.7166C121.627 94.9245 121.774 94.2318 122.069 93.6385C122.364 93.0452 122.779 92.5845 123.312 92.2564C123.846 91.9283 124.471 91.7642 125.187 91.7642C125.903 91.7642 126.527 91.9283 127.061 92.2564C127.595 92.5845 128.009 93.0452 128.304 93.6385C128.599 94.2318 128.746 94.9245 128.746 95.7166C128.746 96.5054 128.599 97.1948 128.304 97.7848C128.009 98.3748 127.595 98.8338 127.061 99.1619C126.527 99.4901 125.903 99.6541 125.187 99.6541ZM125.192 98.4062C125.656 98.4062 126.04 98.2836 126.345 98.0384C126.65 97.7931 126.875 97.4666 127.021 97.0589C127.17 96.6513 127.245 96.2022 127.245 95.7116C127.245 95.2244 127.17 94.777 127.021 94.3693C126.875 93.9583 126.65 93.6286 126.345 93.38C126.04 93.1314 125.656 93.0071 125.192 93.0071C124.724 93.0071 124.336 93.1314 124.028 93.38C123.723 93.6286 123.496 93.9583 123.347 94.3693C123.201 94.777 123.128 95.2244 123.128 95.7116C123.128 96.2022 123.201 96.6513 123.347 97.0589C123.496 97.4666 123.723 97.7931 124.028 98.0384C124.336 98.2836 124.724 98.4062 125.192 98.4062ZM130.406 99.5V91.8636H131.892V99.5H130.406ZM131.156 90.6854C130.898 90.6854 130.676 90.5992 130.49 90.4268C130.308 90.2512 130.217 90.0424 130.217 89.8004C130.217 89.5552 130.308 89.3464 130.49 89.174C130.676 88.9983 130.898 88.9105 131.156 88.9105C131.415 88.9105 131.635 88.9983 131.817 89.174C132.003 89.3464 132.096 89.5552 132.096 89.8004C132.096 90.0424 132.003 90.2512 131.817 90.4268C131.635 90.5992 131.415 90.6854 131.156 90.6854ZM135.378 89.3182V99.5H133.892V89.3182H135.378ZM140.669 99.6541C139.917 99.6541 139.269 99.4934 138.725 99.1719C138.185 98.8471 137.768 98.3913 137.473 97.8047C137.181 97.2147 137.035 96.5237 137.035 95.7315C137.035 94.9493 137.181 94.2599 137.473 93.6634C137.768 93.0668 138.179 92.6011 138.706 92.2663C139.236 91.9316 139.856 91.7642 140.565 91.7642C140.996 91.7642 141.413 91.8355 141.818 91.978C142.222 92.1205 142.585 92.3442 142.907 92.6491C143.228 92.9541 143.482 93.3501 143.667 93.8374C143.853 94.3213 143.946 94.9096 143.946 95.6023V96.1293H137.875V95.0156H142.489C142.489 94.6245 142.409 94.2782 142.25 93.9766C142.091 93.6716 141.868 93.4313 141.579 93.2557C141.294 93.08 140.959 92.9922 140.575 92.9922C140.157 92.9922 139.793 93.0949 139.481 93.3004C139.173 93.5026 138.934 93.7678 138.765 94.0959C138.6 94.4207 138.517 94.7737 138.517 95.1548V96.0249C138.517 96.5353 138.606 96.9695 138.785 97.3274C138.967 97.6854 139.221 97.9588 139.546 98.1477C139.871 98.3333 140.25 98.4261 140.684 98.4261C140.966 98.4261 141.223 98.3864 141.455 98.3068C141.687 98.224 141.887 98.1013 142.056 97.9389C142.225 97.7765 142.355 97.576 142.444 97.3374L143.851 97.5909C143.739 98.0052 143.536 98.3681 143.245 98.6797C142.956 98.9879 142.593 99.2282 142.156 99.4006C141.722 99.5696 141.226 99.6541 140.669 99.6541ZM149.16 91.8636V93.0568H144.988V91.8636H149.16ZM146.107 90.0341H147.594V97.2578C147.594 97.5462 147.637 97.7633 147.723 97.9091C147.809 98.0516 147.92 98.1494 148.056 98.2024C148.195 98.2521 148.346 98.277 148.508 98.277C148.628 98.277 148.732 98.2687 148.822 98.2521C148.911 98.2356 148.981 98.2223 149.03 98.2124L149.299 99.4403C149.213 99.4735 149.09 99.5066 148.931 99.5398C148.772 99.5762 148.573 99.5961 148.334 99.5994C147.943 99.6061 147.579 99.5365 147.241 99.3906C146.903 99.2448 146.629 99.0194 146.42 98.7145C146.211 98.4096 146.107 98.0268 146.107 97.5661V90.0341Z" fill="#252525"/>
</g>
<defs>
<linearGradient id="paint0_linear_103_3113" x1="55" y1="46.1424" x2="129" y2="46.1424" gradientUnits="userSpaceOnUse">
<stop stop-color="#E0F9FF"/>
<stop offset="1" stop-color="#DAEEFC"/>
</linearGradient>
<clipPath id="clip0_103_3113">
<rect y="0.5" width="184" height="109" rx="8" fill="white"/>
</clipPath>
</defs>
</svg>
