<svg width="106" height="108" viewBox="0 0 106 108" fill="none" xmlns="http://www.w3.org/2000/svg">
<path d="M70.6666 61.5169V84.6919C70.6666 85.6819 69.5625 86.5369 68.1933 86.5369H37.2767C35.8633 86.5369 34.7592 85.6819 34.7592 84.6919V61.5169C34.7592 60.4819 35.8633 59.6719 37.2767 59.6719H68.1933C69.695 59.6719 70.6666 60.4819 70.6666 61.5169Z" fill="#E5BF55"/>
<path d="M65.2341 61.515V84.69C65.2341 85.68 64.13 86.535 62.7166 86.535H37.4091C36.04 86.535 34.9358 85.68 34.9358 84.69V61.515C34.9358 60.48 36.04 59.625 37.4091 59.625H62.7166C64.13 59.625 65.2341 60.48 65.2341 61.515Z" fill="#FFDF70"/>
<path d="M56.7983 59.6719V69.3469L52.9117 66.8269L48.9808 69.3469V59.6719H56.7983Z" fill="#E5BF55"/>
<path d="M90.4091 21.4648H83.9166C83.7819 21.4648 83.6527 21.5194 83.5575 21.6164C83.4622 21.7135 83.4087 21.8451 83.4087 21.9823C83.4087 22.1196 83.4622 22.2512 83.5575 22.3483C83.6527 22.4453 83.7819 22.4998 83.9166 22.4998H86.7874V26.9998C86.7869 27.1237 86.832 27.2432 86.9138 27.3349C86.9955 27.4265 87.1081 27.4836 87.2291 27.4948C87.3257 27.4567 87.4078 27.3881 87.4634 27.299C87.5191 27.21 87.5453 27.1052 87.5383 26.9998V22.4998H90.4091C90.538 22.4998 90.6615 22.4477 90.7526 22.3549C90.8438 22.262 90.8949 22.1361 90.8949 22.0048C90.8949 21.8736 90.8438 21.7477 90.7526 21.6548C90.6615 21.562 90.538 21.5098 90.4091 21.5098V21.4648Z" fill="#082233"/>
<path d="M90.409 28.1692V31.8142H83.9165V28.1692C83.9165 27.6799 84.1073 27.2106 84.4469 26.8646C84.7865 26.5186 85.2471 26.3242 85.7273 26.3242H88.8632C89.3002 26.3801 89.701 26.6002 89.987 26.9415C90.2729 27.2829 90.4234 27.7207 90.409 28.1692V28.1692Z" fill="#E85938"/>
<path d="M89.4373 28.1692V31.8142H83.9165V28.1692C83.9165 27.6799 84.1073 27.2106 84.4469 26.8646C84.7865 26.5186 85.2471 26.3242 85.7273 26.3242H87.8473C88.2884 26.3794 88.6941 26.5979 88.9873 26.9381C89.2805 27.2783 89.4407 27.7165 89.4373 28.1692Z" fill="#F46E49"/>
<path d="M22.0833 21.4648H15.2816C15.1528 21.4648 15.0292 21.517 14.9381 21.6098C14.847 21.7027 14.7958 21.8286 14.7958 21.9598C14.7958 22.0911 14.847 22.217 14.9381 22.3099C15.0292 22.4027 15.1528 22.4548 15.2816 22.4548H18.1524V26.9998C18.1524 27.1311 18.2036 27.257 18.2947 27.3499C18.3859 27.4427 18.5094 27.4948 18.6383 27.4948C18.7593 27.4836 18.8718 27.4265 18.9536 27.3349C19.0354 27.2432 19.0804 27.1237 19.0799 26.9998V22.4998H22.0833C22.2121 22.4998 22.3357 22.4477 22.4268 22.3549C22.5179 22.262 22.5691 22.1361 22.5691 22.0048C22.5691 21.8736 22.5179 21.7477 22.4268 21.6548C22.3357 21.562 22.2121 21.5098 22.0833 21.5098V21.4648Z" fill="#082233"/>
<path d="M22.0833 28.1685V31.8135H15.2817V28.1685C15.2758 27.9283 15.3171 27.6894 15.4033 27.4658C15.4894 27.2422 15.6186 27.0384 15.7832 26.8665C15.9479 26.6946 16.1446 26.5579 16.3619 26.4647C16.5792 26.3714 16.8126 26.3234 17.0483 26.3235H20.1842C20.4308 26.3045 20.6787 26.3385 20.9116 26.4233C21.1446 26.508 21.3575 26.6417 21.5365 26.8156C21.7155 26.9896 21.8567 27.1998 21.9509 27.4329C22.0451 27.6659 22.0902 27.9165 22.0833 28.1685V28.1685Z" fill="#E85938"/>
<path d="M21.2442 28.1692V31.8142H15.2817V28.1692C15.2758 27.9291 15.3171 27.6902 15.4033 27.4666C15.4894 27.243 15.6186 27.0392 15.7832 26.8672C15.9479 26.6953 16.1446 26.5587 16.3619 26.4654C16.5792 26.3722 16.8126 26.3241 17.0483 26.3242H19.4333C19.9136 26.3242 20.3742 26.5186 20.7138 26.8646C21.0534 27.2106 21.2442 27.6799 21.2442 28.1692Z" fill="#F46E49"/>
<path d="M73.8908 61.0207V71.1007C73.9029 71.6064 73.7201 72.0968 73.3816 72.4669C73.0432 72.837 72.5759 73.0573 72.08 73.0807H71.5941C71.186 72.9767 70.826 72.7313 70.5762 72.3864C70.3263 72.0415 70.2022 71.6187 70.225 71.1907V61.4707L64.0858 47.6557C63.8685 47.1825 63.839 46.642 64.0036 46.1473C64.1683 45.6525 64.5142 45.2417 64.9691 45.0007H65.2341C65.6565 44.8655 66.1134 44.8969 66.5141 45.0885C66.9149 45.2802 67.2305 45.6182 67.3983 46.0357L73.7141 60.2557C73.8263 60.4948 73.8865 60.7557 73.8908 61.0207V61.0207Z" fill="#B6D5D8"/>
<path d="M72.9191 61.022V71.102C72.9218 71.519 72.7951 71.9263 72.5572 72.2657C72.3193 72.6051 71.9822 72.8593 71.5941 72.992C71.186 72.888 70.826 72.6425 70.5762 72.2976C70.3263 71.9528 70.2022 71.53 70.225 71.102V61.472L64.0858 47.657C63.8685 47.1838 63.839 46.6433 64.0036 46.1485C64.1683 45.6538 64.5142 45.2429 64.9691 45.002H65.2341C65.7491 45.175 66.1771 45.5465 66.4266 46.037L72.7425 60.257C72.8389 60.5014 72.8985 60.7593 72.9191 61.022V61.022Z" fill="#CFE7EB"/>
<path d="M33.2575 73.0832C33.5251 73.1088 33.795 73.0762 34.0493 72.9876C34.3036 72.899 34.5366 72.7564 34.7328 72.5693C34.929 72.3821 35.084 72.1547 35.1875 71.9019C35.2911 71.6492 35.3407 71.377 35.3333 71.1032V61.4282L41.4725 47.6582C41.6877 47.1916 41.7159 46.6579 41.5509 46.1705C41.386 45.6831 41.0409 45.2805 40.5891 45.0482C40.3732 44.9359 40.1368 44.8702 39.8948 44.855C39.6528 44.8398 39.4103 44.8755 39.1824 44.9599C38.9546 45.0444 38.7462 45.1757 38.5703 45.3457C38.3944 45.5157 38.2547 45.7208 38.16 45.9482L31.5792 60.1682C31.533 60.4513 31.533 60.7402 31.5792 61.0232V71.1032C31.5649 71.5874 31.7294 72.0594 32.0401 72.426C32.3509 72.7926 32.7853 73.0271 33.2575 73.0832Z" fill="#B6D5D8"/>
<path d="M32.5067 73.0792C33.0027 73.0559 33.4699 72.8355 33.8084 72.4654C34.1469 72.0954 34.3296 71.6049 34.3175 71.0992V61.4242L40.5009 47.6542C40.74 47.1993 40.7954 46.6672 40.6551 46.1712C40.5149 45.6753 40.1901 45.2548 39.75 44.9992C39.5321 44.8794 39.2919 44.8075 39.045 44.7884C38.798 44.7692 38.5499 44.8032 38.3167 44.8881C38.0835 44.9729 37.8703 45.1068 37.6912 45.281C37.512 45.4552 37.3708 45.6658 37.2767 45.8992L30.9167 60.1642C30.851 60.4453 30.851 60.7382 30.9167 61.0192V71.0992C30.8998 71.5699 31.052 72.0306 31.3447 72.3951C31.6374 72.7596 32.0506 73.0029 32.5067 73.0792V73.0792Z" fill="#CFE7EB"/>
<path d="M92.4408 32.0384C92.3844 32.7231 92.0653 33.3576 91.5526 33.8041C91.04 34.2507 90.3751 34.4732 89.7025 34.4234H86.0808L66.2058 43.4234L62.6283 37.3484L63.335 37.0784L83.6516 29.6984H89.7025C90.2672 29.6821 90.8226 29.8472 91.2903 30.1702C91.7579 30.4932 92.114 30.9578 92.3083 31.4984C92.3888 31.667 92.4339 31.8509 92.4408 32.0384V32.0384Z" fill="#B6D5D8"/>
<path d="M43.3717 37.3499L39.75 43.4249L19.875 34.4249H16.3417C16.0051 34.4557 15.6657 34.4184 15.3433 34.315C15.0209 34.2117 14.7218 34.0443 14.4631 33.8226C14.2045 33.6009 13.9914 33.3293 13.8363 33.0233C13.6812 32.7173 13.587 32.3831 13.5592 32.0399C13.5661 31.8525 13.6112 31.6685 13.6917 31.4999C13.922 30.9894 14.2981 30.5616 14.771 30.2726C15.2438 29.9835 15.7913 29.8467 16.3417 29.8799H22.3484L42.665 37.2599L43.3717 37.3499Z" fill="#B6D5D8"/>
<path d="M92.3083 31.5021C92.0705 32.0099 91.6941 32.4371 91.2241 32.7324C90.754 33.0277 90.2104 33.1786 89.6583 33.1671H86.0808L66.2058 42.1671L63.335 37.3071L83.6516 29.9271H89.7025C90.2417 29.8931 90.7786 30.0252 91.2433 30.306C91.708 30.5869 92.079 31.0036 92.3083 31.5021V31.5021Z" fill="#CFE7EB"/>
<path d="M42.665 37.0799L39.75 41.9399L19.875 32.9399H16.3417C15.8125 32.9725 15.2848 32.8553 14.8171 32.6011C14.3493 32.3469 13.9598 31.9658 13.6917 31.4999C13.9219 30.9894 14.2981 30.5616 14.7709 30.2726C15.2437 29.9835 15.7912 29.8467 16.3417 29.8799H22.3483L42.665 37.0799Z" fill="#CFE7EB"/>
<path d="M64.0859 32.622H42.0025C41.9461 30.4319 42.7213 28.3041 44.1667 26.682C44.8793 25.9195 45.7355 25.3114 46.6841 24.8939C47.6327 24.4763 48.6542 24.258 49.6875 24.252H56.1358C57.199 24.2636 58.2494 24.49 59.2261 24.9181C60.2028 25.3462 61.0864 25.9675 61.8258 26.746C62.5652 27.5244 63.1457 28.4446 63.5337 29.4533C63.9216 30.4619 64.1093 31.5389 64.0859 32.622V32.622Z" fill="#B6D5D8"/>
<path d="M61.8333 32.6221H41.9142C41.8817 30.4196 42.6892 28.2902 44.1667 26.6821C44.8793 25.9197 45.7355 25.3115 46.6841 24.894C47.6327 24.4765 48.6542 24.2582 49.6875 24.2521H53.7508C54.8252 24.2458 55.8899 24.459 56.882 24.8791C57.874 25.2992 58.7734 25.9177 59.5269 26.698C60.2804 27.4783 60.8727 28.4046 61.2689 29.4221C61.665 30.4396 61.8569 31.5277 61.8333 32.6221V32.6221Z" fill="#CFE7EB"/>
<path d="M70.9758 31.9039V51.2989C70.9876 51.7067 70.9204 52.1129 70.778 52.4942C70.6356 52.8755 70.4209 53.2245 70.1461 53.5212C69.8713 53.8179 69.5417 54.0566 69.1764 54.2235C68.811 54.3904 68.4169 54.4823 68.0166 54.4939H37.9833C37.5831 54.4823 37.189 54.3904 36.8236 54.2235C36.4582 54.0566 36.1287 53.8179 35.8539 53.5212C35.5791 53.2245 35.3643 52.8755 35.222 52.4942C35.0796 52.1129 35.0124 51.7067 35.0241 51.2989V31.9039C35.0122 31.088 35.316 30.3001 35.8697 29.7106C36.4235 29.1212 37.1828 28.7775 37.9833 28.7539H68.0166C68.8172 28.7775 69.5764 29.1212 70.1302 29.7106C70.684 30.3001 70.9878 31.088 70.9758 31.9039V31.9039Z" fill="#679CBF"/>
<path d="M68.7233 31.9039V51.2989C68.7356 52.1192 68.4332 52.912 67.8806 53.5087C67.3279 54.1054 66.5686 54.4588 65.7642 54.4939H37.9833C37.5831 54.4823 37.189 54.3904 36.8236 54.2235C36.4582 54.0566 36.1287 53.8179 35.8539 53.5212C35.5791 53.2245 35.3643 52.8755 35.222 52.4942C35.0796 52.1129 35.0124 51.7067 35.0241 51.2989V31.9039C35.0122 31.088 35.316 30.3001 35.8697 29.7106C36.4235 29.1212 37.1828 28.7775 37.9833 28.7539H65.7642C66.5609 28.7887 67.3137 29.1359 67.8651 29.7229C68.4166 30.3099 68.7241 31.0913 68.7233 31.9039V31.9039Z" fill="#7DABCF"/>
<path d="M14.1804 103V95.7273H14.8444V99.6442H14.9083L18.4595 95.7273H19.3331L16.2258 99.0902L19.3189 103H18.5092L15.8139 99.5518L14.8444 100.638V103H14.1804ZM23.8793 100.915V97.5455H24.5114V103H23.8793V102.094H23.8296C23.7018 102.374 23.4994 102.607 23.2224 102.794C22.9454 102.979 22.6068 103.071 22.2067 103.071C21.8587 103.071 21.5498 102.995 21.2799 102.844C21.01 102.69 20.7981 102.465 20.6442 102.169C20.4904 101.873 20.4134 101.51 20.4134 101.079V97.5455H21.0455V101.04C21.0455 101.466 21.171 101.809 21.4219 102.07C21.6729 102.328 21.9949 102.457 22.3879 102.457C22.6341 102.457 22.8708 102.397 23.0981 102.279C23.3254 102.161 23.5124 101.988 23.6592 101.761C23.8059 101.531 23.8793 101.249 23.8793 100.915ZM26.4849 103V97.5455H27.0993V98.3835H27.1454C27.2543 98.1089 27.4437 97.8875 27.7136 97.7195C27.9859 97.549 28.2936 97.4638 28.6369 97.4638C28.689 97.4638 28.747 97.465 28.8109 97.4673C28.8748 97.4697 28.9281 97.4721 28.9707 97.4744V98.1172C28.9423 98.1125 28.8926 98.1054 28.8216 98.0959C28.7505 98.0864 28.6736 98.0817 28.5907 98.0817C28.3066 98.0817 28.0533 98.142 27.8308 98.2628C27.6106 98.3812 27.4366 98.5457 27.3088 98.7564C27.1809 98.9671 27.117 99.2074 27.117 99.4773V103H26.4849ZM30.3565 103V97.5455H30.9921V103H30.3565ZM30.6796 96.608C30.5494 96.608 30.4381 96.5642 30.3458 96.4766C30.2535 96.3866 30.2073 96.2789 30.2073 96.1534C30.2073 96.0279 30.2535 95.9214 30.3458 95.8338C30.4381 95.7438 30.5494 95.6989 30.6796 95.6989C30.8098 95.6989 30.9211 95.7438 31.0134 95.8338C31.1058 95.9214 31.1519 96.0279 31.1519 96.1534C31.1519 96.2789 31.1058 96.3866 31.0134 96.4766C30.9211 96.5642 30.8098 96.608 30.6796 96.608ZM32.9638 103V97.5455H33.5782V98.3835H33.6243C33.7332 98.1089 33.9226 97.8875 34.1925 97.7195C34.4648 97.549 34.7725 97.4638 35.1158 97.4638C35.1679 97.4638 35.2259 97.465 35.2898 97.4673C35.3537 97.4697 35.407 97.4721 35.4496 97.4744V98.1172C35.4212 98.1125 35.3715 98.1054 35.3005 98.0959C35.2294 98.0864 35.1525 98.0817 35.0696 98.0817C34.7855 98.0817 34.5322 98.142 34.3097 98.2628C34.0895 98.3812 33.9155 98.5457 33.7877 98.7564C33.6598 98.9671 33.5959 99.2074 33.5959 99.4773V103H32.9638ZM40.0722 103V95.7273H40.7362V99.0618H44.8626V95.7273H45.5267V103H44.8626V99.6584H40.7362V103H40.0722ZM49.7436 103.114C49.2725 103.114 48.8558 102.994 48.4936 102.755C48.1338 102.516 47.852 102.186 47.6484 101.764C47.4448 101.34 47.343 100.852 47.343 100.298C47.343 99.7389 47.4448 99.2476 47.6484 98.8239C47.852 98.3977 48.1338 98.0663 48.4936 97.8295C48.8558 97.5904 49.2725 97.4709 49.7436 97.4709C50.2147 97.4709 50.6302 97.5904 50.9901 97.8295C51.3499 98.0687 51.6316 98.4001 51.8352 98.8239C52.0412 99.2476 52.1442 99.7389 52.1442 100.298C52.1442 100.852 52.0424 101.34 51.8388 101.764C51.6352 102.186 51.3523 102.516 50.9901 102.755C50.6302 102.994 50.2147 103.114 49.7436 103.114ZM49.7436 102.535C50.1224 102.535 50.4432 102.433 50.706 102.229C50.9688 102.026 51.1676 101.755 51.3026 101.416C51.4399 101.078 51.5085 100.705 51.5085 100.298C51.5085 99.8904 51.4399 99.5163 51.3026 99.1754C51.1676 98.8345 50.9688 98.5611 50.706 98.3551C50.4432 98.1491 50.1224 98.0462 49.7436 98.0462C49.3672 98.0462 49.0464 98.1491 48.7812 98.3551C48.5185 98.5611 48.3184 98.8345 48.1811 99.1754C48.0462 99.5163 47.9787 99.8904 47.9787 100.298C47.9787 100.705 48.0462 101.078 48.1811 101.416C48.3184 101.755 48.5185 102.026 48.7812 102.229C49.044 102.433 49.3648 102.535 49.7436 102.535ZM53.8318 103V97.5455H54.4461V98.3835H54.503C54.6119 98.1018 54.793 97.8804 55.0463 97.7195C55.302 97.5561 55.6085 97.4744 55.966 97.4744C56.3424 97.4744 56.6514 97.5632 56.8929 97.7408C57.1367 97.916 57.319 98.1574 57.4397 98.4652H57.4859C57.609 98.1622 57.8091 97.9219 58.086 97.7443C58.3654 97.5644 58.7039 97.4744 59.1017 97.4744C59.6083 97.4744 60.0084 97.6342 60.302 97.9538C60.5955 98.2711 60.7423 98.7351 60.7423 99.3459V103H60.1102V99.3459C60.1102 98.915 60.0001 98.5919 59.7799 98.3764C59.5598 98.161 59.2698 98.0533 58.9099 98.0533C58.4932 98.0533 58.1725 98.1811 57.9476 98.4368C57.7226 98.6925 57.6102 99.0168 57.6102 99.4098V103H56.9639V99.2891C56.9639 98.9197 56.8609 98.6214 56.6549 98.3942C56.449 98.1669 56.159 98.0533 55.7849 98.0533C55.534 98.0533 55.3079 98.1148 55.1066 98.2379C54.9078 98.361 54.7503 98.5327 54.6343 98.7528C54.5207 98.9706 54.4639 99.2216 54.4639 99.5057V103H53.8318ZM64.921 103.114C64.412 103.114 63.9717 102.995 63.6 102.759C63.2283 102.519 62.9407 102.189 62.7371 101.768C62.5358 101.344 62.4352 100.856 62.4352 100.305C62.4352 99.7554 62.5358 99.2678 62.7371 98.8416C62.9407 98.4131 63.2212 98.0781 63.5787 97.8366C63.9385 97.5928 64.354 97.4709 64.8251 97.4709C65.1211 97.4709 65.4063 97.5253 65.681 97.6342C65.9556 97.7408 66.2018 97.9053 66.4196 98.1278C66.6398 98.348 66.8138 98.6262 66.9416 98.9624C67.0695 99.2962 67.1334 99.6915 67.1334 100.148V100.461H62.872V99.9034H66.4871C66.4871 99.553 66.4161 99.2382 66.274 98.9588C66.1343 98.6771 65.939 98.4545 65.6881 98.2912C65.4395 98.1278 65.1518 98.0462 64.8251 98.0462C64.4795 98.0462 64.1753 98.1385 63.9125 98.3232C63.6497 98.5078 63.4438 98.7517 63.2946 99.0547C63.1478 99.3577 63.0733 99.6892 63.0709 100.049V100.383C63.0709 100.816 63.1455 101.195 63.2946 101.519C63.4461 101.841 63.6604 102.091 63.9374 102.268C64.2143 102.446 64.5422 102.535 64.921 102.535C65.1791 102.535 65.4052 102.495 65.5993 102.414C65.7958 102.334 65.9603 102.226 66.0929 102.091C66.2278 101.954 66.3296 101.803 66.3983 101.64L66.9984 101.835C66.9156 102.065 66.7795 102.277 66.5901 102.471C66.403 102.665 66.1687 102.821 65.8869 102.94C65.6076 103.056 65.2856 103.114 64.921 103.114ZM68.8263 105.045V97.5455H69.4407V98.5859H69.5152C69.591 98.4226 69.6952 98.2557 69.8277 98.0852C69.9603 97.9124 70.1355 97.7668 70.3533 97.6484C70.5735 97.5301 70.8505 97.4709 71.1843 97.4709C71.6341 97.4709 72.0271 97.5893 72.3632 97.826C72.7018 98.0604 72.9646 98.3894 73.1516 98.8132C73.341 99.2346 73.4357 99.7259 73.4357 100.287C73.4357 100.85 73.341 101.344 73.1516 101.768C72.9646 102.192 72.7018 102.522 72.3632 102.759C72.0271 102.995 71.6364 103.114 71.1914 103.114C70.8623 103.114 70.5865 103.054 70.364 102.936C70.1438 102.818 69.965 102.672 69.8277 102.499C69.6928 102.324 69.5886 102.154 69.5152 101.988H69.4584V105.045H68.8263ZM69.4513 100.276C69.4513 100.717 69.5164 101.107 69.6466 101.448C69.7792 101.787 69.9686 102.053 70.2148 102.247C70.4634 102.439 70.7641 102.535 71.1168 102.535C71.479 102.535 71.7844 102.435 72.033 102.237C72.2839 102.035 72.4745 101.764 72.6047 101.423C72.7373 101.082 72.8036 100.7 72.8036 100.276C72.8036 99.8572 72.7385 99.4796 72.6083 99.1435C72.4804 98.8073 72.291 98.541 72.0401 98.3445C71.7891 98.1456 71.4814 98.0462 71.1168 98.0462C70.7617 98.0462 70.4598 98.142 70.2113 98.3338C69.9627 98.5232 69.7733 98.786 69.6431 99.1222C69.5152 99.456 69.4513 99.8407 69.4513 100.276ZM77.2424 103.114C76.7713 103.114 76.3547 102.994 75.9924 102.755C75.6326 102.516 75.3509 102.186 75.1473 101.764C74.9437 101.34 74.8419 100.852 74.8419 100.298C74.8419 99.7389 74.9437 99.2476 75.1473 98.8239C75.3509 98.3977 75.6326 98.0663 75.9924 97.8295C76.3547 97.5904 76.7713 97.4709 77.2424 97.4709C77.7136 97.4709 78.129 97.5904 78.4889 97.8295C78.8487 98.0687 79.1305 98.4001 79.3341 98.8239C79.54 99.2476 79.643 99.7389 79.643 100.298C79.643 100.852 79.5412 101.34 79.3376 101.764C79.134 102.186 78.8511 102.516 78.4889 102.755C78.129 102.994 77.7136 103.114 77.2424 103.114ZM77.2424 102.535C77.6212 102.535 77.942 102.433 78.2048 102.229C78.4676 102.026 78.6664 101.755 78.8014 101.416C78.9387 101.078 79.0074 100.705 79.0074 100.298C79.0074 99.8904 78.9387 99.5163 78.8014 99.1754C78.6664 98.8345 78.4676 98.5611 78.2048 98.3551C77.942 98.1491 77.6212 98.0462 77.2424 98.0462C76.866 98.0462 76.5452 98.1491 76.2801 98.3551C76.0173 98.5611 75.8172 98.8345 75.6799 99.1754C75.545 99.5163 75.4775 99.8904 75.4775 100.298C75.4775 100.705 75.545 101.078 75.6799 101.416C75.8172 101.755 76.0173 102.026 76.2801 102.229C76.5429 102.433 76.8636 102.535 77.2424 102.535ZM81.3377 103V97.5455H81.9734V103H81.3377ZM81.6609 96.608C81.5307 96.608 81.4194 96.5642 81.3271 96.4766C81.2347 96.3866 81.1886 96.2789 81.1886 96.1534C81.1886 96.0279 81.2347 95.9214 81.3271 95.8338C81.4194 95.7438 81.5307 95.6989 81.6609 95.6989C81.7911 95.6989 81.9023 95.7438 81.9947 95.8338C82.087 95.9214 82.1332 96.0279 82.1332 96.1534C82.1332 96.2789 82.087 96.3866 81.9947 96.4766C81.9023 96.5642 81.7911 96.608 81.6609 96.608ZM84.5772 99.5909V103H83.9451V97.5455H84.5594V98.4013H84.6162C84.7441 98.1219 84.9429 97.8982 85.2128 97.7301C85.4851 97.5597 85.8213 97.4744 86.2213 97.4744C86.5883 97.4744 86.9103 97.5514 87.1873 97.7053C87.4666 97.8568 87.6832 98.0805 87.8371 98.3764C87.9934 98.6723 88.0715 99.0357 88.0715 99.4666V103H87.4394V99.5057C87.4394 99.0582 87.3139 98.7043 87.063 98.4439C86.8144 98.1835 86.4806 98.0533 86.0615 98.0533C85.7751 98.0533 85.5206 98.1148 85.298 98.2379C85.0755 98.361 84.8991 98.5386 84.7689 98.7706C84.6411 99.0002 84.5772 99.2737 84.5772 99.5909ZM92.1845 97.5455V98.0959H89.5815V97.5455H92.1845ZM90.3947 96.2386H91.0304V101.576C91.0304 101.803 91.0695 101.982 91.1476 102.112C91.2257 102.24 91.3275 102.331 91.453 102.386C91.5785 102.438 91.7122 102.464 91.8543 102.464C91.9371 102.464 92.0081 102.459 92.0673 102.45C92.1265 102.438 92.1786 102.426 92.2236 102.414L92.3585 102.986C92.297 103.009 92.2212 103.031 92.1312 103.05C92.0413 103.071 91.93 103.082 91.7974 103.082C91.5654 103.082 91.3417 103.031 91.1263 102.929C90.9132 102.827 90.738 102.676 90.6007 102.474C90.4634 102.273 90.3947 102.023 90.3947 101.725V96.2386Z" fill="#505050"/>
</svg>
