<svg width="106" height="108" viewBox="0 0 106 108" fill="none" xmlns="http://www.w3.org/2000/svg">
<path d="M93.5449 63.4944V76.9944H67.0449V48.7344H80.3833C81.8063 48.7326 83.2101 49.0694 84.4829 49.7178C85.7558 50.3662 86.8625 51.3084 87.7149 52.4694L89.0841 54.2244L91.6016 57.6894C92.4549 58.8252 93.0303 60.1518 93.2799 61.5594C93.4269 62.1946 93.5156 62.8424 93.5449 63.4944Z" fill="#E85938"/>
<path d="M91.5575 63.4944V76.9944H64.7925V48.7344H78.3958C79.8171 48.743 81.2174 49.0843 82.4886 49.7319C83.7598 50.3795 84.868 51.3161 85.7275 52.4694L87.0525 54.2244L89.57 57.6894C90.4372 58.8167 91.0141 60.147 91.2483 61.5594C91.4112 62.193 91.5148 62.8409 91.5575 63.4944Z" fill="#F46E49"/>
<path d="M72.4333 30.5117L69.7833 75.5117C69.7495 75.9493 69.5518 76.3569 69.2312 76.6501C68.9105 76.9433 68.4915 77.0996 68.0608 77.0867H28.7525C28.5188 77.0929 28.2864 77.0506 28.0693 76.9623C27.8522 76.8741 27.655 76.7417 27.4897 76.5733C27.3245 76.4049 27.1946 76.204 27.1079 75.9828C27.0213 75.7616 26.9797 75.5248 26.9858 75.2867V72.5417L29.5916 30.2417C29.6254 29.816 29.8185 29.4199 30.1308 29.1351C30.4432 28.8504 30.851 28.6988 31.27 28.7117H70.6667C71.1352 28.7117 71.5846 28.9013 71.9159 29.2389C72.2472 29.5765 72.4333 30.0343 72.4333 30.5117Z" fill="#E5BF55"/>
<path d="M68.2817 30.5117L65.6317 75.5117C65.5978 75.9493 65.4001 76.3569 65.0795 76.6501C64.7588 76.9433 64.3398 77.0996 63.9092 77.0867H28.5758C28.3422 77.0929 28.1097 77.0506 27.8926 76.9623C27.6756 76.8741 27.4784 76.7417 27.3131 76.5733C27.1478 76.4049 27.0179 76.204 26.9313 75.9828C26.8446 75.7616 26.8031 75.5248 26.8092 75.2867V72.5417L29.5917 30.2417C29.6255 29.816 29.8185 29.4199 30.1309 29.1351C30.4432 28.8504 30.851 28.6988 31.27 28.7117H66.6033C67.0564 28.7348 67.4834 28.9346 67.7958 29.2697C68.1083 29.6048 68.2822 30.0495 68.2817 30.5117V30.5117Z" fill="#FFDF70"/>
<path d="M85.4561 81.8425C87.9105 78.978 87.8444 74.8274 85.3085 72.5719C82.7727 70.3164 78.7273 70.8101 76.273 73.6746C73.8186 76.5392 73.8847 80.6898 76.4206 82.9453C78.9564 85.2008 83.0018 84.707 85.4561 81.8425Z" fill="#082233"/>
<path d="M43.669 81.8288C46.1233 78.9643 46.0573 74.8137 43.5214 72.5582C40.9856 70.3027 36.9402 70.7964 34.4859 73.661C32.0315 76.5255 32.0976 80.6761 34.6334 82.9316C37.1693 85.1871 41.2147 84.6934 43.669 81.8288Z" fill="#082233"/>
<path d="M83.7593 80.3395C85.3153 78.5234 85.2807 75.8985 83.682 74.4766C82.0833 73.0546 79.5259 73.3741 77.9699 75.1902C76.4139 77.0063 76.4485 79.6312 78.0472 81.0532C79.6458 82.4751 82.2032 82.1556 83.7593 80.3395Z" fill="#679CBF"/>
<path d="M41.9722 80.3239C43.5282 78.5078 43.4936 75.8829 41.8949 74.4609C40.2962 73.039 37.7388 73.3585 36.1828 75.1746C34.6268 76.9907 34.6614 79.6156 36.26 81.0375C37.8587 82.4595 40.4161 82.14 41.9722 80.3239Z" fill="#679CBF"/>
<path d="M90.3208 63.3159H77.9983C77.6111 63.3185 77.2278 63.2373 76.8737 63.0778C76.5196 62.9183 76.2027 62.6842 75.9439 62.3907C75.6851 62.0973 75.4904 61.7513 75.3725 61.3756C75.2546 60.9998 75.2162 60.6029 75.2599 60.2109L76.2316 51.2109H78.3958C79.7023 51.2162 80.9895 51.5321 82.155 52.1337C83.3205 52.7353 84.3321 53.6058 85.1091 54.6759L88.7749 59.6259C89.5644 60.717 90.0937 61.9803 90.3208 63.3159V63.3159Z" fill="#9DC9CE"/>
<path d="M88.9074 63.3159H77.9983C77.6111 63.3185 77.2278 63.2373 76.8737 63.0778C76.5196 62.9183 76.2027 62.6842 75.9439 62.3907C75.6851 62.0973 75.4904 61.7513 75.3725 61.3756C75.2546 60.9998 75.2162 60.6029 75.2599 60.2109L76.2316 51.2109H76.9824C78.2952 51.2162 79.5888 51.5319 80.7614 52.1331C81.9341 52.7344 82.9537 53.6049 83.7399 54.6759L87.4058 59.6259C88.1824 60.7195 88.6967 61.9833 88.9074 63.3159V63.3159Z" fill="#CFE7EB"/>
<path d="M45.5358 57.1063C45.5358 57.7508 45.2845 58.3688 44.8372 58.8245C44.3899 59.2803 43.7833 59.5363 43.1508 59.5363H23.1432C22.6326 59.5334 22.1358 59.3666 21.7236 59.0596C21.3113 58.7526 21.0044 58.3211 20.8466 57.8263C20.8002 57.5886 20.8002 57.344 20.8466 57.1063C20.8406 56.7796 20.8993 56.455 21.0193 56.152C21.1392 55.8489 21.3179 55.5736 21.5447 55.3426C21.7715 55.1115 22.0417 54.9295 22.3391 54.8072C22.6365 54.685 22.9551 54.6252 23.2757 54.6313H43.1508C43.4677 54.6312 43.7815 54.6955 44.0738 54.8205C44.366 54.9454 44.631 55.1284 44.853 55.3588C45.0751 55.5893 45.2498 55.8625 45.367 56.1625C45.4843 56.4626 45.5416 56.7834 45.5358 57.1063V57.1063Z" fill="#E85938"/>
<path d="M56.4891 64.893C56.4892 65.2159 56.4261 65.5356 56.3035 65.8334C56.1809 66.1312 56.0012 66.4011 55.7751 66.6273C55.5489 66.8536 55.2807 67.0316 54.9863 67.1511C54.6918 67.2705 54.3769 67.3289 54.06 67.323H34.0525C33.5499 67.3348 33.0574 67.1784 32.6505 66.8776C32.2436 66.5769 31.9448 66.1484 31.8 65.658C31.7543 65.4051 31.7543 65.1458 31.8 64.893C31.7999 64.2443 32.0497 63.6215 32.4958 63.1586C32.9418 62.6957 33.5484 62.4298 34.185 62.418H54.1925C54.8135 62.4525 55.3978 62.7285 55.8251 63.1889C56.2524 63.6494 56.4901 64.2593 56.4891 64.893V64.893Z" fill="#E85938"/>
<path d="M40.015 73.8011C40.0209 74.124 39.9636 74.4448 39.8463 74.7448C39.7291 75.0449 39.5544 75.3181 39.3323 75.5485C39.1102 75.779 38.8453 75.962 38.5531 76.0869C38.2608 76.2118 37.947 76.2762 37.63 76.2761H17.6667C17.1527 76.2876 16.6493 76.1264 16.2342 75.8173C15.8191 75.5082 15.5154 75.0685 15.37 74.5661C15.3244 74.3132 15.3244 74.054 15.37 73.8011C15.3803 73.1752 15.6229 72.5766 16.0491 72.1257C16.4752 71.6748 17.0533 71.4051 17.6667 71.3711H37.63C38.2626 71.3711 38.8692 71.6271 39.3165 72.0828C39.7638 72.5385 40.015 73.1566 40.015 73.8011V73.8011Z" fill="#E85938"/>
<path d="M42.8416 57.1059C42.8416 57.7503 42.5904 58.3684 42.1431 58.8241C41.6958 59.2798 41.0892 59.5359 40.4566 59.5359H20.405C19.896 59.5263 19.4022 59.3569 18.9912 59.0509C18.5802 58.7449 18.2718 58.3171 18.1083 57.8259C18.0619 57.5882 18.0619 57.3435 18.1083 57.1059C18.1083 56.4494 18.3642 55.8199 18.8198 55.3558C19.2753 54.8916 19.8932 54.6309 20.5375 54.6309H40.4566C40.7736 54.6308 41.0874 54.6951 41.3796 54.82C41.6719 54.945 41.9368 55.128 42.1589 55.3584C42.3809 55.5889 42.5557 55.8621 42.6729 56.1621C42.7901 56.4621 42.8475 56.783 42.8416 57.1059Z" fill="#F46E49"/>
<path d="M53.795 64.893C53.7834 65.5415 53.5224 66.1596 53.0681 66.614C52.6138 67.0685 52.0025 67.3231 51.3658 67.323H31.3142C30.8191 67.325 30.3367 67.164 29.9387 66.864C29.5408 66.5639 29.2486 66.1409 29.1058 65.658C29.0402 65.4073 29.0402 65.1436 29.1058 64.893C29.1057 64.2443 29.3556 63.6215 29.8016 63.1586C30.2477 62.6957 30.8542 62.4298 31.4908 62.418H51.5425C52.1557 62.4635 52.729 62.7443 53.1471 63.2036C53.5651 63.6629 53.7966 64.2666 53.795 64.893Z" fill="#F46E49"/>
<path d="M37.2766 73.7993C37.3215 74.1417 37.2929 74.49 37.1927 74.82C37.0925 75.15 36.9232 75.4539 36.6963 75.7107C36.4695 75.9675 36.1907 76.171 35.8791 76.3071C35.5675 76.4433 35.2305 76.5089 34.8916 76.4993H14.8841C14.3701 76.5108 13.8667 76.3496 13.4516 76.0405C13.0365 75.7315 12.7328 75.2918 12.5875 74.7893C12.5418 74.5364 12.5418 74.2772 12.5875 74.0243C12.599 73.3757 12.8601 72.7577 13.3144 72.3032C13.7687 71.8488 14.3799 71.5942 15.0166 71.5943H34.8916C35.4906 71.5811 36.0718 71.8023 36.5154 72.2125C36.9591 72.6227 37.2315 73.1906 37.2766 73.7993V73.7993Z" fill="#F46E49"/>
<path d="M26.5001 28.3944L22.8784 31.2294L21.2442 29.1144C21.2119 29.0685 21.1945 29.0134 21.1945 28.9569C21.1945 28.9004 21.2119 28.8453 21.2442 28.7994L24.5567 26.2344H24.8659L26.5001 28.3944Z" fill="#CFE7EB"/>
<path d="M25.6167 25.7851C25.6151 25.942 25.5784 26.0965 25.5095 26.2368C25.4407 26.3771 25.3414 26.4997 25.2192 26.5951L21.5092 29.5201C21.3647 29.6237 21.1941 29.683 21.0176 29.6912C20.8412 29.6993 20.666 29.6559 20.5129 29.5661C20.3598 29.4763 20.2351 29.3438 20.1534 29.1841C20.0717 29.0245 20.0364 28.8445 20.0517 28.6651C20.0446 28.5179 20.0731 28.3711 20.1347 28.2377C20.1963 28.1044 20.2892 27.9884 20.405 27.9001L23.9825 25.1101C24.0695 25.0133 24.1752 24.9359 24.2931 24.883C24.4109 24.8301 24.5383 24.8027 24.6671 24.8027C24.7959 24.8027 24.9233 24.8301 25.0412 24.883C25.1591 24.9359 25.2648 25.0133 25.3517 25.1101C25.4936 25.3093 25.5846 25.5413 25.6167 25.7851Z" fill="#E85938"/>
<path d="M37.9392 28.3944L41.5609 31.2294L43.195 29.1144C43.2274 29.0685 43.2448 29.0134 43.2448 28.9569C43.2448 28.9004 43.2274 28.8453 43.195 28.7994L39.75 26.2344H39.4409L37.9392 28.3944Z" fill="#CFE7EB"/>
<path d="M44.5641 28.7112C44.5578 28.9397 44.4805 29.1603 44.3433 29.3412C44.1562 29.5151 43.912 29.6115 43.6587 29.6115C43.4054 29.6115 43.1613 29.5151 42.9741 29.3412L42.665 29.2512L39.2641 26.5962C39.142 26.5007 39.0427 26.3782 38.9738 26.2378C38.905 26.0975 38.8683 25.9431 38.8666 25.7862C38.7951 25.598 38.7951 25.3894 38.8666 25.2012C38.9495 25.1054 39.0515 25.0287 39.1657 24.9762C39.2799 24.9237 39.4038 24.8965 39.5291 24.8965C39.6545 24.8965 39.7783 24.9237 39.8926 24.9762C40.0068 25.0287 40.1087 25.1054 40.1916 25.2012L43.6366 27.8562L43.9458 28.1262C44.0869 28.1669 44.2166 28.2412 44.324 28.3429C44.4315 28.4446 44.5138 28.5708 44.5641 28.7112V28.7112Z" fill="#E85938"/>
<path d="M44.1666 28.4395C44.2308 28.6444 44.2308 28.8646 44.1666 29.0695C43.9846 29.2537 43.7385 29.357 43.482 29.357C43.2255 29.357 42.9794 29.2537 42.7974 29.0695V29.0695L39.3966 26.4145C39.2744 26.3191 39.1751 26.1965 39.1063 26.0562C39.0374 25.9159 39.0007 25.7614 38.9991 25.6045C38.9276 25.4164 38.9276 25.2077 38.9991 25.0195C39.082 24.9238 39.1839 24.8471 39.2981 24.7946C39.4124 24.742 39.5363 24.7148 39.6616 24.7148C39.7869 24.7148 39.9108 24.742 40.025 24.7946C40.1392 24.8471 40.2412 24.9238 40.3241 25.0195L43.7691 27.6745C43.8856 27.7653 43.9815 27.8806 44.0501 28.0127C44.1187 28.1447 44.1584 28.2904 44.1666 28.4395V28.4395Z" fill="#F46E49"/>
<path d="M34.2292 26.9998H30.5634V24.8398H33.8759L34.2292 26.9998Z" fill="#CFE7EB"/>
<path d="M35.0684 24.3913C35.0684 24.6062 34.9846 24.8122 34.8356 24.9641C34.6865 25.116 34.4843 25.2013 34.2734 25.2013H30.4751C30.272 25.1898 30.0809 25.0994 29.9413 24.9487C29.8016 24.7981 29.7239 24.5986 29.7242 24.3913C29.7242 24.1884 29.8033 23.9939 29.9442 23.8504C30.085 23.7069 30.2759 23.6263 30.4751 23.6263H34.2734C34.3757 23.6202 34.4781 23.6354 34.5743 23.6711C34.6706 23.7068 34.7586 23.7622 34.8331 23.8338C34.9076 23.9055 34.9669 23.9919 35.0073 24.0878C35.0478 24.1837 35.0686 24.287 35.0684 24.3913Z" fill="#E85938"/>
<path d="M25.3517 25.9652C25.4012 26.1584 25.3895 26.3626 25.318 26.5486C25.2466 26.7345 25.1192 26.8926 24.9542 27.0002L21.4208 29.7902C21.2763 29.8938 21.1058 29.9531 20.9293 29.9612C20.7528 29.9694 20.5777 29.926 20.4245 29.8362C20.2714 29.7463 20.1467 29.6138 20.065 29.4542C19.9833 29.2946 19.948 29.1146 19.9633 28.9352C19.9562 28.788 19.9847 28.6412 20.0463 28.5078C20.108 28.3744 20.2008 28.2585 20.3167 28.1702L23.8942 25.3802C24.0714 25.222 24.299 25.1348 24.5346 25.1348C24.7702 25.1348 24.9978 25.222 25.175 25.3802C25.2731 25.5606 25.3333 25.7598 25.3517 25.9652V25.9652Z" fill="#F46E49"/>
<path d="M34.7151 24.3913C34.7151 24.6062 34.6313 24.8122 34.4822 24.9641C34.3331 25.116 34.1309 25.2013 33.9201 25.2013H30.4751C30.272 25.1898 30.0809 25.0994 29.9413 24.9487C29.8016 24.7981 29.7239 24.5986 29.7242 24.3913C29.7242 24.1884 29.8033 23.9939 29.9442 23.8504C30.085 23.7069 30.2759 23.6263 30.4751 23.6263H33.9201C34.0223 23.6202 34.1247 23.6354 34.221 23.6711C34.3172 23.7068 34.4053 23.7622 34.4798 23.8338C34.5543 23.9055 34.6135 23.9919 34.654 24.0878C34.6945 24.1837 34.7153 24.287 34.7151 24.3913V24.3913Z" fill="#F46E49"/>
<path d="M23.2758 48.0141C20.9746 45.5986 19.6636 42.3801 19.61 39.0141C19.6215 36.0438 20.6342 33.1676 22.4785 30.8671C24.3227 28.5665 26.8867 26.9813 29.741 26.3767C32.5954 25.7722 35.567 26.185 38.1583 27.5461C40.7496 28.9071 42.8035 31.1338 43.9759 33.8534C45.1484 36.573 45.3684 39.6205 44.599 42.4856C43.8296 45.3507 42.1177 47.8595 39.7496 49.5922C37.3816 51.3249 34.5013 52.1762 31.5908 52.0036C28.6804 51.831 25.9164 50.645 23.7617 48.6441" fill="#F46E49"/>
<path d="M45.1384 38.8351C45.1486 42.1003 43.9488 45.2491 41.7788 47.6519C39.6089 50.0547 36.6287 51.5344 33.4342 51.7951C36.5731 51.1937 39.3766 49.4153 41.2914 46.8107C43.2062 44.2062 44.093 40.9649 43.7769 37.7268C43.4607 34.4886 41.9645 31.4889 39.5837 29.3197C37.2028 27.1506 34.1103 25.9697 30.9167 26.0101H29.8567C30.6954 25.8068 31.5566 25.716 32.4184 25.7401C34.0983 25.746 35.7606 26.0897 37.3099 26.7515C38.8592 27.4134 40.265 28.3803 41.4468 29.5969C42.6285 30.8135 43.5629 32.2558 44.1964 33.8411C44.8299 35.4264 45.15 37.1235 45.1384 38.8351Z" fill="#E85938"/>
<path d="M42.0024 38.702C42.0243 38.9114 42.0243 39.1226 42.0024 39.332C41.8795 41.4219 41.0884 43.4133 39.7499 45.002L38.9991 45.812C37.3805 47.3101 35.3078 48.1993 33.1249 48.332H31.7558C31.3743 48.3786 30.9888 48.3786 30.6074 48.332H30.2099C28.5797 47.9351 27.0658 47.1484 25.7933 46.037C25.5408 45.7141 25.319 45.3675 25.1308 45.002C23.7448 43.3821 22.922 41.3417 22.7899 39.197V38.072C22.9342 35.8865 23.7889 33.8123 25.2191 32.177C25.5062 31.9221 25.8168 31.696 26.1466 31.502C27.4029 30.3752 28.9248 29.6 30.5633 29.252H31.5349H32.7716C33.7422 29.2963 34.6982 29.5094 35.5983 29.882C36.7038 30.191 37.7292 30.7441 38.6016 31.502C38.9418 31.7669 39.2528 32.0687 39.5291 32.402C40.9403 33.9607 41.7959 35.9578 41.9583 38.072V38.072C41.9949 38.2798 42.0097 38.491 42.0024 38.702V38.702Z" fill="#CFE7EB"/>
<path d="M42.0026 38.6975C42.0245 38.9069 42.0245 39.1181 42.0026 39.3275C41.8797 41.4174 41.0886 43.4089 39.7501 44.9975L38.9993 45.8075C37.3807 47.3057 35.308 48.1949 33.1251 48.3275H31.7559C31.3745 48.3742 30.989 48.3742 30.6076 48.3275H30.2101H30.5192C32.8261 48.2266 35.0206 47.2843 36.7026 45.6725C37.004 45.4105 37.2846 45.1246 37.5418 44.8175C38.9986 43.1065 39.8671 40.9576 40.0151 38.6975V38.6975V37.2575C39.8491 34.9497 38.932 32.7643 37.4093 31.0475L36.4818 30.0575L35.8192 29.5625C36.8738 29.9938 37.8233 30.6541 38.6017 31.4975C38.942 31.7624 39.2529 32.0642 39.5292 32.3975C40.9404 33.9563 41.796 35.9533 41.9584 38.0675V38.0675C41.9951 38.2753 42.0099 38.4865 42.0026 38.6975V38.6975Z" fill="#9DC9CE"/>
<path d="M33.6551 39.3762C33.6551 39.7701 33.5015 40.1478 33.2282 40.4263C32.9549 40.7048 32.5841 40.8612 32.1976 40.8612C31.8462 40.8081 31.5247 40.6297 31.2902 40.3578C31.0556 40.0859 30.9233 39.7381 30.9167 39.3762C30.9167 39.1833 30.9546 38.9923 31.0284 38.8146C31.1022 38.6369 31.2102 38.4761 31.3462 38.3418C31.4821 38.2074 31.6432 38.1023 31.8198 38.0327C31.9964 37.963 32.185 37.9302 32.3742 37.9363C32.7257 37.97 33.052 38.1364 33.289 38.4029C33.5261 38.6694 33.6566 39.0166 33.6551 39.3762V39.3762Z" fill="#9DC9CE"/>
<path d="M33.2133 29.1582H31.7117C31.691 29.247 31.691 29.3394 31.7117 29.4282V30.8232C31.7117 31.05 31.8001 31.2674 31.9575 31.4278C32.1148 31.5881 32.3283 31.6782 32.5508 31.6782C32.7734 31.6782 32.9868 31.5881 33.1442 31.4278C33.3016 31.2674 33.39 31.05 33.39 30.8232V29.1582H33.2133Z" fill="#1D3E51"/>
<path d="M39.75 45.0002L38.7783 44.0102C38.6103 43.8481 38.3911 43.7523 38.16 43.7402V43.7402C37.9424 43.755 37.7379 43.8511 37.5858 44.0102C37.4966 44.087 37.4262 44.1839 37.3802 44.2933C37.3342 44.4027 37.3138 44.5215 37.3208 44.6402C37.3173 44.752 37.3395 44.8631 37.3855 44.9646C37.4315 45.0662 37.5001 45.1554 37.5858 45.2252L38.5575 46.2152C38.6591 46.2401 38.765 46.2401 38.8666 46.2152L39.1758 45.9002C39.4226 45.7713 39.6234 45.5666 39.75 45.3152C39.7734 45.2662 39.7856 45.2123 39.7856 45.1577C39.7856 45.1032 39.7734 45.0493 39.75 45.0002V45.0002Z" fill="#1D3E51"/>
<path d="M32.3742 46.1692C32.2661 46.1631 32.158 46.1795 32.0564 46.2175C31.9548 46.2554 31.8618 46.3141 31.7833 46.3899C31.7047 46.4658 31.6422 46.5572 31.5995 46.6585C31.5568 46.7598 31.5349 46.869 31.535 46.9792V48.4192C31.535 48.4192 31.535 48.4192 31.535 48.6442H32.7717V48.4192V46.9792C32.7922 46.8192 32.7653 46.6566 32.6944 46.5123C32.6236 46.368 32.5121 46.2485 32.3742 46.1692V46.1692Z" fill="#1D3E51"/>
<path d="M42.1793 38.207H41.9584H40.4126C40.2986 38.2069 40.1857 38.2304 40.0809 38.2761C39.9761 38.3219 39.8816 38.3889 39.803 38.4732C39.7245 38.5574 39.6636 38.657 39.6242 38.766C39.5847 38.875 39.5674 38.991 39.5734 39.107C39.5734 39.3338 39.6618 39.5513 39.8192 39.7116C39.9766 39.872 40.19 39.962 40.4126 39.962H41.9584H42.1793V38.207Z" fill="#1D3E51"/>
<path d="M26.5 31.498C26.4549 31.465 26.4009 31.4473 26.3454 31.4473C26.2899 31.4473 26.2359 31.465 26.1908 31.498C25.8494 31.7783 25.5385 32.0951 25.2633 32.443C25.2633 32.443 25.2633 32.443 25.2633 32.713L26.1908 33.658C26.2832 33.7249 26.3886 33.7709 26.5 33.793V33.793C26.6854 33.8618 26.8887 33.8618 27.0741 33.793C27.2406 33.6268 27.3358 33.4004 27.3391 33.163C27.3426 33.0512 27.3204 32.9401 27.2744 32.8386C27.2284 32.737 27.1599 32.6478 27.0741 32.578L26.5 31.498Z" fill="#1D3E51"/>
<path d="M26.7209 43.6065C26.5034 43.6213 26.2988 43.7174 26.1467 43.8765L25.175 45.0015C25.175 45.0015 25.175 45.3615 25.5725 45.8115C25.6639 45.9278 25.7676 46.0334 25.8817 46.1265H26.1909H26.5001L27.295 45.0015C27.3808 44.9317 27.4494 44.8425 27.4954 44.7409C27.5414 44.6394 27.5635 44.5283 27.56 44.4165C27.567 44.2978 27.5467 44.179 27.5007 44.0696C27.4547 43.9602 27.3843 43.8633 27.295 43.7865C27.1302 43.66 26.927 43.5963 26.7209 43.6065V43.6065Z" fill="#1D3E51"/>
<path d="M38.0275 33.795C38.2291 33.8576 38.4443 33.8576 38.6459 33.795L39.75 32.58C39.75 32.58 39.75 32.58 39.75 32.31C39.4305 32.0161 39.091 31.7454 38.7342 31.5V31.5L37.7625 32.535C37.6768 32.6048 37.6082 32.6941 37.5622 32.7956C37.5162 32.8972 37.4941 33.0082 37.4975 33.12C37.5009 33.3574 37.5961 33.5838 37.7625 33.75C37.8486 33.7764 37.9377 33.7915 38.0275 33.795Z" fill="#1D3E51"/>
<path d="M32.1976 34.4258C32.036 34.4067 31.8723 34.4227 31.7173 34.4729C31.5623 34.5231 31.4196 34.6062 31.2985 34.7168C31.1774 34.8274 31.0807 34.963 31.0149 35.1145C30.9491 35.266 30.9156 35.4301 30.9167 35.5958V39.2858C30.8836 39.4555 30.8878 39.6305 30.9291 39.7983C30.9703 39.9662 31.0476 40.1226 31.1553 40.2563C31.263 40.3901 31.3985 40.4978 31.552 40.5718C31.7055 40.6458 31.8732 40.6841 32.043 40.6841C32.2128 40.6841 32.3805 40.6458 32.534 40.5718C32.6875 40.4978 32.823 40.3901 32.9307 40.2563C33.0384 40.1226 33.1157 39.9662 33.1569 39.7983C33.1982 39.6305 33.2024 39.4555 33.1692 39.2858V35.5958C33.1725 35.3143 33.0761 35.041 32.8976 34.8261C32.7191 34.6112 32.4706 34.4691 32.1976 34.4258V34.4258Z" fill="#1D3E51"/>
<path d="M35.3334 37.4846C35.2615 37.3686 35.1678 37.2683 35.0576 37.1896C34.9473 37.1108 34.8229 37.0552 34.6914 37.0259C34.5599 36.9966 34.424 36.9942 34.2915 37.0188C34.1591 37.0435 34.0328 37.0948 33.92 37.1696L31.7559 38.5646C31.5371 38.7314 31.3812 38.9697 31.3142 39.2396C31.2265 39.4868 31.2265 39.7574 31.3142 40.0046V40.0046C31.4064 40.1583 31.5364 40.2848 31.6913 40.3716C31.8463 40.4584 32.0207 40.5025 32.1975 40.4996C32.3696 40.5579 32.5555 40.5579 32.7275 40.4996L34.8917 39.1046C35.0175 39.0093 35.122 38.8877 35.1982 38.7481C35.2743 38.6084 35.3204 38.4538 35.3334 38.2946C35.4177 38.0314 35.4177 37.7478 35.3334 37.4846V37.4846Z" fill="#1D3E51"/>
<path d="M24.287 103V95.7273H24.9511V99.6442H25.015L28.5661 95.7273H29.4397L26.3325 99.0902L29.4255 103H28.6158L25.9205 99.5518L24.9511 100.638V103H24.287ZM33.986 100.915V97.5455H34.6181V103H33.986V102.094H33.9363C33.8084 102.374 33.606 102.607 33.329 102.794C33.052 102.979 32.7135 103.071 32.3134 103.071C31.9654 103.071 31.6564 102.995 31.3865 102.844C31.1167 102.69 30.9048 102.465 30.7509 102.169C30.597 101.873 30.5201 101.51 30.5201 101.079V97.5455H31.1522V101.04C31.1522 101.466 31.2776 101.809 31.5286 102.07C31.7795 102.328 32.1015 102.457 32.4945 102.457C32.7407 102.457 32.9775 102.397 33.2047 102.279C33.432 102.161 33.619 101.988 33.7658 101.761C33.9126 101.531 33.986 101.249 33.986 100.915ZM36.5915 103V97.5455H37.2059V98.3835H37.2521C37.361 98.1089 37.5504 97.8875 37.8202 97.7195C38.0925 97.549 38.4003 97.4638 38.7435 97.4638C38.7956 97.4638 38.8536 97.465 38.9175 97.4673C38.9815 97.4697 39.0347 97.4721 39.0773 97.4744V98.1172C39.0489 98.1125 38.9992 98.1054 38.9282 98.0959C38.8572 98.0864 38.7802 98.0817 38.6974 98.0817C38.4133 98.0817 38.16 98.142 37.9374 98.2628C37.7173 98.3812 37.5433 98.5457 37.4154 98.7564C37.2876 98.9671 37.2237 99.2074 37.2237 99.4773V103H36.5915ZM40.4631 103V97.5455H41.0988V103H40.4631ZM40.7863 96.608C40.656 96.608 40.5448 96.5642 40.4525 96.4766C40.3601 96.3866 40.314 96.2789 40.314 96.1534C40.314 96.0279 40.3601 95.9214 40.4525 95.8338C40.5448 95.7438 40.656 95.6989 40.7863 95.6989C40.9165 95.6989 41.0277 95.7438 41.1201 95.8338C41.2124 95.9214 41.2586 96.0279 41.2586 96.1534C41.2586 96.2789 41.2124 96.3866 41.1201 96.4766C41.0277 96.5642 40.9165 96.608 40.7863 96.608ZM43.0705 103V97.5455H43.6848V98.3835H43.731C43.8399 98.1089 44.0293 97.8875 44.2991 97.7195C44.5714 97.549 44.8792 97.4638 45.2224 97.4638C45.2745 97.4638 45.3325 97.465 45.3965 97.4673C45.4604 97.4697 45.5136 97.4721 45.5563 97.4744V98.1172C45.5278 98.1125 45.4781 98.1054 45.4071 98.0959C45.3361 98.0864 45.2591 98.0817 45.1763 98.0817C44.8922 98.0817 44.6389 98.142 44.4163 98.2628C44.1962 98.3812 44.0222 98.5457 43.8943 98.7564C43.7665 98.9671 43.7026 99.2074 43.7026 99.4773V103H43.0705ZM50.0474 103V97.5455H50.6618V98.3835H50.7079C50.8168 98.1089 51.0062 97.8875 51.2761 97.7195C51.5484 97.549 51.8561 97.4638 52.1994 97.4638C52.2515 97.4638 52.3095 97.465 52.3734 97.4673C52.4373 97.4697 52.4906 97.4721 52.5332 97.4744V98.1172C52.5048 98.1125 52.4551 98.1054 52.3841 98.0959C52.313 98.0864 52.2361 98.0817 52.1532 98.0817C51.8691 98.0817 51.6158 98.142 51.3933 98.2628C51.1731 98.3812 50.9991 98.5457 50.8713 98.7564C50.7434 98.9671 50.6795 99.2074 50.6795 99.4773V103H50.0474ZM55.9511 103.114C55.4421 103.114 55.0018 102.995 54.6301 102.759C54.2584 102.519 53.9708 102.189 53.7672 101.768C53.5659 101.344 53.4653 100.856 53.4653 100.305C53.4653 99.7554 53.5659 99.2678 53.7672 98.8416C53.9708 98.4131 54.2513 98.0781 54.6088 97.8366C54.9686 97.5928 55.3841 97.4709 55.8552 97.4709C56.1511 97.4709 56.4364 97.5253 56.711 97.6342C56.9857 97.7408 57.2319 97.9053 57.4497 98.1278C57.6699 98.348 57.8439 98.6262 57.9717 98.9624C58.0995 99.2962 58.1635 99.6915 58.1635 100.148V100.461H53.9021V99.9034H57.5172C57.5172 99.553 57.4461 99.2382 57.3041 98.9588C57.1644 98.6771 56.9691 98.4545 56.7181 98.2912C56.4696 98.1278 56.1819 98.0462 55.8552 98.0462C55.5096 98.0462 55.2054 98.1385 54.9426 98.3232C54.6798 98.5078 54.4738 98.7517 54.3247 99.0547C54.1779 99.3577 54.1033 99.6892 54.101 100.049V100.383C54.101 100.816 54.1755 101.195 54.3247 101.519C54.4762 101.841 54.6904 102.091 54.9674 102.268C55.2444 102.446 55.5723 102.535 55.9511 102.535C56.2092 102.535 56.4352 102.495 56.6294 102.414C56.8259 102.334 56.9904 102.226 57.123 102.091C57.2579 101.954 57.3597 101.803 57.4284 101.64L58.0285 101.835C57.9457 102.065 57.8095 102.277 57.6201 102.471C57.4331 102.665 57.1987 102.821 56.917 102.94C56.6377 103.056 56.3157 103.114 55.9511 103.114ZM61.9374 105.159C61.5657 105.159 61.2402 105.111 60.9608 105.013C60.6814 104.919 60.4459 104.789 60.2541 104.623C60.0624 104.457 59.9132 104.271 59.8067 104.065L60.3251 103.724C60.4033 103.862 60.5074 103.997 60.6376 104.129C60.7702 104.262 60.9419 104.372 61.1526 104.46C61.3656 104.547 61.6272 104.591 61.9374 104.591C62.4203 104.591 62.8098 104.47 63.1057 104.229C63.404 103.987 63.5531 103.612 63.5531 103.103V101.874H63.4963C63.4229 102.04 63.3176 102.206 63.1803 102.371C63.0429 102.535 62.863 102.671 62.6405 102.78C62.4203 102.889 62.1469 102.943 61.8202 102.943C61.3846 102.943 60.9975 102.835 60.659 102.62C60.3228 102.405 60.0576 102.097 59.8635 101.697C59.6717 101.294 59.5759 100.815 59.5759 100.259C59.5759 99.7069 59.6694 99.2216 59.8564 98.8026C60.0458 98.3835 60.3098 98.0568 60.6483 97.8224C60.9868 97.5881 61.381 97.4709 61.8308 97.4709C62.1646 97.4709 62.4416 97.5301 62.6618 97.6484C62.882 97.7644 63.0583 97.9089 63.1909 98.0817C63.3259 98.2545 63.4312 98.4226 63.507 98.5859H63.5709V97.5455H64.1888V103.142C64.1888 103.604 64.0905 103.984 63.894 104.282C63.6975 104.58 63.43 104.8 63.0915 104.942C62.7529 105.087 62.3682 105.159 61.9374 105.159ZM61.8947 102.364C62.2451 102.364 62.5446 102.28 62.7932 102.112C63.0418 101.942 63.2323 101.698 63.3649 101.381C63.4975 101.063 63.5638 100.686 63.5638 100.248C63.5638 99.8217 63.4987 99.4441 63.3685 99.1151C63.2383 98.7836 63.0489 98.5232 62.8003 98.3338C62.5541 98.142 62.2522 98.0462 61.8947 98.0462C61.5302 98.0462 61.2224 98.1444 60.9715 98.3409C60.7205 98.5374 60.5311 98.8026 60.4033 99.1364C60.2754 99.4678 60.2115 99.8383 60.2115 100.248C60.2115 100.665 60.2766 101.033 60.4068 101.352C60.537 101.67 60.7276 101.918 60.9786 102.098C61.2295 102.276 61.5349 102.364 61.8947 102.364ZM69.6282 100.915V97.5455H70.2603V103H69.6282V102.094H69.5784C69.4506 102.374 69.2482 102.607 68.9712 102.794C68.6942 102.979 68.3557 103.071 67.9556 103.071C67.6076 103.071 67.2986 102.995 67.0287 102.844C66.7588 102.69 66.547 102.465 66.3931 102.169C66.2392 101.873 66.1623 101.51 66.1623 101.079V97.5455H66.7944V101.04C66.7944 101.466 66.9198 101.809 67.1708 102.07C67.4217 102.328 67.7437 102.457 68.1367 102.457C68.3829 102.457 68.6196 102.397 68.8469 102.279C69.0742 102.161 69.2612 101.988 69.408 101.761C69.5548 101.531 69.6282 101.249 69.6282 100.915ZM72.8658 95.7273V103H72.2337V95.7273H72.8658ZM77.0437 103.114C76.5347 103.114 76.0943 102.995 75.7227 102.759C75.351 102.519 75.0633 102.189 74.8597 101.768C74.6585 101.344 74.5579 100.856 74.5579 100.305C74.5579 99.7554 74.6585 99.2678 74.8597 98.8416C75.0633 98.4131 75.3439 98.0781 75.7013 97.8366C76.0612 97.5928 76.4767 97.4709 76.9478 97.4709C77.2437 97.4709 77.529 97.5253 77.8036 97.6342C78.0782 97.7408 78.3245 97.9053 78.5423 98.1278C78.7624 98.348 78.9364 98.6262 79.0643 98.9624C79.1921 99.2962 79.256 99.6915 79.256 100.148V100.461H74.9947V99.9034H78.6097C78.6097 99.553 78.5387 99.2382 78.3967 98.9588C78.257 98.6771 78.0617 98.4545 77.8107 98.2912C77.5621 98.1278 77.2745 98.0462 76.9478 98.0462C76.6022 98.0462 76.2979 98.1385 76.0352 98.3232C75.7724 98.5078 75.5664 98.7517 75.4173 99.0547C75.2705 99.3577 75.1959 99.6892 75.1935 100.049V100.383C75.1935 100.816 75.2681 101.195 75.4173 101.519C75.5688 101.841 75.783 102.091 76.06 102.268C76.337 102.446 76.6649 102.535 77.0437 102.535C77.3017 102.535 77.5278 102.495 77.7219 102.414C77.9184 102.334 78.083 102.226 78.2156 102.091C78.3505 101.954 78.4523 101.803 78.521 101.64L79.1211 101.835C79.0382 102.065 78.9021 102.277 78.7127 102.471C78.5257 102.665 78.2913 102.821 78.0096 102.94C77.7302 103.056 77.4083 103.114 77.0437 103.114ZM80.949 103V97.5455H81.5633V98.3835H81.6095C81.7184 98.1089 81.9078 97.8875 82.1777 97.7195C82.4499 97.549 82.7577 97.4638 83.101 97.4638C83.153 97.4638 83.211 97.465 83.275 97.4673C83.3389 97.4697 83.3922 97.4721 83.4348 97.4744V98.1172C83.4064 98.1125 83.3566 98.1054 83.2856 98.0959C83.2146 98.0864 83.1377 98.0817 83.0548 98.0817C82.7707 98.0817 82.5174 98.142 82.2949 98.2628C82.0747 98.3812 81.9007 98.5457 81.7728 98.7564C81.645 98.9671 81.5811 99.2074 81.5811 99.4773V103H80.949Z" fill="#505050"/>
</svg>
