<svg width="22" height="19" viewBox="0 0 22 19" fill="none" xmlns="http://www.w3.org/2000/svg">
<path d="M19.3097 3.5303L19.3135 3.53453C20.8968 5.29125 20.7947 8.24842 18.9476 10.0877L18.9461 10.0892L11.3523 17.6829L11.3488 17.6865C11.3031 17.7326 11.2488 17.7692 11.189 17.7942C11.1291 17.8191 11.0649 17.832 11.0001 17.832C10.9352 17.832 10.871 17.8191 10.8112 17.7942C10.7513 17.7692 10.697 17.7326 10.6514 17.6865L10.6478 17.6829L2.85719 9.8923L2.85624 9.89136C2.41179 9.4481 2.06243 8.91884 1.82952 8.33595C1.5966 7.75305 1.48502 7.12878 1.50161 6.50129C1.5182 5.8738 1.6626 5.2563 1.92599 4.68652C2.18938 4.11675 2.56622 3.60669 3.03347 3.18753L3.03348 3.18754L3.03695 3.18439C4.79122 1.59576 7.74704 1.70268 9.58833 3.55188L9.58831 3.5519L9.59461 3.55812L10.2977 4.25187L11.0011 4.94587L11.7035 4.25083L12.6035 3.36021L12.6054 3.35826C13.0512 2.91472 13.5819 2.56573 14.1657 2.33219C14.7492 2.09879 15.3738 1.98551 16.0021 1.99915C16.6288 2.01428 17.2456 2.15792 17.8144 2.42117C18.3836 2.68456 18.8925 3.06207 19.3097 3.53029L19.3097 3.5303Z" stroke="#6999B8" stroke-width="2"/>
</svg>
