<svg width="51" height="51" viewBox="0 0 51 51" fill="none" xmlns="http://www.w3.org/2000/svg">
<mask id="path-1-inside-1_128_4120" fill="white">
<path d="M47.1149 19.5463C47.0461 19.3329 46.9181 19.1431 46.7457 18.9986C46.5733 18.8542 46.3635 18.7609 46.1402 18.7296L43.2153 18.3071C43.196 18.3025 43.1764 18.2987 43.1566 18.2958L41.0782 17.9956L38.8053 13.4183C38.7033 13.2173 38.5471 13.0484 38.3541 12.9304C38.1612 12.8125 37.9391 12.75 37.7126 12.75C37.4861 12.75 37.2641 12.8125 37.0712 12.9305C36.8782 13.0485 36.7221 13.2174 36.62 13.4183L34.3472 17.9956L32.2688 18.2958C32.2492 18.2986 32.2298 18.3024 32.2106 18.3071L29.8012 18.655L27.3371 13.6927C27.2188 13.4544 27.0358 13.2539 26.8089 13.1136C26.5819 12.9734 26.3199 12.8991 26.0527 12.8991C25.7854 12.8991 25.5235 12.9734 25.2965 13.1136C25.0695 13.2539 24.8865 13.4544 24.7682 13.6927L22.3155 18.6323L20.0639 18.3071C20.0447 18.3024 20.0251 18.2987 20.0053 18.2958L17.9269 17.9956L15.654 13.4184C15.552 13.2174 15.3958 13.0485 15.2029 12.9305C15.01 12.8125 14.7879 12.75 14.5614 12.75C14.3348 12.75 14.1128 12.8125 13.9198 12.9305C13.7269 13.0485 13.5707 13.2173 13.4687 13.4183L11.1958 17.9956L9.11749 18.2958C9.09791 18.2986 9.07849 18.3024 9.0593 18.3071L6.13385 18.7296C5.91091 18.7618 5.70148 18.8553 5.52924 18.9997C5.357 19.144 5.22882 19.3333 5.1592 19.5463C5.08958 19.7592 5.08129 19.9873 5.13527 20.2047C5.18926 20.4221 5.30336 20.6201 5.46468 20.7764L9.14219 24.3394L8.27398 29.3702C8.23528 29.591 8.25967 29.8182 8.34437 30.026C8.42908 30.2337 8.5707 30.4137 8.75316 30.5455C8.93561 30.6772 9.15159 30.7555 9.37656 30.7714C9.60153 30.7872 9.82646 30.7401 10.0258 30.6353L14.5614 28.2652L18.5116 30.3293L17.5971 35.6293C17.5519 35.8912 17.5813 36.1603 17.6819 36.4064C17.7826 36.6525 17.9506 36.8657 18.1668 37.0218C18.383 37.178 18.6389 37.2709 18.9055 37.29C19.1721 37.3092 19.4387 37.2538 19.6753 37.1302L25.9575 33.8475C25.9869 33.8321 26.0195 33.8241 26.0527 33.8241C26.0859 33.8241 26.1185 33.8321 26.1478 33.8475L32.43 37.1302C32.6666 37.2538 32.9332 37.3092 33.1998 37.29C33.4664 37.2709 33.7223 37.178 33.9385 37.0218C34.1547 36.8657 34.3227 36.6525 34.4234 36.4065C34.5241 36.1604 34.5535 35.8912 34.5083 35.6294L33.6076 30.4098L37.7127 28.2652L42.2483 30.6353C42.4478 30.7394 42.6725 30.7861 42.8972 30.7699C43.1219 30.7538 43.3376 30.6755 43.5198 30.5439C43.702 30.4122 43.8436 30.2326 43.9285 30.0252C44.0133 29.8177 44.0381 29.5909 44 29.3702L43.132 24.3393L46.8095 20.7764C46.9715 20.6206 47.0861 20.4225 47.1402 20.205C47.1942 19.9874 47.1854 19.7591 47.1149 19.5463V19.5463ZM18.7968 28.6766L18.7298 29.0647L15.1132 27.1749C14.9459 27.0879 14.7604 27.0409 14.5715 27.0377C14.5648 27.0376 14.5579 27.0376 14.5512 27.0377C14.3624 27.0409 14.1769 27.0878 14.0095 27.1749L9.49108 29.536L10.3541 24.535C10.3872 24.3433 10.3728 24.1464 10.3123 23.9614C10.2518 23.7763 10.147 23.6087 10.0068 23.4729L6.35134 19.9313L9.29493 19.5061C9.31451 19.5033 9.33393 19.4995 9.35312 19.4948L11.383 19.2016C11.5767 19.1737 11.7607 19.0994 11.9191 18.985C12.0775 18.8706 12.2055 18.7197 12.2921 18.5452L14.5614 13.9751L16.8306 18.5451C16.9172 18.7196 17.0452 18.8705 17.2036 18.9849C17.362 19.0993 17.546 19.1737 17.7397 19.2016L19.7691 19.4947C19.7884 19.4994 19.8079 19.5033 19.8278 19.5061L21.7441 19.7829L21.6271 20.0185C21.6125 20.0481 21.5908 20.0737 21.5639 20.0931C21.5371 20.1124 21.5059 20.1251 21.4731 20.1298L14.4494 21.1442C14.1849 21.1824 13.9364 21.2934 13.7321 21.4646C13.5278 21.6359 13.3757 21.8605 13.2931 22.1131C13.2105 22.3658 13.2007 22.6364 13.2647 22.8943C13.3288 23.1522 13.4641 23.3871 13.6555 23.5726L18.7381 28.4967C18.7618 28.5197 18.7795 28.5481 18.7898 28.5794C18.8 28.6108 18.8024 28.6441 18.7968 28.6766V28.6766ZM33.2168 36.0346C33.1863 36.0578 33.1497 36.0717 33.1114 36.0744C33.0731 36.0772 33.0349 36.0687 33.0014 36.0501L26.7193 32.7675C26.5137 32.66 26.2849 32.6038 26.0527 32.6038C25.8204 32.6037 25.5916 32.6599 25.3861 32.7674L19.1041 36.0501C19.0702 36.0677 19.0321 36.0756 18.9941 36.0729C18.956 36.0702 18.9194 36.0569 18.8885 36.0346C18.8576 36.0123 18.8336 35.9818 18.8192 35.9467C18.8048 35.9115 18.8006 35.8731 18.807 35.8356L20.0068 28.8829C20.0461 28.6554 20.0292 28.4218 19.9574 28.2023C19.8856 27.9827 19.7612 27.7838 19.5949 27.6227L14.5125 22.6988C14.4852 22.6723 14.4658 22.6387 14.4567 22.6019C14.4475 22.565 14.4489 22.5264 14.4607 22.4903C14.4725 22.4542 14.4942 22.4221 14.5234 22.3976C14.5526 22.3731 14.5881 22.3573 14.6259 22.3518L21.6497 21.3374C21.8795 21.3042 22.0977 21.216 22.2856 21.0803C22.4735 20.9446 22.6253 20.7656 22.7281 20.5586L25.8692 14.2327C25.8861 14.1987 25.9122 14.17 25.9447 14.15C25.9771 14.13 26.0145 14.1193 26.0527 14.1193C26.0909 14.1193 26.1283 14.13 26.1607 14.15C26.1931 14.17 26.2193 14.1987 26.2362 14.2327L29.3772 20.5585C29.4799 20.7655 29.6318 20.9446 29.8197 21.0803C30.0076 21.216 30.2259 21.3042 30.4558 21.3374L37.4794 22.3518C37.5172 22.3573 37.5527 22.3731 37.5818 22.3976C37.611 22.4221 37.6327 22.4542 37.6445 22.4903C37.6563 22.5263 37.6577 22.565 37.6486 22.6018C37.6394 22.6387 37.6201 22.6722 37.5927 22.6987L32.5104 27.6227C32.3441 27.7838 32.2197 27.9827 32.1479 28.2022C32.0762 28.4218 32.0592 28.6553 32.0985 28.8828L32.3229 30.1833C32.3232 30.185 32.3234 30.1866 32.3237 30.1883L33.2982 35.8356C33.3057 35.8731 33.302 35.9119 33.2875 35.9472C33.273 35.9826 33.2484 36.0129 33.2168 36.0346V36.0346ZM42.2674 23.4729C42.1271 23.6087 42.0223 23.7763 41.9618 23.9613C41.9013 24.1464 41.887 24.3433 41.9202 24.5351L42.783 29.536L38.2646 27.1749C38.0973 27.0879 37.9117 27.0409 37.7229 27.0377C37.7161 27.0376 37.7093 27.0376 37.7026 27.0377C37.5137 27.0409 37.3283 27.0878 37.1609 27.1749L33.3894 29.1452L33.3085 28.6767C33.3029 28.6442 33.3053 28.6108 33.3156 28.5794C33.3258 28.548 33.3436 28.5196 33.3674 28.4966L38.4497 23.5726C38.6411 23.3871 38.7765 23.1522 38.8406 22.8943C38.9046 22.6364 38.8948 22.3658 38.8122 22.1131C38.7296 21.8605 38.5776 21.6358 38.3732 21.4646C38.1689 21.2934 37.9204 21.1824 37.6559 21.1442L30.6323 20.1298C30.5995 20.1251 30.5683 20.1125 30.5414 20.0931C30.5146 20.0737 30.4929 20.0481 30.4782 20.0185L30.3725 19.8056L32.4463 19.5061C32.4658 19.5033 32.4853 19.4995 32.5045 19.4948L34.5343 19.2016C34.728 19.1737 34.912 19.0994 35.0704 18.985C35.2288 18.8706 35.3568 18.7197 35.4434 18.5452L37.7127 13.975L39.9819 18.5451C40.0685 18.7196 40.1965 18.8705 40.3549 18.9849C40.5133 19.0993 40.6973 19.1737 40.8911 19.2016L42.9204 19.4947C42.9397 19.4994 42.9592 19.5033 42.9792 19.5061L45.9228 19.9313L42.2674 23.4729Z"/>
</mask>
<path d="M47.1149 19.5463C47.0461 19.3329 46.9181 19.1431 46.7457 18.9986C46.5733 18.8542 46.3635 18.7609 46.1402 18.7296L43.2153 18.3071C43.196 18.3025 43.1764 18.2987 43.1566 18.2958L41.0782 17.9956L38.8053 13.4183C38.7033 13.2173 38.5471 13.0484 38.3541 12.9304C38.1612 12.8125 37.9391 12.75 37.7126 12.75C37.4861 12.75 37.2641 12.8125 37.0712 12.9305C36.8782 13.0485 36.7221 13.2174 36.62 13.4183L34.3472 17.9956L32.2688 18.2958C32.2492 18.2986 32.2298 18.3024 32.2106 18.3071L29.8012 18.655L27.3371 13.6927C27.2188 13.4544 27.0358 13.2539 26.8089 13.1136C26.5819 12.9734 26.3199 12.8991 26.0527 12.8991C25.7854 12.8991 25.5235 12.9734 25.2965 13.1136C25.0695 13.2539 24.8865 13.4544 24.7682 13.6927L22.3155 18.6323L20.0639 18.3071C20.0447 18.3024 20.0251 18.2987 20.0053 18.2958L17.9269 17.9956L15.654 13.4184C15.552 13.2174 15.3958 13.0485 15.2029 12.9305C15.01 12.8125 14.7879 12.75 14.5614 12.75C14.3348 12.75 14.1128 12.8125 13.9198 12.9305C13.7269 13.0485 13.5707 13.2173 13.4687 13.4183L11.1958 17.9956L9.11749 18.2958C9.09791 18.2986 9.07849 18.3024 9.0593 18.3071L6.13385 18.7296C5.91091 18.7618 5.70148 18.8553 5.52924 18.9997C5.357 19.144 5.22882 19.3333 5.1592 19.5463C5.08958 19.7592 5.08129 19.9873 5.13527 20.2047C5.18926 20.4221 5.30336 20.6201 5.46468 20.7764L9.14219 24.3394L8.27398 29.3702C8.23528 29.591 8.25967 29.8182 8.34437 30.026C8.42908 30.2337 8.5707 30.4137 8.75316 30.5455C8.93561 30.6772 9.15159 30.7555 9.37656 30.7714C9.60153 30.7872 9.82646 30.7401 10.0258 30.6353L14.5614 28.2652L18.5116 30.3293L17.5971 35.6293C17.5519 35.8912 17.5813 36.1603 17.6819 36.4064C17.7826 36.6525 17.9506 36.8657 18.1668 37.0218C18.383 37.178 18.6389 37.2709 18.9055 37.29C19.1721 37.3092 19.4387 37.2538 19.6753 37.1302L25.9575 33.8475C25.9869 33.8321 26.0195 33.8241 26.0527 33.8241C26.0859 33.8241 26.1185 33.8321 26.1478 33.8475L32.43 37.1302C32.6666 37.2538 32.9332 37.3092 33.1998 37.29C33.4664 37.2709 33.7223 37.178 33.9385 37.0218C34.1547 36.8657 34.3227 36.6525 34.4234 36.4065C34.5241 36.1604 34.5535 35.8912 34.5083 35.6294L33.6076 30.4098L37.7127 28.2652L42.2483 30.6353C42.4478 30.7394 42.6725 30.7861 42.8972 30.7699C43.1219 30.7538 43.3376 30.6755 43.5198 30.5439C43.702 30.4122 43.8436 30.2326 43.9285 30.0252C44.0133 29.8177 44.0381 29.5909 44 29.3702L43.132 24.3393L46.8095 20.7764C46.9715 20.6206 47.0861 20.4225 47.1402 20.205C47.1942 19.9874 47.1854 19.7591 47.1149 19.5463V19.5463ZM18.7968 28.6766L18.7298 29.0647L15.1132 27.1749C14.9459 27.0879 14.7604 27.0409 14.5715 27.0377C14.5648 27.0376 14.5579 27.0376 14.5512 27.0377C14.3624 27.0409 14.1769 27.0878 14.0095 27.1749L9.49108 29.536L10.3541 24.535C10.3872 24.3433 10.3728 24.1464 10.3123 23.9614C10.2518 23.7763 10.147 23.6087 10.0068 23.4729L6.35134 19.9313L9.29493 19.5061C9.31451 19.5033 9.33393 19.4995 9.35312 19.4948L11.383 19.2016C11.5767 19.1737 11.7607 19.0994 11.9191 18.985C12.0775 18.8706 12.2055 18.7197 12.2921 18.5452L14.5614 13.9751L16.8306 18.5451C16.9172 18.7196 17.0452 18.8705 17.2036 18.9849C17.362 19.0993 17.546 19.1737 17.7397 19.2016L19.7691 19.4947C19.7884 19.4994 19.8079 19.5033 19.8278 19.5061L21.7441 19.7829L21.6271 20.0185C21.6125 20.0481 21.5908 20.0737 21.5639 20.0931C21.5371 20.1124 21.5059 20.1251 21.4731 20.1298L14.4494 21.1442C14.1849 21.1824 13.9364 21.2934 13.7321 21.4646C13.5278 21.6359 13.3757 21.8605 13.2931 22.1131C13.2105 22.3658 13.2007 22.6364 13.2647 22.8943C13.3288 23.1522 13.4641 23.3871 13.6555 23.5726L18.7381 28.4967C18.7618 28.5197 18.7795 28.5481 18.7898 28.5794C18.8 28.6108 18.8024 28.6441 18.7968 28.6766V28.6766ZM33.2168 36.0346C33.1863 36.0578 33.1497 36.0717 33.1114 36.0744C33.0731 36.0772 33.0349 36.0687 33.0014 36.0501L26.7193 32.7675C26.5137 32.66 26.2849 32.6038 26.0527 32.6038C25.8204 32.6037 25.5916 32.6599 25.3861 32.7674L19.1041 36.0501C19.0702 36.0677 19.0321 36.0756 18.9941 36.0729C18.956 36.0702 18.9194 36.0569 18.8885 36.0346C18.8576 36.0123 18.8336 35.9818 18.8192 35.9467C18.8048 35.9115 18.8006 35.8731 18.807 35.8356L20.0068 28.8829C20.0461 28.6554 20.0292 28.4218 19.9574 28.2023C19.8856 27.9827 19.7612 27.7838 19.5949 27.6227L14.5125 22.6988C14.4852 22.6723 14.4658 22.6387 14.4567 22.6019C14.4475 22.565 14.4489 22.5264 14.4607 22.4903C14.4725 22.4542 14.4942 22.4221 14.5234 22.3976C14.5526 22.3731 14.5881 22.3573 14.6259 22.3518L21.6497 21.3374C21.8795 21.3042 22.0977 21.216 22.2856 21.0803C22.4735 20.9446 22.6253 20.7656 22.7281 20.5586L25.8692 14.2327C25.8861 14.1987 25.9122 14.17 25.9447 14.15C25.9771 14.13 26.0145 14.1193 26.0527 14.1193C26.0909 14.1193 26.1283 14.13 26.1607 14.15C26.1931 14.17 26.2193 14.1987 26.2362 14.2327L29.3772 20.5585C29.4799 20.7655 29.6318 20.9446 29.8197 21.0803C30.0076 21.216 30.2259 21.3042 30.4558 21.3374L37.4794 22.3518C37.5172 22.3573 37.5527 22.3731 37.5818 22.3976C37.611 22.4221 37.6327 22.4542 37.6445 22.4903C37.6563 22.5263 37.6577 22.565 37.6486 22.6018C37.6394 22.6387 37.6201 22.6722 37.5927 22.6987L32.5104 27.6227C32.3441 27.7838 32.2197 27.9827 32.1479 28.2022C32.0762 28.4218 32.0592 28.6553 32.0985 28.8828L32.3229 30.1833C32.3232 30.185 32.3234 30.1866 32.3237 30.1883L33.2982 35.8356C33.3057 35.8731 33.302 35.9119 33.2875 35.9472C33.273 35.9826 33.2484 36.0129 33.2168 36.0346V36.0346ZM42.2674 23.4729C42.1271 23.6087 42.0223 23.7763 41.9618 23.9613C41.9013 24.1464 41.887 24.3433 41.9202 24.5351L42.783 29.536L38.2646 27.1749C38.0973 27.0879 37.9117 27.0409 37.7229 27.0377C37.7161 27.0376 37.7093 27.0376 37.7026 27.0377C37.5137 27.0409 37.3283 27.0878 37.1609 27.1749L33.3894 29.1452L33.3085 28.6767C33.3029 28.6442 33.3053 28.6108 33.3156 28.5794C33.3258 28.548 33.3436 28.5196 33.3674 28.4966L38.4497 23.5726C38.6411 23.3871 38.7765 23.1522 38.8406 22.8943C38.9046 22.6364 38.8948 22.3658 38.8122 22.1131C38.7296 21.8605 38.5776 21.6358 38.3732 21.4646C38.1689 21.2934 37.9204 21.1824 37.6559 21.1442L30.6323 20.1298C30.5995 20.1251 30.5683 20.1125 30.5414 20.0931C30.5146 20.0737 30.4929 20.0481 30.4782 20.0185L30.3725 19.8056L32.4463 19.5061C32.4658 19.5033 32.4853 19.4995 32.5045 19.4948L34.5343 19.2016C34.728 19.1737 34.912 19.0994 35.0704 18.985C35.2288 18.8706 35.3568 18.7197 35.4434 18.5452L37.7127 13.975L39.9819 18.5451C40.0685 18.7196 40.1965 18.8705 40.3549 18.9849C40.5133 19.0993 40.6973 19.1737 40.8911 19.2016L42.9204 19.4947C42.9397 19.4994 42.9592 19.5033 42.9792 19.5061L45.9228 19.9313L42.2674 23.4729Z" stroke="#505050" stroke-width="2" mask="url(#path-1-inside-1_128_4120)"/>
</svg>
