<svg width="51" height="51" viewBox="0 0 51 51" fill="none" xmlns="http://www.w3.org/2000/svg">
<mask id="path-1-inside-1_128_5088" fill="white">
<path d="M47.1148 19.5463C47.0459 19.3329 46.918 19.1431 46.7456 18.9986C46.5732 18.8542 46.3634 18.7609 46.1401 18.7296L43.2151 18.3071C43.1959 18.3025 43.1763 18.2987 43.1565 18.2958L41.078 17.9956L38.8052 13.4183C38.7031 13.2173 38.5469 13.0484 38.354 12.9304C38.1611 12.8125 37.939 12.75 37.7125 12.75C37.486 12.75 37.2639 12.8125 37.071 12.9305C36.8781 13.0485 36.7219 13.2174 36.6199 13.4183L34.3471 17.9956L32.2687 18.2958C32.2491 18.2986 32.2297 18.3024 32.2105 18.3071L29.8011 18.655L27.337 13.6927C27.2187 13.4544 27.0357 13.2539 26.8087 13.1136C26.5818 12.9734 26.3198 12.8991 26.0526 12.8991C25.7853 12.8991 25.5234 12.9734 25.2964 13.1136C25.0694 13.2539 24.8864 13.4544 24.7681 13.6927L22.3153 18.6323L20.0638 18.3071C20.0446 18.3024 20.025 18.2987 20.0051 18.2958L17.9268 17.9956L15.6539 13.4184C15.5518 13.2174 15.3957 13.0485 15.2028 12.9305C15.0098 12.8125 14.7878 12.75 14.5612 12.75C14.3347 12.75 14.1126 12.8125 13.9197 12.9305C13.7268 13.0485 13.5706 13.2173 13.4685 13.4183L11.1957 17.9956L9.11737 18.2958C9.09779 18.2986 9.07837 18.3024 9.05918 18.3071L6.13373 18.7296C5.91079 18.7618 5.70136 18.8553 5.52912 18.9997C5.35688 19.144 5.2287 19.3333 5.15908 19.5463C5.08946 19.7592 5.08117 19.9873 5.13515 20.2047C5.18914 20.4221 5.30324 20.6201 5.46455 20.7764L9.14207 24.3394L8.27386 29.3702C8.23516 29.591 8.25955 29.8182 8.34425 30.026C8.42895 30.2337 8.57058 30.4137 8.75303 30.5455C8.93549 30.6772 9.15147 30.7555 9.37644 30.7714C9.6014 30.7872 9.82634 30.7401 10.0257 30.6353L14.5613 28.2652L18.5115 30.3293L17.5969 35.6293C17.5517 35.8912 17.5811 36.1603 17.6818 36.4064C17.7825 36.6525 17.9505 36.8657 18.1667 37.0218C18.3829 37.178 18.6388 37.2709 18.9054 37.29C19.172 37.3092 19.4386 37.2538 19.6752 37.1302L25.9574 33.8475C25.9867 33.8321 26.0194 33.8241 26.0526 33.8241C26.0857 33.8241 26.1184 33.8321 26.1477 33.8475L32.4299 37.1302C32.6665 37.2538 32.9331 37.3092 33.1997 37.29C33.4663 37.2709 33.7221 37.178 33.9384 37.0218C34.1546 36.8657 34.3225 36.6525 34.4232 36.4065C34.5239 36.1604 34.5534 35.8912 34.5082 35.6294L33.6075 30.4098L37.7126 28.2652L42.2482 30.6353C42.4476 30.7394 42.6724 30.7861 42.8971 30.7699C43.1218 30.7538 43.3374 30.6755 43.5197 30.5439C43.7019 30.4122 43.8435 30.2326 43.9284 30.0252C44.0132 29.8177 44.038 29.5909 43.9999 29.3702L43.1319 24.3393L46.8094 20.7764C46.9714 20.6206 47.086 20.4225 47.14 20.205C47.194 19.9874 47.1853 19.7591 47.1148 19.5463V19.5463ZM18.7967 28.6766L18.7297 29.0647L15.1131 27.1749C14.9458 27.0879 14.7603 27.0409 14.5714 27.0377C14.5647 27.0376 14.5578 27.0376 14.5511 27.0377C14.3623 27.0409 14.1768 27.0878 14.0094 27.1749L9.49096 29.536L10.354 24.535C10.387 24.3433 10.3727 24.1464 10.3122 23.9614C10.2517 23.7763 10.1469 23.6087 10.0067 23.4729L6.35122 19.9313L9.29481 19.5061C9.31439 19.5033 9.33381 19.4995 9.353 19.4948L11.3828 19.2016C11.5766 19.1737 11.7606 19.0994 11.919 18.985C12.0773 18.8706 12.2053 18.7197 12.292 18.5452L14.5613 13.9751L16.8305 18.5451C16.9171 18.7196 17.0451 18.8705 17.2035 18.9849C17.3619 19.0993 17.5459 19.1737 17.7396 19.2016L19.769 19.4947C19.7883 19.4994 19.8078 19.5033 19.8277 19.5061L21.744 19.7829L21.627 20.0185C21.6123 20.0481 21.5906 20.0737 21.5638 20.0931C21.537 20.1124 21.5058 20.1251 21.473 20.1298L14.4493 21.1442C14.1848 21.1824 13.9363 21.2934 13.732 21.4646C13.5276 21.6359 13.3756 21.8605 13.293 22.1131C13.2104 22.3658 13.2006 22.6364 13.2646 22.8943C13.3287 23.1522 13.464 23.3871 13.6554 23.5726L18.7379 28.4967C18.7617 28.5197 18.7794 28.5481 18.7896 28.5794C18.7999 28.6108 18.8023 28.6441 18.7967 28.6766V28.6766ZM33.2167 36.0346C33.1862 36.0578 33.1496 36.0717 33.1113 36.0744C33.073 36.0772 33.0347 36.0687 33.0013 36.0501L26.7191 32.7675C26.5136 32.66 26.2848 32.6038 26.0526 32.6038C25.8203 32.6037 25.5915 32.6599 25.386 32.7674L19.1039 36.0501C19.0701 36.0677 19.032 36.0756 18.9939 36.0729C18.9558 36.0702 18.9193 36.0569 18.8884 36.0346C18.8575 36.0123 18.8335 35.9818 18.8191 35.9467C18.8047 35.9115 18.8005 35.8731 18.8069 35.8356L20.0067 28.8829C20.046 28.6554 20.029 28.4218 19.9573 28.2023C19.8855 27.9827 19.7611 27.7838 19.5948 27.6227L14.5124 22.6988C14.4851 22.6723 14.4657 22.6387 14.4566 22.6019C14.4474 22.565 14.4488 22.5264 14.4606 22.4903C14.4724 22.4542 14.4941 22.4221 14.5233 22.3976C14.5525 22.3731 14.588 22.3573 14.6258 22.3518L21.6496 21.3374C21.8794 21.3042 22.0976 21.216 22.2855 21.0803C22.4733 20.9446 22.6252 20.7656 22.728 20.5586L25.8691 14.2327C25.886 14.1987 25.9121 14.17 25.9445 14.15C25.977 14.13 26.0144 14.1193 26.0526 14.1193C26.0907 14.1193 26.1281 14.13 26.1606 14.15C26.193 14.17 26.2191 14.1987 26.236 14.2327L29.3771 20.5585C29.4798 20.7655 29.6317 20.9446 29.8196 21.0803C30.0075 21.216 30.2258 21.3042 30.4556 21.3374L37.4793 22.3518C37.517 22.3573 37.5525 22.3731 37.5817 22.3976C37.6109 22.4221 37.6326 22.4542 37.6444 22.4903C37.6562 22.5263 37.6576 22.565 37.6484 22.6018C37.6393 22.6387 37.6199 22.6722 37.5926 22.6987L32.5102 27.6227C32.3439 27.7838 32.2196 27.9827 32.1478 28.2022C32.0761 28.4218 32.0591 28.6553 32.0984 28.8828L32.3228 30.1833C32.3231 30.185 32.3233 30.1866 32.3236 30.1883L33.2981 35.8356C33.3056 35.8731 33.3018 35.9119 33.2874 35.9472C33.2729 35.9826 33.2483 36.0129 33.2167 36.0346V36.0346ZM42.2672 23.4729C42.127 23.6087 42.0221 23.7763 41.9616 23.9613C41.9011 24.1464 41.8869 24.3433 41.92 24.5351L42.7829 29.536L38.2645 27.1749C38.0971 27.0879 37.9116 27.0409 37.7227 27.0377C37.716 27.0376 37.7091 27.0376 37.7024 27.0377C37.5136 27.0409 37.3281 27.0878 37.1608 27.1749L33.3893 29.1452L33.3084 28.6767C33.3028 28.6442 33.3052 28.6108 33.3154 28.5794C33.3257 28.548 33.3435 28.5196 33.3673 28.4966L38.4496 23.5726C38.641 23.3871 38.7764 23.1522 38.8405 22.8943C38.9045 22.6364 38.8947 22.3658 38.8121 22.1131C38.7295 21.8605 38.5774 21.6358 38.3731 21.4646C38.1687 21.2934 37.9203 21.1824 37.6558 21.1442L30.6322 20.1298C30.5994 20.1251 30.5682 20.1125 30.5413 20.0931C30.5145 20.0737 30.4928 20.0481 30.4781 20.0185L30.3723 19.8056L32.4461 19.5061C32.4657 19.5033 32.4851 19.4995 32.5043 19.4948L34.5342 19.2016C34.7279 19.1737 34.9119 19.0994 35.0703 18.985C35.2287 18.8706 35.3567 18.7197 35.4433 18.5452L37.7126 13.975L39.9818 18.5451C40.0684 18.7196 40.1964 18.8705 40.3548 18.9849C40.5132 19.0993 40.6972 19.1737 40.8909 19.2016L42.9203 19.4947C42.9396 19.4994 42.9591 19.5033 42.979 19.5061L45.9227 19.9313L42.2672 23.4729Z"/>
</mask>
<path d="M47.1148 19.5463C47.0459 19.3329 46.918 19.1431 46.7456 18.9986C46.5732 18.8542 46.3634 18.7609 46.1401 18.7296L43.2151 18.3071C43.1959 18.3025 43.1763 18.2987 43.1565 18.2958L41.078 17.9956L38.8052 13.4183C38.7031 13.2173 38.5469 13.0484 38.354 12.9304C38.1611 12.8125 37.939 12.75 37.7125 12.75C37.486 12.75 37.2639 12.8125 37.071 12.9305C36.8781 13.0485 36.7219 13.2174 36.6199 13.4183L34.3471 17.9956L32.2687 18.2958C32.2491 18.2986 32.2297 18.3024 32.2105 18.3071L29.8011 18.655L27.337 13.6927C27.2187 13.4544 27.0357 13.2539 26.8087 13.1136C26.5818 12.9734 26.3198 12.8991 26.0526 12.8991C25.7853 12.8991 25.5234 12.9734 25.2964 13.1136C25.0694 13.2539 24.8864 13.4544 24.7681 13.6927L22.3153 18.6323L20.0638 18.3071C20.0446 18.3024 20.025 18.2987 20.0051 18.2958L17.9268 17.9956L15.6539 13.4184C15.5518 13.2174 15.3957 13.0485 15.2028 12.9305C15.0098 12.8125 14.7878 12.75 14.5612 12.75C14.3347 12.75 14.1126 12.8125 13.9197 12.9305C13.7268 13.0485 13.5706 13.2173 13.4685 13.4183L11.1957 17.9956L9.11737 18.2958C9.09779 18.2986 9.07837 18.3024 9.05918 18.3071L6.13373 18.7296C5.91079 18.7618 5.70136 18.8553 5.52912 18.9997C5.35688 19.144 5.2287 19.3333 5.15908 19.5463C5.08946 19.7592 5.08117 19.9873 5.13515 20.2047C5.18914 20.4221 5.30324 20.6201 5.46455 20.7764L9.14207 24.3394L8.27386 29.3702C8.23516 29.591 8.25955 29.8182 8.34425 30.026C8.42895 30.2337 8.57058 30.4137 8.75303 30.5455C8.93549 30.6772 9.15147 30.7555 9.37644 30.7714C9.6014 30.7872 9.82634 30.7401 10.0257 30.6353L14.5613 28.2652L18.5115 30.3293L17.5969 35.6293C17.5517 35.8912 17.5811 36.1603 17.6818 36.4064C17.7825 36.6525 17.9505 36.8657 18.1667 37.0218C18.3829 37.178 18.6388 37.2709 18.9054 37.29C19.172 37.3092 19.4386 37.2538 19.6752 37.1302L25.9574 33.8475C25.9867 33.8321 26.0194 33.8241 26.0526 33.8241C26.0857 33.8241 26.1184 33.8321 26.1477 33.8475L32.4299 37.1302C32.6665 37.2538 32.9331 37.3092 33.1997 37.29C33.4663 37.2709 33.7221 37.178 33.9384 37.0218C34.1546 36.8657 34.3225 36.6525 34.4232 36.4065C34.5239 36.1604 34.5534 35.8912 34.5082 35.6294L33.6075 30.4098L37.7126 28.2652L42.2482 30.6353C42.4476 30.7394 42.6724 30.7861 42.8971 30.7699C43.1218 30.7538 43.3374 30.6755 43.5197 30.5439C43.7019 30.4122 43.8435 30.2326 43.9284 30.0252C44.0132 29.8177 44.038 29.5909 43.9999 29.3702L43.1319 24.3393L46.8094 20.7764C46.9714 20.6206 47.086 20.4225 47.14 20.205C47.194 19.9874 47.1853 19.7591 47.1148 19.5463V19.5463ZM18.7967 28.6766L18.7297 29.0647L15.1131 27.1749C14.9458 27.0879 14.7603 27.0409 14.5714 27.0377C14.5647 27.0376 14.5578 27.0376 14.5511 27.0377C14.3623 27.0409 14.1768 27.0878 14.0094 27.1749L9.49096 29.536L10.354 24.535C10.387 24.3433 10.3727 24.1464 10.3122 23.9614C10.2517 23.7763 10.1469 23.6087 10.0067 23.4729L6.35122 19.9313L9.29481 19.5061C9.31439 19.5033 9.33381 19.4995 9.353 19.4948L11.3828 19.2016C11.5766 19.1737 11.7606 19.0994 11.919 18.985C12.0773 18.8706 12.2053 18.7197 12.292 18.5452L14.5613 13.9751L16.8305 18.5451C16.9171 18.7196 17.0451 18.8705 17.2035 18.9849C17.3619 19.0993 17.5459 19.1737 17.7396 19.2016L19.769 19.4947C19.7883 19.4994 19.8078 19.5033 19.8277 19.5061L21.744 19.7829L21.627 20.0185C21.6123 20.0481 21.5906 20.0737 21.5638 20.0931C21.537 20.1124 21.5058 20.1251 21.473 20.1298L14.4493 21.1442C14.1848 21.1824 13.9363 21.2934 13.732 21.4646C13.5276 21.6359 13.3756 21.8605 13.293 22.1131C13.2104 22.3658 13.2006 22.6364 13.2646 22.8943C13.3287 23.1522 13.464 23.3871 13.6554 23.5726L18.7379 28.4967C18.7617 28.5197 18.7794 28.5481 18.7896 28.5794C18.7999 28.6108 18.8023 28.6441 18.7967 28.6766V28.6766ZM33.2167 36.0346C33.1862 36.0578 33.1496 36.0717 33.1113 36.0744C33.073 36.0772 33.0347 36.0687 33.0013 36.0501L26.7191 32.7675C26.5136 32.66 26.2848 32.6038 26.0526 32.6038C25.8203 32.6037 25.5915 32.6599 25.386 32.7674L19.1039 36.0501C19.0701 36.0677 19.032 36.0756 18.9939 36.0729C18.9558 36.0702 18.9193 36.0569 18.8884 36.0346C18.8575 36.0123 18.8335 35.9818 18.8191 35.9467C18.8047 35.9115 18.8005 35.8731 18.8069 35.8356L20.0067 28.8829C20.046 28.6554 20.029 28.4218 19.9573 28.2023C19.8855 27.9827 19.7611 27.7838 19.5948 27.6227L14.5124 22.6988C14.4851 22.6723 14.4657 22.6387 14.4566 22.6019C14.4474 22.565 14.4488 22.5264 14.4606 22.4903C14.4724 22.4542 14.4941 22.4221 14.5233 22.3976C14.5525 22.3731 14.588 22.3573 14.6258 22.3518L21.6496 21.3374C21.8794 21.3042 22.0976 21.216 22.2855 21.0803C22.4733 20.9446 22.6252 20.7656 22.728 20.5586L25.8691 14.2327C25.886 14.1987 25.9121 14.17 25.9445 14.15C25.977 14.13 26.0144 14.1193 26.0526 14.1193C26.0907 14.1193 26.1281 14.13 26.1606 14.15C26.193 14.17 26.2191 14.1987 26.236 14.2327L29.3771 20.5585C29.4798 20.7655 29.6317 20.9446 29.8196 21.0803C30.0075 21.216 30.2258 21.3042 30.4556 21.3374L37.4793 22.3518C37.517 22.3573 37.5525 22.3731 37.5817 22.3976C37.6109 22.4221 37.6326 22.4542 37.6444 22.4903C37.6562 22.5263 37.6576 22.565 37.6484 22.6018C37.6393 22.6387 37.6199 22.6722 37.5926 22.6987L32.5102 27.6227C32.3439 27.7838 32.2196 27.9827 32.1478 28.2022C32.0761 28.4218 32.0591 28.6553 32.0984 28.8828L32.3228 30.1833C32.3231 30.185 32.3233 30.1866 32.3236 30.1883L33.2981 35.8356C33.3056 35.8731 33.3018 35.9119 33.2874 35.9472C33.2729 35.9826 33.2483 36.0129 33.2167 36.0346V36.0346ZM42.2672 23.4729C42.127 23.6087 42.0221 23.7763 41.9616 23.9613C41.9011 24.1464 41.8869 24.3433 41.92 24.5351L42.7829 29.536L38.2645 27.1749C38.0971 27.0879 37.9116 27.0409 37.7227 27.0377C37.716 27.0376 37.7091 27.0376 37.7024 27.0377C37.5136 27.0409 37.3281 27.0878 37.1608 27.1749L33.3893 29.1452L33.3084 28.6767C33.3028 28.6442 33.3052 28.6108 33.3154 28.5794C33.3257 28.548 33.3435 28.5196 33.3673 28.4966L38.4496 23.5726C38.641 23.3871 38.7764 23.1522 38.8405 22.8943C38.9045 22.6364 38.8947 22.3658 38.8121 22.1131C38.7295 21.8605 38.5774 21.6358 38.3731 21.4646C38.1687 21.2934 37.9203 21.1824 37.6558 21.1442L30.6322 20.1298C30.5994 20.1251 30.5682 20.1125 30.5413 20.0931C30.5145 20.0737 30.4928 20.0481 30.4781 20.0185L30.3723 19.8056L32.4461 19.5061C32.4657 19.5033 32.4851 19.4995 32.5043 19.4948L34.5342 19.2016C34.7279 19.1737 34.9119 19.0994 35.0703 18.985C35.2287 18.8706 35.3567 18.7197 35.4433 18.5452L37.7126 13.975L39.9818 18.5451C40.0684 18.7196 40.1964 18.8705 40.3548 18.9849C40.5132 19.0993 40.6972 19.1737 40.8909 19.2016L42.9203 19.4947C42.9396 19.4994 42.9591 19.5033 42.979 19.5061L45.9227 19.9313L42.2672 23.4729Z" fill="white" stroke="white" stroke-width="2" mask="url(#path-1-inside-1_128_5088)"/>
</svg>
