<svg width="184" height="110" viewBox="0 0 184 110" fill="none" xmlns="http://www.w3.org/2000/svg">
<g clip-path="url(#clip0_103_3122)">
<rect y="0.5" width="184" height="109" rx="8" fill="white"/>
<path fill-rule="evenodd" clip-rule="evenodd" d="M100.601 14.9326C108.318 14.7003 117.335 11.4171 122.798 16.8738C128.261 22.3312 124.35 31.3604 124.766 39.0712C125.228 47.6308 129.798 56.486 125.331 63.8018C120.122 72.3326 110.548 77.6742 100.601 78.6476C89.7184 79.7126 77.5368 77.5398 70.5048 69.167C63.7612 61.1376 65.501 49.3904 67.3618 39.0712C68.8542 30.7944 72.895 23.113 79.7002 18.1709C85.6302 13.8644 93.275 15.1531 100.601 14.9326Z" fill="url(#paint0_linear_103_3122)" fill-opacity="0.59"/>
<mask id="mask0_103_3122" style="mask-type:alpha" maskUnits="userSpaceOnUse" x="34" y="13" width="94" height="66">
<path fill-rule="evenodd" clip-rule="evenodd" d="M100.601 14.9326C108.318 14.7003 117.335 11.4171 122.798 16.8738C128.262 22.3312 124.35 31.3604 124.766 39.0712C125.228 47.6308 129.798 56.486 125.331 63.8018C120.122 72.3326 110.548 77.6742 100.601 78.6476C89.7183 79.7126 77.5367 77.5398 70.5047 69.167C67.5439 65.6416 48.0765 70.6492 40.6992 65.1016C31.2733 58.0134 34.2259 38.312 35.2697 32.5234C36.7621 24.2466 72.8949 23.113 79.7001 18.1709C85.6301 13.8644 93.2749 15.1531 100.601 14.9326Z" fill="#C4C4C4"/>
</mask>
<g mask="url(#mask0_103_3122)">
<path d="M59.8123 37.4251V57.9279C59.8123 60.4795 61.7929 62.5471 64.2389 62.5471H140.4C142.841 62.5471 144.826 60.4795 144.826 57.9279V37.4251C144.826 34.8735 142.844 32.8047 140.4 32.8047H64.2361C61.7929 32.7975 59.8123 34.8665 59.8123 37.4251Z" fill="#A2A7B1"/>
<path d="M55.4324 34.5201V54.1461C55.4324 56.5877 57.6186 58.5726 60.3116 58.5726H144.309C147.002 58.5726 149.187 56.5935 149.187 54.1461V34.5201C149.187 32.0783 147.002 30.0938 144.309 30.0938H60.3116C57.62 30.0979 55.4324 32.0783 55.4324 34.5201Z" fill="#CFD9E8"/>
<path d="M67.3264 45.4494C65.604 45.4494 64.2078 44.185 64.2078 42.6252C64.2078 41.0652 65.604 39.8008 67.3264 39.8008C69.0488 39.8008 70.445 41.0652 70.445 42.6252C70.445 44.185 69.0488 45.4494 67.3264 45.4494Z" fill="#8DAC54"/>
<path d="M76.1435 43.7159C75.4781 43.7159 74.9385 43.2268 74.9385 42.6236C74.9385 42.0202 75.4781 41.5312 76.1435 41.5312C76.8091 41.5312 77.3487 42.0202 77.3487 42.6236C77.3487 43.2268 76.8091 43.7159 76.1435 43.7159Z" fill="#914765"/>
<path opacity="0.57" d="M55.4324 34.5201V36.0336H149.187V34.5201C149.187 32.0783 147.002 30.0938 144.309 30.0938H60.3116C57.62 30.0979 55.4324 32.0783 55.4324 34.5201Z" fill="white"/>
<path d="M55.4324 50.4961H149.187V52.1525H55.4324V50.4961Z" fill="#A2A7B1"/>
</g>
<path d="M24.4389 99.5V89.3182H28.0682C28.8603 89.3182 29.5166 89.4624 30.0369 89.7507C30.5573 90.0391 30.9467 90.4335 31.2053 90.9339C31.4638 91.4311 31.593 91.9912 31.593 92.6143C31.593 93.2408 31.4621 93.8042 31.2003 94.3047C30.9418 94.8018 30.5507 95.1963 30.027 95.4879C29.5066 95.7763 28.852 95.9205 28.0632 95.9205H25.5675V94.6179H27.924C28.4245 94.6179 28.8305 94.5317 29.142 94.3594C29.4536 94.1837 29.6823 93.9451 29.8281 93.6435C29.974 93.3419 30.0469 92.9988 30.0469 92.6143C30.0469 92.2299 29.974 91.8885 29.8281 91.5902C29.6823 91.2919 29.4519 91.0582 29.1371 90.8892C28.8255 90.7202 28.4145 90.6357 27.9041 90.6357H25.9751V99.5H24.4389ZM36.4702 99.6541C35.7178 99.6541 35.0698 99.4934 34.5263 99.1719C33.986 98.8471 33.5684 98.3913 33.2734 97.8047C32.9818 97.2147 32.8359 96.5237 32.8359 95.7315C32.8359 94.9493 32.9818 94.2599 33.2734 93.6634C33.5684 93.0668 33.9794 92.6011 34.5064 92.2663C35.0367 91.9316 35.6565 91.7642 36.3658 91.7642C36.7966 91.7642 37.2143 91.8355 37.6186 91.978C38.023 92.1205 38.3859 92.3442 38.7074 92.6491C39.0289 92.9541 39.2824 93.3501 39.468 93.8374C39.6536 94.3213 39.7464 94.9096 39.7464 95.6023V96.1293H33.6761V95.0156H38.2898C38.2898 94.6245 38.2102 94.2782 38.0511 93.9766C37.892 93.6716 37.6683 93.4313 37.38 93.2557C37.0949 93.08 36.7602 92.9922 36.3757 92.9922C35.9581 92.9922 35.5935 93.0949 35.282 93.3004C34.9737 93.5026 34.7351 93.7678 34.5661 94.0959C34.4003 94.4207 34.3175 94.7737 34.3175 95.1548V96.0249C34.3175 96.5353 34.407 96.9695 34.5859 97.3274C34.7682 97.6854 35.0218 97.9588 35.3466 98.1477C35.6714 98.3333 36.0509 98.4261 36.4851 98.4261C36.7668 98.4261 37.0237 98.3864 37.2557 98.3068C37.4877 98.224 37.6882 98.1013 37.8572 97.9389C38.0263 97.7765 38.1555 97.576 38.245 97.3374L39.652 97.5909C39.5393 98.0052 39.3371 98.3681 39.0455 98.6797C38.7571 98.9879 38.3942 99.2282 37.9567 99.4006C37.5225 99.5696 37.027 99.6541 36.4702 99.6541ZM41.3958 99.5V91.8636H42.8326V93.0767H42.9121C43.0513 92.6657 43.2966 92.3426 43.6479 92.1072C44.0025 91.8686 44.4036 91.7493 44.851 91.7493C44.9438 91.7493 45.0532 91.7526 45.1792 91.7592C45.3084 91.7659 45.4095 91.7741 45.4824 91.7841V93.206C45.4228 93.1894 45.3167 93.1712 45.1642 93.1513C45.0118 93.1281 44.8593 93.1165 44.7069 93.1165C44.3555 93.1165 44.0423 93.1911 43.7672 93.3402C43.4954 93.486 43.28 93.6899 43.1209 93.9517C42.9618 94.2102 42.8823 94.5052 42.8823 94.8366V99.5H41.3958ZM48.9228 99.669C48.4389 99.669 48.0014 99.5795 47.6103 99.4006C47.2192 99.2183 46.9093 98.9548 46.6806 98.6101C46.4552 98.2654 46.3425 97.8428 46.3425 97.3423C46.3425 96.9115 46.4254 96.5568 46.5911 96.2784C46.7568 96 46.9805 95.7796 47.2623 95.6172C47.544 95.4548 47.8588 95.3321 48.2069 95.2493C48.5549 95.1664 48.9095 95.1035 49.2708 95.0604C49.7282 95.0073 50.0994 94.9643 50.3844 94.9311C50.6694 94.8946 50.8766 94.8366 51.0059 94.7571C51.1351 94.6776 51.1998 94.5483 51.1998 94.3693V94.3345C51.1998 93.9003 51.0771 93.5639 50.8319 93.3253C50.5899 93.0866 50.2286 92.9673 49.748 92.9673C49.2476 92.9673 48.8532 93.0784 48.5648 93.3004C48.2798 93.5192 48.0826 93.7628 47.9732 94.0312L46.5762 93.7131C46.7419 93.2491 46.9838 92.8745 47.302 92.5895C47.6235 92.3011 47.9931 92.0923 48.4107 91.9631C48.8283 91.8305 49.2675 91.7642 49.7282 91.7642C50.0331 91.7642 50.3562 91.8007 50.6976 91.8736C51.0423 91.9432 51.3638 92.0724 51.6621 92.2614C51.9637 92.4503 52.2106 92.7204 52.4029 93.0717C52.5951 93.4197 52.6912 93.8722 52.6912 94.429V99.5H51.2395V98.456H51.1799C51.0837 98.6482 50.9396 98.8371 50.7473 99.0227C50.5551 99.2083 50.3082 99.3625 50.0066 99.4851C49.705 99.6077 49.3437 99.669 48.9228 99.669ZM49.2459 98.4759C49.6569 98.4759 50.0082 98.3946 50.2999 98.2322C50.5949 98.0698 50.8186 97.8577 50.9711 97.5959C51.1268 97.3307 51.2047 97.0473 51.2047 96.7457V95.7614C51.1517 95.8144 51.0489 95.8641 50.8965 95.9105C50.7473 95.9536 50.5766 95.9917 50.3844 96.0249C50.1922 96.0547 50.0049 96.0829 49.8226 96.1094C49.6403 96.1326 49.4879 96.1525 49.3652 96.169C49.0769 96.2055 48.8134 96.2668 48.5748 96.353C48.3394 96.4392 48.1505 96.5634 48.008 96.7259C47.8688 96.8849 47.7992 97.0971 47.7992 97.3622C47.7992 97.7301 47.9351 98.0085 48.2069 98.1974C48.4786 98.383 48.825 98.4759 49.2459 98.4759ZM56.1577 94.9659V99.5H54.6712V91.8636H56.098V93.1065H56.1925C56.3681 92.7022 56.6432 92.3774 57.0178 92.1321C57.3956 91.8868 57.8712 91.7642 58.4446 91.7642C58.965 91.7642 59.4207 91.8736 59.8118 92.0923C60.2029 92.3078 60.5062 92.6293 60.7216 93.0568C60.937 93.4844 61.0447 94.013 61.0447 94.6428V99.5H59.5582V94.8217C59.5582 94.2682 59.4141 93.8357 59.1257 93.5241C58.8374 93.2093 58.4413 93.0518 57.9375 93.0518C57.5928 93.0518 57.2862 93.1264 57.0178 93.2756C56.7526 93.4247 56.5421 93.6435 56.3864 93.9318C56.2339 94.2169 56.1577 94.5616 56.1577 94.9659ZM66.2401 102.523C65.6335 102.523 65.1115 102.443 64.674 102.284C64.2398 102.125 63.8852 101.915 63.6101 101.653C63.335 101.391 63.1295 101.104 62.9936 100.793L64.2713 100.266C64.3608 100.411 64.4801 100.566 64.6293 100.728C64.7817 100.894 64.9872 101.035 65.2457 101.151C65.5076 101.267 65.844 101.325 66.255 101.325C66.8184 101.325 67.2841 101.187 67.652 100.912C68.0199 100.64 68.2038 100.206 68.2038 99.6094V98.108H68.1094C68.0199 98.2704 67.8906 98.451 67.7216 98.6499C67.5559 98.8487 67.3272 99.0211 67.0355 99.1669C66.7438 99.3127 66.3643 99.3857 65.897 99.3857C65.2938 99.3857 64.7502 99.2448 64.2663 98.9631C63.7857 98.678 63.4046 98.2588 63.1229 97.7053C62.8445 97.1484 62.7053 96.464 62.7053 95.652C62.7053 94.84 62.8428 94.1439 63.1179 93.5639C63.3963 92.9839 63.7775 92.5398 64.2614 92.2315C64.7453 91.92 65.2938 91.7642 65.907 91.7642C66.3809 91.7642 66.7637 91.8438 67.0554 92.0028C67.3471 92.1586 67.5741 92.3409 67.7365 92.5497C67.9022 92.7585 68.0298 92.9425 68.1193 93.1016H68.2287V91.8636H69.6854V99.669C69.6854 100.325 69.5329 100.864 69.228 101.285C68.9231 101.706 68.5104 102.017 67.9901 102.219C67.473 102.422 66.8897 102.523 66.2401 102.523ZM66.2251 98.1527C66.6527 98.1527 67.014 98.0533 67.3089 97.8544C67.6072 97.6522 67.8326 97.3639 67.9851 96.9893C68.1409 96.6115 68.2188 96.1591 68.2188 95.6321C68.2188 95.1184 68.1425 94.666 67.9901 94.2749C67.8376 93.8838 67.6139 93.5788 67.3189 93.3601C67.0239 93.138 66.6593 93.027 66.2251 93.027C65.7777 93.027 65.4048 93.143 65.1065 93.375C64.8082 93.6037 64.5829 93.9152 64.4304 94.3097C64.2813 94.7041 64.2067 95.1449 64.2067 95.6321C64.2067 96.1326 64.2829 96.5717 64.4354 96.9496C64.5878 97.3274 64.8132 97.6224 65.1115 97.8345C65.4131 98.0466 65.7843 98.1527 66.2251 98.1527ZM73.0462 96.9098L73.0362 95.0952H73.2947L76.3374 91.8636H78.1172L74.647 95.5426H74.4134L73.0462 96.9098ZM71.679 99.5V89.3182H73.1655V99.5H71.679ZM76.5014 99.5L73.767 95.8707L74.7912 94.8317L78.326 99.5H76.5014ZM81.6942 99.669C81.2103 99.669 80.7728 99.5795 80.3817 99.4006C79.9906 99.2183 79.6808 98.9548 79.4521 98.6101C79.2267 98.2654 79.114 97.8428 79.114 97.3423C79.114 96.9115 79.1969 96.5568 79.3626 96.2784C79.5283 96 79.752 95.7796 80.0337 95.6172C80.3155 95.4548 80.6303 95.3321 80.9783 95.2493C81.3263 95.1664 81.681 95.1035 82.0423 95.0604C82.4996 95.0073 82.8709 94.9643 83.1559 94.9311C83.4409 94.8946 83.6481 94.8366 83.7773 94.7571C83.9066 94.6776 83.9712 94.5483 83.9712 94.3693V94.3345C83.9712 93.9003 83.8486 93.5639 83.6033 93.3253C83.3614 93.0866 83.0001 92.9673 82.5195 92.9673C82.0191 92.9673 81.6246 93.0784 81.3363 93.3004C81.0513 93.5192 80.854 93.7628 80.7447 94.0312L79.3477 93.7131C79.5134 93.2491 79.7553 92.8745 80.0735 92.5895C80.395 92.3011 80.7646 92.0923 81.1822 91.9631C81.5998 91.8305 82.0389 91.7642 82.4996 91.7642C82.8046 91.7642 83.1277 91.8007 83.4691 91.8736C83.8138 91.9432 84.1353 92.0724 84.4336 92.2614C84.7352 92.4503 84.9821 92.7204 85.1744 93.0717C85.3666 93.4197 85.4627 93.8722 85.4627 94.429V99.5H84.011V98.456H83.9513C83.8552 98.6482 83.7111 98.8371 83.5188 99.0227C83.3266 99.2083 83.0797 99.3625 82.7781 99.4851C82.4764 99.6077 82.1152 99.669 81.6942 99.669ZM82.0174 98.4759C82.4284 98.4759 82.7797 98.3946 83.0714 98.2322C83.3664 98.0698 83.5901 97.8577 83.7425 97.5959C83.8983 97.3307 83.9762 97.0473 83.9762 96.7457V95.7614C83.9232 95.8144 83.8204 95.8641 83.668 95.9105C83.5188 95.9536 83.3481 95.9917 83.1559 96.0249C82.9637 96.0547 82.7764 96.0829 82.5941 96.1094C82.4118 96.1326 82.2594 96.1525 82.1367 96.169C81.8484 96.2055 81.5849 96.2668 81.3462 96.353C81.1109 96.4392 80.922 96.5634 80.7795 96.7259C80.6403 96.8849 80.5707 97.0971 80.5707 97.3622C80.5707 97.7301 80.7066 98.0085 80.9783 98.1974C81.2501 98.383 81.5965 98.4759 82.0174 98.4759ZM91.0073 91.8636V93.0568H86.8361V91.8636H91.0073ZM87.9547 90.0341H89.4412V97.2578C89.4412 97.5462 89.4843 97.7633 89.5705 97.9091C89.6567 98.0516 89.7677 98.1494 89.9036 98.2024C90.0428 98.2521 90.1936 98.277 90.356 98.277C90.4753 98.277 90.5797 98.2687 90.6692 98.2521C90.7587 98.2356 90.8283 98.2223 90.878 98.2124L91.1465 99.4403C91.0603 99.4735 90.9377 99.5066 90.7786 99.5398C90.6195 99.5762 90.4206 99.5961 90.182 99.5994C89.7909 99.6061 89.4263 99.5365 89.0882 99.3906C88.7502 99.2448 88.4767 99.0194 88.2679 98.7145C88.0591 98.4096 87.9547 98.0268 87.9547 97.5661V90.0341ZM96.476 99.5V89.3182H102.86V90.6406H98.0123V93.7429H102.526V95.0604H98.0123V98.1776H102.919V99.5H96.476ZM106.279 89.3182V99.5H104.792V89.3182H106.279ZM111.57 99.6541C110.817 99.6541 110.169 99.4934 109.626 99.1719C109.086 98.8471 108.668 98.3913 108.373 97.8047C108.081 97.2147 107.936 96.5237 107.936 95.7315C107.936 94.9493 108.081 94.2599 108.373 93.6634C108.668 93.0668 109.079 92.6011 109.606 92.2663C110.136 91.9316 110.756 91.7642 111.465 91.7642C111.896 91.7642 112.314 91.8355 112.718 91.978C113.123 92.1205 113.485 92.3442 113.807 92.6491C114.128 92.9541 114.382 93.3501 114.568 93.8374C114.753 94.3213 114.846 94.9096 114.846 95.6023V96.1293H108.776V95.0156H113.389C113.389 94.6245 113.31 94.2782 113.151 93.9766C112.992 93.6716 112.768 93.4313 112.48 93.2557C112.195 93.08 111.86 92.9922 111.475 92.9922C111.058 92.9922 110.693 93.0949 110.382 93.3004C110.073 93.5026 109.835 93.7678 109.666 94.0959C109.5 94.4207 109.417 94.7737 109.417 95.1548V96.0249C109.417 96.5353 109.507 96.9695 109.686 97.3274C109.868 97.6854 110.121 97.9588 110.446 98.1477C110.771 98.3333 111.151 98.4261 111.585 98.4261C111.866 98.4261 112.123 98.3864 112.355 98.3068C112.587 98.224 112.788 98.1013 112.957 97.9389C113.126 97.7765 113.255 97.576 113.345 97.3374L114.752 97.5909C114.639 98.0052 114.437 98.3681 114.145 98.6797C113.857 98.9879 113.494 99.2282 113.056 99.4006C112.622 99.5696 112.127 99.6541 111.57 99.6541ZM117.863 96.9098L117.853 95.0952H118.111L121.154 91.8636H122.934L119.463 95.5426H119.23L117.863 96.9098ZM116.495 99.5V89.3182H117.982V99.5H116.495ZM121.318 99.5L118.583 95.8707L119.608 94.8317L123.142 99.5H121.318ZM127.853 91.8636V93.0568H123.682V91.8636H127.853ZM124.8 90.0341H126.287V97.2578C126.287 97.5462 126.33 97.7633 126.416 97.9091C126.502 98.0516 126.613 98.1494 126.749 98.2024C126.888 98.2521 127.039 98.277 127.202 98.277C127.321 98.277 127.425 98.2687 127.515 98.2521C127.604 98.2356 127.674 98.2223 127.724 98.2124L127.992 99.4403C127.906 99.4735 127.783 99.5066 127.624 99.5398C127.465 99.5762 127.266 99.5961 127.028 99.5994C126.637 99.6061 126.272 99.5365 125.934 99.3906C125.596 99.2448 125.322 99.0194 125.114 98.7145C124.905 98.4096 124.8 98.0268 124.8 97.5661V90.0341ZM129.497 99.5V91.8636H130.934V93.0767H131.014C131.153 92.6657 131.398 92.3426 131.749 92.1072C132.104 91.8686 132.505 91.7493 132.953 91.7493C133.045 91.7493 133.155 91.7526 133.281 91.7592C133.41 91.7659 133.511 91.7741 133.584 91.7841V93.206C133.524 93.1894 133.418 93.1712 133.266 93.1513C133.113 93.1281 132.961 93.1165 132.808 93.1165C132.457 93.1165 132.144 93.1911 131.869 93.3402C131.597 93.486 131.382 93.6899 131.222 93.9517C131.063 94.2102 130.984 94.5052 130.984 94.8366V99.5H129.497ZM137.814 99.6541C137.098 99.6541 136.473 99.4901 135.939 99.1619C135.406 98.8338 134.991 98.3748 134.696 97.7848C134.401 97.1948 134.254 96.5054 134.254 95.7166C134.254 94.9245 134.401 94.2318 134.696 93.6385C134.991 93.0452 135.406 92.5845 135.939 92.2564C136.473 91.9283 137.098 91.7642 137.814 91.7642C138.529 91.7642 139.154 91.9283 139.688 92.2564C140.221 92.5845 140.636 93.0452 140.931 93.6385C141.226 94.2318 141.373 94.9245 141.373 95.7166C141.373 96.5054 141.226 97.1948 140.931 97.7848C140.636 98.3748 140.221 98.8338 139.688 99.1619C139.154 99.4901 138.529 99.6541 137.814 99.6541ZM137.819 98.4062C138.283 98.4062 138.667 98.2836 138.972 98.0384C139.277 97.7931 139.502 97.4666 139.648 97.0589C139.797 96.6513 139.872 96.2022 139.872 95.7116C139.872 95.2244 139.797 94.777 139.648 94.3693C139.502 93.9583 139.277 93.6286 138.972 93.38C138.667 93.1314 138.283 93.0071 137.819 93.0071C137.351 93.0071 136.963 93.1314 136.655 93.38C136.35 93.6286 136.123 93.9583 135.974 94.3693C135.828 94.777 135.755 95.2244 135.755 95.7116C135.755 96.2022 135.828 96.6513 135.974 97.0589C136.123 97.4666 136.35 97.7931 136.655 98.0384C136.963 98.2836 137.351 98.4062 137.819 98.4062ZM144.519 94.9659V99.5H143.032V91.8636H144.459V93.1065H144.554C144.729 92.7022 145.005 92.3774 145.379 92.1321C145.757 91.8868 146.233 91.7642 146.806 91.7642C147.326 91.7642 147.782 91.8736 148.173 92.0923C148.564 92.3078 148.867 92.6293 149.083 93.0568C149.298 93.4844 149.406 94.013 149.406 94.6428V99.5H147.92V94.8217C147.92 94.2682 147.775 93.8357 147.487 93.5241C147.199 93.2093 146.803 93.0518 146.299 93.0518C145.954 93.0518 145.648 93.1264 145.379 93.2756C145.114 93.4247 144.903 93.6435 144.748 93.9318C144.595 94.2169 144.519 94.5616 144.519 94.9659ZM151.4 99.5V91.8636H152.886V99.5H151.4ZM152.15 90.6854C151.892 90.6854 151.67 90.5992 151.484 90.4268C151.302 90.2512 151.211 90.0424 151.211 89.8004C151.211 89.5552 151.302 89.3464 151.484 89.174C151.67 88.9983 151.892 88.9105 152.15 88.9105C152.409 88.9105 152.629 88.9983 152.812 89.174C152.997 89.3464 153.09 89.5552 153.09 89.8004C153.09 90.0424 152.997 90.2512 152.812 90.4268C152.629 90.5992 152.409 90.6854 152.15 90.6854ZM156.253 96.9098L156.243 95.0952H156.502L159.544 91.8636H161.324L157.854 95.5426H157.62L156.253 96.9098ZM154.886 99.5V89.3182H156.373V99.5H154.886ZM159.708 99.5L156.974 95.8707L157.998 94.8317L161.533 99.5H159.708Z" fill="#252525"/>
</g>
<defs>
<linearGradient id="paint0_linear_103_3122" x1="65.6846" y1="46.3204" x2="127.274" y2="46.3204" gradientUnits="userSpaceOnUse">
<stop stop-color="#E0F9FF"/>
<stop offset="1" stop-color="#DAEEFC"/>
</linearGradient>
<clipPath id="clip0_103_3122">
<rect y="0.5" width="184" height="109" rx="8" fill="white"/>
</clipPath>
</defs>
</svg>
