<svg width="184" height="110" viewBox="0 0 184 110" fill="none" xmlns="http://www.w3.org/2000/svg">
<g clip-path="url(#clip0_103_3091)">
<rect y="0.5" width="184" height="109" rx="8" fill="white"/>
<path fill-rule="evenodd" clip-rule="evenodd" d="M91.6156 8.2979C100.956 8.69772 109.444 12.7573 116.36 19.0469C123.686 25.7082 131.05 33.8986 130.648 43.7918C130.253 53.4828 121.637 60.1158 114.424 66.6002C107.748 72.6016 100.588 78.5996 91.6156 78.8814C82.409 79.1706 74.1146 74.3074 67.3282 68.0792C60.1778 61.517 53.8856 53.4838 53.3806 43.7918C52.8536 33.6794 57.2366 23.7228 64.6578 16.8337C71.839 10.1673 81.826 7.87884 91.6156 8.2979Z" fill="url(#paint0_linear_103_3091)" fill-opacity="0.59"/>
<mask id="mask0_103_3091" style="mask-type:alpha" maskUnits="userSpaceOnUse" x="53" y="8" width="78" height="71">
<path fill-rule="evenodd" clip-rule="evenodd" d="M91.6156 8.2979C95.2258 8.45244 106.543 7.92324 109.857 9.08882C115.116 10.9387 112.117 15.1885 116.36 19.0469C123.686 25.7082 131.05 33.8986 130.648 43.7918C130.253 53.4828 121.637 60.1158 114.424 66.6002C107.748 72.6016 100.588 78.5996 91.6156 78.8814C82.409 79.1706 74.1146 74.3074 67.3282 68.0792C60.1778 61.517 53.8856 53.4838 53.3806 43.7918C52.8536 33.6794 57.2366 23.7228 64.6578 16.8337C71.839 10.1673 81.826 7.87884 91.6156 8.2979Z" fill="#C4C4C4"/>
</mask>
<g mask="url(#mask0_103_3091)">
<path d="M76.2695 26.0213L76.3315 27.5563L77.3239 27.9581L77.0463 25.9023L76.2695 26.0213Z" fill="#2F6295"/>
<path d="M136.502 25.9859C136.502 26.3889 136.238 26.8047 135.742 27.1811C132.672 29.5005 120.695 31.2077 106.387 31.2077C94.1423 31.2077 83.6999 30.0785 78.9965 28.2585C77.3097 27.6069 76.2715 26.7463 76.2715 25.9859C76.2715 23.1013 89.7545 20.7617 106.387 20.7617C123.019 20.7617 136.502 23.1013 136.502 25.9859Z" fill="#98B6C9"/>
<path d="M106.386 32.5397C122.362 32.5397 135.313 30.2013 135.313 27.3167C135.313 24.4321 122.362 22.0938 106.386 22.0938C90.4094 22.0938 77.458 24.4321 77.458 27.3167C77.458 30.2013 90.4094 32.5397 106.386 32.5397Z" fill="#FEFEFE"/>
<path d="M106.479 21.9688C90.4513 21.9688 77.4551 24.3653 77.4551 27.3223C77.4551 30.2792 90.4489 32.6759 106.479 32.6759C122.509 32.6759 135.503 30.2792 135.503 27.3223C135.503 24.3653 122.507 21.9688 106.479 21.9688ZM106.46 32.2196C91.4627 32.2196 79.3043 30.1094 79.3043 27.5074C79.3043 24.9054 91.4627 22.7952 106.46 22.7952C121.457 22.7952 133.616 24.8989 133.616 27.5023C133.616 30.1055 121.457 32.2146 106.46 32.2146V32.2196Z" fill="#191A12"/>
<path d="M106.365 32.5442C120.143 32.5442 131.313 30.977 131.313 29.0436C131.313 27.1102 120.143 25.543 106.365 25.543C92.5866 25.543 81.417 27.1102 81.417 29.0436C81.417 30.977 92.5866 32.5442 106.365 32.5442Z" fill="#E8E3E3"/>
<path d="M74.8586 37.8744C71.5848 36.1722 69.747 34.763 71.3884 33.3852C72.6088 32.3612 81.2122 36.6602 81.2122 36.6602L81.3388 37.9708V33.6476C81.3388 33.6476 69.9396 27.0786 67.8472 32.8618C65.6304 38.986 81.3388 44.1266 81.3388 44.1266V40.4828C80.5796 40.166 78.1284 39.5754 74.8586 37.8744Z" fill="#1D3E51"/>
<path d="M67.8532 32.8618C67.6254 33.4778 67.5778 34.1462 67.7164 34.7882C67.751 34.6248 67.7966 34.4638 67.8532 34.3066C69.9458 28.5222 81.345 35.0924 81.345 35.0924V33.6476C81.345 33.6476 69.9458 27.0786 67.8532 32.8618Z" fill="#2F6295"/>
<path d="M74.86 39.3195C78.13 41.0203 80.5812 41.6109 81.3454 41.9277V40.4829C80.585 40.1661 78.13 39.5755 74.86 37.8745C72.9892 36.9025 71.5888 36.0253 71.0374 35.1953C70.0844 36.4589 71.874 37.7669 74.86 39.3195Z" fill="#1D3E51"/>
<g opacity="0.57">
<path d="M135.586 26.702C135.586 31.328 122.68 34.6968 106.167 34.6968C89.6538 34.6968 77.3432 31.3774 77.3242 26.5854C77.3064 21.9592 89.655 17.9453 106.167 17.9453C122.679 17.9453 135.586 22.0758 135.586 26.702Z" fill="#CACECE"/>
</g>
<path d="M103.069 17.4367C103.059 17.6488 103.108 17.8596 103.211 18.0455C103.313 18.2315 103.465 18.3853 103.65 18.49C104.139 18.7511 104.957 19.0122 106.26 19.0122C107.562 19.0122 108.353 18.8043 108.829 18.5736C109.031 18.4752 109.201 18.3218 109.321 18.1311C109.44 17.9404 109.503 17.72 109.503 17.4951C109.503 16.9437 109.575 16.04 109.964 15.457H102.55C102.55 15.457 103.085 16.4203 103.069 17.4367Z" fill="#191A12"/>
<path d="M102.552 15.4568C102.552 15.4568 104.773 16.0487 106.403 16.0487C108.178 16.0487 109.96 15.4568 109.96 15.4568C109.96 15.4568 112.187 13.6279 110.996 12.2882C109.663 10.7876 102.251 11.0094 101.217 12.491C100.302 13.8003 102.552 15.4568 102.552 15.4568Z" fill="#312F28"/>
<path d="M106.286 31.6479C91.2338 31.6479 78.8436 29.2791 76.6078 26.7773C76.1692 27.3627 75.656 28.9039 80.1934 30.4313V50.0181C80.1934 61.1713 88.803 70.4387 99.9246 71.2219C101.87 71.3589 104.006 71.4349 106.35 71.4375H106.42C108.715 71.4375 110.812 71.3628 112.726 71.2309C123.914 70.4604 132.577 61.1143 132.577 49.8989V30.4313C137.113 28.9103 136.61 27.3627 136.172 26.7773C133.937 29.2791 121.338 31.6479 106.286 31.6479Z" fill="#98B6C9"/>
<path d="M106.35 71.4361H106.42C108.715 71.4361 110.812 71.3613 112.725 71.2295C123.914 70.4589 132.577 61.1129 132.577 49.8975V30.4297C120.967 33.9937 107.44 33.9785 107.44 33.9785C107.44 33.9785 108.625 48.9443 102.846 58.5755C97.4934 67.4981 85.3972 62.4297 83.6494 61.6401C85.4362 64.3875 87.836 66.6829 90.66 68.3459C93.484 70.0089 96.6552 70.9943 99.9244 71.2243C101.87 71.3575 104.006 71.4335 106.35 71.4361Z" fill="#316093"/>
<path d="M132.578 30.4297C132.578 30.4297 122.932 33.8519 105.367 33.8291C87.5555 33.8075 80.1943 30.4297 80.1943 30.4297V32.0509C80.1943 32.0509 89.6607 36.3487 105.67 36.3487C121.678 36.3487 132.586 32.2055 132.586 32.2055L132.578 30.4297Z" fill="#1D3E51"/>
<path d="M98.1906 41.5803C98.2324 41.5727 98.275 41.5701 98.3174 41.5727L98.1552 41.5525C98.3606 41.5905 97.9448 41.4497 98.1274 41.5525C98.0006 41.4535 97.9726 41.4333 98.0298 41.4903C98.0868 41.5473 98.0614 41.5195 97.9588 41.4003C98.0728 41.5587 97.889 41.1785 97.9422 41.3775L97.9156 41.2179C97.9474 41.0417 97.9498 41.0061 97.9156 41.1113L97.9764 40.9555C98.088 40.8287 98.1172 40.7869 98.0614 40.8477C98.0056 40.9085 98.3034 40.7147 98.1032 40.8135C98.0082 40.8617 98.3744 40.7311 98.1502 40.7857C98.0234 40.8161 98.4226 40.7743 98.2426 40.7653C98.4354 40.7995 98.4758 40.8033 98.3694 40.7781L98.5228 40.8451C98.453 40.8021 98.4582 40.8097 98.5392 40.8667C98.6098 40.9103 98.6658 40.9737 98.7002 41.0493C98.6038 40.8743 98.766 41.3027 98.7166 41.1063C98.6672 40.9099 98.7508 41.3839 98.728 41.1709C98.709 40.9871 98.6672 41.4245 98.728 41.2369C98.7052 41.2875 98.6838 41.3383 98.661 41.3901C98.704 41.3191 98.6952 41.3243 98.6356 41.4053C98.576 41.4865 98.5672 41.4903 98.6216 41.4295C98.472 41.5347 98.4454 41.5563 98.5392 41.5005C99.0246 41.2179 99.2376 40.5195 98.9194 40.0341C98.7716 39.7931 98.536 39.6189 98.2624 39.5479C97.9886 39.4769 97.698 39.5149 97.4518 39.6539C97.1066 39.8625 96.8414 40.1805 96.698 40.5575C96.5546 40.9343 96.5416 41.3485 96.661 41.7337C96.8024 42.1463 97.0942 42.4905 97.4782 42.6977C97.862 42.9049 98.31 42.9599 98.7326 42.8515C99.1552 42.7433 99.5216 42.4799 99.7586 42.1137C99.9958 41.7475 100.086 41.3055 100.012 40.8757C99.8688 40.0683 99.0272 39.3395 98.1844 39.4435C97.889 39.4789 97.6444 39.5385 97.4238 39.7565C97.2236 39.9589 97.1106 40.2321 97.1096 40.5169C97.1324 41.0403 97.5848 41.6577 98.1818 41.5891L98.1906 41.5803Z" fill="#CFE7FF"/>
<path d="M86.4862 50.3368C86.528 50.3298 86.5706 50.3272 86.613 50.3292L86.452 50.309C86.6574 50.347 86.2416 50.2062 86.4242 50.309C86.2974 50.2088 86.2696 50.1886 86.3266 50.2456C86.3836 50.3026 86.357 50.276 86.2556 50.1556C86.3696 50.314 86.1858 49.9338 86.239 50.1328C86.2302 50.0796 86.2214 50.0264 86.2112 49.973C86.2442 49.797 86.2454 49.7626 86.2112 49.8678L86.272 49.7108C86.3836 49.584 86.4128 49.5422 86.3556 49.603C86.2986 49.6638 86.599 49.4762 86.3988 49.57C86.3038 49.617 86.67 49.4864 86.4456 49.5408C86.319 49.5714 86.7182 49.5294 86.5382 49.5206C86.7308 49.5548 86.7714 49.5586 86.665 49.5332L86.8196 49.6004C86.7498 49.5574 86.755 49.565 86.836 49.622C86.9064 49.6658 86.9624 49.7292 86.997 49.8046C86.9006 49.6308 87.063 50.058 87.0134 49.8628C86.964 49.6676 87.0478 50.1392 87.0248 49.9274C87.0058 49.7424 86.964 50.181 87.0248 49.992C87.0034 50.0428 86.9806 50.0934 86.959 50.1454C87.002 50.0744 86.9932 50.0796 86.9336 50.1606C86.874 50.2418 86.864 50.2456 86.9198 50.1848C86.7702 50.29 86.7436 50.3114 86.8374 50.2558C87.3228 49.9744 87.5356 49.2748 87.2176 48.7894C87.0696 48.5484 86.834 48.374 86.5604 48.3032C86.2866 48.2322 85.9962 48.2702 85.7498 48.409C85.4046 48.6176 85.1392 48.9356 84.9958 49.3126C84.8524 49.6896 84.8394 50.1038 84.959 50.489C85.0936 50.9038 85.3818 51.2512 85.7646 51.46C86.1474 51.6688 86.5956 51.7232 87.0172 51.6118C87.445 51.5088 87.8172 51.2462 88.0576 50.8776C88.298 50.5092 88.3882 50.0626 88.31 49.6296C88.1668 48.8222 87.3252 48.0934 86.4824 48.1974C86.1872 48.233 85.9426 48.2924 85.722 48.5118C85.5212 48.714 85.4082 48.9872 85.4076 49.2722C85.4304 49.7944 85.883 50.4128 86.48 50.3432L86.4862 50.3368Z" fill="#CFE7FF"/>
<path d="M89.397 58.3073C89.1434 58.8371 89.1168 59.4087 89.4134 59.9309C89.6456 60.3435 90.0278 60.6513 90.4806 60.7901C91.549 61.0943 92.478 60.2679 92.5566 59.2249C92.6276 58.2667 91.8596 57.3959 90.8836 57.4225C90.6438 57.4327 90.4082 57.4903 90.1908 57.5917C89.9732 57.6933 89.778 57.8371 89.6162 58.0145C89.4222 58.2265 89.2828 58.4827 89.2096 58.7605C89.1366 59.0385 89.1322 59.3301 89.1966 59.6101C89.3094 60.1615 89.99 60.5291 90.5148 60.3591C90.785 60.2777 91.0136 60.0955 91.153 59.8499C91.2924 59.6045 91.3322 59.3149 91.2638 59.0411C91.279 59.2273 91.2866 59.2629 91.2854 59.1475C91.293 59.2591 91.2636 59.3701 91.2018 59.4631C91.2118 59.4467 91.2208 59.4289 91.2296 59.4111C91.2918 59.3187 91.2728 59.3439 91.1726 59.4859C91.2994 59.3325 90.9812 59.5887 91.1472 59.5063C90.98 59.5683 90.9508 59.5823 91.0572 59.5481C90.8684 59.5633 90.8316 59.5695 90.9458 59.5645L90.7772 59.5417C90.62 59.4643 90.587 59.4491 90.6782 59.4999C90.5312 59.3731 90.497 59.3515 90.5732 59.4263L90.464 59.2869C90.516 59.3821 90.5022 59.3415 90.4198 59.1603C90.4302 59.1913 90.4386 59.2231 90.445 59.2553C90.4362 59.1945 90.4286 59.1285 90.4198 59.0703C90.4216 59.1039 90.4216 59.1379 90.4198 59.1717C90.4514 58.9789 90.4578 58.9257 90.44 59.0107C90.435 59.0351 90.4286 59.0593 90.421 59.0829C90.5022 58.9067 90.5186 58.8661 90.4692 58.9625C90.426 59.0283 90.435 59.0183 90.4958 58.9321C90.5616 58.8523 90.568 58.8395 90.5136 58.8953C90.5944 58.8071 90.7 58.7453 90.8164 58.7179C90.7316 58.7395 90.7416 58.7395 90.8468 58.7179C90.9328 58.6961 91.0232 58.7005 91.1066 58.7305C91.0002 58.7001 91.0332 58.7167 91.2042 58.7813C91.1332 58.7369 91.1384 58.7445 91.217 58.8015C91.2956 58.8585 91.3006 58.8687 91.2372 58.8117C91.1638 58.7293 91.1828 58.7559 91.2968 58.8927C91.1904 58.7281 91.3588 59.1273 91.3146 58.9397C91.3322 59.1323 91.3386 59.1729 91.336 59.0589C91.34 59.1729 91.3106 59.2857 91.2512 59.3833C91.4894 58.8763 91.4084 58.2033 90.871 57.9155C90.3956 57.6621 89.6592 57.7597 89.4046 58.2959L89.397 58.3073Z" fill="#CFE7FF"/>
<path d="M125.724 50.2515C124.484 50.8979 125.129 52.8383 126.435 52.8649C127.766 52.8929 128.494 51.1475 127.589 50.2033C127.399 50.0065 127.166 49.8567 126.908 49.7653C126.65 49.6741 126.374 49.6439 126.103 49.6773C125.831 49.7109 125.571 49.8069 125.343 49.9579C125.115 50.1091 124.926 50.3111 124.789 50.5481C124.442 51.1641 124.447 52.1451 125.122 52.5391C125.665 52.8573 126.447 52.7547 126.955 52.4239C127.424 52.1185 127.664 51.4607 127.335 50.9575C127.034 50.4885 126.372 50.2451 125.869 50.5773C125.766 50.6381 125.783 50.6381 125.916 50.5773C125.82 50.6013 125.816 50.6063 125.906 50.5925C125.996 50.5785 125.992 50.5823 125.892 50.5925C126.045 50.6191 126.063 50.6191 125.945 50.5925L126.694 51.3403C126.655 51.1957 126.7 51.3795 126.702 51.4265C126.671 51.5873 126.665 51.6267 126.685 51.5443C126.7 51.4885 126.694 51.4999 126.665 51.5773C126.571 51.7763 126.757 51.4657 126.627 51.6381C126.569 51.7091 126.571 51.7115 126.633 51.6469L126.527 51.7369C126.49 51.7597 126.315 51.8167 126.453 51.7801L126.294 51.8067C126.125 51.7749 126.082 51.7687 126.167 51.7863C126.201 51.7939 126.351 51.8395 126.187 51.7863C126.11 51.7509 126.095 51.7471 126.144 51.7761C126.193 51.8053 126.181 51.7977 126.05 51.7077C125.936 51.5731 125.868 51.4051 125.858 51.2287C125.858 51.1793 125.916 50.9955 125.866 51.1323C125.937 50.9865 125.953 50.9499 125.912 51.0209C125.882 51.0689 125.893 51.0575 125.942 50.9865C126.008 50.9071 126.09 50.8427 126.183 50.7977C126.345 50.7301 126.525 50.7209 126.692 50.7717C126.86 50.8227 127.004 50.9305 127.101 51.0765C127.182 51.2153 127.209 51.3791 127.177 51.5367C127.14 51.7305 126.989 52.0195 126.797 52.1159C127.04 51.9701 127.215 51.7347 127.287 51.4605C127.358 51.1861 127.318 50.8949 127.177 50.6495C127.029 50.4093 126.793 50.2357 126.52 50.1649C126.247 50.0941 125.957 50.1315 125.711 50.2693L125.724 50.2515Z" fill="#CFE7FF"/>
<path d="M121.902 40.1092C121.623 40.9838 122.27 41.9446 123.146 42.1232C123.378 42.1712 123.618 42.1656 123.848 42.1068C124.078 42.0482 124.291 41.938 124.472 41.7846C124.653 41.631 124.796 41.4386 124.892 41.2214C124.987 41.0042 125.031 40.7682 125.022 40.5314C125 39.5834 124.194 38.7988 123.232 38.928C122.994 38.9614 122.765 39.0442 122.56 39.1708C122.355 39.2976 122.178 39.4656 122.042 39.6642C121.905 39.8628 121.812 40.0876 121.767 40.3244C121.722 40.5612 121.727 40.8048 121.781 41.0396C121.896 41.5884 122.572 41.9584 123.099 41.7874C123.37 41.706 123.598 41.5236 123.737 41.2782C123.877 41.0328 123.917 40.7432 123.848 40.4692C123.865 40.6656 123.872 40.7076 123.87 40.596C123.837 40.7836 123.832 40.8342 123.855 40.7506C123.877 40.667 123.855 40.7152 123.796 40.8836C123.853 40.79 123.829 40.8178 123.722 40.9674C123.739 40.9466 123.758 40.9272 123.779 40.909C123.839 40.8546 123.803 40.8824 123.668 40.9952C123.829 40.8862 123.433 41.0674 123.607 41.0244C123.49 41.0612 123.365 41.0612 123.248 41.0244C123.359 41.0574 123.319 41.037 123.121 40.966C123.269 41.0446 122.915 40.7822 123.037 40.9078C122.924 40.7506 122.89 40.7076 122.933 40.781C122.976 40.8546 122.955 40.8038 122.871 40.6252C122.912 40.866 122.871 40.4362 122.871 40.5364C122.871 40.7582 122.943 40.274 122.893 40.449C122.842 40.6238 123.027 40.1954 122.933 40.3502C123.06 40.2018 123.093 40.1562 123.033 40.217C122.974 40.2778 123.016 40.2412 123.16 40.1156C123.268 40.052 123.392 40.0208 123.517 40.0256C123.438 40.0256 123.453 40.0256 123.564 40.0396C123.676 40.0536 123.691 40.0586 123.613 40.0396C123.79 40.1232 123.831 40.1384 123.739 40.0878C123.586 40.0002 123.933 40.2652 123.804 40.1296C123.915 40.2854 123.943 40.3184 123.888 40.2272C123.912 40.283 123.934 40.3386 123.959 40.3958C123.932 40.2868 123.938 40.3362 123.976 40.5414C123.937 40.7456 123.933 40.795 123.965 40.6834C124.038 40.4094 124.001 40.1174 123.861 39.8708C123.72 39.6242 123.489 39.4426 123.216 39.3654C122.942 39.296 122.652 39.3352 122.406 39.4748C122.161 39.6144 121.978 39.8436 121.898 40.1144L121.902 40.1092Z" fill="#CFE7FF"/>
<path d="M105.448 63.0697C105.484 63.1835 105.484 63.3055 105.448 63.4195C105.472 63.3409 105.466 63.3485 105.429 63.4435C105.392 63.5385 105.385 63.5461 105.429 63.4727C105.313 63.6121 105.293 63.6413 105.368 63.5601C105.228 63.6589 105.192 63.6869 105.261 63.6399C105.284 63.6245 105.308 63.6105 105.333 63.5981C105.16 63.6641 105.126 63.6817 105.233 63.6527L105.057 63.6793C104.864 63.6425 104.823 63.6387 104.93 63.6653C104.752 63.5809 104.709 63.5657 104.803 63.6197L104.659 63.5107C104.732 63.5879 104.705 63.5525 104.581 63.4017C104.594 63.4217 104.605 63.4425 104.616 63.4637C104.655 63.5385 104.633 63.4903 104.553 63.3167C104.564 63.3473 104.571 63.3787 104.576 63.4105C104.556 63.2119 104.547 63.1563 104.55 63.2433C104.562 63.4675 104.621 63.0025 104.557 63.1685L104.629 62.9987C104.575 63.0899 104.605 63.0557 104.717 62.8959C104.59 63.0227 104.937 62.7477 104.783 62.8415C104.969 62.7705 105.011 62.7503 104.91 62.7781C105.111 62.7591 105.163 62.7503 105.078 62.7527C104.85 62.7629 105.332 62.8097 105.152 62.7629C104.972 62.7161 105.396 62.8897 105.233 62.7945C105.069 62.6995 105.423 62.9683 105.305 62.8427C105.419 63.0025 105.448 63.0379 105.392 62.9467C105.462 63.1329 105.482 63.1735 105.452 63.0735C105.31 62.5309 104.679 62.1469 104.134 62.3243C103.863 62.4041 103.633 62.5863 103.493 62.8321C103.353 63.0781 103.315 63.3685 103.385 63.6425C103.493 64.0205 103.727 64.3503 104.048 64.5781C104.368 64.8057 104.756 64.9179 105.149 64.8959C105.375 64.8831 105.595 64.8233 105.797 64.7207C105.998 64.6179 106.176 64.4745 106.319 64.2995C106.462 64.1243 106.567 63.9215 106.627 63.7037C106.688 63.4859 106.702 63.2579 106.67 63.0341C106.55 62.1469 105.783 61.4359 104.856 61.5613C104.437 61.6111 104.052 61.8143 103.774 62.1317C103.394 62.5791 103.292 63.0683 103.381 63.6425C103.419 63.8959 103.666 64.1621 103.873 64.2839C104.118 64.4277 104.41 64.4683 104.685 64.3971C104.96 64.3259 105.196 64.1483 105.34 63.9035C105.471 63.6493 105.509 63.3577 105.448 63.0785V63.0697Z" fill="#CFE7FF"/>
<path d="M119.42 59.666C119.378 59.6734 119.336 59.6764 119.293 59.675L119.454 59.694C119.249 59.6572 119.665 59.7966 119.484 59.694C119.604 59.7928 119.637 59.813 119.58 59.756C119.523 59.699 119.549 59.7268 119.651 59.846C119.537 59.6888 119.721 60.0678 119.667 59.8688C119.676 59.922 119.685 59.9754 119.695 60.0286C119.662 60.2048 119.661 60.2402 119.695 60.135L119.634 60.2908C119.522 60.424 119.494 60.4594 119.549 60.3998C119.605 60.3404 119.306 60.5266 119.506 60.4328C119.601 60.386 119.236 60.5152 119.459 60.4608C119.586 60.4304 119.187 60.4722 119.368 60.481C119.174 60.4468 119.134 60.443 119.241 60.4684L119.087 60.4012C119.157 60.4442 119.151 60.4366 119.07 60.3796C119 60.336 118.944 60.2726 118.909 60.1972C119.007 60.372 118.845 59.9436 118.893 60.14C118.941 60.3366 118.859 59.8626 118.882 60.0754C118.901 60.2592 118.942 59.822 118.882 60.0108C118.903 59.9588 118.926 59.9082 118.947 59.8574C118.906 59.9272 118.913 59.922 118.973 59.841C119.032 59.7598 119.042 59.756 118.987 59.8168C119.136 59.713 119.164 59.6902 119.069 59.746C118.585 60.0286 118.372 60.7268 118.689 61.2124C118.837 61.4532 119.072 61.6274 119.345 61.6984C119.619 61.7692 119.909 61.7314 120.155 61.5926C120.5 61.384 120.766 61.0658 120.909 60.6888C121.052 60.312 121.065 59.8978 120.946 59.5126C120.812 59.0976 120.524 58.7498 120.141 58.5408C119.758 58.3318 119.31 58.2772 118.888 58.3884C118.46 58.4914 118.087 58.7544 117.847 59.1232C117.607 59.492 117.516 59.9388 117.595 60.372C117.738 61.178 118.58 61.9068 119.424 61.8042C119.718 61.7674 119.963 61.7078 120.184 61.4898C120.384 61.287 120.496 61.014 120.497 60.7294C120.475 60.2072 120.022 59.5888 119.426 59.6572L119.42 59.666Z" fill="#CFE7FF"/>
<path d="M116.188 50.9772C116.441 50.4462 116.468 49.8758 116.171 49.3524C115.938 48.94 115.556 48.6324 115.104 48.493C114.035 48.1902 113.108 49.0164 113.029 50.0582C112.957 51.0164 113.725 51.8872 114.701 51.8618C114.941 51.8514 115.176 51.7938 115.394 51.692C115.611 51.5902 115.807 51.4462 115.968 51.2686C116.163 51.057 116.303 50.801 116.376 50.5228C116.449 50.2448 116.453 49.953 116.388 49.673C116.275 49.123 115.594 48.7542 115.07 48.924C114.799 49.0054 114.57 49.188 114.431 49.4336C114.291 49.6794 114.252 49.9692 114.321 50.2434C114.305 50.057 114.298 50.0216 114.299 50.1356C114.292 50.0242 114.321 49.9134 114.383 49.82L114.355 49.872C114.293 49.9646 114.312 49.9404 114.412 49.7984C114.285 49.9506 114.603 49.6946 114.437 49.777C114.605 49.7148 114.634 49.7008 114.527 49.7364C114.717 49.7198 114.754 49.7148 114.639 49.7186L114.807 49.7428C114.964 49.82 114.997 49.834 114.907 49.7846C115.053 49.9112 115.087 49.9316 115.011 49.8568C115.048 49.9036 115.084 49.9506 115.12 49.9962C115.068 49.9012 115.084 49.943 115.166 50.123C115.155 50.0916 115.146 50.0594 115.139 50.0266C115.148 50.0888 115.156 50.1534 115.165 50.2116C115.162 50.1784 115.162 50.1448 115.165 50.1116C115.133 50.3042 115.125 50.3574 115.143 50.2712C115.148 50.2466 115.155 50.2226 115.163 50.199C115.081 50.3764 115.065 50.417 115.115 50.3258C115.158 50.261 115.148 50.2712 115.087 50.3562C115.027 50.441 115.015 50.4486 115.07 50.3942C114.989 50.482 114.883 50.5434 114.767 50.5704C114.852 50.55 114.842 50.5488 114.736 50.5704C114.65 50.5928 114.56 50.5884 114.477 50.5576C114.583 50.588 114.55 50.5716 114.379 50.507C114.45 50.5514 114.446 50.545 114.366 50.4866C114.286 50.4284 114.284 50.4208 114.346 50.4766C114.421 50.559 114.4 50.5324 114.288 50.3968C114.394 50.5614 114.226 50.161 114.269 50.3486C114.252 50.1558 114.245 50.1166 114.247 50.2306C114.243 50.1164 114.273 50.0032 114.333 49.9062C114.094 50.4132 114.175 51.0862 114.714 51.3726C115.19 51.6262 115.925 51.5298 116.18 50.9924L116.188 50.9772Z" fill="#CFE7FF"/>
<g opacity="0.28">
<path d="M94.7223 44.3112C95.0151 48.13 93.0189 51.3986 90.2647 51.609C87.5107 51.8194 85.0391 48.8956 84.7463 45.0756C84.4535 41.2556 86.4497 37.988 89.2039 37.7764C91.9581 37.5648 94.4295 40.4912 94.7223 44.3112Z" fill="white"/>
</g>
<path d="M109.908 40.7287C109.872 40.6145 109.872 40.4921 109.908 40.3777C109.883 40.4575 109.89 40.4499 109.927 40.3537C109.963 40.2573 109.971 40.2509 109.927 40.3245C110.041 40.1859 110.062 40.1567 109.987 40.2371C110.128 40.1381 110.164 40.1103 110.095 40.1571C110.072 40.1735 110.048 40.1875 110.023 40.1991C110.195 40.1331 110.229 40.1153 110.123 40.1457L110.299 40.1191C110.492 40.1547 110.532 40.1597 110.426 40.1319C110.606 40.2167 110.648 40.2319 110.553 40.1775L110.697 40.2865C110.624 40.2091 110.65 40.2459 110.774 40.3955C110.762 40.3761 110.75 40.3557 110.74 40.3347C110.702 40.2585 110.722 40.3081 110.802 40.4803C110.792 40.4503 110.785 40.4193 110.78 40.3879C110.8 40.5869 110.809 40.6413 110.807 40.5539C110.793 40.3295 110.735 40.7959 110.799 40.6299L110.726 40.7997C110.781 40.7085 110.752 40.7415 110.639 40.9011C110.766 40.7745 110.418 41.0495 110.573 40.9557C110.387 41.0267 110.345 41.0481 110.446 41.0191C110.246 41.0393 110.193 41.0469 110.278 41.0443C110.506 41.0343 110.024 40.9873 110.204 41.0343C110.384 41.0811 109.959 40.9075 110.123 41.0025C110.286 41.0977 109.933 40.8301 110.051 40.9545C109.937 40.7947 109.908 40.7605 109.963 40.8517C109.894 40.6655 109.875 40.6235 109.904 40.7249C110.046 41.2675 110.677 41.6503 111.223 41.4741C111.494 41.3935 111.723 41.2109 111.863 40.9649C112.002 40.7189 112.041 40.4285 111.971 40.1547C111.862 39.7769 111.628 39.4471 111.308 39.2195C110.987 38.9917 110.599 38.8795 110.207 38.9011C109.981 38.9143 109.76 38.9741 109.559 39.0771C109.358 39.1799 109.18 39.3233 109.037 39.4985C108.894 39.6737 108.789 39.8767 108.728 40.0945C108.668 40.3125 108.653 40.5405 108.686 40.7643C108.812 41.6515 109.573 42.3613 110.499 42.2371C110.918 42.1867 111.304 41.9831 111.582 41.6655C111.962 41.2181 112.063 40.7301 111.975 40.1547C111.937 39.9075 111.69 39.6351 111.483 39.5209C111.238 39.3775 110.946 39.3369 110.671 39.4081C110.396 39.4795 110.16 39.6567 110.015 39.9011C109.885 40.1559 109.847 40.4479 109.908 40.7275V40.7287Z" fill="#CFE7FF"/>
<path d="M102.12 52.4374C102.374 51.9076 102.401 51.336 102.103 50.8138C101.872 50.4004 101.49 50.0926 101.037 49.9544C99.9683 49.6502 99.0394 50.4766 98.9608 51.5184C98.8886 52.4766 99.6578 53.3474 100.632 53.322C101.117 53.3002 101.572 53.0874 101.9 52.73C102.094 52.5178 102.234 52.2616 102.307 51.9834C102.38 51.7052 102.384 51.4134 102.319 51.1332C102.207 50.583 101.526 50.2142 101 50.3854C100.73 50.4666 100.501 50.6488 100.362 50.8944C100.222 51.14 100.183 51.4298 100.252 51.7034C100.237 51.5172 100.229 51.4816 100.229 51.5958C100.224 51.4842 100.253 51.3736 100.314 51.2802L100.285 51.3334C100.224 51.426 100.243 51.4006 100.344 51.2586C100.217 51.4106 100.535 51.1546 100.369 51.2384C100.535 51.175 100.565 51.1622 100.459 51.1966C100.648 51.18 100.684 51.175 100.569 51.18L100.739 51.2028C100.896 51.2798 100.929 51.2936 100.838 51.2446C100.984 51.3714 101.019 51.393 100.942 51.3182L101.052 51.4576C100.999 51.3626 101.014 51.4032 101.096 51.5844C101.086 51.5532 101.078 51.5214 101.071 51.4892C101.079 51.5502 101.087 51.616 101.095 51.6744C101.095 51.6402 101.095 51.6072 101.095 51.573C101.063 51.7656 101.057 51.8188 101.075 51.7338C101.08 51.709 101.086 51.6846 101.094 51.6604C101.011 51.8378 100.996 51.8784 101.046 51.7872C101.089 51.7212 101.08 51.7314 101.019 51.8162C100.958 51.9012 100.946 51.91 101.001 51.8544C100.92 51.9418 100.815 52.0036 100.698 52.0318C100.782 52.0102 100.772 52.009 100.668 52.0318C100.582 52.0536 100.491 52.0492 100.407 52.019C100.513 52.0494 100.482 52.033 100.309 51.9684C100.38 52.0128 100.376 52.0052 100.297 51.9468C100.217 51.8886 100.214 51.881 100.278 51.938C100.351 52.0204 100.332 51.9924 100.218 51.8568C100.325 52.0216 100.156 51.6224 100.2 51.81C100.183 51.616 100.175 51.5768 100.177 51.6908C100.174 51.5766 100.204 51.4638 100.264 51.3664C100.025 51.8734 100.105 52.5464 100.644 52.8328C101.12 53.0862 101.856 52.99 102.112 52.4526L102.12 52.4374Z" fill="#CFE7FF"/>
<path d="M84.9292 40.3641C84.8936 40.2499 84.8936 40.1275 84.9292 40.0131C84.9052 40.0929 84.9114 40.0853 84.9482 39.9891C84.985 39.8927 84.9926 39.8863 84.9482 39.9599C85.0636 39.8217 85.0838 39.7925 85.009 39.8737C85.1498 39.7735 85.1852 39.7469 85.1168 39.7925C85.0942 39.8089 85.07 39.8229 85.0446 39.8345C85.2136 39.7685 85.2464 39.7507 85.1434 39.7811L85.3196 39.7545C85.5134 39.7913 85.5528 39.7951 85.4464 39.7673C85.6254 39.8517 85.6676 39.8669 85.573 39.8129L85.7176 39.9231C85.644 39.8445 85.6694 39.8813 85.7948 40.0309C85.782 40.0111 85.7702 39.9909 85.7594 39.9701C85.7214 39.8939 85.7428 39.9433 85.8228 40.1157C85.8126 40.0857 85.805 40.0547 85.8 40.0233C85.8202 40.2223 85.829 40.2767 85.8266 40.1893C85.8138 39.9649 85.7556 40.4313 85.819 40.2653L85.7466 40.4351C85.8012 40.3439 85.772 40.3769 85.6592 40.5365C85.786 40.4099 85.4386 40.6849 85.5934 40.5911C85.407 40.6621 85.3652 40.6835 85.4666 40.6545C85.2664 40.6747 85.213 40.6823 85.2992 40.6797C85.5274 40.6697 85.0458 40.6227 85.2258 40.6697C85.4058 40.7165 84.9812 40.5429 85.1434 40.6379C85.3056 40.7329 84.9546 40.4655 85.0724 40.5897C84.9584 40.4301 84.9292 40.3959 84.985 40.4871C84.9152 40.3009 84.895 40.2589 84.9254 40.3603C85.0674 40.9029 85.6986 41.2857 86.2436 41.1095C86.5148 41.0291 86.7444 40.8467 86.884 40.6007C87.0236 40.3547 87.0626 40.0641 86.9926 39.7901C86.884 39.4123 86.6502 39.0825 86.3296 38.8551C86.0092 38.6275 85.6208 38.5157 85.2282 38.5379C85.0026 38.5505 84.782 38.6101 84.5804 38.7129C84.379 38.8155 84.2012 38.9589 84.058 39.1339C83.915 39.3091 83.81 39.5121 83.7496 39.7299C83.6892 39.9479 83.6748 40.1759 83.7074 40.3997C83.8278 41.2869 84.5946 41.9967 85.521 41.8725C85.94 41.8217 86.3254 41.6183 86.6034 41.3009C86.9836 40.8535 87.085 40.3655 86.9964 39.7901C86.9584 39.5429 86.7112 39.2703 86.5034 39.1563C86.2584 39.0129 85.9664 38.9725 85.6916 39.0437C85.4168 39.1149 85.1814 39.2921 85.037 39.5365C84.9068 39.7913 84.8686 40.0833 84.9292 40.3629V40.3641Z" fill="#CFE7FF"/>
</g>
<path d="M38.186 99.5V89.3182H41.8153C42.6074 89.3182 43.2636 89.4624 43.784 89.7507C44.3044 90.0391 44.6938 90.4335 44.9523 90.9339C45.2108 91.4311 45.3401 91.9912 45.3401 92.6143C45.3401 93.2408 45.2092 93.8042 44.9474 94.3047C44.6888 94.8018 44.2977 95.1963 43.7741 95.4879C43.2537 95.7763 42.5991 95.9205 41.8103 95.9205H39.3145V94.6179H41.6711C42.1715 94.6179 42.5776 94.5317 42.8891 94.3594C43.2007 94.1837 43.4294 93.9451 43.5752 93.6435C43.721 93.3419 43.7939 92.9988 43.7939 92.6143C43.7939 92.2299 43.721 91.8885 43.5752 91.5902C43.4294 91.2919 43.199 91.0582 42.8841 90.8892C42.5726 90.7202 42.1616 90.6357 41.6512 90.6357H39.7222V99.5H38.186ZM50.2172 99.6541C49.4649 99.6541 48.8169 99.4934 48.2733 99.1719C47.7331 98.8471 47.3155 98.3913 47.0205 97.8047C46.7288 97.2147 46.583 96.5237 46.583 95.7315C46.583 94.9493 46.7288 94.2599 47.0205 93.6634C47.3155 93.0668 47.7265 92.6011 48.2535 92.2663C48.7838 91.9316 49.4036 91.7642 50.1128 91.7642C50.5437 91.7642 50.9613 91.8355 51.3657 91.978C51.77 92.1205 52.133 92.3442 52.4545 92.6491C52.776 92.9541 53.0295 93.3501 53.2151 93.8374C53.4007 94.3213 53.4935 94.9096 53.4935 95.6023V96.1293H47.4232V95.0156H52.0368C52.0368 94.6245 51.9573 94.2782 51.7982 93.9766C51.6391 93.6716 51.4154 93.4313 51.127 93.2557C50.842 93.08 50.5073 92.9922 50.1228 92.9922C49.7052 92.9922 49.3406 93.0949 49.029 93.3004C48.7208 93.5026 48.4822 93.7678 48.3131 94.0959C48.1474 94.4207 48.0645 94.7737 48.0645 95.1548V96.0249C48.0645 96.5353 48.154 96.9695 48.333 97.3274C48.5153 97.6854 48.7689 97.9588 49.0937 98.1477C49.4185 98.3333 49.798 98.4261 50.2322 98.4261C50.5139 98.4261 50.7707 98.3864 51.0028 98.3068C51.2348 98.224 51.4353 98.1013 51.6043 97.9389C51.7733 97.7765 51.9026 97.576 51.9921 97.3374L53.3991 97.5909C53.2864 98.0052 53.0842 98.3681 52.7925 98.6797C52.5042 98.9879 52.1412 99.2282 51.7037 99.4006C51.2696 99.5696 50.7741 99.6541 50.2172 99.6541ZM55.1428 99.5V91.8636H56.5796V93.0767H56.6592C56.7984 92.6657 57.0436 92.3426 57.395 92.1072C57.7496 91.8686 58.1507 91.7493 58.5981 91.7493C58.6909 91.7493 58.8003 91.7526 58.9262 91.7592C59.0555 91.7659 59.1566 91.7741 59.2295 91.7841V93.206C59.1698 93.1894 59.0638 93.1712 58.9113 93.1513C58.7588 93.1281 58.6064 93.1165 58.4539 93.1165C58.1026 93.1165 57.7894 93.1911 57.5143 93.3402C57.2425 93.486 57.0271 93.6899 56.868 93.9517C56.7089 94.2102 56.6294 94.5052 56.6294 94.8366V99.5H55.1428ZM62.6698 99.669C62.1859 99.669 61.7484 99.5795 61.3573 99.4006C60.9662 99.2183 60.6563 98.9548 60.4276 98.6101C60.2023 98.2654 60.0896 97.8428 60.0896 97.3423C60.0896 96.9115 60.1724 96.5568 60.3382 96.2784C60.5039 96 60.7276 95.7796 61.0093 95.6172C61.291 95.4548 61.6059 95.3321 61.9539 95.2493C62.3019 95.1664 62.6566 95.1035 63.0178 95.0604C63.4752 95.0073 63.8464 94.9643 64.1315 94.9311C64.4165 94.8946 64.6237 94.8366 64.7529 94.7571C64.8822 94.6776 64.9468 94.5483 64.9468 94.3693V94.3345C64.9468 93.9003 64.8242 93.5639 64.5789 93.3253C64.337 93.0866 63.9757 92.9673 63.4951 92.9673C62.9946 92.9673 62.6002 93.0784 62.3119 93.3004C62.0268 93.5192 61.8296 93.7628 61.7203 94.0312L60.3232 93.7131C60.489 93.2491 60.7309 92.8745 61.0491 92.5895C61.3706 92.3011 61.7401 92.0923 62.1578 91.9631C62.5754 91.8305 63.0145 91.7642 63.4752 91.7642C63.7802 91.7642 64.1033 91.8007 64.4447 91.8736C64.7894 91.9432 65.1109 92.0724 65.4092 92.2614C65.7108 92.4503 65.9577 92.7204 66.1499 93.0717C66.3422 93.4197 66.4383 93.8722 66.4383 94.429V99.5H64.9866V98.456H64.9269C64.8308 98.6482 64.6866 98.8371 64.4944 99.0227C64.3022 99.2083 64.0552 99.3625 63.7536 99.4851C63.452 99.6077 63.0908 99.669 62.6698 99.669ZM62.993 98.4759C63.404 98.4759 63.7553 98.3946 64.047 98.2322C64.3419 98.0698 64.5657 97.8577 64.7181 97.5959C64.8739 97.3307 64.9518 97.0473 64.9518 96.7457V95.7614C64.8988 95.8144 64.796 95.8641 64.6436 95.9105C64.4944 95.9536 64.3237 95.9917 64.1315 96.0249C63.9392 96.0547 63.752 96.0829 63.5697 96.1094C63.3874 96.1326 63.2349 96.1525 63.1123 96.169C62.824 96.2055 62.5605 96.2668 62.3218 96.353C62.0865 96.4392 61.8976 96.5634 61.7551 96.7259C61.6159 96.8849 61.5463 97.0971 61.5463 97.3622C61.5463 97.7301 61.6821 98.0085 61.9539 98.1974C62.2257 98.383 62.5721 98.4759 62.993 98.4759ZM69.9047 89.3182V99.5H68.4182V89.3182H69.9047ZM74.1269 99.669C73.643 99.669 73.2055 99.5795 72.8144 99.4006C72.4233 99.2183 72.1134 98.9548 71.8847 98.6101C71.6593 98.2654 71.5466 97.8428 71.5466 97.3423C71.5466 96.9115 71.6295 96.5568 71.7952 96.2784C71.9609 96 72.1846 95.7796 72.4664 95.6172C72.7481 95.4548 73.0629 95.3321 73.411 95.2493C73.759 95.1664 74.1136 95.1035 74.4749 95.0604C74.9323 95.0073 75.3035 94.9643 75.5885 94.9311C75.8736 94.8946 76.0807 94.8366 76.21 94.7571C76.3392 94.6776 76.4039 94.5483 76.4039 94.3693V94.3345C76.4039 93.9003 76.2812 93.5639 76.036 93.3253C75.794 93.0866 75.4327 92.9673 74.9521 92.9673C74.4517 92.9673 74.0573 93.0784 73.7689 93.3004C73.4839 93.5192 73.2867 93.7628 73.1773 94.0312L71.7803 93.7131C71.946 93.2491 72.1879 92.8745 72.5061 92.5895C72.8276 92.3011 73.1972 92.0923 73.6148 91.9631C74.0324 91.8305 74.4716 91.7642 74.9323 91.7642C75.2372 91.7642 75.5603 91.8007 75.9017 91.8736C76.2464 91.9432 76.5679 92.0724 76.8662 92.2614C77.1678 92.4503 77.4147 92.7204 77.607 93.0717C77.7992 93.4197 77.8953 93.8722 77.8953 94.429V99.5H76.4436V98.456H76.384C76.2878 98.6482 76.1437 98.8371 75.9514 99.0227C75.7592 99.2083 75.5123 99.3625 75.2107 99.4851C74.9091 99.6077 74.5478 99.669 74.1269 99.669ZM74.45 98.4759C74.861 98.4759 75.2123 98.3946 75.504 98.2322C75.799 98.0698 76.0227 97.8577 76.1752 97.5959C76.3309 97.3307 76.4088 97.0473 76.4088 96.7457V95.7614C76.3558 95.8144 76.253 95.8641 76.1006 95.9105C75.9514 95.9536 75.7807 95.9917 75.5885 96.0249C75.3963 96.0547 75.209 96.0829 75.0267 96.1094C74.8444 96.1326 74.692 96.1525 74.5693 96.169C74.281 96.2055 74.0175 96.2668 73.7789 96.353C73.5435 96.4392 73.3546 96.5634 73.2121 96.7259C73.0729 96.8849 73.0033 97.0971 73.0033 97.3622C73.0033 97.7301 73.1392 98.0085 73.411 98.1974C73.6827 98.383 74.0291 98.4759 74.45 98.4759ZM83.4399 91.8636V93.0568H79.2687V91.8636H83.4399ZM80.3873 90.0341H81.8738V97.2578C81.8738 97.5462 81.9169 97.7633 82.0031 97.9091C82.0893 98.0516 82.2003 98.1494 82.3362 98.2024C82.4754 98.2521 82.6262 98.277 82.7886 98.277C82.9079 98.277 83.0123 98.2687 83.1018 98.2521C83.1913 98.2356 83.2609 98.2223 83.3106 98.2124L83.5791 99.4403C83.4929 99.4735 83.3703 99.5066 83.2112 99.5398C83.0521 99.5762 82.8532 99.5961 82.6146 99.5994C82.2235 99.6061 81.8589 99.5365 81.5209 99.3906C81.1828 99.2448 80.9094 99.0194 80.7006 98.7145C80.4917 98.4096 80.3873 98.0268 80.3873 97.5661V90.0341ZM87.3066 99.669C86.8227 99.669 86.3852 99.5795 85.9941 99.4006C85.603 99.2183 85.2931 98.9548 85.0644 98.6101C84.839 98.2654 84.7263 97.8428 84.7263 97.3423C84.7263 96.9115 84.8092 96.5568 84.9749 96.2784C85.1406 96 85.3643 95.7796 85.646 95.6172C85.9278 95.4548 86.2426 95.3321 86.5906 95.2493C86.9387 95.1664 87.2933 95.1035 87.6546 95.0604C88.1119 95.0073 88.4832 94.9643 88.7682 94.9311C89.0532 94.8946 89.2604 94.8366 89.3896 94.7571C89.5189 94.6776 89.5835 94.5483 89.5835 94.3693V94.3345C89.5835 93.9003 89.4609 93.5639 89.2156 93.3253C88.9737 93.0866 88.6124 92.9673 88.1318 92.9673C87.6314 92.9673 87.2369 93.0784 86.9486 93.3004C86.6636 93.5192 86.4664 93.7628 86.357 94.0312L84.96 93.7131C85.1257 93.2491 85.3676 92.8745 85.6858 92.5895C86.0073 92.3011 86.3769 92.0923 86.7945 91.9631C87.2121 91.8305 87.6512 91.7642 88.1119 91.7642C88.4169 91.7642 88.74 91.8007 89.0814 91.8736C89.4261 91.9432 89.7476 92.0724 90.0459 92.2614C90.3475 92.4503 90.5944 92.7204 90.7867 93.0717C90.9789 93.4197 91.075 93.8722 91.075 94.429V99.5H89.6233V98.456H89.5637C89.4675 98.6482 89.3234 98.8371 89.1311 99.0227C88.9389 99.2083 88.692 99.3625 88.3904 99.4851C88.0887 99.6077 87.7275 99.669 87.3066 99.669ZM87.6297 98.4759C88.0407 98.4759 88.392 98.3946 88.6837 98.2322C88.9787 98.0698 89.2024 97.8577 89.3548 97.5959C89.5106 97.3307 89.5885 97.0473 89.5885 96.7457V95.7614C89.5355 95.8144 89.4327 95.8641 89.2803 95.9105C89.1311 95.9536 88.9604 95.9917 88.7682 96.0249C88.576 96.0547 88.3887 96.0829 88.2064 96.1094C88.0241 96.1326 87.8717 96.1525 87.749 96.169C87.4607 96.2055 87.1972 96.2668 86.9585 96.353C86.7232 96.4392 86.5343 96.5634 86.3918 96.7259C86.2526 96.8849 86.183 97.0971 86.183 97.3622C86.183 97.7301 86.3189 98.0085 86.5906 98.1974C86.8624 98.383 87.2088 98.4759 87.6297 98.4759ZM94.5415 94.9659V99.5H93.055V91.8636H94.4818V93.1065H94.5763C94.7519 92.7022 95.027 92.3774 95.4015 92.1321C95.7794 91.8868 96.255 91.7642 96.8284 91.7642C97.3488 91.7642 97.8045 91.8736 98.1956 92.0923C98.5867 92.3078 98.8899 92.6293 99.1054 93.0568C99.3208 93.4844 99.4285 94.013 99.4285 94.6428V99.5H97.942V94.8217C97.942 94.2682 97.7979 93.8357 97.5095 93.5241C97.2211 93.2093 96.8251 93.0518 96.3213 93.0518C95.9766 93.0518 95.67 93.1264 95.4015 93.2756C95.1364 93.4247 94.9259 93.6435 94.7702 93.9318C94.6177 94.2169 94.5415 94.5616 94.5415 94.9659ZM105.247 89.3182H107.111L110.352 97.233H110.472L113.713 89.3182H115.578V99.5H114.116V92.1321H114.021L111.019 99.4851H109.805L106.803 92.1271H106.708V99.5H105.247V89.3182ZM119.914 99.669C119.43 99.669 118.993 99.5795 118.601 99.4006C118.21 99.2183 117.9 98.9548 117.672 98.6101C117.446 98.2654 117.334 97.8428 117.334 97.3423C117.334 96.9115 117.417 96.5568 117.582 96.2784C117.748 96 117.972 95.7796 118.253 95.6172C118.535 95.4548 118.85 95.3321 119.198 95.2493C119.546 95.1664 119.901 95.1035 120.262 95.0604C120.719 95.0073 121.091 94.9643 121.376 94.9311C121.661 94.8946 121.868 94.8366 121.997 94.7571C122.126 94.6776 122.191 94.5483 122.191 94.3693V94.3345C122.191 93.9003 122.068 93.5639 121.823 93.3253C121.581 93.0866 121.22 92.9673 120.739 92.9673C120.239 92.9673 119.844 93.0784 119.556 93.3004C119.271 93.5192 119.074 93.7628 118.964 94.0312L117.567 93.7131C117.733 93.2491 117.975 92.8745 118.293 92.5895C118.615 92.3011 118.984 92.0923 119.402 91.9631C119.82 91.8305 120.259 91.7642 120.719 91.7642C121.024 91.7642 121.347 91.8007 121.689 91.8736C122.034 91.9432 122.355 92.0724 122.653 92.2614C122.955 92.4503 123.202 92.7204 123.394 93.0717C123.586 93.4197 123.682 93.8722 123.682 94.429V99.5H122.231V98.456H122.171C122.075 98.6482 121.931 98.8371 121.739 99.0227C121.546 99.2083 121.299 99.3625 120.998 99.4851C120.696 99.6077 120.335 99.669 119.914 99.669ZM120.237 98.4759C120.648 98.4759 120.999 98.3946 121.291 98.2322C121.586 98.0698 121.81 97.8577 121.962 97.5959C122.118 97.3307 122.196 97.0473 122.196 96.7457V95.7614C122.143 95.8144 122.04 95.8641 121.888 95.9105C121.739 95.9536 121.568 95.9917 121.376 96.0249C121.183 96.0547 120.996 96.0829 120.814 96.1094C120.632 96.1326 120.479 96.1525 120.356 96.169C120.068 96.2055 119.805 96.2668 119.566 96.353C119.331 96.4392 119.142 96.5634 118.999 96.7259C118.86 96.8849 118.79 97.0971 118.79 97.3622C118.79 97.7301 118.926 98.0085 119.198 98.1974C119.47 98.383 119.816 98.4759 120.237 98.4759ZM131.385 93.728L130.037 93.9666C129.981 93.7943 129.892 93.6302 129.769 93.4744C129.65 93.3187 129.487 93.1911 129.282 93.0916C129.076 92.9922 128.819 92.9425 128.511 92.9425C128.09 92.9425 127.739 93.0369 127.457 93.2259C127.175 93.4115 127.035 93.6518 127.035 93.9467C127.035 94.2019 127.129 94.4074 127.318 94.5632C127.507 94.719 127.812 94.8466 128.233 94.946L129.446 95.2244C130.148 95.3868 130.672 95.6371 131.017 95.9751C131.361 96.3132 131.534 96.7524 131.534 97.2926C131.534 97.75 131.401 98.1577 131.136 98.5156C130.874 98.8703 130.508 99.1487 130.037 99.3509C129.57 99.553 129.028 99.6541 128.412 99.6541C127.557 99.6541 126.859 99.4718 126.319 99.1072C125.778 98.7393 125.447 98.2173 125.324 97.5412L126.761 97.3224C126.851 97.697 127.035 97.9804 127.313 98.1726C127.591 98.3615 127.954 98.456 128.402 98.456C128.889 98.456 129.278 98.3549 129.57 98.1527C129.862 97.9472 130.008 97.697 130.008 97.402C130.008 97.1634 129.918 96.9628 129.739 96.8004C129.563 96.638 129.293 96.5154 128.929 96.4325L127.636 96.1491C126.924 95.9867 126.397 95.7282 126.055 95.3736C125.717 95.0189 125.548 94.5698 125.548 94.0263C125.548 93.5755 125.674 93.1811 125.926 92.843C126.178 92.505 126.526 92.2415 126.97 92.0526C127.414 91.8603 127.923 91.7642 128.496 91.7642C129.321 91.7642 129.971 91.9432 130.445 92.3011C130.919 92.6558 131.232 93.1314 131.385 93.728ZM135.391 99.669C134.907 99.669 134.469 99.5795 134.078 99.4006C133.687 99.2183 133.377 98.9548 133.148 98.6101C132.923 98.2654 132.81 97.8428 132.81 97.3423C132.81 96.9115 132.893 96.5568 133.059 96.2784C133.225 96 133.448 95.7796 133.73 95.6172C134.012 95.4548 134.327 95.3321 134.675 95.2493C135.023 95.1664 135.377 95.1035 135.739 95.0604C136.196 95.0073 136.567 94.9643 136.852 94.9311C137.137 94.8946 137.344 94.8366 137.474 94.7571C137.603 94.6776 137.668 94.5483 137.668 94.3693V94.3345C137.668 93.9003 137.545 93.5639 137.3 93.3253C137.058 93.0866 136.696 92.9673 136.216 92.9673C135.715 92.9673 135.321 93.0784 135.033 93.3004C134.748 93.5192 134.55 93.7628 134.441 94.0312L133.044 93.7131C133.21 93.2491 133.452 92.8745 133.77 92.5895C134.091 92.3011 134.461 92.0923 134.878 91.9631C135.296 91.8305 135.735 91.7642 136.196 91.7642C136.501 91.7642 136.824 91.8007 137.165 91.8736C137.51 91.9432 137.832 92.0724 138.13 92.2614C138.431 92.4503 138.678 92.7204 138.871 93.0717C139.063 93.4197 139.159 93.8722 139.159 94.429V99.5H137.707V98.456H137.648C137.552 98.6482 137.407 98.8371 137.215 99.0227C137.023 99.2083 136.776 99.3625 136.474 99.4851C136.173 99.6077 135.811 99.669 135.391 99.669ZM135.714 98.4759C136.125 98.4759 136.476 98.3946 136.768 98.2322C137.063 98.0698 137.286 97.8577 137.439 97.5959C137.595 97.3307 137.672 97.0473 137.672 96.7457V95.7614C137.619 95.8144 137.517 95.8641 137.364 95.9105C137.215 95.9536 137.044 95.9917 136.852 96.0249C136.66 96.0547 136.473 96.0829 136.29 96.1094C136.108 96.1326 135.956 96.1525 135.833 96.169C135.545 96.2055 135.281 96.2668 135.043 96.353C134.807 96.4392 134.618 96.5634 134.476 96.7259C134.337 96.8849 134.267 97.0971 134.267 97.3622C134.267 97.7301 134.403 98.0085 134.675 98.1974C134.946 98.383 135.293 98.4759 135.714 98.4759ZM142.506 96.9098L142.496 95.0952H142.755L145.797 91.8636H147.577L144.107 95.5426H143.873L142.506 96.9098ZM141.139 99.5V89.3182H142.625V99.5H141.139ZM145.961 99.5L143.227 95.8707L144.251 94.8317L147.786 99.5H145.961Z" fill="#252525"/>
</g>
<defs>
<linearGradient id="paint0_linear_103_3091" x1="53.3378" y1="43.5718" x2="130.663" y2="43.5718" gradientUnits="userSpaceOnUse">
<stop stop-color="#E0F9FF"/>
<stop offset="1" stop-color="#DAEEFC"/>
</linearGradient>
<clipPath id="clip0_103_3091">
<rect y="0.5" width="184" height="109" rx="8" fill="white"/>
</clipPath>
</defs>
</svg>
