<svg width="184" height="110" viewBox="0 0 184 110" fill="none" xmlns="http://www.w3.org/2000/svg">
<g clip-path="url(#clip0_103_3097)">
<rect y="0.5" width="184" height="109" rx="8" fill="white"/>
<path fill-rule="evenodd" clip-rule="evenodd" d="M91.5206 13.796C98.5822 13.4015 105.43 15.5501 111.009 19.9926C117.46 25.1294 122.352 31.7982 124.318 39.9114C127.011 51.0242 131.274 64.3816 123.841 72.9466C116.333 81.5988 102.81 78.4894 91.5206 77.7048C81.309 76.995 70.3074 76.3802 63.316 68.7396C56.4716 61.2594 54.6458 49.8814 56.9388 39.9114C58.878 31.48 67.2368 27.2038 74.0524 22.057C79.4166 18.0059 84.8608 14.168 91.5206 13.796Z" fill="url(#paint0_linear_103_3097)" fill-opacity="0.59"/>
<mask id="mask0_103_3097" style="mask-type:alpha" maskUnits="userSpaceOnUse" x="58" y="15" width="68" height="63">
<path fill-rule="evenodd" clip-rule="evenodd" d="M91.5543 15.6098C98.2215 15.2374 104.686 17.2659 109.953 21.4602C116.044 26.31 120.663 32.6062 122.519 40.266C125.061 50.758 129.086 63.369 122.069 71.4552C114.98 79.6242 102.213 76.6886 91.5543 75.9476C81.9133 75.2776 71.5263 74.6972 64.9257 67.4834C58.4637 60.4212 56.7401 49.679 58.9049 40.266C60.7355 32.3056 68.6275 28.2684 75.0621 23.4092C80.1267 19.5845 85.2667 15.9611 91.5543 15.6098Z" fill="#C4C4C4"/>
</mask>
<g mask="url(#mask0_103_3097)">
<path d="M110.674 52.0915C110.761 55.1861 110.12 58.0637 110.12 58.0637H112.823C112.823 58.0637 112.128 55.2581 112.212 52.1625C112.433 44.2847 113.576 30.7197 113.501 28.6135C113.417 26.1119 112.275 25.5879 111.469 25.5859C110.663 25.5859 109.522 26.1119 109.437 28.6135C109.366 30.7197 110.452 44.2139 110.674 52.0915ZM111.515 26.6735C111.762 26.6733 112.004 26.7481 112.21 26.8885C112.415 27.0287 112.576 27.2283 112.671 27.4619C112.765 27.6955 112.79 27.9527 112.742 28.2007C112.694 28.4487 112.575 28.6765 112.4 28.8553C112.225 29.0341 112.002 29.1559 111.759 29.2053C111.517 29.2545 111.265 29.2291 111.037 29.1323C110.808 29.0353 110.613 28.8715 110.475 28.6611C110.338 28.4507 110.265 28.2035 110.265 27.9505C110.265 27.6119 110.397 27.2871 110.631 27.0475C110.865 26.8079 111.183 26.6735 111.515 26.6735Z" fill="url(#paint1_linear_103_3097)"/>
<path d="M112.218 52.1597C112.218 52.0969 112.218 52.0311 112.223 51.9671C112.025 51.8021 111.777 51.7143 111.521 51.7189C111.363 51.7167 111.206 51.7491 111.061 51.8137C110.916 51.8785 110.786 51.9739 110.68 52.0939C110.767 55.1873 110.126 58.0609 110.126 58.0609H112.829C112.829 58.0609 112.126 55.2553 112.218 52.1597Z" fill="#F0544A"/>
<path d="M107.25 73.7642C107.256 73.8894 107.308 74.0078 107.397 74.0944C107.486 74.181 107.604 74.2294 107.727 74.2294C107.849 74.2294 107.967 74.181 108.056 74.0944C108.145 74.0078 108.197 73.8894 108.203 73.7642V63.614C108.202 63.5904 108.2 63.5672 108.196 63.544H109.678C109.673 63.567 109.671 63.5904 109.671 63.614V73.7642C109.671 73.8932 109.721 74.017 109.81 74.1082C109.899 74.1994 110.02 74.2506 110.147 74.2506C110.273 74.2506 110.394 74.1994 110.483 74.1082C110.573 74.017 110.623 73.8932 110.623 73.7642V63.614C110.622 63.5904 110.62 63.5672 110.616 63.544H112.262C112.258 63.5672 112.256 63.5904 112.255 63.614V73.7642C112.255 73.8932 112.305 74.017 112.394 74.1082C112.484 74.1994 112.605 74.2506 112.731 74.2506C112.857 74.2506 112.978 74.1994 113.068 74.1082C113.157 74.017 113.207 73.8932 113.207 73.7642V63.614C113.207 63.5904 113.205 63.5672 113.201 63.544H114.739C114.735 63.5672 114.733 63.5904 114.732 63.614V73.7642C114.732 73.8932 114.782 74.017 114.872 74.1082C114.961 74.1994 115.082 74.2506 115.208 74.2506C115.334 74.2506 115.456 74.1994 115.545 74.1082C115.634 74.017 115.684 73.8932 115.684 73.7642V63.614C115.684 63.5798 115.68 63.5458 115.673 63.5126C115.763 62.4158 115.253 61.4976 114.542 60.5802C113.831 59.663 112.795 57.9844 112.795 57.9844H110.139C110.139 57.9844 109.112 59.6528 108.393 60.5802C107.674 61.5076 107.172 62.4158 107.261 63.5126C107.254 63.5458 107.25 63.5798 107.25 63.614V73.7642Z" fill="#334056"/>
<path d="M111.515 62.4647C112.847 62.4739 114.178 62.3757 115.496 62.1707C115.297 61.6133 114.954 61.0893 114.548 60.5651C114.372 60.3391 114.179 60.0685 113.985 59.7887C113.225 59.7219 112.391 59.6875 111.515 59.6875C110.606 59.6875 109.74 59.7279 108.954 59.7999C108.764 60.0767 108.573 60.3443 108.399 60.5683C107.996 61.0883 107.657 61.6081 107.455 62.1605C108.798 62.3743 110.156 62.4759 111.515 62.4647Z" fill="#53688C"/>
<path d="M95.1772 27.9303C95.1772 28.1925 95.1012 28.4485 94.9586 28.6665C94.8162 28.8843 94.6138 29.0541 94.3768 29.1543C94.14 29.2547 93.8794 29.2807 93.6278 29.2295C93.3764 29.1783 93.1454 29.0521 92.9642 28.8667C92.783 28.6813 92.6596 28.4453 92.6098 28.1881C92.5598 27.9311 92.5856 27.6647 92.684 27.4227C92.7822 27.1807 92.9484 26.9737 93.1618 26.8283C93.375 26.6829 93.6256 26.6053 93.882 26.6055C94.2256 26.6059 94.555 26.7455 94.798 26.9939C95.0408 27.2423 95.1772 27.5791 95.1772 27.9303Z" fill="#FCFCFC"/>
<path d="M93.249 52.0915C93.3364 55.1861 92.6948 58.0637 92.6948 58.0637H95.397C95.397 58.0637 94.7028 55.2581 94.7862 52.1625C95.0084 44.2847 96.1518 30.7197 96.0804 28.6135C95.995 26.1119 94.8546 25.5879 94.0484 25.5859C93.2422 25.5859 92.1008 26.1119 92.0164 28.6135C91.941 30.7197 93.027 44.2139 93.249 52.0915ZM94.09 26.6735C94.3374 26.6735 94.5792 26.7485 94.7848 26.8889C94.9906 27.0295 95.1508 27.2291 95.2454 27.4627C95.34 27.6963 95.3648 27.9533 95.3164 28.2013C95.268 28.4493 95.1488 28.6771 94.9738 28.8557C94.799 29.0345 94.576 29.1561 94.3334 29.2053C94.0908 29.2545 93.8392 29.2291 93.6108 29.1321C93.3824 29.0353 93.187 28.8713 93.0498 28.6609C92.9124 28.4507 92.8394 28.2035 92.8396 27.9505C92.8396 27.7827 92.8718 27.6167 92.9348 27.4617C92.9976 27.3065 93.0898 27.1657 93.2058 27.0471C93.322 26.9285 93.4598 26.8345 93.6116 26.7703C93.7632 26.7063 93.9258 26.6733 94.09 26.6735Z" fill="#334056"/>
<path d="M94.0935 51.7215C94.3487 51.7171 94.5975 51.8051 94.7955 51.9699C95.0305 44.0639 96.1541 30.7025 96.0847 28.6135C95.9995 26.1119 94.8591 25.5879 94.0527 25.5859C93.2465 25.5859 92.1051 26.1119 92.0209 28.6135C91.9495 30.7197 93.0353 44.2139 93.2575 52.0915V52.0967C93.3629 51.9773 93.4921 51.8821 93.6361 51.8175C93.7803 51.7529 93.9361 51.7201 94.0935 51.7215ZM92.8429 27.9505C92.8429 27.6977 92.9163 27.4507 93.0537 27.2405C93.1911 27.0303 93.3863 26.8665 93.6149 26.7697C93.8433 26.6729 94.0949 26.6477 94.3373 26.6969C94.5799 26.7463 94.8027 26.8681 94.9777 27.0467C95.1525 27.2255 95.2717 27.4533 95.3199 27.7013C95.3681 27.9491 95.3433 28.2061 95.2487 28.4397C95.1541 28.6733 94.9939 28.8729 94.7881 29.0133C94.5825 29.1537 94.3407 29.2287 94.0935 29.2287C93.7617 29.2287 93.4437 29.0941 93.2093 28.8543C92.9747 28.6147 92.8429 28.2895 92.8429 27.9505Z" fill="#334056"/>
<path d="M94.787 52.1597C94.787 52.0969 94.787 52.0311 94.7928 51.9671C94.5948 51.8023 94.3462 51.7143 94.0908 51.7189C93.9326 51.7167 93.7758 51.7491 93.6308 51.8137C93.4858 51.8783 93.356 51.9739 93.2498 52.0939C93.3362 55.1873 92.6956 58.0609 92.6956 58.0609H95.3978C95.3978 58.0609 94.7006 55.2553 94.787 52.1597Z" fill="#334056"/>
<path d="M94.787 52.1597C94.787 52.0969 94.787 52.0311 94.7928 51.9671C94.5948 51.8023 94.3462 51.7143 94.0908 51.7189C93.9326 51.7167 93.7758 51.7491 93.6308 51.8137C93.4858 51.8783 93.356 51.9739 93.2498 52.0939C93.3362 55.1873 92.6956 58.0609 92.6956 58.0609H95.3978C95.3978 58.0609 94.7006 55.2553 94.787 52.1597Z" fill="#009599"/>
<path d="M93.249 52.0915C93.3364 55.1861 92.6948 58.0637 92.6948 58.0637H95.397C95.397 58.0637 94.7028 55.2581 94.7862 52.1625C95.0084 44.2847 96.1518 30.7197 96.0804 28.6135C95.995 26.1119 94.8546 25.5879 94.0484 25.5859C93.2422 25.5859 92.1008 26.1119 92.0164 28.6135C91.941 30.7197 93.027 44.2139 93.249 52.0915ZM94.09 26.6735C94.3374 26.6735 94.5792 26.7485 94.7848 26.8889C94.9906 27.0295 95.1508 27.2291 95.2454 27.4627C95.34 27.6963 95.3648 27.9533 95.3164 28.2013C95.268 28.4493 95.1488 28.6771 94.9738 28.8557C94.799 29.0345 94.576 29.1561 94.3334 29.2053C94.0908 29.2545 93.8392 29.2291 93.6108 29.1321C93.3824 29.0353 93.187 28.8713 93.0498 28.6609C92.9124 28.4507 92.8394 28.2035 92.8396 27.9505C92.8396 27.7827 92.8718 27.6167 92.9348 27.4617C92.9976 27.3065 93.0898 27.1657 93.2058 27.0471C93.322 26.9285 93.4598 26.8345 93.6116 26.7703C93.7632 26.7063 93.9258 26.6733 94.09 26.6735Z" fill="#334056"/>
<path d="M94.0935 51.7215C94.3487 51.7171 94.5975 51.8051 94.7955 51.9699C95.0305 44.0639 96.1541 30.7025 96.0847 28.6135C95.9995 26.1119 94.8591 25.5879 94.0527 25.5859C93.2465 25.5859 92.1051 26.1119 92.0209 28.6135C91.9495 30.7197 93.0353 44.2139 93.2575 52.0915V52.0967C93.3629 51.9773 93.4921 51.8821 93.6361 51.8175C93.7803 51.7529 93.9361 51.7201 94.0935 51.7215ZM92.8429 27.9505C92.8429 27.6977 92.9163 27.4507 93.0537 27.2405C93.1911 27.0303 93.3863 26.8665 93.6149 26.7697C93.8433 26.6729 94.0949 26.6477 94.3373 26.6969C94.5799 26.7463 94.8027 26.8681 94.9777 27.0467C95.1525 27.2255 95.2717 27.4533 95.3199 27.7013C95.3681 27.9491 95.3433 28.2061 95.2487 28.4397C95.1541 28.6733 94.9939 28.8729 94.7881 29.0133C94.5825 29.1537 94.3407 29.2287 94.0935 29.2287C93.7617 29.2287 93.4437 29.0941 93.2093 28.8543C92.9747 28.6147 92.8429 28.2895 92.8429 27.9505Z" fill="url(#paint2_linear_103_3097)"/>
<path d="M94.787 52.1597C94.787 52.0969 94.787 52.0311 94.7928 51.9671C94.5948 51.8023 94.3462 51.7143 94.0908 51.7189C93.9326 51.7167 93.7758 51.7491 93.6308 51.8137C93.4858 51.8783 93.356 51.9739 93.2498 52.0939C93.3362 55.1873 92.6956 58.0609 92.6956 58.0609H95.3978C95.3978 58.0609 94.7006 55.2553 94.787 52.1597Z" fill="#334056"/>
<path d="M94.787 52.1597C94.787 52.0969 94.787 52.0311 94.7928 51.9671C94.5948 51.8023 94.3462 51.7143 94.0908 51.7189C93.9326 51.7167 93.7758 51.7491 93.6308 51.8137C93.4858 51.8783 93.356 51.9739 93.2498 52.0939C93.3362 55.1873 92.6956 58.0609 92.6956 58.0609H95.3978C95.3978 58.0609 94.7006 55.2553 94.787 52.1597Z" fill="#F0544A"/>
<path d="M90.7772 71.2102C91.9256 73.2122 93.1244 73.726 94.1628 73.726C94.8074 73.726 96.0876 73.2274 97.2974 71.263C98.8068 68.811 99.3164 64.4394 98.5222 61.6124C97.8478 59.2112 95.2794 57.4922 95.2794 57.4922H92.8102C92.8102 57.4922 90.3964 59.1646 89.5564 61.5102C88.54 64.3512 89.369 68.7584 90.7772 71.2102Z" fill="#53688C"/>
<path d="M93.9368 58.0863C93.4142 58.0983 92.619 58.4147 92.2194 58.7603C91.1264 59.7095 90.3434 60.9773 89.9752 62.3941C89.3186 64.9675 90.3402 69.8167 91.9456 71.4587C93.5512 73.1007 94.9018 73.3977 96.2892 71.4951C97.6766 69.5927 98.6504 65.3437 97.9314 62.1701C97.5842 60.6385 96.7284 59.5347 95.7496 58.7603C95.2964 58.4015 94.513 58.0731 93.9398 58.0863H93.9368Z" fill="#334056"/>
<path d="M93.9888 64.2109C91.2964 64.2109 91.0712 67.9339 91.222 70.4313C91.466 71.0081 91.6128 71.3435 91.941 71.7491C93.379 73.5461 94.9012 73.3829 96.2884 71.4803C96.4726 71.2237 96.6368 70.9525 96.7794 70.6695C96.8676 67.8871 96.5076 64.2109 93.9888 64.2109Z" fill="#53688C"/>
<path d="M76.9891 52.1597C76.9891 52.0969 76.9891 52.0311 76.9949 51.9671C76.7965 51.8021 76.5475 51.7143 76.2919 51.7189C76.1339 51.7167 75.9771 51.7491 75.8323 51.8139C75.6875 51.8785 75.5579 51.9739 75.4519 52.0939C75.5381 55.1873 74.8975 58.0609 74.8975 58.0609H77.5999C77.5999 58.0609 76.9017 55.2553 76.9891 52.1597Z" fill="#334056"/>
<path d="M76.9891 52.1597C76.9891 52.0969 76.9891 52.0311 76.9949 51.9671C76.7965 51.8021 76.5475 51.7143 76.2919 51.7189C76.1339 51.7167 75.9771 51.7491 75.8323 51.8139C75.6875 51.8785 75.5579 51.9739 75.4519 52.0939C75.5381 55.1873 74.8975 58.0609 74.8975 58.0609H77.5999C77.5999 58.0609 76.9017 55.2553 76.9891 52.1597Z" fill="#009599"/>
<path d="M76.9891 52.1597C76.9891 52.0969 76.9891 52.0311 76.9949 51.9671C76.7965 51.8021 76.5475 51.7143 76.2919 51.7189C76.1339 51.7167 75.9771 51.7491 75.8323 51.8139C75.6875 51.8785 75.5579 51.9739 75.4519 52.0939C75.5381 55.1873 74.8975 58.0609 74.8975 58.0609H77.5999C77.5999 58.0609 76.9017 55.2553 76.9891 52.1597Z" fill="#334056"/>
<path d="M76.9891 52.1597C76.9891 52.0969 76.9891 52.0311 76.9949 51.9671C76.7965 51.8021 76.5475 51.7143 76.2919 51.7189C76.1339 51.7167 75.9771 51.7491 75.8323 51.8139C75.6875 51.8785 75.5579 51.9739 75.4519 52.0939C75.5381 55.1873 74.8975 58.0609 74.8975 58.0609H77.5999C77.5999 58.0609 76.9017 55.2553 76.9891 52.1597Z" fill="#F0544A"/>
<path d="M76.9891 52.1597C76.9891 52.0969 76.9891 52.0311 76.9949 51.9671C76.7965 51.8021 76.5475 51.7143 76.2919 51.7189C76.1339 51.7167 75.9771 51.7491 75.8323 51.8139C75.6875 51.8785 75.5579 51.9739 75.4519 52.0939C75.5381 55.1873 74.8975 58.0609 74.8975 58.0609H77.5999C77.5999 58.0609 76.9017 55.2553 76.9891 52.1597Z" fill="#F0544A"/>
<path d="M76.1695 57.8945C71.8311 57.8945 68.3145 60.8065 68.3145 64.3977C68.3145 67.9889 71.8311 70.9009 76.1695 70.9009C80.5081 70.9009 84.0247 67.9889 84.0247 64.3977C84.0247 60.8065 80.5081 57.8945 76.1695 57.8945ZM72.2327 68.8303C72.1611 68.8361 72.0893 68.8199 72.0269 68.7835C71.9645 68.7471 71.9145 68.6923 71.8829 68.6263C71.8515 68.5603 71.8403 68.4861 71.8507 68.4135C71.8611 68.3409 71.8927 68.2731 71.9415 68.2191C71.9901 68.1651 72.0535 68.1275 72.1235 68.1109C72.1935 68.0945 72.2667 68.0999 72.3337 68.1265C72.4007 68.1533 72.4581 68.1999 72.4987 68.2605C72.5391 68.3211 72.5609 68.3929 72.5609 68.4663C72.5643 68.5591 72.5317 68.6493 72.4703 68.7175C72.4087 68.7857 72.3233 68.8263 72.2327 68.8303ZM72.2327 67.0139C72.1611 67.0197 72.0893 67.0035 72.0269 66.9671C71.9645 66.9307 71.9145 66.8759 71.8829 66.8099C71.8515 66.7439 71.8403 66.6697 71.8507 66.5971C71.8611 66.5245 71.8927 66.4567 71.9415 66.4027C71.9901 66.3487 72.0535 66.3111 72.1235 66.2945C72.1935 66.2781 72.2667 66.2835 72.3337 66.3101C72.4007 66.3369 72.4581 66.3835 72.4987 66.4443C72.5391 66.5049 72.5609 66.5765 72.5609 66.6499C72.5643 66.7427 72.5317 66.8329 72.4703 66.9011C72.4087 66.9693 72.3233 67.0099 72.2327 67.0139ZM72.2327 65.1609C72.1611 65.1669 72.0893 65.1505 72.0269 65.1141C71.9645 65.0779 71.9145 65.0231 71.8829 64.9571C71.8515 64.8911 71.8403 64.8169 71.8507 64.7443C71.8611 64.6715 71.8927 64.6039 71.9415 64.5499C71.9901 64.4959 72.0535 64.4583 72.1235 64.4417C72.1935 64.4251 72.2667 64.4307 72.3337 64.4573C72.4007 64.4841 72.4581 64.5307 72.4987 64.5913C72.5391 64.6519 72.5609 64.7237 72.5609 64.7971C72.5643 64.8897 72.5317 64.9801 72.4703 65.0483C72.4087 65.1165 72.3233 65.1569 72.2327 65.1609ZM72.2327 63.3801C72.1613 63.3857 72.0899 63.3693 72.0277 63.3329C71.9657 63.2965 71.9157 63.2419 71.8845 63.1759C71.8533 63.1101 71.8423 63.0361 71.8527 62.9639C71.8633 62.8915 71.8949 62.8239 71.9435 62.7703C71.9921 62.7165 72.0555 62.6791 72.1251 62.6627C72.1949 62.6463 72.2679 62.6517 72.3347 62.6785C72.4013 62.7051 72.4585 62.7517 72.4989 62.8121C72.5393 62.8725 72.5609 62.9439 72.5609 63.0171C72.5643 63.1097 72.5317 63.1999 72.4703 63.2681C72.4087 63.3361 72.3233 63.3763 72.2327 63.3801ZM72.2327 61.4187C72.1611 61.4247 72.0893 61.4083 72.0269 61.3719C71.9645 61.3355 71.9145 61.2809 71.8829 61.2149C71.8515 61.1489 71.8403 61.0747 71.8507 61.0021C71.8611 60.9293 71.8927 60.8617 71.9415 60.8077C71.9901 60.7537 72.0535 60.7159 72.1235 60.6995C72.1935 60.6829 72.2667 60.6885 72.3337 60.7151C72.4007 60.7417 72.4581 60.7885 72.4987 60.8491C72.5391 60.9097 72.5609 60.9815 72.5609 61.0549C72.5643 61.1475 72.5317 61.2379 72.4703 61.3061C72.4087 61.3743 72.3233 61.4147 72.2327 61.4187ZM73.8075 68.8303C73.7359 68.8361 73.6641 68.8199 73.6017 68.7835C73.5393 68.7471 73.4891 68.6923 73.4577 68.6263C73.4263 68.5603 73.4151 68.4861 73.4255 68.4135C73.4359 68.3409 73.4675 68.2731 73.5163 68.2191C73.5649 68.1651 73.6283 68.1275 73.6983 68.1109C73.7683 68.0945 73.8415 68.0999 73.9085 68.1265C73.9755 68.1533 74.0329 68.1999 74.0733 68.2605C74.1139 68.3211 74.1357 68.3929 74.1357 68.4663C74.1391 68.5591 74.1065 68.6493 74.0451 68.7175C73.9835 68.7857 73.8981 68.8263 73.8075 68.8303ZM73.8075 67.0139C73.7359 67.0197 73.6641 67.0035 73.6017 66.9671C73.5393 66.9307 73.4891 66.8759 73.4577 66.8099C73.4263 66.7439 73.4151 66.6697 73.4255 66.5971C73.4359 66.5245 73.4675 66.4567 73.5163 66.4027C73.5649 66.3487 73.6283 66.3111 73.6983 66.2945C73.7683 66.2781 73.8415 66.2835 73.9085 66.3101C73.9755 66.3369 74.0329 66.3835 74.0733 66.4443C74.1139 66.5049 74.1357 66.5765 74.1357 66.6499C74.1391 66.7427 74.1065 66.8329 74.0451 66.9011C73.9835 66.9693 73.8981 67.0099 73.8075 67.0139ZM73.8075 65.1609C73.7359 65.1669 73.6641 65.1505 73.6017 65.1141C73.5393 65.0779 73.4891 65.0231 73.4577 64.9571C73.4263 64.8911 73.4151 64.8169 73.4255 64.7443C73.4359 64.6715 73.4675 64.6039 73.5163 64.5499C73.5649 64.4959 73.6283 64.4583 73.6983 64.4417C73.7683 64.4251 73.8415 64.4307 73.9085 64.4573C73.9755 64.4841 74.0329 64.5307 74.0733 64.5913C74.1139 64.6519 74.1357 64.7237 74.1357 64.7971C74.1391 64.8897 74.1065 64.9801 74.0451 65.0483C73.9835 65.1165 73.8981 65.1569 73.8075 65.1609ZM73.8075 63.3801C73.7361 63.3857 73.6647 63.3693 73.6025 63.3329C73.5405 63.2965 73.4905 63.2419 73.4593 63.1759C73.4281 63.1101 73.4169 63.0361 73.4275 62.9639C73.4381 62.8915 73.4697 62.8239 73.5183 62.7703C73.5669 62.7165 73.6301 62.6791 73.6999 62.6627C73.7697 62.6463 73.8427 62.6517 73.9093 62.6785C73.9761 62.7051 74.0333 62.7517 74.0737 62.8121C74.1141 62.8725 74.1357 62.9439 74.1357 63.0171C74.1391 63.1097 74.1065 63.1999 74.0449 63.2681C73.9835 63.3361 73.8981 63.3763 73.8075 63.3801ZM73.8075 61.4187C73.7359 61.4247 73.6641 61.4083 73.6017 61.3719C73.5393 61.3355 73.4891 61.2809 73.4577 61.2149C73.4263 61.1489 73.4151 61.0747 73.4255 61.0021C73.4359 60.9293 73.4675 60.8617 73.5163 60.8077C73.5649 60.7537 73.6283 60.7159 73.6983 60.6995C73.7683 60.6829 73.8415 60.6885 73.9085 60.7151C73.9755 60.7417 74.0329 60.7885 74.0733 60.8491C74.1139 60.9097 74.1357 60.9815 74.1357 61.0549C74.1391 61.1475 74.1065 61.2379 74.0451 61.3061C73.9835 61.3743 73.8981 61.4147 73.8075 61.4187ZM75.3823 68.8303C75.3107 68.8361 75.2389 68.8199 75.1765 68.7835C75.1141 68.7471 75.0639 68.6923 75.0325 68.6263C75.0011 68.5603 74.9897 68.4861 75.0003 68.4135C75.0107 68.3409 75.0423 68.2731 75.0909 68.2191C75.1397 68.1651 75.2031 68.1275 75.2731 68.1109C75.3431 68.0945 75.4163 68.0999 75.4833 68.1265C75.5501 68.1533 75.6077 68.1999 75.6481 68.2605C75.6887 68.3211 75.7105 68.3929 75.7105 68.4663C75.7139 68.5591 75.6813 68.6493 75.6199 68.7175C75.5583 68.7857 75.4729 68.8263 75.3823 68.8303ZM75.3823 67.0139C75.3107 67.0197 75.2389 67.0035 75.1765 66.9671C75.1141 66.9307 75.0639 66.8759 75.0325 66.8099C75.0011 66.7439 74.9897 66.6697 75.0003 66.5971C75.0107 66.5245 75.0423 66.4567 75.0909 66.4027C75.1397 66.3487 75.2031 66.3111 75.2731 66.2945C75.3431 66.2781 75.4163 66.2835 75.4833 66.3101C75.5501 66.3369 75.6077 66.3835 75.6481 66.4443C75.6887 66.5049 75.7105 66.5765 75.7105 66.6499C75.7139 66.7427 75.6813 66.8329 75.6199 66.9011C75.5583 66.9693 75.4729 67.0099 75.3823 67.0139ZM75.3823 65.1609C75.3107 65.1669 75.2389 65.1505 75.1765 65.1141C75.1141 65.0779 75.0639 65.0231 75.0325 64.9571C75.0011 64.8911 74.9897 64.8169 75.0003 64.7443C75.0107 64.6715 75.0423 64.6039 75.0909 64.5499C75.1397 64.4959 75.2031 64.4583 75.2731 64.4417C75.3431 64.4251 75.4163 64.4307 75.4833 64.4573C75.5501 64.4841 75.6077 64.5307 75.6481 64.5913C75.6887 64.6519 75.7105 64.7237 75.7105 64.7971C75.7139 64.8897 75.6813 64.9801 75.6199 65.0483C75.5583 65.1165 75.4729 65.1569 75.3823 65.1609ZM75.3823 63.3801C75.3109 63.3857 75.2395 63.3693 75.1773 63.3329C75.1153 63.2965 75.0653 63.2419 75.0341 63.1759C75.0029 63.1101 74.9917 63.0361 75.0023 62.9639C75.0129 62.8915 75.0445 62.8239 75.0931 62.7703C75.1417 62.7165 75.2049 62.6791 75.2747 62.6627C75.3445 62.6463 75.4175 62.6517 75.4841 62.6785C75.5509 62.7051 75.6081 62.7517 75.6485 62.8121C75.6889 62.8725 75.7105 62.9439 75.7105 63.0171C75.7139 63.1097 75.6813 63.1999 75.6197 63.2681C75.5583 63.3361 75.4727 63.3763 75.3823 63.3801ZM75.3823 61.4187C75.3107 61.4247 75.2389 61.4083 75.1765 61.3719C75.1141 61.3355 75.0639 61.2809 75.0325 61.2149C75.0011 61.1489 74.9897 61.0747 75.0003 61.0021C75.0107 60.9293 75.0423 60.8617 75.0909 60.8077C75.1397 60.7537 75.2031 60.7159 75.2731 60.6995C75.3431 60.6829 75.4163 60.6885 75.4833 60.7151C75.5501 60.7417 75.6077 60.7885 75.6481 60.8491C75.6887 60.9097 75.7105 60.9815 75.7105 61.0549C75.7139 61.1475 75.6813 61.2379 75.6199 61.3061C75.5583 61.3743 75.4729 61.4147 75.3823 61.4187ZM76.9569 68.8303C76.8853 68.8361 76.8137 68.8199 76.7513 68.7835C76.6889 68.7471 76.6387 68.6923 76.6073 68.6263C76.5759 68.5603 76.5645 68.4861 76.5749 68.4135C76.5855 68.3409 76.6171 68.2731 76.6657 68.2191C76.7145 68.1651 76.7779 68.1275 76.8479 68.1109C76.9179 68.0945 76.9911 68.0999 77.0581 68.1265C77.1249 68.1533 77.1825 68.1999 77.2229 68.2605C77.2635 68.3211 77.2851 68.3929 77.2853 68.4663C77.2885 68.5589 77.2557 68.6491 77.1943 68.7173C77.1329 68.7853 77.0475 68.8259 76.9569 68.8303ZM76.9569 67.0139C76.8853 67.0197 76.8137 67.0035 76.7513 66.9671C76.6889 66.9307 76.6387 66.8759 76.6073 66.8099C76.5759 66.7439 76.5645 66.6697 76.5749 66.5971C76.5855 66.5245 76.6171 66.4567 76.6657 66.4027C76.7145 66.3487 76.7779 66.3111 76.8479 66.2945C76.9179 66.2781 76.9911 66.2835 77.0581 66.3101C77.1249 66.3369 77.1825 66.3835 77.2229 66.4443C77.2635 66.5049 77.2851 66.5765 77.2853 66.6499C77.2885 66.7425 77.2557 66.8327 77.1943 66.9009C77.1329 66.9691 77.0475 67.0097 76.9569 67.0139ZM76.9569 65.1609C76.8853 65.1669 76.8137 65.1505 76.7513 65.1141C76.6889 65.0779 76.6387 65.0231 76.6073 64.9571C76.5759 64.8911 76.5645 64.8169 76.5749 64.7443C76.5855 64.6715 76.6171 64.6039 76.6657 64.5499C76.7145 64.4959 76.7779 64.4583 76.8479 64.4417C76.9179 64.4251 76.9911 64.4307 77.0581 64.4573C77.1249 64.4841 77.1825 64.5307 77.2229 64.5913C77.2635 64.6519 77.2851 64.7237 77.2853 64.7971C77.2885 64.8897 77.2557 64.9799 77.1943 65.0481C77.1329 65.1161 77.0475 65.1567 76.9569 65.1609ZM76.9569 63.3801C76.8855 63.3857 76.8143 63.3693 76.7521 63.3329C76.6899 63.2965 76.6401 63.2419 76.6089 63.1759C76.5777 63.1101 76.5665 63.0361 76.5771 62.9639C76.5875 62.8915 76.6191 62.8239 76.6677 62.7703C76.7163 62.7165 76.7797 62.6791 76.8495 62.6627C76.9193 62.6463 76.9923 62.6517 77.0589 62.6785C77.1257 62.7051 77.1829 62.7517 77.2233 62.8121C77.2637 62.8725 77.2851 62.9439 77.2853 63.0171C77.2885 63.1097 77.2557 63.1997 77.1943 63.2677C77.1327 63.3357 77.0475 63.3761 76.9569 63.3801ZM76.9569 61.4187C76.8853 61.4247 76.8137 61.4083 76.7513 61.3719C76.6889 61.3355 76.6387 61.2809 76.6073 61.2149C76.5759 61.1489 76.5645 61.0747 76.5749 61.0021C76.5855 60.9293 76.6171 60.8617 76.6657 60.8077C76.7145 60.7537 76.7779 60.7159 76.8479 60.6995C76.9179 60.6829 76.9911 60.6885 77.0581 60.7151C77.1249 60.7417 77.1825 60.7885 77.2229 60.8491C77.2635 60.9097 77.2851 60.9815 77.2853 61.0549C77.2885 61.1475 77.2557 61.2377 77.1943 61.3057C77.1329 61.3739 77.0475 61.4145 76.9569 61.4187ZM78.5317 68.8303C78.4601 68.8361 78.3885 68.8199 78.3261 68.7835C78.2637 68.7471 78.2135 68.6923 78.1821 68.6263C78.1505 68.5603 78.1393 68.4861 78.1497 68.4135C78.1603 68.3409 78.1919 68.2731 78.2405 68.2191C78.2893 68.1651 78.3527 68.1275 78.4227 68.1109C78.4927 68.0945 78.5659 68.0999 78.6329 68.1265C78.6997 68.1533 78.7573 68.1999 78.7977 68.2605C78.8383 68.3211 78.8599 68.3929 78.8601 68.4663C78.8633 68.5589 78.8305 68.6491 78.7691 68.7173C78.7077 68.7853 78.6223 68.8259 78.5317 68.8303ZM78.5317 67.0139C78.4601 67.0197 78.3885 67.0035 78.3261 66.9671C78.2637 66.9307 78.2135 66.8759 78.1821 66.8099C78.1505 66.7439 78.1393 66.6697 78.1497 66.5971C78.1603 66.5245 78.1919 66.4567 78.2405 66.4027C78.2893 66.3487 78.3527 66.3111 78.4227 66.2945C78.4927 66.2781 78.5659 66.2835 78.6329 66.3101C78.6997 66.3369 78.7573 66.3835 78.7977 66.4443C78.8383 66.5049 78.8599 66.5765 78.8601 66.6499C78.8633 66.7425 78.8305 66.8327 78.7691 66.9009C78.7077 66.9691 78.6223 67.0097 78.5317 67.0139ZM78.5317 65.1609C78.4601 65.1669 78.3885 65.1505 78.3261 65.1141C78.2637 65.0779 78.2135 65.0231 78.1821 64.9571C78.1505 64.8911 78.1393 64.8169 78.1497 64.7443C78.1603 64.6715 78.1919 64.6039 78.2405 64.5499C78.2893 64.4959 78.3527 64.4583 78.4227 64.4417C78.4927 64.4251 78.5659 64.4307 78.6329 64.4573C78.6997 64.4841 78.7573 64.5307 78.7977 64.5913C78.8383 64.6519 78.8599 64.7237 78.8601 64.7971C78.8633 64.8897 78.8305 64.9799 78.7691 65.0481C78.7077 65.1161 78.6223 65.1567 78.5317 65.1609ZM78.5317 63.3801C78.4603 63.3857 78.3889 63.3693 78.3269 63.3329C78.2647 63.2965 78.2149 63.2419 78.1837 63.1759C78.1525 63.1101 78.1413 63.0361 78.1519 62.9639C78.1623 62.8915 78.1939 62.8239 78.2425 62.7703C78.2911 62.7165 78.3545 62.6791 78.4243 62.6627C78.4941 62.6463 78.5671 62.6517 78.6337 62.6785C78.7003 62.7051 78.7577 62.7517 78.7981 62.8121C78.8383 62.8725 78.8599 62.9439 78.8601 63.0171C78.8633 63.1097 78.8305 63.1997 78.7691 63.2677C78.7075 63.3357 78.6223 63.3761 78.5317 63.3801ZM78.5317 61.4187C78.4601 61.4247 78.3885 61.4083 78.3261 61.3719C78.2637 61.3355 78.2135 61.2809 78.1821 61.2149C78.1505 61.1489 78.1393 61.0747 78.1497 61.0021C78.1603 60.9293 78.1919 60.8617 78.2405 60.8077C78.2893 60.7537 78.3527 60.7159 78.4227 60.6995C78.4927 60.6829 78.5659 60.6885 78.6329 60.7151C78.6997 60.7417 78.7573 60.7885 78.7977 60.8491C78.8383 60.9097 78.8599 60.9815 78.8601 61.0549C78.8633 61.1475 78.8305 61.2377 78.7691 61.3057C78.7077 61.3739 78.6223 61.4145 78.5317 61.4187ZM80.1075 68.8303C80.0359 68.8363 79.9641 68.8203 79.9017 68.7839C79.8391 68.7477 79.7887 68.6931 79.7571 68.6271C79.7255 68.5611 79.7141 68.4869 79.7245 68.4143C79.7347 68.3415 79.7663 68.2737 79.8149 68.2197C79.8635 68.1655 79.9271 68.1277 79.9971 68.1111C80.0671 68.0945 80.1403 68.0999 80.2073 68.1265C80.2743 68.1531 80.3319 68.1999 80.3725 68.2605C80.4129 68.3211 80.4347 68.3929 80.4347 68.4663C80.4383 68.5589 80.4059 68.6491 80.3445 68.7171C80.2833 68.7853 80.1981 68.8259 80.1075 68.8303ZM80.1075 67.0139C80.0359 67.0199 79.9641 67.0039 79.9017 66.9675C79.8391 66.9313 79.7887 66.8767 79.7571 66.8107C79.7255 66.7447 79.7141 66.6705 79.7245 66.5979C79.7347 66.5251 79.7663 66.4573 79.8149 66.4033C79.8635 66.3491 79.9271 66.3113 79.9971 66.2947C80.0671 66.2781 80.1403 66.2835 80.2073 66.3101C80.2743 66.3369 80.3319 66.3835 80.3725 66.4441C80.4129 66.5047 80.4347 66.5765 80.4347 66.6499C80.4383 66.7425 80.4059 66.8327 80.3445 66.9009C80.2833 66.9689 80.1981 67.0097 80.1075 67.0139ZM80.1075 65.1609C80.0359 65.1671 79.9641 65.1509 79.9017 65.1147C79.8391 65.0785 79.7887 65.0237 79.7571 64.9579C79.7255 64.8919 79.7141 64.8177 79.7245 64.7449C79.7347 64.6723 79.7663 64.6045 79.8149 64.5503C79.8635 64.4963 79.9271 64.4585 79.9971 64.4419C80.0671 64.4253 80.1403 64.4307 80.2073 64.4573C80.2743 64.4839 80.3319 64.5307 80.3725 64.5913C80.4129 64.6519 80.4347 64.7237 80.4347 64.7971C80.4383 64.8895 80.4059 64.9797 80.3445 65.0479C80.2833 65.1161 80.1981 65.1567 80.1075 65.1609ZM80.1075 63.3801C80.0361 63.3859 79.9647 63.3697 79.9025 63.3335C79.8401 63.2971 79.7901 63.2425 79.7587 63.1767C79.7273 63.1109 79.7161 63.0369 79.7265 62.9645C79.7369 62.8921 79.7685 62.8245 79.8169 62.7707C79.8655 62.7169 79.9289 62.6793 79.9987 62.6629C80.0685 62.6463 80.1415 62.6517 80.2083 62.6783C80.2749 62.7049 80.3323 62.7515 80.3727 62.8121C80.4131 62.8725 80.4347 62.9439 80.4347 63.0171C80.4383 63.1095 80.4057 63.1997 80.3445 63.2677C80.2831 63.3357 80.1979 63.3761 80.1075 63.3801ZM80.1075 61.4187C80.0359 61.4249 79.9641 61.4087 79.9017 61.3725C79.8391 61.3363 79.7887 61.2815 79.7571 61.2157C79.7255 61.1497 79.7141 61.0755 79.7245 61.0027C79.7347 60.9301 79.7663 60.8623 79.8149 60.8081C79.8635 60.7541 79.9271 60.7163 79.9971 60.6997C80.0671 60.6831 80.1403 60.6885 80.2073 60.7151C80.2743 60.7417 80.3319 60.7885 80.3725 60.8491C80.4129 60.9097 80.4347 60.9813 80.4347 61.0549C80.4383 61.1473 80.4059 61.2375 80.3445 61.3057C80.2833 61.3739 80.1981 61.4145 80.1075 61.4187Z" fill="#334056"/>
<path d="M82.645 60.7227C82.5232 62.2361 81.6216 63.5771 80.265 64.4843C80.3186 64.5171 80.363 64.5639 80.3934 64.6197C80.4238 64.6755 80.4394 64.7385 80.4386 64.8025C80.443 64.8491 80.4378 64.8963 80.4232 64.9407C80.4088 64.9853 80.3854 65.0261 80.3544 65.0609C80.3236 65.0955 80.286 65.1233 80.244 65.1423C80.202 65.1611 80.1568 65.1709 80.1108 65.1709C80.065 65.1709 80.0196 65.1611 79.9776 65.1423C79.9358 65.1233 79.8982 65.0955 79.8672 65.0609C79.8364 65.0261 79.813 64.9853 79.7984 64.9407C79.784 64.8963 79.7788 64.8491 79.7832 64.8025C79.7832 64.7933 79.7832 64.7843 79.7832 64.7751C78.6692 65.3655 77.4358 65.6821 76.1812 65.6997C74.9266 65.7173 73.6852 65.4355 72.5558 64.8765C72.5446 64.9563 72.5064 65.0295 72.4476 65.0833C72.3888 65.1371 72.3134 65.1679 72.2346 65.1705C72.1438 65.1665 72.0584 65.1259 71.9968 65.0577C71.9354 64.9895 71.9028 64.8993 71.9062 64.8065C71.9056 64.7145 71.938 64.6253 71.9974 64.5561C70.6428 63.6905 69.7166 62.4033 69.5282 60.9387C68.7616 61.9431 68.3164 63.1321 68.3164 64.4073C68.3164 67.9983 71.8328 70.9105 76.1714 70.9105C80.51 70.9105 84.0264 67.9983 84.0264 64.4073C84.0244 63.0379 83.5148 61.7699 82.645 60.7227ZM72.2326 68.8315C72.161 68.8375 72.0892 68.8213 72.0268 68.7849C71.9644 68.7485 71.9142 68.6937 71.8828 68.6277C71.8514 68.5617 71.8402 68.4875 71.8506 68.4149C71.861 68.3423 71.8926 68.2745 71.9412 68.2205C71.99 68.1665 72.0534 68.1289 72.1234 68.1123C72.1934 68.0959 72.2666 68.1013 72.3336 68.1279C72.4004 68.1547 72.458 68.2013 72.4984 68.2619C72.539 68.3225 72.5608 68.3943 72.5608 68.4677C72.5632 68.5141 72.5566 68.5603 72.5414 68.6041C72.526 68.6477 72.5026 68.6879 72.472 68.7223C72.4414 68.7565 72.4046 68.7843 72.3634 68.8039C72.3224 68.8235 72.2778 68.8347 72.2326 68.8367V68.8315ZM72.2326 67.0153C72.161 67.0211 72.0892 67.0049 72.0268 66.9685C71.9644 66.9321 71.9142 66.8773 71.8828 66.8113C71.8514 66.7453 71.8402 66.6711 71.8506 66.5985C71.861 66.5259 71.8926 66.4581 71.9412 66.4041C71.99 66.3501 72.0534 66.3125 72.1234 66.2959C72.1934 66.2795 72.2666 66.2849 72.3336 66.3115C72.4004 66.3383 72.458 66.3849 72.4984 66.4455C72.539 66.5063 72.5608 66.5779 72.5608 66.6513C72.5632 66.6977 72.5566 66.7439 72.5414 66.7877C72.526 66.8313 72.5026 66.8715 72.472 66.9059C72.4414 66.9401 72.4046 66.9679 72.3634 66.9875C72.3224 67.0073 72.2778 67.0183 72.2326 67.0203V67.0153ZM73.8072 68.8315C73.7356 68.8375 73.664 68.8213 73.6016 68.7849C73.5392 68.7485 73.489 68.6937 73.4576 68.6277C73.4262 68.5617 73.4148 68.4875 73.4254 68.4149C73.4358 68.3423 73.4674 68.2745 73.516 68.2205C73.5648 68.1665 73.6282 68.1289 73.6982 68.1123C73.7682 68.0959 73.8414 68.1013 73.9084 68.1279C73.9752 68.1547 74.0328 68.2013 74.0732 68.2619C74.1138 68.3225 74.1354 68.3943 74.1356 68.4677C74.138 68.5141 74.1314 68.5603 74.116 68.6041C74.1008 68.6477 74.0772 68.6879 74.0468 68.7223C74.0162 68.7565 73.9794 68.7843 73.9382 68.8039C73.8972 68.8235 73.8526 68.8347 73.8072 68.8367V68.8315ZM73.8072 67.0153C73.7356 67.0211 73.664 67.0049 73.6016 66.9685C73.5392 66.9321 73.489 66.8773 73.4576 66.8113C73.4262 66.7453 73.4148 66.6711 73.4254 66.5985C73.4358 66.5259 73.4674 66.4581 73.516 66.4041C73.5648 66.3501 73.6282 66.3125 73.6982 66.2959C73.7682 66.2795 73.8414 66.2849 73.9084 66.3115C73.9752 66.3383 74.0328 66.3849 74.0732 66.4455C74.1138 66.5063 74.1354 66.5779 74.1356 66.6513C74.138 66.6977 74.1314 66.7439 74.116 66.7877C74.1008 66.8313 74.0772 66.8715 74.0468 66.9059C74.0162 66.9401 73.9794 66.9679 73.9382 66.9875C73.8972 67.0073 73.8526 67.0183 73.8072 67.0203V67.0153ZM75.382 68.8315C75.3104 68.8375 75.2388 68.8213 75.1764 68.7849C75.114 68.7485 75.0638 68.6937 75.0324 68.6277C75.001 68.5617 74.9896 68.4875 75 68.4149C75.0106 68.3423 75.0422 68.2745 75.0908 68.2205C75.1396 68.1665 75.203 68.1289 75.273 68.1123C75.343 68.0959 75.4162 68.1013 75.4832 68.1279C75.55 68.1547 75.6076 68.2013 75.648 68.2619C75.6886 68.3225 75.7102 68.3943 75.7104 68.4677C75.7128 68.5141 75.706 68.5603 75.6908 68.6041C75.6756 68.6477 75.652 68.6879 75.6216 68.7223C75.591 68.7565 75.5542 68.7843 75.513 68.8039C75.4718 68.8235 75.4274 68.8347 75.382 68.8367V68.8315ZM75.382 67.0153C75.3104 67.0211 75.2388 67.0049 75.1764 66.9685C75.114 66.9321 75.0638 66.8773 75.0324 66.8113C75.001 66.7453 74.9896 66.6711 75 66.5985C75.0106 66.5259 75.0422 66.4581 75.0908 66.4041C75.1396 66.3501 75.203 66.3125 75.273 66.2959C75.343 66.2795 75.4162 66.2849 75.4832 66.3115C75.55 66.3383 75.6076 66.3849 75.648 66.4455C75.6886 66.5063 75.7102 66.5779 75.7104 66.6513C75.7128 66.6977 75.706 66.7439 75.6908 66.7877C75.6756 66.8313 75.652 66.8715 75.6216 66.9059C75.591 66.9401 75.5542 66.9679 75.513 66.9875C75.4718 67.0073 75.4274 67.0183 75.382 67.0203V67.0153ZM76.9568 68.8315C76.8852 68.8375 76.8136 68.8213 76.7512 68.7849C76.6888 68.7485 76.6386 68.6937 76.6072 68.6277C76.5756 68.5617 76.5644 68.4875 76.5748 68.4149C76.5852 68.3423 76.617 68.2745 76.6656 68.2205C76.7144 68.1665 76.7778 68.1289 76.8478 68.1123C76.9178 68.0959 76.991 68.1013 77.058 68.1279C77.1248 68.1547 77.1822 68.2013 77.2228 68.2619C77.2634 68.3225 77.285 68.3943 77.285 68.4677C77.2874 68.5141 77.2808 68.5603 77.2656 68.6041C77.2504 68.6477 77.2268 68.6879 77.1964 68.7223C77.1658 68.7565 77.1288 68.7843 77.0878 68.8039C77.0466 68.8235 77.0022 68.8347 76.9568 68.8367V68.8315ZM76.9568 67.0153C76.8852 67.0211 76.8136 67.0049 76.7512 66.9685C76.6888 66.9321 76.6386 66.8773 76.6072 66.8113C76.5756 66.7453 76.5644 66.6711 76.5748 66.5985C76.5852 66.5259 76.617 66.4581 76.6656 66.4041C76.7144 66.3501 76.7778 66.3125 76.8478 66.2959C76.9178 66.2795 76.991 66.2849 77.058 66.3115C77.1248 66.3383 77.1822 66.3849 77.2228 66.4455C77.2634 66.5063 77.285 66.5779 77.285 66.6513C77.2874 66.6977 77.2808 66.7439 77.2656 66.7877C77.2504 66.8313 77.2268 66.8715 77.1964 66.9059C77.1658 66.9401 77.1288 66.9679 77.0878 66.9875C77.0466 67.0073 77.0022 67.0183 76.9568 67.0203V67.0153ZM78.5316 68.8315C78.46 68.8375 78.3884 68.8213 78.326 68.7849C78.2636 68.7485 78.2134 68.6937 78.182 68.6277C78.1504 68.5617 78.1392 68.4875 78.1496 68.4149C78.16 68.3423 78.1918 68.2745 78.2404 68.2205C78.289 68.1665 78.3526 68.1289 78.4226 68.1123C78.4926 68.0959 78.5658 68.1013 78.6326 68.1279C78.6996 68.1547 78.757 68.2013 78.7976 68.2619C78.8382 68.3225 78.8598 68.3943 78.8598 68.4677C78.8622 68.5139 78.8554 68.5603 78.8402 68.6039C78.8248 68.6475 78.8012 68.6877 78.7708 68.7219C78.7402 68.7561 78.7034 68.7839 78.6624 68.8037C78.6214 68.8233 78.577 68.8345 78.5316 68.8367V68.8315ZM78.5316 67.0153C78.46 67.0211 78.3884 67.0049 78.326 66.9685C78.2636 66.9321 78.2134 66.8773 78.182 66.8113C78.1504 66.7453 78.1392 66.6711 78.1496 66.5985C78.16 66.5259 78.1918 66.4581 78.2404 66.4041C78.289 66.3501 78.3526 66.3125 78.4226 66.2959C78.4926 66.2795 78.5658 66.2849 78.6326 66.3115C78.6996 66.3383 78.757 66.3849 78.7976 66.4455C78.8382 66.5063 78.8598 66.5779 78.8598 66.6513C78.8622 66.6977 78.8554 66.7439 78.8402 66.7875C78.8248 66.8311 78.8012 66.8713 78.7708 66.9055C78.7402 66.9399 78.7034 66.9677 78.6624 66.9873C78.6214 67.0069 78.577 67.0181 78.5316 67.0203V67.0153ZM80.1074 68.8315C80.0358 68.8377 79.964 68.8215 79.9014 68.7853C79.839 68.7491 79.7886 68.6945 79.757 68.6285C79.7254 68.5625 79.714 68.4883 79.7244 68.4157C79.7346 68.3429 79.7662 68.2751 79.8148 68.2211C79.8634 68.1669 79.927 68.1291 79.997 68.1125C80.067 68.0959 80.1402 68.1013 80.2072 68.1279C80.2742 68.1545 80.3316 68.2013 80.3722 68.2619C80.4128 68.3225 80.4346 68.3943 80.4346 68.4677C80.437 68.5139 80.4304 68.5601 80.4152 68.6039C80.4002 68.6475 80.3766 68.6875 80.3462 68.7219C80.3158 68.7561 80.279 68.7839 80.238 68.8037C80.197 68.8233 80.1526 68.8345 80.1074 68.8367V68.8315ZM80.1074 67.0153C80.0358 67.0213 79.964 67.0053 79.9014 66.9689C79.839 66.9327 79.7886 66.8781 79.757 66.8121C79.7254 66.7461 79.714 66.6719 79.7244 66.5993C79.7346 66.5265 79.7662 66.4587 79.8148 66.4047C79.8634 66.3505 79.927 66.3127 79.997 66.2961C80.067 66.2795 80.1402 66.2849 80.2072 66.3115C80.2742 66.3381 80.3316 66.3849 80.3722 66.4455C80.4128 66.5061 80.4346 66.5779 80.4346 66.6513C80.437 66.6975 80.4304 66.7439 80.4152 66.7875C80.4002 66.8311 80.3766 66.8711 80.3462 66.9055C80.3158 66.9397 80.279 66.9675 80.238 66.9873C80.197 67.0069 80.1526 67.0181 80.1074 67.0203V67.0153Z" fill="#53688C"/>
<path d="M76.285 51.7215C76.5406 51.7171 76.7898 51.8049 76.988 51.9699C77.2222 44.0639 78.3466 30.7025 78.2772 28.6135C78.193 26.1119 77.0526 25.5879 76.2464 25.5859H76.2414C75.4352 25.5859 74.2946 26.1119 74.2104 28.6135C74.139 30.7197 75.2248 44.2139 75.446 52.0915C75.4464 52.0933 75.4464 52.0949 75.446 52.0967C75.5518 51.9769 75.6814 51.8815 75.826 51.8169C75.9706 51.7521 76.127 51.7197 76.285 51.7215ZM75.0354 27.9505C75.0356 27.6981 75.1092 27.4513 75.2466 27.2413C75.384 27.0315 75.5792 26.8679 75.8074 26.7713C76.0358 26.6749 76.287 26.6497 76.5294 26.6991C76.7716 26.7485 76.9942 26.8703 77.1688 27.0489C77.3434 27.2275 77.4624 27.4551 77.5106 27.7029C77.5586 27.9505 77.5338 28.2073 77.4392 28.4405C77.3446 28.6739 77.1846 28.8733 76.979 29.0135C76.7736 29.1539 76.532 29.2287 76.285 29.2287C76.1208 29.2287 75.9582 29.1957 75.8066 29.1315C75.655 29.0671 75.5172 28.9731 75.401 28.8543C75.285 28.7357 75.193 28.5947 75.1302 28.4397C75.0676 28.2845 75.0354 28.1183 75.0354 27.9505Z" fill="url(#paint3_linear_103_3097)"/>
</g>
<path d="M23.4126 99.5V89.3182H27.0418C27.834 89.3182 28.4902 89.4624 29.0106 89.7507C29.5309 90.0391 29.9204 90.4335 30.1789 90.9339C30.4374 91.4311 30.5667 91.9912 30.5667 92.6143C30.5667 93.2408 30.4358 93.8042 30.1739 94.3047C29.9154 94.8018 29.5243 95.1963 29.0006 95.4879C28.4803 95.7763 27.8257 95.9205 27.0368 95.9205H24.5411V94.6179H26.8976C27.3981 94.6179 27.8041 94.5317 28.1157 94.3594C28.4272 94.1837 28.6559 93.9451 28.8018 93.6435C28.9476 93.3419 29.0205 92.9988 29.0205 92.6143C29.0205 92.2299 28.9476 91.8885 28.8018 91.5902C28.6559 91.2919 28.4256 91.0582 28.1107 90.8892C27.7992 90.7202 27.3882 90.6357 26.8778 90.6357H24.9488V99.5H23.4126ZM35.4438 99.6541C34.6914 99.6541 34.0435 99.4934 33.4999 99.1719C32.9597 98.8471 32.5421 98.3913 32.2471 97.8047C31.9554 97.2147 31.8096 96.5237 31.8096 95.7315C31.8096 94.9493 31.9554 94.2599 32.2471 93.6634C32.5421 93.0668 32.953 92.6011 33.48 92.2663C34.0103 91.9316 34.6301 91.7642 35.3394 91.7642C35.7703 91.7642 36.1879 91.8355 36.5922 91.978C36.9966 92.1205 37.3595 92.3442 37.681 92.6491C38.0025 92.9541 38.2561 93.3501 38.4417 93.8374C38.6273 94.3213 38.7201 94.9096 38.7201 95.6023V96.1293H32.6498V95.0156H37.2634C37.2634 94.6245 37.1839 94.2782 37.0248 93.9766C36.8657 93.6716 36.642 93.4313 36.3536 93.2557C36.0686 93.08 35.7338 92.9922 35.3493 92.9922C34.9317 92.9922 34.5671 93.0949 34.2556 93.3004C33.9474 93.5026 33.7087 93.7678 33.5397 94.0959C33.374 94.4207 33.2911 94.7737 33.2911 95.1548V96.0249C33.2911 96.5353 33.3806 96.9695 33.5596 97.3274C33.7419 97.6854 33.9954 97.9588 34.3202 98.1477C34.645 98.3333 35.0245 98.4261 35.4587 98.4261C35.7404 98.4261 35.9973 98.3864 36.2293 98.3068C36.4613 98.224 36.6618 98.1013 36.8309 97.9389C36.9999 97.7765 37.1292 97.576 37.2187 97.3374L38.6256 97.5909C38.5129 98.0052 38.3108 98.3681 38.0191 98.6797C37.7307 98.9879 37.3678 99.2282 36.9303 99.4006C36.4961 99.5696 36.0006 99.6541 35.4438 99.6541ZM40.3694 99.5V91.8636H41.8062V93.0767H41.8857C42.0249 92.6657 42.2702 92.3426 42.6215 92.1072C42.9762 91.8686 43.3772 91.7493 43.8247 91.7493C43.9175 91.7493 44.0268 91.7526 44.1528 91.7592C44.282 91.7659 44.3831 91.7741 44.4561 91.7841V93.206C44.3964 93.1894 44.2903 93.1712 44.1379 93.1513C43.9854 93.1281 43.8329 93.1165 43.6805 93.1165C43.3292 93.1165 43.016 93.1911 42.7409 93.3402C42.4691 93.486 42.2536 93.6899 42.0945 93.9517C41.9355 94.2102 41.8559 94.5052 41.8559 94.8366V99.5H40.3694ZM47.229 89.3182V99.5H45.7425V89.3182H47.229ZM52.52 99.6541C51.7676 99.6541 51.1196 99.4934 50.5761 99.1719C50.0358 98.8471 49.6182 98.3913 49.3232 97.8047C49.0316 97.2147 48.8857 96.5237 48.8857 95.7315C48.8857 94.9493 49.0316 94.2599 49.3232 93.6634C49.6182 93.0668 50.0292 92.6011 50.5562 92.2663C51.0865 91.9316 51.7063 91.7642 52.4156 91.7642C52.8464 91.7642 53.2641 91.8355 53.6684 91.978C54.0728 92.1205 54.4357 92.3442 54.7572 92.6491C55.0787 92.9541 55.3322 93.3501 55.5178 93.8374C55.7035 94.3213 55.7963 94.9096 55.7963 95.6023V96.1293H49.7259V95.0156H54.3396C54.3396 94.6245 54.26 94.2782 54.1009 93.9766C53.9419 93.6716 53.7181 93.4313 53.4298 93.2557C53.1447 93.08 52.81 92.9922 52.4255 92.9922C52.0079 92.9922 51.6433 93.0949 51.3318 93.3004C51.0235 93.5026 50.7849 93.7678 50.6159 94.0959C50.4501 94.4207 50.3673 94.7737 50.3673 95.1548V96.0249C50.3673 96.5353 50.4568 96.9695 50.6357 97.3274C50.818 97.6854 51.0716 97.9588 51.3964 98.1477C51.7212 98.3333 52.1007 98.4261 52.5349 98.4261C52.8166 98.4261 53.0735 98.3864 53.3055 98.3068C53.5375 98.224 53.738 98.1013 53.907 97.9389C54.0761 97.7765 54.2053 97.576 54.2948 97.3374L55.7018 97.5909C55.5891 98.0052 55.3869 98.3681 55.0953 98.6797C54.8069 98.9879 54.444 99.2282 54.0065 99.4006C53.5723 99.5696 53.0768 99.6541 52.52 99.6541ZM58.9321 94.9659V99.5H57.4456V91.8636H58.8724V93.1065H58.9669C59.1425 92.7022 59.4176 92.3774 59.7922 92.1321C60.17 91.8868 60.6456 91.7642 61.219 91.7642C61.7394 91.7642 62.1951 91.8736 62.5862 92.0923C62.9773 92.3078 63.2806 92.6293 63.496 93.0568C63.7114 93.4844 63.8192 94.013 63.8192 94.6428V99.5H62.3327V94.8217C62.3327 94.2682 62.1885 93.8357 61.9001 93.5241C61.6118 93.2093 61.2157 93.0518 60.7119 93.0518C60.3672 93.0518 60.0606 93.1264 59.7922 93.2756C59.527 93.4247 59.3166 93.6435 59.1608 93.9318C59.0083 94.2169 58.9321 94.5616 58.9321 94.9659ZM69.0145 102.523C68.4079 102.523 67.8859 102.443 67.4484 102.284C67.0142 102.125 66.6596 101.915 66.3845 101.653C66.1094 101.391 65.9039 101.104 65.768 100.793L67.0457 100.266C67.1352 100.411 67.2545 100.566 67.4037 100.728C67.5561 100.894 67.7616 101.035 68.0202 101.151C68.282 101.267 68.6184 101.325 69.0294 101.325C69.5928 101.325 70.0585 101.187 70.4264 100.912C70.7943 100.64 70.9782 100.206 70.9782 99.6094V98.108H70.8838C70.7943 98.2704 70.665 98.451 70.496 98.6499C70.3303 98.8487 70.1016 99.0211 69.8099 99.1669C69.5183 99.3127 69.1388 99.3857 68.6714 99.3857C68.0682 99.3857 67.5247 99.2448 67.0407 98.9631C66.5602 98.678 66.179 98.2588 65.8973 97.7053C65.6189 97.1484 65.4797 96.464 65.4797 95.652C65.4797 94.84 65.6172 94.1439 65.8923 93.5639C66.1707 92.9839 66.5519 92.5398 67.0358 92.2315C67.5197 91.92 68.0682 91.7642 68.6814 91.7642C69.1553 91.7642 69.5381 91.8438 69.8298 92.0028C70.1215 92.1586 70.3485 92.3409 70.5109 92.5497C70.6766 92.7585 70.8042 92.9425 70.8937 93.1016H71.0031V91.8636H72.4598V99.669C72.4598 100.325 72.3073 100.864 72.0024 101.285C71.6975 101.706 71.2848 102.017 70.7645 102.219C70.2474 102.422 69.6641 102.523 69.0145 102.523ZM68.9996 98.1527C69.4271 98.1527 69.7884 98.0533 70.0834 97.8544C70.3817 97.6522 70.607 97.3639 70.7595 96.9893C70.9153 96.6115 70.9932 96.1591 70.9932 95.6321C70.9932 95.1184 70.9169 94.666 70.7645 94.2749C70.612 93.8838 70.3883 93.5788 70.0933 93.3601C69.7983 93.138 69.4337 93.027 68.9996 93.027C68.5521 93.027 68.1792 93.143 67.8809 93.375C67.5827 93.6037 67.3573 93.9152 67.2048 94.3097C67.0557 94.7041 66.9811 95.1449 66.9811 95.6321C66.9811 96.1326 67.0573 96.5717 67.2098 96.9496C67.3622 97.3274 67.5876 97.6224 67.8859 97.8345C68.1875 98.0466 68.5587 98.1527 68.9996 98.1527ZM75.8206 96.9098L75.8106 95.0952H76.0692L79.1118 91.8636H80.8916L77.4214 95.5426H77.1878L75.8206 96.9098ZM74.4534 99.5V89.3182H75.9399V99.5H74.4534ZM79.2758 99.5L76.5415 95.8707L77.5656 94.8317L81.1004 99.5H79.2758ZM84.4687 99.669C83.9848 99.669 83.5473 99.5795 83.1562 99.4006C82.7651 99.2183 82.4552 98.9548 82.2265 98.6101C82.0011 98.2654 81.8884 97.8428 81.8884 97.3423C81.8884 96.9115 81.9713 96.5568 82.137 96.2784C82.3027 96 82.5264 95.7796 82.8081 95.6172C83.0899 95.4548 83.4047 95.3321 83.7528 95.2493C84.1008 95.1664 84.4554 95.1035 84.8167 95.0604C85.2741 95.0073 85.6453 94.9643 85.9303 94.9311C86.2153 94.8946 86.4225 94.8366 86.5518 94.7571C86.681 94.6776 86.7456 94.5483 86.7456 94.3693V94.3345C86.7456 93.9003 86.623 93.5639 86.3778 93.3253C86.1358 93.0866 85.7745 92.9673 85.2939 92.9673C84.7935 92.9673 84.3991 93.0784 84.1107 93.3004C83.8257 93.5192 83.6285 93.7628 83.5191 94.0312L82.1221 93.7131C82.2878 93.2491 82.5297 92.8745 82.8479 92.5895C83.1694 92.3011 83.539 92.0923 83.9566 91.9631C84.3742 91.8305 84.8134 91.7642 85.2741 91.7642C85.579 91.7642 85.9021 91.8007 86.2435 91.8736C86.5882 91.9432 86.9097 92.0724 87.208 92.2614C87.5096 92.4503 87.7565 92.7204 87.9488 93.0717C88.141 93.4197 88.2371 93.8722 88.2371 94.429V99.5H86.7854V98.456H86.7258C86.6296 98.6482 86.4855 98.8371 86.2932 99.0227C86.101 99.2083 85.8541 99.3625 85.5525 99.4851C85.2509 99.6077 84.8896 99.669 84.4687 99.669ZM84.7918 98.4759C85.2028 98.4759 85.5541 98.3946 85.8458 98.2322C86.1408 98.0698 86.3645 97.8577 86.517 97.5959C86.6727 97.3307 86.7506 97.0473 86.7506 96.7457V95.7614C86.6976 95.8144 86.5948 95.8641 86.4424 95.9105C86.2932 95.9536 86.1225 95.9917 85.9303 96.0249C85.7381 96.0547 85.5508 96.0829 85.3685 96.1094C85.1862 96.1326 85.0338 96.1525 84.9111 96.169C84.6228 96.2055 84.3593 96.2668 84.1206 96.353C83.8853 96.4392 83.6964 96.5634 83.5539 96.7259C83.4147 96.8849 83.3451 97.0971 83.3451 97.3622C83.3451 97.7301 83.481 98.0085 83.7528 98.1974C84.0245 98.383 84.3709 98.4759 84.7918 98.4759ZM90.2171 102.364V91.8636H91.6688V93.1016H91.7931C91.8792 92.9425 92.0035 92.7585 92.1659 92.5497C92.3283 92.3409 92.5537 92.1586 92.8421 92.0028C93.1304 91.8438 93.5116 91.7642 93.9855 91.7642C94.602 91.7642 95.1522 91.92 95.6361 92.2315C96.12 92.5431 96.4995 92.9922 96.7746 93.5788C97.053 94.1655 97.1922 94.8714 97.1922 95.6967C97.1922 96.522 97.0547 97.2296 96.7796 97.8196C96.5045 98.4062 96.1266 98.8587 95.646 99.1768C95.1655 99.4917 94.6169 99.6491 94.0004 99.6491C93.5364 99.6491 93.1569 99.5713 92.8619 99.4155C92.5703 99.2597 92.3416 99.0774 92.1759 98.8686C92.0102 98.6598 91.8825 98.4742 91.7931 98.3118H91.7036V102.364H90.2171ZM91.6737 95.6818C91.6737 96.2187 91.7516 96.6894 91.9074 97.0938C92.0632 97.4981 92.2886 97.8146 92.5835 98.0433C92.8785 98.2687 93.2398 98.3814 93.6673 98.3814C94.1115 98.3814 94.4827 98.2637 94.781 98.0284C95.0793 97.7898 95.3047 97.4666 95.4571 97.0589C95.6129 96.6513 95.6908 96.1922 95.6908 95.6818C95.6908 95.178 95.6146 94.7256 95.4621 94.3246C95.3129 93.9235 95.0876 93.607 94.786 93.375C94.4877 93.143 94.1148 93.027 93.6673 93.027C93.2365 93.027 92.8719 93.138 92.5736 93.3601C92.2786 93.5821 92.0549 93.892 91.9024 94.2898C91.75 94.6875 91.6737 95.1515 91.6737 95.6818ZM101.08 99.669C100.596 99.669 100.159 99.5795 99.7675 99.4006C99.3764 99.2183 99.0665 98.9548 98.8378 98.6101C98.6124 98.2654 98.4997 97.8428 98.4997 97.3423C98.4997 96.9115 98.5826 96.5568 98.7483 96.2784C98.914 96 99.1378 95.7796 99.4195 95.6172C99.7012 95.4548 100.016 95.3321 100.364 95.2493C100.712 95.1664 101.067 95.1035 101.428 95.0604C101.885 95.0073 102.257 94.9643 102.542 94.9311C102.827 94.8946 103.034 94.8366 103.163 94.7571C103.292 94.6776 103.357 94.5483 103.357 94.3693V94.3345C103.357 93.9003 103.234 93.5639 102.989 93.3253C102.747 93.0866 102.386 92.9673 101.905 92.9673C101.405 92.9673 101.01 93.0784 100.722 93.3004C100.437 93.5192 100.24 93.7628 100.13 94.0312L98.7334 93.7131C98.8991 93.2491 99.1411 92.8745 99.4593 92.5895C99.7807 92.3011 100.15 92.0923 100.568 91.9631C100.986 91.8305 101.425 91.7642 101.885 91.7642C102.19 91.7642 102.513 91.8007 102.855 91.8736C103.2 91.9432 103.521 92.0724 103.819 92.2614C104.121 92.4503 104.368 92.7204 104.56 93.0717C104.752 93.4197 104.848 93.8722 104.848 94.429V99.5H103.397V98.456H103.337C103.241 98.6482 103.097 98.8371 102.905 99.0227C102.712 99.2083 102.465 99.3625 102.164 99.4851C101.862 99.6077 101.501 99.669 101.08 99.669ZM101.403 98.4759C101.814 98.4759 102.165 98.3946 102.457 98.2322C102.752 98.0698 102.976 97.8577 103.128 97.5959C103.284 97.3307 103.362 97.0473 103.362 96.7457V95.7614C103.309 95.8144 103.206 95.8641 103.054 95.9105C102.905 95.9536 102.734 95.9917 102.542 96.0249C102.349 96.0547 102.162 96.0829 101.98 96.1094C101.798 96.1326 101.645 96.1525 101.522 96.169C101.234 96.2055 100.971 96.2668 100.732 96.353C100.497 96.4392 100.308 96.5634 100.165 96.7259C100.026 96.8849 99.9564 97.0971 99.9564 97.3622C99.9564 97.7301 100.092 98.0085 100.364 98.1974C100.636 98.383 100.982 98.4759 101.403 98.4759ZM108.315 94.9659V99.5H106.828V91.8636H108.255V93.1065H108.35C108.525 92.7022 108.8 92.3774 109.175 92.1321C109.553 91.8868 110.028 91.7642 110.602 91.7642C111.122 91.7642 111.578 91.8736 111.969 92.0923C112.36 92.3078 112.663 92.6293 112.879 93.0568C113.094 93.4844 113.202 94.013 113.202 94.6428V99.5H111.715V94.8217C111.715 94.2682 111.571 93.8357 111.283 93.5241C110.995 93.2093 110.599 93.0518 110.095 93.0518C109.75 93.0518 109.443 93.1264 109.175 93.2756C108.91 93.4247 108.699 93.6435 108.544 93.9318C108.391 94.2169 108.315 94.5616 108.315 94.9659ZM119.02 89.3182H120.884L124.126 97.233H124.245L127.487 89.3182H129.351V99.5H127.889V92.1321H127.795L124.792 99.4851H123.579L120.576 92.1271H120.482V99.5H119.02V89.3182ZM133.687 99.669C133.204 99.669 132.766 99.5795 132.375 99.4006C131.984 99.2183 131.674 98.9548 131.445 98.6101C131.22 98.2654 131.107 97.8428 131.107 97.3423C131.107 96.9115 131.19 96.5568 131.356 96.2784C131.521 96 131.745 95.7796 132.027 95.6172C132.309 95.4548 132.623 95.3321 132.972 95.2493C133.32 95.1664 133.674 95.1035 134.035 95.0604C134.493 95.0073 134.864 94.9643 135.149 94.9311C135.434 94.8946 135.641 94.8366 135.771 94.7571C135.9 94.6776 135.964 94.5483 135.964 94.3693V94.3345C135.964 93.9003 135.842 93.5639 135.597 93.3253C135.355 93.0866 134.993 92.9673 134.513 92.9673C134.012 92.9673 133.618 93.0784 133.329 93.3004C133.044 93.5192 132.847 93.7628 132.738 94.0312L131.341 93.7131C131.507 93.2491 131.748 92.8745 132.067 92.5895C132.388 92.3011 132.758 92.0923 133.175 91.9631C133.593 91.8305 134.032 91.7642 134.493 91.7642C134.798 91.7642 135.121 91.8007 135.462 91.8736C135.807 91.9432 136.128 92.0724 136.427 92.2614C136.728 92.4503 136.975 92.7204 137.168 93.0717C137.36 93.4197 137.456 93.8722 137.456 94.429V99.5H136.004V98.456H135.945C135.848 98.6482 135.704 98.8371 135.512 99.0227C135.32 99.2083 135.073 99.3625 134.771 99.4851C134.47 99.6077 134.108 99.669 133.687 99.669ZM134.011 98.4759C134.422 98.4759 134.773 98.3946 135.065 98.2322C135.36 98.0698 135.583 97.8577 135.736 97.5959C135.891 97.3307 135.969 97.0473 135.969 96.7457V95.7614C135.916 95.8144 135.814 95.8641 135.661 95.9105C135.512 95.9536 135.341 95.9917 135.149 96.0249C134.957 96.0547 134.77 96.0829 134.587 96.1094C134.405 96.1326 134.253 96.1525 134.13 96.169C133.842 96.2055 133.578 96.2668 133.339 96.353C133.104 96.4392 132.915 96.5634 132.773 96.7259C132.633 96.8849 132.564 97.0971 132.564 97.3622C132.564 97.7301 132.7 98.0085 132.972 98.1974C133.243 98.383 133.59 98.4759 134.011 98.4759ZM145.158 93.728L143.811 93.9666C143.754 93.7943 143.665 93.6302 143.542 93.4744C143.423 93.3187 143.261 93.1911 143.055 93.0916C142.85 92.9922 142.593 92.9425 142.285 92.9425C141.864 92.9425 141.512 93.0369 141.231 93.2259C140.949 93.4115 140.808 93.6518 140.808 93.9467C140.808 94.2019 140.902 94.4074 141.091 94.5632C141.28 94.719 141.585 94.8466 142.006 94.946L143.219 95.2244C143.922 95.3868 144.446 95.6371 144.79 95.9751C145.135 96.3132 145.307 96.7524 145.307 97.2926C145.307 97.75 145.175 98.1577 144.91 98.5156C144.648 98.8703 144.281 99.1487 143.811 99.3509C143.343 99.553 142.802 99.6541 142.185 99.6541C141.33 99.6541 140.632 99.4718 140.092 99.1072C139.552 98.7393 139.22 98.2173 139.098 97.5412L140.535 97.3224C140.624 97.697 140.808 97.9804 141.086 98.1726C141.365 98.3615 141.728 98.456 142.175 98.456C142.662 98.456 143.052 98.3549 143.343 98.1527C143.635 97.9472 143.781 97.697 143.781 97.402C143.781 97.1634 143.691 96.9628 143.513 96.8004C143.337 96.638 143.067 96.5154 142.702 96.4325L141.41 96.1491C140.697 95.9867 140.17 95.7282 139.829 95.3736C139.491 95.0189 139.321 94.5698 139.321 94.0263C139.321 93.5755 139.447 93.1811 139.699 92.843C139.951 92.505 140.299 92.2415 140.743 92.0526C141.187 91.8603 141.696 91.7642 142.27 91.7642C143.095 91.7642 143.745 91.9432 144.218 92.3011C144.692 92.6558 145.006 93.1314 145.158 93.728ZM149.164 99.669C148.68 99.669 148.243 99.5795 147.851 99.4006C147.46 99.2183 147.15 98.9548 146.922 98.6101C146.696 98.2654 146.584 97.8428 146.584 97.3423C146.584 96.9115 146.667 96.5568 146.832 96.2784C146.998 96 147.222 95.7796 147.503 95.6172C147.785 95.4548 148.1 95.3321 148.448 95.2493C148.796 95.1664 149.151 95.1035 149.512 95.0604C149.969 95.0073 150.341 94.9643 150.626 94.9311C150.911 94.8946 151.118 94.8366 151.247 94.7571C151.376 94.6776 151.441 94.5483 151.441 94.3693V94.3345C151.441 93.9003 151.318 93.5639 151.073 93.3253C150.831 93.0866 150.47 92.9673 149.989 92.9673C149.489 92.9673 149.094 93.0784 148.806 93.3004C148.521 93.5192 148.324 93.7628 148.214 94.0312L146.817 93.7131C146.983 93.2491 147.225 92.8745 147.543 92.5895C147.865 92.3011 148.234 92.0923 148.652 91.9631C149.07 91.8305 149.509 91.7642 149.969 91.7642C150.274 91.7642 150.597 91.8007 150.939 91.8736C151.284 91.9432 151.605 92.0724 151.903 92.2614C152.205 92.4503 152.452 92.7204 152.644 93.0717C152.836 93.4197 152.932 93.8722 152.932 94.429V99.5H151.481V98.456H151.421C151.325 98.6482 151.181 98.8371 150.989 99.0227C150.796 99.2083 150.549 99.3625 150.248 99.4851C149.946 99.6077 149.585 99.669 149.164 99.669ZM149.487 98.4759C149.898 98.4759 150.249 98.3946 150.541 98.2322C150.836 98.0698 151.06 97.8577 151.212 97.5959C151.368 97.3307 151.446 97.0473 151.446 96.7457V95.7614C151.393 95.8144 151.29 95.8641 151.138 95.9105C150.989 95.9536 150.818 95.9917 150.626 96.0249C150.433 96.0547 150.246 96.0829 150.064 96.1094C149.882 96.1326 149.729 96.1525 149.606 96.169C149.318 96.2055 149.055 96.2668 148.816 96.353C148.581 96.4392 148.392 96.5634 148.249 96.7259C148.11 96.8849 148.04 97.0971 148.04 97.3622C148.04 97.7301 148.176 98.0085 148.448 98.1974C148.72 98.383 149.066 98.4759 149.487 98.4759ZM156.28 96.9098L156.27 95.0952H156.528L159.571 91.8636H161.351L157.88 95.5426H157.647L156.28 96.9098ZM154.912 99.5V89.3182H156.399V99.5H154.912ZM159.735 99.5L157 95.8707L158.025 94.8317L161.559 99.5H159.735Z" fill="#252525"/>
</g>
<defs>
<linearGradient id="paint0_linear_103_3097" x1="56" y1="46.3214" x2="128" y2="46.3214" gradientUnits="userSpaceOnUse">
<stop stop-color="#E0F9FF"/>
<stop offset="1" stop-color="#DAEEFC"/>
</linearGradient>
<linearGradient id="paint1_linear_103_3097" x1="111.471" y1="58.0637" x2="111.471" y2="25.5859" gradientUnits="userSpaceOnUse">
<stop stop-color="#53688C"/>
<stop offset="1" stop-color="#223551"/>
</linearGradient>
<linearGradient id="paint2_linear_103_3097" x1="94.0499" y1="52.0967" x2="94.0499" y2="25.5859" gradientUnits="userSpaceOnUse">
<stop stop-color="#53688C"/>
<stop offset="1" stop-color="#223551"/>
</linearGradient>
<linearGradient id="paint3_linear_103_3097" x1="76.2414" y1="52.0967" x2="76.2414" y2="25.5859" gradientUnits="userSpaceOnUse">
<stop stop-color="#53688C"/>
<stop offset="1" stop-color="#223551"/>
</linearGradient>
<clipPath id="clip0_103_3097">
<rect y="0.5" width="184" height="109" rx="8" fill="white"/>
</clipPath>
</defs>
</svg>
