<svg width="24" height="24" viewBox="0 0 24 24" fill="none" xmlns="http://www.w3.org/2000/svg">
<path d="M21 13.8746C20.0599 13.1684 18.8913 12.75 17.625 12.75C14.5184 12.75 12 15.2684 12 18.375C12 20.0048 12.6931 21.4727 13.8007 22.5H3.75C3.33579 22.5 3 22.1642 3 21.75V2.25C3 1.83579 3.33579 1.5 3.75 1.5H20.25C20.6642 1.5 21 1.83579 21 2.25V13.8746ZM6.75 9H17.25V7.5H6.75V9ZM6.75 12.75H14.25V11.25H6.75V12.75ZM17.625 22.5C15.3468 22.5 13.5 20.6532 13.5 18.375C13.5 16.0968 15.3468 14.25 17.625 14.25C19.9032 14.25 21.75 16.0968 21.75 18.375C21.75 20.6532 19.9032 22.5 17.625 22.5ZM15.7498 18.5907V19.7157H18.5623V16.1532H17.4373V18.5907H15.7498Z" fill="#316093"/>
</svg>
