<svg width="51" height="51" viewBox="0 0 51 51" fill="none" xmlns="http://www.w3.org/2000/svg">
<path d="M41.6764 13.8499H14.3436C13.4209 13.8499 12.6702 14.5901 12.6702 15.5V17.1451L8.61248 12.9217C8.45559 12.7582 8.21371 12.706 8.00125 12.7888C7.78936 12.8723 7.6499 13.0748 7.6499 13.2999V24.8507C7.6499 25.0156 7.72507 25.1719 7.85476 25.2764L12.6702 29.1615V35.3015C12.6702 36.2114 13.4209 36.9516 14.3436 36.9516H16.344L17.5271 38.1183C17.8431 38.4301 18.2636 38.6017 18.7103 38.6017H27.1734C27.2241 38.6017 27.2736 38.595 27.3204 38.5824C27.4 38.5953 27.4816 38.6017 27.5639 38.6017H28.8021C29.4204 38.6017 29.952 38.2518 30.1885 37.6883C30.2903 37.4462 30.3214 37.1947 30.2936 36.9516H41.6765C42.5992 36.9516 43.3499 36.2114 43.3499 35.3015V15.5C43.3498 14.5901 42.5992 13.8499 41.6764 13.8499ZM23.2686 14.95H25.4999V18.8725L24.6937 18.3427C24.5063 18.2196 24.2622 18.2196 24.0749 18.3427L23.2687 18.8725V14.95H23.2686ZM13.7858 15.5C13.7858 15.1968 14.0359 14.95 14.3436 14.95H22.153V19.9004C22.153 20.1031 22.2663 20.2895 22.4477 20.3854C22.6286 20.4808 22.8492 20.4703 23.0203 20.3581L24.3842 19.4613L25.7483 20.3581C25.8415 20.4196 25.9493 20.4505 26.0578 20.4505C26.1482 20.4505 26.2386 20.429 26.3208 20.3855C26.5023 20.2896 26.6156 20.1033 26.6156 19.9004V14.9501H34.9827V35.8516H29.6356L25.4389 31.7132L24.954 30.0408L25.9035 30.977C26.5986 31.6621 27.7142 31.7395 28.4981 31.1589C28.941 30.8314 29.227 30.3319 29.2825 29.7888C29.3375 29.2458 29.1589 28.7003 28.7906 28.2923L25.8822 25.0659C25.4606 24.5981 24.8832 24.2836 24.2562 24.1804L18.5245 23.2386L13.7858 18.3064V15.5V15.5ZM13.7858 35.3015V30.2338C13.8616 30.3744 13.9216 30.5236 13.9536 30.6815L14.78 34.7558C14.8607 35.1552 15.0287 35.5277 15.2719 35.8516H14.3436C14.0359 35.8515 13.7858 35.6047 13.7858 35.3015ZM29.1578 37.2675C29.1284 37.3378 29.0342 37.5016 28.802 37.5016H27.5639C27.4609 37.5016 27.3646 37.4622 27.2916 37.3905L23.6631 33.8125C23.5542 33.7051 23.4114 33.6514 23.2687 33.6514C23.126 33.6514 22.9832 33.7051 22.8743 33.8125C22.6564 34.0274 22.6564 34.3755 22.8743 34.5903L25.8267 37.5016H24.5422L21.3588 34.3626C21.1409 34.1477 20.7879 34.1477 20.5701 34.3626C20.3522 34.5774 20.3522 34.9255 20.5701 35.1403L22.9647 37.5016H21.7532L18.5698 34.3626C18.3519 34.1477 17.9988 34.1477 17.781 34.3626C17.5632 34.5774 17.5631 34.9255 17.781 35.1403L20.1756 37.5016H18.7103C18.5637 37.5016 18.4199 37.4429 18.3159 37.3405L16.3314 35.3836C16.0966 35.1521 15.9386 34.8608 15.8739 34.5403L15.0475 30.4655C14.9211 29.8429 14.5768 29.2786 14.0784 28.8766L8.76559 24.5901V14.6803L17.8436 24.1288C17.9269 24.2158 18.0369 24.2735 18.1568 24.2932L24.0726 25.2655C24.449 25.3272 24.7955 25.5161 25.0488 25.7969L27.9572 29.0233C28.1206 29.2046 28.1969 29.4372 28.1723 29.6786C28.1478 29.92 28.0258 30.1333 27.8286 30.2789C27.486 30.5329 26.9973 30.4991 26.6923 30.1991L25.4895 29.0125C25.155 28.683 24.656 28.6199 24.2475 28.857C23.8395 29.0936 23.6532 29.5543 23.7829 30.0027L24.4055 32.1524C24.4317 32.2422 24.4807 32.3241 24.5477 32.3901L29.0745 36.8538C29.2384 37.0155 29.1872 37.1968 29.1578 37.2675ZM42.2342 35.3015C42.2342 35.6047 41.9842 35.8515 41.6764 35.8515H36.0983V14.95H41.6764C41.9842 14.95 42.2342 15.1968 42.2342 15.5V35.3015Z" fill="#505050"/>
</svg>
