<svg width="51" height="51" viewBox="0 0 51 51" fill="none" xmlns="http://www.w3.org/2000/svg">
<path d="M41.6765 13.8499H14.3438C13.421 13.8499 12.6703 14.5901 12.6703 15.5V17.1451L8.6126 12.9217C8.45571 12.7582 8.21383 12.706 8.00138 12.7888C7.78948 12.8723 7.65002 13.0748 7.65002 13.2999V24.8507C7.65002 25.0156 7.72519 25.1719 7.85488 25.2764L12.6703 29.1615V35.3015C12.6703 36.2114 13.421 36.9516 14.3438 36.9516H16.3441L17.5273 38.1183C17.8432 38.4301 18.2637 38.6017 18.7104 38.6017H27.1735C27.2242 38.6017 27.2738 38.595 27.3205 38.5824C27.4001 38.5953 27.4818 38.6017 27.564 38.6017H28.8022C29.4205 38.6017 29.9522 38.2518 30.1886 37.6883C30.2904 37.4462 30.3215 37.1947 30.2937 36.9516H41.6766C42.5994 36.9516 43.35 36.2114 43.35 35.3015V15.5C43.35 14.5901 42.5994 13.8499 41.6765 13.8499ZM23.2687 14.95H25.5V18.8725L24.6938 18.3427C24.5064 18.2196 24.2623 18.2196 24.075 18.3427L23.2688 18.8725V14.95H23.2687ZM13.786 15.5C13.786 15.1968 14.036 14.95 14.3438 14.95H22.1531V19.9004C22.1531 20.1031 22.2664 20.2895 22.4479 20.3854C22.6287 20.4808 22.8493 20.4703 23.0204 20.3581L24.3844 19.4613L25.7484 20.3581C25.8416 20.4196 25.9494 20.4505 26.0579 20.4505C26.1483 20.4505 26.2387 20.429 26.321 20.3855C26.5024 20.2896 26.6157 20.1033 26.6157 19.9004V14.9501H34.9829V35.8516H29.6357L25.439 31.7132L24.9542 30.0408L25.9036 30.977C26.5987 31.6621 27.7144 31.7395 28.4982 31.1589C28.9411 30.8314 29.2271 30.3319 29.2826 29.7888C29.3377 29.2458 29.159 28.7003 28.7907 28.2923L25.8824 25.0659C25.4607 24.5981 24.8833 24.2836 24.2563 24.1804L18.5246 23.2386L13.786 18.3064V15.5V15.5ZM13.786 35.3015V30.2338C13.8617 30.3744 13.9217 30.5236 13.9537 30.6815L14.7801 34.7558C14.8608 35.1552 15.0288 35.5277 15.272 35.8516H14.3438C14.036 35.8515 13.786 35.6047 13.786 35.3015ZM29.1579 37.2675C29.1285 37.3378 29.0343 37.5016 28.8022 37.5016H27.564C27.461 37.5016 27.3647 37.4622 27.2917 37.3905L23.6632 33.8125C23.5543 33.7051 23.4115 33.6514 23.2688 33.6514C23.1261 33.6514 22.9834 33.7051 22.8744 33.8125C22.6565 34.0274 22.6565 34.3755 22.8744 34.5903L25.8269 37.5016H24.5424L21.3589 34.3626C21.141 34.1477 20.788 34.1477 20.5702 34.3626C20.3524 34.5774 20.3523 34.9255 20.5702 35.1403L22.9648 37.5016H21.7533L18.5699 34.3626C18.352 34.1477 17.999 34.1477 17.7811 34.3626C17.5633 34.5774 17.5632 34.9255 17.7811 35.1403L20.1758 37.5016H18.7104C18.5638 37.5016 18.42 37.4429 18.316 37.3405L16.3315 35.3836C16.0968 35.1521 15.9388 34.8608 15.874 34.5403L15.0476 30.4655C14.9212 29.8429 14.5769 29.2786 14.0785 28.8766L8.76572 24.5901V14.6803L17.8437 24.1288C17.927 24.2158 18.037 24.2735 18.1569 24.2932L24.0728 25.2655C24.4491 25.3272 24.7956 25.5161 25.0489 25.7969L27.9573 29.0233C28.1207 29.2046 28.197 29.4372 28.1725 29.6786C28.1479 29.92 28.0259 30.1333 27.8287 30.2789C27.4861 30.5329 26.9974 30.4991 26.6924 30.1991L25.4896 29.0125C25.1551 28.683 24.6562 28.6199 24.2476 28.857C23.8396 29.0936 23.6534 29.5543 23.783 30.0027L24.4056 32.1524C24.4318 32.2422 24.4808 32.3241 24.5478 32.3901L29.0746 36.8538C29.2385 37.0155 29.1873 37.1968 29.1579 37.2675ZM42.2343 35.3015C42.2343 35.6047 41.9843 35.8515 41.6765 35.8515H36.0984V14.95H41.6765C41.9843 14.95 42.2343 15.1968 42.2343 15.5V35.3015Z" fill="white"/>
</svg>
