<svg width="19" height="22" viewBox="0 0 19 22" fill="none" xmlns="http://www.w3.org/2000/svg">
<path d="M14.5001 14.0002C13.9999 13.9994 13.5046 14.0995 13.0439 14.2944C12.5833 14.4893 12.1666 14.7751 11.8188 15.1346L7.49696 12.3596C7.83433 11.4848 7.83433 10.5157 7.49696 9.64087L11.8188 6.86587C12.4268 7.48767 13.232 7.87882 14.0966 7.97238C14.9612 8.06594 15.8315 7.85609 16.5584 7.37875C17.2854 6.9014 17.8238 6.18625 18.0816 5.35568C18.3393 4.52511 18.3004 3.63077 17.9715 2.82573C17.6425 2.02069 17.044 1.355 16.2784 0.942603C15.5127 0.530206 14.6275 0.396739 13.7743 0.565046C12.9211 0.733353 12.1529 1.19297 11.6012 1.86523C11.0496 2.53749 10.7487 3.38059 10.7501 4.25024C10.7516 4.71494 10.8374 5.17552 11.0032 5.60962L6.68133 8.38462C6.16101 7.85005 5.49306 7.48282 4.76292 7.32989C4.03277 7.17696 3.2736 7.24527 2.58249 7.52609C1.89137 7.80691 1.29972 8.28748 0.883176 8.90635C0.466636 9.52521 0.244141 10.2543 0.244141 11.0002C0.244141 11.7462 0.466636 12.4753 0.883176 13.0941C1.29972 13.713 1.89137 14.1936 2.58249 14.4744C3.2736 14.7552 4.03277 14.8235 4.76292 14.6706C5.49306 14.5177 6.16101 14.1504 6.68133 13.6159L11.0032 16.3909C10.8374 16.825 10.7516 17.2855 10.7501 17.7502C10.7501 18.4919 10.97 19.2169 11.3821 19.8336C11.7941 20.4503 12.3798 20.931 13.065 21.2148C13.7502 21.4986 14.5042 21.5729 15.2317 21.4282C15.9591 21.2835 16.6273 20.9263 17.1517 20.4019C17.6762 19.8774 18.0333 19.2093 18.178 18.4818C18.3227 17.7544 18.2485 17.0004 17.9646 16.3152C17.6808 15.63 17.2002 15.0443 16.5835 14.6322C15.9668 14.2202 15.2418 14.0002 14.5001 14.0002Z" fill="#6999B8"/>
</svg>
