<svg width="24" height="24" viewBox="0 0 24 24" fill="none" xmlns="http://www.w3.org/2000/svg">
<path fill-rule="evenodd" clip-rule="evenodd" d="M10.8001 2.40039C10.5773 2.40051 10.3589 2.46265 10.1695 2.57985C9.97999 2.69706 9.82689 2.86469 9.7273 3.06399L8.8585 4.80039H4.8001C4.48184 4.80039 4.17661 4.92682 3.95157 5.15186C3.72653 5.37691 3.6001 5.68213 3.6001 6.00039C3.6001 6.31865 3.72653 6.62388 3.95157 6.84892C4.17661 7.07396 4.48184 7.20039 4.8001 7.20039V19.2004C4.8001 19.8369 5.05295 20.4474 5.50304 20.8974C5.95313 21.3475 6.56358 21.6004 7.2001 21.6004H16.8001C17.4366 21.6004 18.0471 21.3475 18.4972 20.8974C18.9472 20.4474 19.2001 19.8369 19.2001 19.2004V7.20039C19.5184 7.20039 19.8236 7.07396 20.0486 6.84892C20.2737 6.62388 20.4001 6.31865 20.4001 6.00039C20.4001 5.68213 20.2737 5.37691 20.0486 5.15186C19.8236 4.92682 19.5184 4.80039 19.2001 4.80039H15.1417L14.2729 3.06399C14.1733 2.86469 14.0202 2.69706 13.8307 2.57985C13.6413 2.46265 13.4229 2.40051 13.2001 2.40039H10.8001ZM8.4001 9.60039C8.4001 9.28213 8.52653 8.97691 8.75157 8.75186C8.97661 8.52682 9.28184 8.40039 9.6001 8.40039C9.91836 8.40039 10.2236 8.52682 10.4486 8.75186C10.6737 8.97691 10.8001 9.28213 10.8001 9.60039V16.8004C10.8001 17.1187 10.6737 17.4239 10.4486 17.6489C10.2236 17.874 9.91836 18.0004 9.6001 18.0004C9.28184 18.0004 8.97661 17.874 8.75157 17.6489C8.52653 17.4239 8.4001 17.1187 8.4001 16.8004V9.60039ZM14.4001 8.40039C14.0818 8.40039 13.7766 8.52682 13.5516 8.75186C13.3265 8.97691 13.2001 9.28213 13.2001 9.60039V16.8004C13.2001 17.1187 13.3265 17.4239 13.5516 17.6489C13.7766 17.874 14.0818 18.0004 14.4001 18.0004C14.7184 18.0004 15.0236 17.874 15.2486 17.6489C15.4737 17.4239 15.6001 17.1187 15.6001 16.8004V9.60039C15.6001 9.28213 15.4737 8.97691 15.2486 8.75186C15.0236 8.52682 14.7184 8.40039 14.4001 8.40039Z" fill="#EF0909"/>
</svg>
