<svg width="206" height="53" viewBox="0 0 206 53" fill="none" xmlns="http://www.w3.org/2000/svg">
<path d="M25.6484 29.4418C25.6484 29.9433 26.0473 30.3465 26.5433 30.3465H28.2359C28.732 30.3465 29.1308 29.9335 29.1308 29.4418V27.7308C29.1308 27.2293 28.7223 26.8262 28.2359 26.8262H26.5433C26.0473 26.8262 25.6484 27.2392 25.6484 27.7308V29.4418Z" fill="#2F6295"/>
<path d="M22.565 30.3465C23.0611 30.3465 23.4599 29.9335 23.4599 29.4418V27.7308C23.4599 27.2293 23.0514 26.8262 22.565 26.8262H20.8724C20.3764 26.8262 19.9775 27.2392 19.9775 27.7308V29.4418C19.9775 29.9433 20.3764 30.3465 20.8724 30.3465H22.565Z" fill="#2F6295"/>
<path d="M26.5433 32.5684C26.0473 32.5684 25.6484 32.9814 25.6484 33.473V35.184C25.6484 35.6855 26.0473 36.0887 26.5433 36.0887H28.2359C28.732 36.0887 29.1308 35.6757 29.1308 35.184V33.473C29.1308 32.9715 28.7223 32.5684 28.2359 32.5684H26.5433Z" fill="#2F6295"/>
<path d="M23.4599 33.473C23.4599 32.9715 23.0514 32.5684 22.565 32.5684H20.8724C20.3764 32.5684 19.9775 32.9814 19.9775 33.473V35.184C19.9775 35.6855 20.3764 36.0887 20.8724 36.0887H22.565C23.0611 36.0887 23.4599 35.6757 23.4599 35.184V33.473Z" fill="#2F6295"/>
<path d="M48.6443 21.8398L25.7852 1.11111C25.1043 0.491609 24.0051 0.491609 23.3242 1.11111L16.4568 7.34544V5.24111C16.4568 4.55278 15.9023 3.98244 15.2117 3.98244H12.9355C12.2546 3.98244 11.6904 4.54294 11.6904 5.24111V11.6524L0.465119 21.8398C-0.21579 22.4593 -0.021245 22.9608 0.883391 22.9608H3.04285C3.95721 22.9608 4.69648 23.7179 4.69648 24.6324V45.8233C4.69648 46.7476 5.43576 47.4949 6.35012 47.4949H9.8033V30.2669C9.8033 22.0364 16.4081 15.3596 24.5498 15.3596C32.7013 15.3596 39.2964 22.0364 39.2964 30.2669C39.2964 38.4974 32.6916 45.1644 24.5498 45.1743C21.5149 45.1841 18.7427 43.9746 18.7427 43.9746L13.3246 47.4949H42.7496C43.6639 47.4949 44.4032 46.7476 44.4032 45.8233V24.6324C44.4032 23.7081 45.1522 22.9608 46.0568 22.9608H48.2163C49.1307 22.9608 49.3155 22.4494 48.6443 21.8398Z" fill="#2F6295"/>
<path d="M54.3152 47.4945H49.0625V28.7227H54.3152V47.4945ZM61.8149 40.1785H53.9067V35.783H61.8149V40.1785ZM61.4453 28.7227H66.698V47.4945H61.4453V28.7227Z" fill="#2F6295"/>
<path d="M77.3879 47.7402C75.8121 47.7402 74.4211 47.4157 73.1954 46.7766C71.9795 46.1374 71.0165 45.2426 70.3162 44.1117C69.6158 42.9809 69.2656 41.6829 69.2656 40.2374C69.2656 38.7722 69.6158 37.4742 70.3162 36.3336C71.0165 35.2027 71.9698 34.3079 73.1954 33.6687C74.4113 33.0296 75.8121 32.7051 77.3879 32.7051C78.9637 32.7051 80.3644 33.0296 81.5901 33.6687C82.8157 34.3079 83.7787 35.2027 84.4791 36.3336C85.1794 37.4644 85.5296 38.7722 85.5296 40.2374C85.5296 41.6829 85.1794 42.9809 84.4791 44.1117C83.7787 45.2426 82.8157 46.1374 81.5901 46.7766C80.3644 47.4157 78.9637 47.7402 77.3879 47.7402ZM77.3879 43.6889C77.9521 43.6889 78.4579 43.5512 78.9151 43.2857C79.3625 43.0202 79.7322 42.6171 80.0045 42.0959C80.2769 41.5649 80.4131 40.9356 80.4131 40.2079C80.4131 39.4606 80.2769 38.8312 80.0045 38.3297C79.7322 37.8282 79.3723 37.4447 78.9151 37.1792C78.4676 36.9137 77.9521 36.7761 77.3879 36.7761C76.8237 36.7761 76.3179 36.9137 75.8607 37.1792C75.4133 37.4447 75.0436 37.8282 74.7713 38.3297C74.4989 38.8312 74.3627 39.4606 74.3627 40.2079C74.3627 40.9454 74.4989 41.5747 74.7713 42.0959C75.0436 42.6269 75.4035 43.0202 75.8607 43.2857C76.3179 43.5512 76.8237 43.6889 77.3879 43.6889Z" fill="#2F6295"/>
<path d="M106.57 32.6953C107.688 32.6953 108.681 32.9313 109.556 33.3935C110.431 33.8556 111.122 34.5636 111.628 35.5076C112.134 36.4516 112.387 37.6808 112.387 39.1853V47.4945H107.348V40.0113C107.348 38.9788 107.153 38.2216 106.764 37.7496C106.375 37.2776 105.84 37.0416 105.169 37.0416C104.673 37.0416 104.235 37.1596 103.856 37.3858C103.476 37.6218 103.175 37.9758 102.971 38.4478C102.757 38.9198 102.65 39.5393 102.65 40.3161V47.5043H97.6109V40.0211C97.6109 38.9886 97.4164 38.2315 97.037 37.7595C96.6576 37.2875 96.1226 37.0515 95.432 37.0515C94.9554 37.0515 94.5176 37.1695 94.1285 37.3956C93.7395 37.6316 93.4379 37.9856 93.2142 38.4576C92.9905 38.9296 92.8835 39.5491 92.8835 40.326V47.5141H87.8447V32.9313H92.6695V37.0121L91.7162 35.8616C92.2317 34.8291 92.9418 34.0425 93.8659 33.5016C94.79 32.9608 95.8114 32.6953 96.9397 32.6953C98.2529 32.6953 99.391 33.0296 100.364 33.6983C101.336 34.367 101.988 35.4191 102.329 36.845L100.685 36.4713C101.2 35.311 101.969 34.3866 103.01 33.7081C104.041 33.0296 105.227 32.6953 106.57 32.6953Z" fill="#2F6295"/>
<path d="M123.126 47.7403C121.414 47.7403 119.916 47.4158 118.651 46.757C117.387 46.108 116.404 45.2131 115.704 44.0725C115.003 42.9416 114.653 41.6535 114.653 40.2276C114.653 38.7625 114.994 37.4645 115.675 36.3238C116.356 35.193 117.289 34.2981 118.486 33.659C119.682 33.0198 121.034 32.6953 122.562 32.6953C123.972 32.6953 125.266 32.9903 126.423 33.5901C127.581 34.19 128.515 35.0455 129.205 36.1665C129.906 37.2875 130.256 38.6445 130.256 40.2571C130.256 40.4341 130.246 40.6406 130.227 40.8766C130.207 41.1126 130.188 41.3191 130.178 41.5158H118.797V38.8313H127.503L125.597 39.5786C125.616 38.9395 125.499 38.3691 125.237 37.8775C124.984 37.3858 124.634 37.0023 124.186 36.7368C123.748 36.4713 123.223 36.3336 122.62 36.3336C121.997 36.3336 121.462 36.4713 121.005 36.7368C120.548 37.0023 120.198 37.3858 119.955 37.8775C119.712 38.3691 119.595 38.9493 119.595 39.6081V40.385C119.595 41.1028 119.741 41.7125 120.032 42.2336C120.324 42.7548 120.743 43.1481 121.297 43.4235C121.842 43.6988 122.503 43.8365 123.262 43.8365C123.992 43.8365 124.595 43.7381 125.091 43.5316C125.587 43.3251 126.083 43.0105 126.579 42.5778L129.205 45.3901C128.534 46.1375 127.698 46.7176 126.686 47.1208C125.674 47.524 124.488 47.7403 123.126 47.7403Z" fill="#2F6295"/>
<path d="M132.601 52.6962V32.9312H137.425V35.4289L137.377 40.2571L137.639 45.0557V52.6962H132.601ZM141.647 47.7402C140.431 47.7402 139.38 47.4649 138.515 46.9241C137.649 46.3832 136.988 45.5474 136.54 44.4461C136.093 43.3349 135.859 41.9386 135.859 40.2669C135.859 38.5166 136.073 37.0907 136.491 35.9894C136.919 34.8881 137.561 34.0719 138.417 33.5212C139.273 32.9804 140.353 32.7051 141.637 32.7051C142.95 32.7051 144.137 33.0197 145.207 33.6392C146.277 34.2686 147.123 35.1339 147.756 36.2549C148.388 37.3759 148.699 38.7132 148.699 40.2669C148.699 41.7911 148.388 43.1087 147.756 44.2396C147.123 45.3704 146.277 46.2357 145.207 46.8454C144.137 47.4354 142.95 47.7402 141.647 47.7402ZM140.587 43.6889C141.151 43.6889 141.657 43.5512 142.114 43.2857C142.571 43.0202 142.931 42.6269 143.203 42.1057C143.476 41.5846 143.612 40.9749 143.612 40.2571C143.612 39.4901 143.476 38.8509 143.203 38.3396C142.931 37.8282 142.571 37.4447 142.114 37.1694C141.657 36.8941 141.151 36.7662 140.587 36.7662C140.022 36.7662 139.517 36.9039 139.059 37.1694C138.612 37.4349 138.242 37.8282 137.97 38.3396C137.698 38.8509 137.561 39.4901 137.561 40.2571C137.561 40.9749 137.698 41.5846 137.97 42.1057C138.242 42.6269 138.602 43.0202 139.059 43.2857C139.507 43.5512 140.013 43.6889 140.587 43.6889Z" fill="#2F6295"/>
<path d="M158.251 47.7402C156.675 47.7402 155.284 47.4157 154.059 46.7766C152.843 46.1374 151.88 45.2426 151.179 44.1117C150.479 42.9809 150.129 41.6829 150.129 40.2374C150.129 38.7722 150.479 37.4742 151.179 36.3336C151.88 35.2027 152.833 34.3079 154.059 33.6687C155.275 33.0296 156.675 32.7051 158.251 32.7051C159.827 32.7051 161.228 33.0296 162.453 33.6687C163.679 34.3079 164.642 35.2027 165.342 36.3336C166.043 37.4644 166.393 38.7722 166.393 40.2374C166.393 41.6829 166.043 42.9809 165.342 44.1117C164.642 45.2426 163.679 46.1374 162.453 46.7766C161.228 47.4157 159.827 47.7402 158.251 47.7402ZM158.251 43.6889C158.815 43.6889 159.321 43.5512 159.778 43.2857C160.236 43.0202 160.595 42.6171 160.868 42.0959C161.14 41.5649 161.276 40.9356 161.276 40.2079C161.276 39.4606 161.14 38.8312 160.868 38.3297C160.595 37.8282 160.236 37.4447 159.778 37.1792C159.321 36.9137 158.815 36.7761 158.251 36.7761C157.687 36.7761 157.181 36.9137 156.724 37.1792C156.277 37.4447 155.907 37.8282 155.635 38.3297C155.362 38.8312 155.226 39.4606 155.226 40.2079C155.226 40.9454 155.362 41.5747 155.635 42.0959C155.907 42.6269 156.267 43.0202 156.724 43.2857C157.171 43.5512 157.687 43.6889 158.251 43.6889Z" fill="#2F6295"/>
<path d="M171.217 31.3477C170.284 31.3477 169.535 31.092 168.98 30.5708C168.426 30.0497 168.144 29.4105 168.144 28.6435C168.144 27.8765 168.426 27.2373 168.98 26.726C169.535 26.2146 170.284 25.959 171.217 25.959C172.141 25.959 172.881 26.2048 173.445 26.6867C174.009 27.1685 174.291 27.788 174.291 28.5353C174.291 29.3417 174.009 30.0103 173.455 30.5512C172.91 31.0822 172.161 31.3477 171.217 31.3477ZM168.698 47.494V32.9308H173.737V47.494H168.698Z" fill="#2F6295"/>
<path d="M186.372 32.6953C187.491 32.6953 188.493 32.9313 189.397 33.3935C190.302 33.8556 191.012 34.5636 191.537 35.5076C192.063 36.4516 192.316 37.6808 192.316 39.1853V47.4945H187.248V40.0113C187.248 38.9788 187.043 38.2216 186.625 37.7496C186.207 37.2776 185.652 37.0416 184.942 37.0416C184.398 37.0416 183.902 37.1596 183.454 37.4055C183.016 37.6513 182.666 38.0151 182.423 38.5166C182.18 39.0181 182.053 39.677 182.053 40.503V47.5043H177.015V32.9313H181.839V37.0908L180.886 35.8813C181.431 34.8488 182.19 34.0523 183.143 33.5115C184.086 32.9608 185.166 32.6953 186.372 32.6953Z" fill="#2F6295"/>
<path d="M193.96 37.3064V33.5009H204.388V37.3064H193.96ZM201.888 47.7395C200.049 47.7395 198.619 47.2774 197.588 46.3629C196.567 45.4385 196.051 44.052 196.051 42.1935V29.6855H201.09V42.105C201.09 42.6557 201.226 43.0785 201.499 43.3637C201.771 43.6489 202.141 43.7964 202.598 43.7964C203.181 43.7964 203.697 43.6489 204.135 43.344L205.409 46.884C204.952 47.1889 204.417 47.4052 203.804 47.5429C203.191 47.6805 202.559 47.7395 201.888 47.7395Z" fill="#2F6295"/>
</svg>
